<?xml version="1.0" standalone="no"?>
<!DOCTYPE svg PUBLIC "-//W3C//DTD SVG 1.1//EN" "http://www.w3.org/Graphics/SVG/1.1/DTD/svg11.dtd" >
<svg xmlns="http://www.w3.org/2000/svg" xmlns:xlink="http://www.w3.org/1999/xlink" version="1.1">
<metadata></metadata>
<defs>
<font id="db_admanrounded_xlightit" horiz-adv-x="0" >
<font-face units-per-em="2048" ascent="1638" descent="-410" />
<missing-glyph horiz-adv-x="512" />
<glyph unicode="&#x2b;&#x2d;" horiz-adv-x="778" d="M61 37q2 16 15 25.5t27 9.5h592q16 0 25.5 -11t7.5 -26q-2 -8 -5.5 -14.5t-9.5 -11t-13 -7t-14 -2.5h-592q-16 0 -26 11t-7 26zM127 452q2 16 15 26t27 10h261l41 262q1 8 5 14t10 11t13 8t15 3q16 0 24 -10q6 -10 4 -26l-41 -262h260q16 0 25.5 -11t7.5 -27t-15 -25 t-27 -9h-262l-42 -260q-2 -16 -14 -26q-12 -11 -28 -11t-24 10.5t-5 26.5l41 260h-258q-16 0 -26 10t-7 26z" />
<glyph unicode="&#x2e;&#x2e;&#x2e;" horiz-adv-x="917" d="M98 64q2 14 10 27t19 23t25 15.5t28 5.5t26.5 -5.5t21 -15.5t12.5 -23t2 -27t-10 -27.5t-20 -23t-26 -15.5t-28 -6t-26 6t-20.5 15.5t-11.5 22.5q-4 14 -2 28zM397 64q2 14 10 27t19.5 23t25.5 15.5t28 5.5t26 -5.5t20 -15.5t12 -23t2 -27t-10 -27.5t-19 -23t-25 -15.5 t-28 -6t-27 6t-21 15.5t-12 22.5q-4 14 -1 28zM696 64q2 14 10 27t19 23t25 15.5t29 5.5q14 0 26.5 -5.5t20.5 -15.5t12 -23t2 -27t-10 -27.5t-20 -23t-26 -15.5t-28 -6t-26 6t-20.5 15.5t-11.5 22.5q-4 14 -2 28z" />
<glyph unicode="&#x3c;&#x3d;" horiz-adv-x="844" d="M147 322l14 88l584 -344q6 -3 10.5 -9t5.5 -12.5t-0.5 -14.5t-6.5 -14q-10 -12 -24 -14t-25 4zM180 526l13 84l647 298q15 6 27.5 1.5t14.5 -18.5q4 -14 -3 -27.5t-21 -19.5l-592 -274l512 -300q13 -6 15.5 -20.5t-7.5 -28.5t-24 -15q-12 -1 -24 5z" />
<glyph unicode="&#x3e;&#x3d;" horiz-adv-x="844" d="M90 30q1 8 4.5 14.5t9.5 11.5q4 6 12 10l694 344l-14 -88l-658 -316q-13 -6 -26.5 -4t-19.5 14q-3 6 -2 14zM123 235q1 7 4 14t9 13q6 4 13 8l607 300l-506 274q-12 6 -14 20q-2 13 6 27q7 14 20.5 18.5t26.5 -1.5l553 -298l-14 -84l-658 -315q-6 -3 -13 -4t-13 -0.5 t-11 4t-8 10.5t-2 14z" />
<glyph unicode="&#xe4f;&#x22;" horiz-adv-x="1050" d="M155 299.5q-7 54.5 2 114.5q10 59 34 113.5t59.5 102.5t81.5 87t98 67.5t109 44t117 15.5q59 0 111 -15.5t95.5 -44t76.5 -67.5t54 -87t28 -102.5t-3 -113.5t-34 -114t-60 -102.5t-81.5 -87t-98 -68t-109.5 -43.5t-116 -15t-111 15t-95.5 43.5t-77 68t-53.5 87t-27 102z M230.5 320q5.5 -46 22.5 -85t44.5 -71.5t63 -55.5t78.5 -35.5t92 -12.5q48 0 95.5 12.5t90.5 35.5t80 55.5t66 71.5t49 85t28 94l2 -2q8 48 2 93.5t-23 85t-44 72.5t-63 56t-79 36t-91 13t-96 -13t-91 -36t-80 -55t-67 -72t-50 -85t-27 -93q-8 -48 -2.5 -94zM368 414 q8 46 31 85.5t58 69t77.5 47t87.5 17.5q46 0 83 -17.5t62 -47t36 -69t3 -85.5q-7 -45 -30.5 -85.5t-58 -70t-77 -47t-88.5 -17.5q-45 0 -82 17.5t-62 47t-36 69.5t-4 86zM442 414q-4 -30 3 -57t23 -46.5t41 -31t55 -11.5t59 11.5t51.5 31t38 46.5t19.5 57q5 30 -1.5 57 t-23.5 46t-41 31q-26 11 -56 11t-58 -11.5t-51 -30.5t-38.5 -46t-20.5 -57zM560 928l24 240q2 8 7 15.5t12 13t15 8.5t16 3q16 0 25 -12q9 -10 7 -26l-54 -242q-1 -9 -9.5 -17t-16.5 -8q-11 0 -19 7.5t-7 17.5zM720 930l24 238q2 8 6 15.5t10 13t14 8.5t15 3q8 0 15.5 -3 t13.5 -8t8 -13q3 -6 2 -14l-52 -240q-2 -11 -12 -19t-21 -8q-12 0 -18 8q-7 8 -5 19z" />
<glyph unicode="&#xe0e;&#xe3a;" horiz-adv-x="952" d="M2 -312q4 14 16 23q78 54 163 82.5t175 28.5q76 0 142 -20t119 -56l156 133l104 657q12 73 -4.5 133.5t-56.5 103.5t-99 67t-134 24q-44 0 -89 -12.5t-86.5 -34t-78.5 -51.5t-67 -64l63 -84l-92 -583q-2 -16 -14 -25.5t-26 -9.5h-115q-16 0 -25 10t-7 25q2 16 15 26.5 t28 10.5h77l84 525l-42 59q-10 14 -13 28t0 27t11 25q10 13 20 24q36 38 79 70t90 55t97.5 36t101.5 13q92 0 164 -29.5t119 -82.5t66.5 -125.5t5.5 -160.5l-109 -686l-229 -194q-53 46 -119 71t-144 25q-79 0 -153.5 -25t-140.5 -71q-6 -4 -13 -5.5t-14 -1t-13 3.5t-8 9 q-7 11 -4 26zM680 -459q2 12 9 23.5t16 19.5t21 13t24 5q13 0 23.5 -5t17.5 -13t10 -19.5t1 -23.5t-8.5 -22.5t-16 -18.5t-21.5 -13t-24 -5q-13 0 -23.5 5t-17.5 13t-10 18.5t-1 22.5z" />
<glyph unicode="&#xe0f;&#xe3a;" horiz-adv-x="952" d="M46 35q2 16 15 26.5t28 10.5h77l84 525l-42 59q-10 14 -13 28t0 27t11 25q10 13 20 24q36 38 79 70t90 55t97.5 36t101.5 13q92 0 164 -29.5t119 -82.5t66.5 -125.5t5.5 -160.5l-109 -686l-230 -196l-131 152l-177 -152l-189 221q-9 11 -7 25t14 24q13 11 28 11t24 -11 l146 -170l179 152l131 -154l145 125l104 657q12 74 -4.5 134.5t-56.5 103.5t-99 66.5t-134 23.5q-44 0 -89 -12t-86.5 -34t-78.5 -51t-67 -63l63 -84l-92 -583q-2 -16 -14 -25.5t-26 -9.5h-115q-16 0 -25 10t-7 25zM680 -459q2 12 9 23.5t16 19.5t21 13t24 5q13 0 23.5 -5 t17.5 -13t10 -19.5t1 -23.5t-8.5 -22.5t-16 -18.5t-21.5 -13t-24 -5q-13 0 -23.5 5t-17.5 13t-10 18.5t-1 22.5z" />
<glyph unicode="&#xe0e;&#xe38;" horiz-adv-x="952" d="M2 -312q4 14 16 23q78 54 163 82.5t175 28.5q76 0 142 -20t119 -56l156 133l104 657q12 73 -4.5 133.5t-56.5 103.5t-99 67t-134 24q-44 0 -89 -12.5t-86.5 -34t-78.5 -51.5t-67 -64l63 -84l-92 -583q-2 -16 -14 -25.5t-26 -9.5h-115q-16 0 -25 10t-7 25q2 16 15 26.5 t28 10.5h77l84 525l-42 59q-10 14 -13 28t0 27t11 25q10 13 20 24q36 38 79 70t90 55t97.5 36t101.5 13q92 0 164 -29.5t119 -82.5t66.5 -125.5t5.5 -160.5l-109 -686l-229 -194q-53 46 -119 71t-144 25q-79 0 -153.5 -25t-140.5 -71q-6 -4 -13 -5.5t-14 -1t-13 3.5t-8 9 q-7 11 -4 26zM632 -444q2 16 14 26t28 10h88q16 0 25 -10t7 -26l-26 -164q-2 -15 -14 -26t-27 -11q-16 0 -23.5 10.5t-5.5 26.5l20 126h-55q-16 0 -24.5 11t-6.5 27z" />
<glyph unicode="&#xe0f;&#xe38;" horiz-adv-x="952" d="M46 35q2 16 15 26.5t28 10.5h77l84 525l-42 59q-10 14 -13 28t0 27t11 25q10 13 20 24q36 38 79 70t90 55t97.5 36t101.5 13q92 0 164 -29.5t119 -82.5t66.5 -125.5t5.5 -160.5l-109 -686l-230 -196l-131 152l-177 -152l-189 221q-9 11 -7 25t14 24q13 11 28 11t24 -11 l146 -170l179 152l131 -154l145 125l104 657q12 74 -4.5 134.5t-56.5 103.5t-99 66.5t-134 23.5q-44 0 -89 -12t-86.5 -34t-78.5 -51t-67 -63l63 -84l-92 -583q-2 -16 -14 -25.5t-26 -9.5h-115q-16 0 -25 10t-7 25zM632 -444q2 16 14 26t28 10h88q16 0 25 -10t7 -26 l-26 -164q-2 -15 -14 -26t-27 -11q-16 0 -23.5 10.5t-5.5 26.5l20 126h-55q-16 0 -24.5 11t-6.5 27z" />
<glyph unicode="&#xe0e;&#xe39;" horiz-adv-x="952" d="M2 -312q4 14 16 23q78 54 163 82.5t175 28.5q76 0 142 -20t119 -56l156 133l104 657q12 73 -4.5 133.5t-56.5 103.5t-99 67t-134 24q-44 0 -89 -12.5t-86.5 -34t-78.5 -51.5t-67 -64l63 -84l-92 -583q-2 -16 -14 -25.5t-26 -9.5h-115q-16 0 -25 10t-7 25q2 16 15 26.5 t28 10.5h77l84 525l-42 59q-10 14 -13 28t0 27t11 25q10 13 20 24q36 38 79 70t90 55t97.5 36t101.5 13q92 0 164 -29.5t119 -82.5t66.5 -125.5t5.5 -160.5l-109 -686l-229 -194q-53 46 -119 71t-144 25q-79 0 -153.5 -25t-140.5 -71q-6 -4 -13 -5.5t-14 -1t-13 3.5t-8 9 q-7 11 -4 26zM425 -444q2 16 14.5 26t28.5 10h67q16 0 25 -10q8 -10 6 -26l-10 -68q-2 -16 1.5 -30t12 -25t22.5 -17t30 -6t30.5 6.5t26 17t19.5 24.5t11 30l11 72q2 16 15 26t29 10t24.5 -10t6.5 -24l-12 -74q-5 -31 -21 -58t-40 -47.5t-53 -32.5t-59 -12q-31 0 -56 12 t-41.5 32.5t-24 47.5t-2.5 58l5 30h-35q-16 0 -25 11t-6 27z" />
<glyph unicode="&#xe0f;&#xe39;" horiz-adv-x="952" d="M46 35q2 16 15 26.5t28 10.5h77l84 525l-42 59q-10 14 -13 28t0 27t11 25q10 13 20 24q36 38 79 70t90 55t97.5 36t101.5 13q92 0 164 -29.5t119 -82.5t66.5 -125.5t5.5 -160.5l-109 -686l-230 -196l-131 152l-177 -152l-189 221q-9 11 -7 25t14 24q13 11 28 11t24 -11 l146 -170l179 152l131 -154l145 125l104 657q12 74 -4.5 134.5t-56.5 103.5t-99 66.5t-134 23.5q-44 0 -89 -12t-86.5 -34t-78.5 -51t-67 -63l63 -84l-92 -583q-2 -16 -14 -25.5t-26 -9.5h-115q-16 0 -25 10t-7 25zM425 -444q2 16 14.5 26t28.5 10h67q16 0 25 -10 q8 -10 6 -26l-10 -68q-2 -16 1.5 -30t12 -25t22.5 -17t30 -6t30.5 6.5t26 17t19.5 24.5t11 30l11 72q2 16 15 26t29 10t24.5 -10t6.5 -24l-12 -74q-5 -31 -21 -58t-40 -47.5t-53 -32.5t-59 -12q-31 0 -56 12t-41.5 32.5t-24 47.5t-2.5 58l5 30h-35q-16 0 -25 11t-6 27z" />
<glyph unicode="&#xd;" horiz-adv-x="579" />
<glyph unicode=" "  horiz-adv-x="512" />
<glyph unicode="&#x09;" horiz-adv-x="512" />
<glyph unicode="&#xa0;" horiz-adv-x="512" />
<glyph unicode="!" horiz-adv-x="399" d="M136 60q2 16 10 28.5t19 22t25 15t29 5.5q14 0 26.5 -5.5t20.5 -15t12 -22t2 -28.5q-2 -14 -10 -27t-19.5 -23t-25.5 -15q-15 -5 -29 -5t-26 5t-20.5 15t-11.5 22q-4 14 -2 28zM211 236l43 403l61 395q2 10 7 19t12.5 15t16.5 10t19 4t18 -4t14 -10t8 -15q4 -9 2 -19 l-65 -395l-87 -403q-2 -11 -10 -18t-18 -7t-16 6.5t-5 18.5z" />
<glyph unicode="&#x22;" horiz-adv-x="370" d="M202 758l30 286q2 8 6 16t10.5 13.5t14 9t15.5 3.5q16 0 25.5 -12t7.5 -28l-62 -288q-2 -10 -9.5 -17.5t-17.5 -7.5q-11 0 -16.5 7.5t-3.5 17.5zM358 760l30 284q2 8 6 16t10 13.5t14 9t16 3.5q17 0 26.5 -12t7.5 -28l-59 -286q-2 -11 -10 -19t-19 -8q-12 0 -18 8t-4 19z " />
<glyph unicode="#" horiz-adv-x="846" d="M124 362q2 8 6 15t10.5 12.5t14 9t15.5 3.5h142l65 220h-133q-8 0 -14.5 3.5t-11 9t-6.5 12.5t-1 15q2 8 6 15t10.5 12t13.5 8t15 3h144l82 268q6 16 20 26t29 8q17 -2 24 -15t2 -29l-78 -258h181l81 266q2 8 6.5 15t10.5 12t14 7t15 2q16 -3 25 -15.5t5 -28.5l-80 -258 h113q16 0 25 -11t7 -27q-2 -17 -15 -28.5t-29 -11.5h-125l-70 -220h125q16 0 26 -12q8 -12 6 -28q-1 -8 -5 -15t-10.5 -12t-14.5 -8q-6 -3 -14 -3h-140l-91 -291q-6 -16 -19.5 -25.5t-26.5 -7.5q-14 3 -22 15q-9 12 -5 26l88 283h-176l-88 -289q-4 -17 -18 -27t-28 -8 q-16 2 -24 14t-4 27l84 283h-126q-8 0 -15.5 3t-12 8t-6.5 13q-2 6 -2 14zM387 402h181l65 220h-178z" />
<glyph unicode="$" horiz-adv-x="846" d="M144.5 205q0.5 8 4 15t9.5 12.5t13 9.5q16 6 29.5 1t19.5 -20q7 -29 22.5 -57t40.5 -50.5t59 -36t76 -13.5l76 481q-28 14 -55 29.5t-52 32.5t-46 37.5t-34 46t-18.5 56.5t0.5 70q9 56 34 103.5t63 83.5t87 59t105 29l18 114q2 8 6 15t10 12t13 7.5t15 2.5q16 0 24 -10.5 t6 -26.5l-19 -120q32 -4 58.5 -15t48 -26t38.5 -34q18 -19 32 -42q4 -7 3 -15t-4 -15t-9 -14t-14 -11q-16 -10 -30 -5t-21 19q-10 14 -19.5 27t-22.5 24t-30 20t-41 15l-66 -418q30 -17 60 -33.5t56.5 -34.5t48.5 -39t36.5 -48t19.5 -61.5t-2 -78.5q-9 -58 -38 -109.5 t-71 -92.5t-95 -70t-109 -41l-20 -125q-2 -8 -6 -14.5t-10 -11.5t-13 -8t-14 -3q-16 0 -24.5 11t-6.5 26l19 121q-55 4 -98 21t-75 45t-54 63t-32 75q-2 7 -1.5 15zM368 821q-6 -36 4 -63.5t30 -49t47 -39t57 -34.5l62 381q-38 -3 -72 -20.5t-61 -44.5t-45 -61 q-16 -34 -22 -69zM490 70q44 12 82.5 35t68 55t49.5 69.5t26 79.5q6 38 -5 68t-33.5 54t-53.5 43q-30 19 -64 36z" />
<glyph unicode="%" horiz-adv-x="907" d="M123.5 4q-1.5 12 5.5 22l767 1056q8 12 21 16t25 0q10 -6 13 -17.5t-5 -23.5l-768 -1057q-8 -11 -22 -15q-13 -3 -23 1q-12 6 -13.5 18zM163 874q8 47 30.5 87t56.5 69t76.5 45.5t87.5 16.5q44 0 81 -16.5t62.5 -45.5t37 -69t3.5 -87q-5 -30 -17.5 -57.5t-30.5 -51 t-41 -42.5t-49 -33t-55 -21t-59 -7q-44 0 -81 16t-62 44.5t-36 67.5q-11 38 -4 84zM232 874q-5 -30 3 -56t25 -45t42 -30.5t55 -11.5t58.5 11.5t51.5 30.5t39 45t22 56h2q4 30 -4 57t-25 47t-42.5 31t-55.5 11t-58.5 -11t-51.5 -30t-39 -46t-22 -59zM479 207q8 46 31.5 85 t57.5 67.5t76.5 44.5t87.5 16q44 0 81 -16t62 -44.5t36.5 -67.5t3.5 -85q-8 -47 -31.5 -86.5t-57.5 -68t-76 -44.5t-86 -16t-81.5 16t-63 44.5t-36.5 68t-4 86.5zM548 207q-5 -32 2.5 -58.5t25 -45.5t43 -30t56.5 -11q30 0 58.5 11t52.5 30.5t40.5 46t21.5 57.5 q5 30 -3.5 57t-25.5 46.5t-42.5 30.5t-55.5 11q-31 0 -60 -11t-52 -30.5t-39 -46t-22 -57.5z" />
<glyph unicode="&#x26;" horiz-adv-x="1009" d="M132 238q3 47 19.5 89t43 80t61 71.5t72 64.5t77 59t75.5 54q-20 24 -38 48.5t-32 52t-22 57.5t-6 64q2 28 12 55t26 52t37 45.5t45 36t51 25.5t55 12q44 4 79 -9t60 -38.5t37 -61t8 -75.5q-3 -46 -21 -85t-46.5 -73t-66.5 -64.5t-80 -60.5l234 -328l124 123 q11 11 26.5 12.5t25.5 -8.5q11 -9 10 -24.5t-14 -28.5l-131 -129l140 -201q8 -10 3.5 -23.5t-16.5 -21.5q-12 -9 -25 -7.5t-19 11.5l-138 191q-49 -42 -99.5 -81.5t-101.5 -70.5t-103 -51q-50 -20 -102 -24q-58 -4 -108 13.5t-85.5 53t-53.5 85.5q-17 50 -13 110zM210 250 q-3 -44 8.5 -82.5t36.5 -66.5t61 -43t80 -11q46 4 92 24.5t92 51t90.5 67t85.5 72.5l-238 334l-65 -47q-26 -19 -53.5 -39t-54 -42.5t-50 -47t-42 -51t-30 -56.5t-13.5 -63zM462 876q-2 -27 5 -50.5t20 -45.5t27.5 -43t27.5 -41q28 23 58 45.5t56 48.5q26 25 42 54.5 t18 67.5q2 27 -6 49.5t-23 39.5t-37 25t-48 6q-27 -2 -52 -17t-44 -36.5t-30.5 -48t-13.5 -54.5z" />
<glyph unicode="'" horiz-adv-x="291" d="M240 756l32 292q1 8 5.5 15t10.5 12.5t14 9t16 3.5q16 0 25 -12t7 -28l-60 -290q-2 -11 -10 -19t-19 -8t-17 7q-6 8 -4 18z" />
<glyph unicode="(" horiz-adv-x="364" d="M124 292q0 85 14 171t43 172.5t69 168.5t87 156t96 134q6 10 18 13q13 3 21 -3q10 -5 11.5 -15.5t-5.5 -21.5q-50 -68 -92 -141.5t-76 -150.5t-58 -156.5t-36 -159.5q-10 -67 -14 -124t-3 -107.5t8 -97t17 -93.5t24 -97t30 -106q4 -10 -1 -22t-17 -19q-12 -6 -23.5 -2.5 t-15.5 15.5q-32 76 -53.5 156t-32.5 163t-11 167z" />
<glyph unicode=")" horiz-adv-x="364" d="M26 -190.5q-2 11.5 4 22.5q37 60 68.5 112t57.5 100.5t47 95.5t37.5 96.5t30 104.5t23.5 118q12 80 13 158.5t-9 154.5t-29 150.5t-45 146.5q-3 12 3 23q5 10 17 14t23 -1t14 -15q32 -72 55 -148.5t35 -155t12 -160t-13 -163.5t-38.5 -166t-62.5 -167.5t-84.5 -165.5 t-104.5 -156q-6 -11 -19 -15.5t-23 0.5t-12 16.5z" />
<glyph unicode="*" horiz-adv-x="721" d="M258 890q0 8 4 15q8 17 24 24q18 7 32 3l148 -56l19 170q2 8 6 16t10.5 13.5t14.5 9t16 3.5q17 0 27.5 -12t7.5 -30l-33 -170l170 58q16 4 29 -3.5t15 -22.5q1 -8 -1.5 -17t-7.5 -16t-11.5 -12t-14.5 -7l-169 -47l83 -143q6 -14 0.5 -30t-20.5 -24q-17 -10 -32 -6t-22 18 l-67 130q-30 -32 -60 -65t-59 -67q-12 -12 -29 -16q-16 -4 -28 6q-13 9 -14.5 25.5t10.5 30.5l129 141l-154 47q-8 2 -13 7t-7.5 12t-2.5 15z" />
<glyph unicode="+" horiz-adv-x="778" d="M117 389q2 16 15 25.5t27 9.5h261l41 262q1 8 5 14.5t10 11.5t13 8t15 3q16 0 24 -11q6 -10 4 -26l-41 -260h260q16 0 25.5 -10.5t7.5 -26.5q-2 -8 -5.5 -14.5t-9.5 -10.5t-13 -7t-14 -3h-260l-42 -262q-2 -16 -14 -26t-28 -10t-24 10t-5 26l41 260h-260q-16 0 -26 11 t-7 26z" />
<glyph unicode="," horiz-adv-x="303" d="M60.5 -143q1.5 9 9.5 14q24 18 42 33.5t32 30.5t24 29.5t18 29.5q-10 -5 -20 -8q-12 -2 -24 -2q-14 0 -25 5.5t-19 15t-12 22.5t-2 26q2 14 10 27.5t20 23.5t27 16.5t31 6.5q22 0 36.5 -8.5t23.5 -22.5t12 -32t0 -36q-8 -46 -44.5 -92t-105.5 -94q-7 -5 -16 -4.5t-13 4.5 q-6 6 -4.5 15z" />
<glyph unicode="-" horiz-adv-x="526" d="M135 389q2 16 13.5 26.5t27.5 10.5h306q16 0 25 -10.5t7 -26.5t-15 -26.5t-28 -10.5h-305q-16 0 -25 11t-6 26z" />
<glyph unicode="." horiz-adv-x="303" d="M88 56q2 14 10 27t19.5 23t25.5 16q15 5 29 5t26 -5.5t20 -15.5t12 -23t2 -27t-10 -28t-19.5 -23.5t-25.5 -14.5q-15 -6 -29 -6t-26 5.5t-20 15t-12 23.5t-2 28z" />
<glyph unicode="/" horiz-adv-x="809" d="M60 14.5q-2 14.5 6 28.5l799 1127q3 6 8.5 10t12 7t13 3t12.5 -2q13 -6 16 -19.5t-5 -25.5l-796 -1131q-8 -14 -23 -19t-28 1t-15 20.5z" />
<glyph unicode="0" horiz-adv-x="778" d="M97.5 402.5q-0.5 70.5 11.5 144.5t34.5 143.5t53.5 130.5t71 111.5t86.5 87t99 56.5t108.5 20q57 0 103.5 -20t81.5 -56.5t59 -87t36.5 -111.5t13 -130.5t-11.5 -143.5t-34 -144.5t-54 -132.5t-72 -114t-87 -90t-100 -59t-111 -21t-103.5 21t-80 59t-58 90t-35 114 t-12 132.5zM178 422.5q-1 -60.5 7.5 -115t25.5 -100.5t44 -79.5t62.5 -51.5t80.5 -18q46 0 87.5 18t78.5 51.5t68.5 79.5t56.5 100.5t43 115.5t28 124h2q9 56 9.5 113.5t-7.5 110.5t-25.5 99t-44 79.5t-62.5 53t-82 19.5q-45 0 -86.5 -19.5t-78.5 -53t-69 -79.5t-57 -99 t-43 -110t-27 -114q-10 -64 -11 -124.5z" />
<glyph unicode="1" horiz-adv-x="778" d="M358 1044q2 16 14 27t28 11h195q16 0 24.5 -11t6.5 -27l-160 -1016q-3 -17 -16.5 -27.5t-29.5 -10.5t-25 11t-5 27l154 980h-155q-16 0 -25 10q-8 10 -6 26z" />
<glyph unicode="2" horiz-adv-x="778" d="M70 40q2 8 6 15t10 13l427 378q24 22 50.5 47t52.5 52t49.5 56.5t43 59.5t32.5 60q13 29 17 59q8 52 -4 96t-40 76.5t-70 51t-92 18.5q-52 0 -98 -15.5t-83 -45.5t-62.5 -73.5t-34.5 -101.5q-2 -8 -6 -15t-10 -12t-14 -8t-16 -3q-17 0 -26 12q-10 10 -8 26 q15 79 52.5 137.5t88 96.5t110 57t119.5 19q66 0 121 -25t92 -68t53 -101t5 -126q-8 -54 -34.5 -103.5t-62.5 -95t-78 -87.5t-83 -78l-381 -340h480q16 0 25 -10.5t7 -24.5q-2 -16 -14 -26.5t-26 -10.5h-564q-16 0 -26 12t-8 28z" />
<glyph unicode="3" horiz-adv-x="778" d="M122 230q2 16 13 28t27 14q16 3 27 -6q11 -8 11 -24q0 -36 11 -69.5t34.5 -59t58.5 -40.5t82 -15q52 0 98.5 19t83 53t60.5 78t32 93q8 47 -2.5 89t-34.5 73t-59.5 49t-79.5 18q-14 0 -22 9t-6 23t13 24t25 10q45 0 84.5 18t69.5 49t50 71t27 83t-2 80.5t-31.5 65 t-57.5 43.5q-36 16 -80 16q-38 0 -72.5 -10t-64 -30.5t-52 -53t-36.5 -76.5q-4 -16 -17.5 -25t-28.5 -8q-15 2 -23.5 13.5t-2.5 27.5q20 60 50.5 105t70 74t88 43t103.5 14q60 0 107.5 -22t78.5 -60t44 -89t4 -110q-12 -78 -61.5 -143t-130.5 -107q38 -20 64.5 -48.5 t42.5 -62.5t21 -71.5t-1 -77.5q-10 -67 -41.5 -125t-79 -101t-109.5 -68t-132 -25q-60 0 -108 18t-82 50.5t-51 77t-13 98.5z" />
<glyph unicode="4" horiz-adv-x="778" d="M46 236q2 10 8 18l686 822q4 5 9.5 7.5t11.5 2.5q10 0 15.5 -6.5t3.5 -16.5l-124 -785h88q17 0 26 -10q10 -10 8 -26q-2 -17 -15 -28t-29 -11h-88l-27 -175q-3 -17 -17 -28q-12 -10 -28 -10q-17 0 -26 10q-10 10 -8 26l28 177h-493q-14 0 -23 10q-8 9 -6 23zM167 278h411 l98 616z" />
<glyph unicode="5" horiz-adv-x="778" d="M69.5 149q0.5 8 3.5 15.5t9 13.5t13 10q15 8 27.5 4t21.5 -18q34 -56 86 -86t125 -30q64 0 123.5 23t107.5 65t81 100q33 56 43 124q10 63 -6 117.5t-51 93.5t-86 62t-112 23q-33 0 -67 -7t-66 -17t-60 -23q-30 -13 -52 -25l72 450q2 8 5.5 15t9.5 12t13 8t14 3h437 q16 0 25.5 -11t7.5 -27q-1 -8 -5.5 -14t-10.5 -11t-13 -8t-13 -3h-398l-48 -306q46 16 87.5 26t87.5 10q77 0 138.5 -29t102.5 -79t58 -117t5 -145q-9 -55 -30.5 -104.5t-53 -92.5t-72 -77t-87 -58t-97.5 -37t-103 -13q-94 0 -163 36.5t-107 112.5q-3 6 -2.5 14z" />
<glyph unicode="6" horiz-adv-x="778" d="M83 262q-5 48 3 102q11 69 39.5 126t74.5 112l386 475q6 7 13 11t15 6t15 0t12 -6q13 -8 14 -24t-10 -30l-254 -309q36 11 64.5 16t58.5 5q49 0 92 -14t78.5 -39t62.5 -60t43.5 -77.5t21.5 -91t-3 -100.5q-6 -36 -19 -71t-32.5 -68t-43.5 -63t-50 -58q-60 -60 -132 -89 t-146 -29q-48 0 -91.5 13t-80 37.5t-64 59t-45 76.5t-22.5 90zM168 366q-10 -64 3.5 -119.5t45 -97t78 -65.5t103.5 -24q38 0 75 11t71 31t64 47.5t54 62t40 73.5t24 81h2q10 63 -4 118.5t-46 97.5t-79 66t-104 24t-111 -24t-99 -66t-76 -97t-41 -119z" />
<glyph unicode="7" horiz-adv-x="778" d="M118.5 16.5q-2.5 14.5 7.5 28.5l707 961h-584q-16 0 -25 10q-10 10 -8 26q2 8 6 15.5t10 13t14 8.5t15 3h631q20 0 32 -14t8 -34q-2 -14 -10 -24l-734 -1000q-5 -7 -11.5 -11.5t-14 -7t-15 -2t-13.5 4.5q-13 8 -15.5 22.5z" />
<glyph unicode="8" horiz-adv-x="778" d="M123 203q-5 39 2 81q14 90 65 161t145 118q-32 22 -53.5 49.5t-34.5 58.5t-17 66t2 70q6 41 22 78t39.5 69t53.5 58.5t64.5 45t72.5 28.5t78 10q60 0 109.5 -22t82 -61t46.5 -92t4 -114q-6 -36 -21 -70.5t-37 -65.5t-53 -59t-67 -49q77 -48 105.5 -118.5t14.5 -160.5 q-7 -43 -24.5 -81.5t-43.5 -71.5t-59 -60t-71 -46t-79 -29t-83 -10t-79 10t-68 29t-55.5 46t-40 60t-20.5 72zM202 291q-8 -48 4 -90.5t39 -74.5t66 -50t87 -18t93.5 18t83 50t62.5 74.5t33 90.5t-4 90.5t-39 74.5t-67 50t-88 18t-93 -18t-82 -50t-63 -74q-24 -42 -32 -91z M308 809q-7 -44 3.5 -82.5t34 -67t59 -45t79.5 -16.5t85 16.5t74 45t55.5 67t29.5 82.5t-3.5 82.5t-35 67.5t-60 46t-79.5 17q-43 0 -83.5 -17t-73.5 -46t-55.5 -68t-29.5 -82z" />
<glyph unicode="9" horiz-adv-x="778" d="M141 618q-5 48 3 99q8 53 29 102t52 91t70 76t83.5 58.5t92 38t95.5 13.5q76 0 137 -29.5t101 -81t56.5 -122.5t3.5 -153q-10 -66 -40 -122t-72 -109l-382 -471q-6 -7 -13 -11.5t-15 -6t-15 0t-13 5.5q-12 9 -14 24t10 29l264 319q-18 -10 -34 -16t-33 -9t-33 -4 q-18 -1 -36 -1q-48 0 -90.5 14t-78 39t-62.5 60t-44 77t-22 90zM226 717q-10 -63 3.5 -118.5t45.5 -97t79 -65.5t104 -24q38 0 74 11t70 31t63.5 47.5t53 61.5t39.5 73t23 81q10 63 -3.5 118t-44 96t-77 65t-102.5 24q-57 0 -111.5 -24t-99.5 -65t-76 -96t-41 -118z" />
<glyph unicode=":" horiz-adv-x="303" d="M88 56q2 14 10 27t19.5 23t25.5 16q15 5 29 5t26 -5.5t20 -15.5t12 -23t2 -27t-10 -28t-19.5 -23.5t-25.5 -14.5q-15 -6 -29 -6t-26 5.5t-20 15t-12 23.5t-2 28zM175 602q2 14 10 27.5t19.5 23t25.5 15.5t28 6t26.5 -6t21 -15.5t11.5 -23t1 -27.5t-10 -27t-19 -23 t-25 -16t-28 -6t-27 6t-21 16t-12 23t-1 27z" />
<glyph unicode=";" horiz-adv-x="303" d="M60 -142q4 8 12 13q22 16 37.5 28.5t28 26.5t23.5 30t25 38q-10 -5 -20 -8q-12 -2 -24 -2q-14 0 -25 5.5t-19 15t-12 22.5t-2 26q2 14 10 27.5t20 23.5t27 16.5t31 6.5q22 0 36.5 -8.5t23.5 -22.5t12 -32t0 -36q-15 -94 -153 -188q-8 -5 -16 -3.5t-12 7.5q-5 6 -3 14z M175 602q2 14 10 27.5t19.5 23t25.5 15.5t28 6t26.5 -6t21 -15.5t11.5 -23t1 -27.5t-10 -27t-19 -23t-25 -16t-28 -6t-27 6t-21 16t-12 23t-1 27z" />
<glyph unicode="&#x3c;" horiz-adv-x="762" d="M108 363q3 19 15.5 34.5t30.5 23.5l612 281q14 7 27 2.5t16 -18.5t-4 -26.5t-19 -18.5l-592 -277l510 -300q12 -7 15 -20.5t-6 -27.5q-9 -13 -23 -14.5t-26 4.5l-530 300q-14 8 -22 23q-6 15 -4 34z" />
<glyph unicode="=" horiz-adv-x="778" d="M102 297q1 8 5.5 14.5t10.5 11.5t13 8t13 3h592q16 0 26 -10.5t8 -26.5q-2 -8 -6 -14.5t-10 -11.5t-13 -8t-14 -3h-592q-8 0 -14.5 3t-10.5 8.5t-6 12t-2 13.5zM132 482q2 8 5.5 14t9.5 11t13 8t14 3h594q16 0 24.5 -11t6.5 -25q-2 -16 -14.5 -27t-28.5 -11h-592 q-16 0 -26 11q-8 11 -6 27z" />
<glyph unicode="&#x3e;" horiz-adv-x="762" d="M54 16q-6 14 2 27t22 21l604 300l-502 277q-12 6 -15 18.5t5 26.5t22 19t26 -3l523 -281q15 -8 23 -23.5t4 -34.5q-2 -18 -14 -33.5t-30 -23.5l-625 -300q-13 -6 -27 -4t-18 14z" />
<glyph unicode="?" horiz-adv-x="700" d="M170 805q1 38 13.5 74.5t35 69.5t54 61t70 48.5t83 32t92.5 11.5q68 0 120 -21.5t84 -58.5t44.5 -85.5t3.5 -104.5q-8 -48 -29 -87t-51 -73t-65 -64.5t-70 -62.5q-18 -17 -34.5 -35t-30.5 -37t-23 -40.5t-13 -45.5l-19 -121q-2 -17 -13.5 -27.5t-29.5 -10.5q-17 0 -27 12 t-7 28l19 123q6 36 21.5 66.5t36.5 57.5t47 51t53 48t53 48.5t47.5 51t36.5 56.5q16 30 21 64q6 35 -2.5 70t-30.5 63t-60 45.5t-93 17.5q-57 0 -103.5 -19t-80 -49t-51.5 -68t-18 -75q0 -8 -3 -16t-9 -14.5t-13 -10.5t-15 -6q-18 -3 -31 6.5t-13 26.5zM292 28q-2 14 0 30 q2 14 10 27t19 23t25 15.5t28 5.5t26.5 -5.5t21 -15.5t12 -23t1.5 -27q-2 -16 -10.5 -29.5t-19.5 -23.5t-25 -15.5t-28 -5.5t-27 5.5t-21 15.5t-12 23z" />
<glyph unicode="@" horiz-adv-x="1130" d="M124 396q-8 72 5 149q12 76 43.5 146.5t76.5 131.5t103 111.5t124 86t138 55.5t145 20q70 0 131.5 -16t112.5 -45t90.5 -70t64 -93t32.5 -112t-2 -127q-9 -58 -32 -111.5t-55 -99.5t-71.5 -84.5t-81.5 -65.5t-84 -42t-82 -15q-36 0 -62 15.5t-39 49.5q-54 -37 -102.5 -51 t-92.5 -14q-48 0 -82 16.5t-54 45t-27 68t1 85.5q8 48 27 100t48 101t67 93t83 78t95 53t105 19q46 0 86 -20q40 -22 70 -68l15 33q2 7 7.5 12.5t12 9t13.5 5.5t14 0q13 -5 19 -17.5t-2 -27.5l-201 -422q-2 -7 -6.5 -16t-8.5 -18t-6 -18t-2 -15q1 -6 3.5 -11t8.5 -8.5t16 -6 t25 -2.5q28 0 60.5 16t64.5 42t62 61t54 74t41 80t23 80q9 58 0.5 109.5t-31 95t-57.5 78t-78.5 58t-94.5 36t-105 12.5q-66 0 -129.5 -18t-122 -51t-109 -79t-90.5 -100.5t-67 -116t-37 -127.5q-10 -64 -2 -125t31.5 -114t60.5 -98t85.5 -77t106 -49.5t121.5 -17.5 q58 0 116 14.5t111 38.5t98 56q45 34 78 70q6 6 13 10t14.5 5t14.5 -1t13 -6q6 -6 8.5 -13t2 -15t-4.5 -16t-10 -14q-39 -42 -86 -78t-104.5 -62t-125.5 -41t-148 -15q-78 0 -145.5 20t-123 56t-97 87t-67 113t-33.5 134zM396 438q-5 -31 0.5 -58.5t20.5 -49.5t41 -34 t62 -12q22 0 45 8t45 20t42 28t38 34t32 37t23 37l99 210q6 12 6 27t-5 31t-14.5 32t-24.5 28t-35.5 19.5t-45.5 7.5q-36 0 -73 -17.5t-71.5 -46t-65.5 -66t-55.5 -78t-41 -81t-22.5 -76.5z" />
<glyph unicode="A" horiz-adv-x="895" d="M23.5 17.5q-3.5 13.5 4.5 27.5l570 1027q4 6 10 10t14 4q7 0 12 -4q4 -4 6 -10l241 -1029q2 -14 -5.5 -27.5t-24.5 -19.5q-14 -4 -27.5 2t-15.5 20l-78 334h-456l-184 -334q-8 -14 -22 -20t-28 0q-13 6 -16.5 19.5zM315 426h397l-119 500z" />
<glyph unicode="B" horiz-adv-x="778" d="M104 41l160 1001q2 17 15 28.5t29 11.5h186q72 0 128 -17t91 -52t48 -90q7 -29 7 -63q0 -32 -6 -68q-6 -34 -17 -64t-29 -56.5t-43.5 -50t-59.5 -43.5q47 -16 81.5 -42.5t56 -62t28.5 -79.5q3 -20 3 -41q0 -24 -4 -50q-12 -78 -48.5 -134.5t-90 -94.5t-119.5 -56 t-137 -18h-246q-8 0 -14.5 3.5t-10.5 9t-6 13.5t-2 15zM185 72h168q40 0 78.5 4t75 14t68.5 27t57.5 42.5t43 60.5t25.5 81q4 29 2 57t-11.5 53t-25.5 45q-17 20 -40 32q-22 12 -48.5 18t-55 10t-57.5 5t-55 1h-154zM268 594h133q47 0 94 10t86 33.5t67 63.5t38 102 q4 26 4 48q0 31 -8 53q-14 40 -46 63t-78 32q-48 9 -102 9h-122z" />
<glyph unicode="C" horiz-adv-x="938" d="M117 392q-4 30 -4 61q0 41 7 85q12 77 43.5 148.5t78 133.5t105.5 112.5t126.5 87t141 56.5t149.5 20q84 0 159 -29t138 -82q11 -9 12.5 -24t-8.5 -29q-6 -7 -13.5 -11.5t-14.5 -5.5t-14 1t-13 6q-59 50 -126 75t-137 25q-64 0 -127.5 -18t-121 -50.5t-108 -78 t-90.5 -99.5t-66 -116q-28 -62 -38 -128q-5 -34 -6 -66q0 -28 4 -54q8 -58 32 -111.5t61 -98t84 -76.5t104 -50t119 -18q70 0 144 24t148 74q14 10 28 7t22 -15q7 -12 2.5 -27t-18.5 -25q-79 -53 -165 -82q-85 -28 -169 -28q-74 0 -140.5 20t-122 56t-99 86.5t-71 112 t-36.5 131.5z" />
<glyph unicode="D" horiz-adv-x="889" d="M106 37l160 1007q2 16 14 27t28 11h156q124 0 221 -38t161 -108t90 -171q14 -57 13 -121q0 -51 -8 -106q-13 -82 -43.5 -154t-76 -132t-103 -106.5t-125 -79t-143.5 -49.5t-157 -17h-156q-16 0 -24.5 11t-6.5 26zM185 72h117q70 0 136 14.5t124 43t108.5 69t89.5 92.5 t65 114t38 133q7 46 7 89q0 56 -12 106q-22 87 -78 148t-140 94t-190 33h-116z" />
<glyph unicode="E" horiz-adv-x="688" d="M104 37l160 1007q2 16 14 27t28 11h434q16 0 25 -11t7 -25q-1 -8 -5.5 -15t-9.5 -12t-12 -8t-14 -3h-397l-61 -382h383q16 0 25 -10t6 -26q-1 -7 -5 -13.5t-9.5 -11.5t-12 -8.5t-14.5 -3.5h-384l-77 -481h395q16 0 25 -10t7 -25q-2 -16 -14 -26.5t-26 -10.5h-437 q-16 0 -24.5 11t-6.5 26z" />
<glyph unicode="F" horiz-adv-x="592" d="M102 26l162 1018q2 16 14 27t28 11h354q16 0 25 -11t7 -27t-14.5 -26t-26.5 -10h-317l-61 -382h307q16 0 25 -10t6 -26q-1 -7 -5 -13.5t-9 -11.5t-12 -8.5t-14 -3.5h-307l-84 -527q-2 -8 -6 -14t-10 -11t-14 -8q-6 -3 -14 -3q-18 0 -27 11t-7 25z" />
<glyph unicode="G" horiz-adv-x="1179" d="M117 393q-4 30 -4 62q0 42 7 85q12 77 43.5 148.5t78 132.5t105.5 112t127 87t143 56t153 20q144 0 243 -53t156 -163q8 -14 2.5 -30t-19.5 -24q-14 -11 -29 -9q-15 3 -23 15q-30 47 -63 81.5t-74.5 58t-92 35t-113.5 11.5q-66 0 -130.5 -17t-123.5 -48t-110 -74.5 t-91 -96.5t-67 -114.5t-37 -127.5q-6 -38 -6 -74q0 -27 4 -53q7 -61 30 -114t60.5 -96t86.5 -74t108 -48t125 -17q62 0 121 15t113 43t102 68t86 89t66 105t42 118h-468q-16 0 -25 12q-9 10 -7 26q1 8 5.5 15t10.5 12.5t13 9t15 3.5h509q16 0 25.5 -12t7.5 -28 q-12 -76 -42 -147t-74 -132t-100.5 -112t-122.5 -87t-139.5 -56t-149.5 -20q-78 0 -146.5 19.5t-125 55.5t-99.5 86.5t-70 112.5t-36 133z" />
<glyph unicode="H" horiz-adv-x="979" d="M102 24l163 1028q1 8 5 15t10.5 12.5t14 9t15.5 3.5q16 0 25 -11t6 -27l-68 -428h631l68 428q2 16 14 27t28 11t26 -10t8 -25l-164 -1031q-2 -8 -6 -14t-10 -11t-14 -8q-6 -3 -14 -3q-16 0 -25 10t-6 26l83 525h-629l-83 -525q-2 -8 -6 -14t-10 -11t-13 -8t-13 -3 q-8 0 -15 2.5t-12 7t-7 10.5q-3 6 -2 14z" />
<glyph unicode="I" horiz-adv-x="276" d="M102 24l164 1030q2 16 15 27t29 11t25.5 -11t7.5 -27l-163 -1028q-2 -8 -6 -14t-10 -11t-14 -8t-15 -3q-8 0 -14.5 3t-11 7.5t-6.5 11t-1 12.5z" />
<glyph unicode="J" horiz-adv-x="286" d="M-181.5 -118.5q1.5 15.5 13.5 26.5q6 5 13.5 7.5t15 2.5t13.5 -2.5t11 -7.5q8 -11 18.5 -22t23 -20t26 -14.5t27.5 -5.5q22 0 42.5 8t36.5 22.5t27 33.5q10 20 14 41l176 1103q1 8 5.5 15t10.5 12t13.5 8t14.5 3q16 0 27 -11t9 -27l-176 -1103q-6 -38 -26 -71.5t-49 -58 t-65 -39.5q-34 -14 -72 -14q-23 0 -45.5 7.5t-42.5 19.5t-34 27q-14 14 -22 30q-7 14 -5.5 29.5z" />
<glyph unicode="K" horiz-adv-x="790" d="M104 24l163 1028q1 8 5 15t10 12.5t13 9t15 3.5t14 -3.5t11 -9t7 -11.5t1 -14l-74 -466l561 489q12 11 28 11t25 -11q9 -10 7 -25t-15 -26l-532 -463l408 -501q10 -12 9 -27t-14 -27t-28.5 -13t-25.5 11l-410 508l-29 -26l-73 -460q-2 -8 -6 -14.5t-10 -12t-13 -8.5 t-13 -3q-8 0 -15 3t-11 7.5t-6.5 11t-1.5 12.5z" />
<glyph unicode="L" horiz-adv-x="456" d="M104 35l162 1019q1 8 5.5 15t10.5 12t13 8t15 3q16 0 25 -11t6 -27l-156 -982h227q16 0 25 -11t7 -26q-2 -14 -14 -24.5t-26 -10.5h-270q-7 0 -13 3t-10.5 8t-6 11t-0.5 13z" />
<glyph unicode="M" horiz-adv-x="1231" d="M13 33l374 1040q2 6 7.5 9.5t10.5 3.5q6 0 9.5 -3t3.5 -7l222 -926l514 926q2 4 7 7t11 3q12 0 14 -12l42 -1039q0 -16 -11 -28t-27 -15q-16 -4 -26 6q-12 8 -12 24l-30 858l-482 -872q-4 -6 -10 -9.5t-12 -3.5t-11 3.5t-7 9.5l-211 872l-308 -860q-6 -16 -19.5 -24 t-27.5 -4q-14 2 -20 14t-1 27z" />
<glyph unicode="N" horiz-adv-x="1155" d="M103 28l164 1039q2 8 8 13q7 6 15 6q10 0 14 -6l702 -918l142 892q2 16 16 27q12 11 28 11t25 -12t6 -28l-165 -1042q-1 -6 -6 -10q-6 -5 -12 -5t-10 5l-707 930l-143 -904q-2 -8 -6 -14t-10 -11t-14 -8t-15 -3q-16 0 -25 12q-10 10 -7 26z" />
<glyph unicode="O" horiz-adv-x="1171" d="M117 393q-4 30 -4 62q0 42 7 85q12 76 43.5 147t77.5 132.5t104.5 112t125.5 87.5t140 57t148 20q74 0 140.5 -20t122 -57t98 -87.5t69.5 -112t36 -132.5q4 -30 4 -62q0 -42 -7 -85q-12 -76 -43.5 -147t-78 -132t-105 -112t-125.5 -87t-140 -56t-147 -20t-141 20 t-122.5 56t-98 87t-69 112t-35.5 132zM195 414q7 -60 29.5 -114t59 -98.5t83.5 -76.5t105 -49.5t122 -17.5t127.5 17.5t121 49.5t107.5 76.5t89.5 98.5t66 114.5t36.5 125.5q6 38 6 75q0 25 -3 51q-7 62 -29.5 115t-58.5 98t-83.5 76.5t-104.5 49t-122 17.5t-128 -17.5 t-121 -49t-108 -76.5t-89 -98t-66 -114t-37 -127q-6 -38 -6 -75q0 -26 3 -51z" />
<glyph unicode="P" horiz-adv-x="639" d="M102 26l162 1016q2 17 15 28.5t29 11.5h152q67 0 123.5 -17.5t96 -53t56.5 -89.5q11 -34 10 -74q0 -27 -4 -56q-12 -73 -47 -126t-85 -87.5t-112 -51.5t-128 -17h-114l-76 -482q-2 -8 -6 -14.5t-10 -12t-14 -8.5t-15 -3q-8 0 -14.5 3t-10.5 8t-6 12t-2 13zM266 582h117 q49 0 96 13t86 39.5t66.5 66.5t35.5 95q3 21 3 40q0 33 -10 58q-16 40 -47.5 65t-76 37t-94.5 12h-108z" />
<glyph unicode="Q" horiz-adv-x="1171" d="M117 392q-4 30 -4 61q0 42 7 87q12 77 43.5 148.5t78 132.5t105 112t126 87t140.5 56t149 20q74 0 140 -20t121 -56t97.5 -86t69 -111.5t35.5 -131.5q4 -30 4 -61q0 -42 -7 -85q-18 -110 -72 -205q-52 -94 -140 -182l80 -102q8 -12 6 -28q-2 -17 -16 -28t-30 -9.5 t-26 13.5l-78 105q-88 -60 -180.5 -91.5t-182.5 -31.5q-75 0 -142 19.5t-122.5 55t-98 86.5t-68.5 112.5t-35 132.5zM195 413q7 -61 30 -115t59.5 -98t84.5 -76t106.5 -49t123.5 -17q32 0 68.5 7t75.5 21.5t79 34.5q39 19 75 45l-165 213q-4 6 -5.5 13.5t0 14.5t5.5 14 t10 11q7 6 15 8.5t16 2t14.5 -3.5t11.5 -9l165 -215q36 37 66 74t52 76t37 80t22 87q6 40 6 79q0 25 -3 49q-6 63 -27 117.5t-57 99.5t-83 77t-104 50t-123 18q-64 0 -128 -17.5t-121.5 -49t-108 -76.5t-90.5 -98t-67 -114t-37 -127q-6 -39 -6 -76q0 -26 3 -51z" />
<glyph unicode="R" horiz-adv-x="684" d="M102 26l162 1016q2 17 15 28.5t29 11.5h132q71 0 130 -15t100 -49q40 -34 57 -90q10 -33 10 -74q0 -29 -5 -62q-10 -67 -40.5 -118.5t-75 -87.5t-101.5 -55t-123 -21l232 -457q7 -12 2.5 -27.5t-18.5 -25.5t-29 -7t-23 15l-255 500h-45l-76 -480q-2 -8 -6 -14.5t-10 -12 t-14 -8.5t-15 -3q-16 0 -25 10q-10 10 -8 26zM266 580h122q50 0 94.5 12.5t80 39t59 66.5t32.5 96q4 27 4 50q0 15 -2 28q-4 34 -18 57.5t-37 39t-52 24t-63 12t-71 3.5h-81z" />
<glyph unicode="S" horiz-adv-x="741" d="M87.5 198q1.5 8 5.5 15t10 12q5 5 13 9q17 8 30 1q12 -7 18 -22q11 -40 32.5 -69.5t50.5 -48.5t65.5 -28t79.5 -9q50 0 96 19t83 53t61 79.5t33 97.5q4 30 -1.5 54t-18 43.5t-31 35.5t-39.5 30t-43 26l-40 24l-168 100q-50 32 -74 82q-16 35 -17 78q0 19 3 39 q10 60 39 110.5t72 87.5t97 58q52 21 110 21q36 0 68 -5.5t59 -19t50 -35.5t43 -57q7 -12 4 -27q-3 -14 -17 -24q-7 -6 -15 -8.5t-15 -2t-13 4t-10 10.5q-16 29 -33 46.5t-37.5 27.5t-45 13t-54.5 3q-40 0 -77.5 -16t-68 -43t-52.5 -64t-28 -78q-4 -27 1 -49t16 -40t28 -33 t36 -27t39 -24t38 -22l174 -102q58 -36 84 -92q17 -38 18 -84q0 -22 -4 -47q-7 -45 -24.5 -86t-44 -76t-60 -63t-71.5 -48.5t-80 -31t-86 -10.5q-50 0 -96 10.5t-84 34t-66 61.5q-28 36 -42 90q-2 8 -0.5 16z" />
<glyph unicode="T" horiz-adv-x="622" d="M171 1044q2 16 14.5 27t26.5 11h538q16 0 25 -12t7 -28q-2 -14 -14.5 -24t-26.5 -10h-225l-155 -980q-2 -8 -6 -14.5t-10.5 -12t-14.5 -8.5q-6 -3 -14 -3q-16 0 -25 10t-7 26l156 982h-238q-16 0 -25 10t-6 26z" />
<glyph unicode="U" horiz-adv-x="901" d="M142 295q0 55 10 115l103 644q2 16 15.5 27t29.5 11t24 -12t6 -28l-98 -622q-8 -50 -11 -96q-1 -16 -1 -30q0 -30 4 -58q6 -42 21 -76t43 -59t70 -39t102 -14q58 0 104 13.5t81 38.5t61.5 59.5t45 75.5t31 88t20.5 97l99 624q2 16 16 27q12 11 28 11t26 -12t8 -28 l-102 -642q-16 -97 -50.5 -175.5t-88 -133.5t-126.5 -85t-165 -30q-68 0 -119.5 14.5t-87.5 42t-58 65.5t-31.5 85t-9.5 102z" />
<glyph unicode="V" horiz-adv-x="774" d="M182 1036q-3 16 6 30q8 16 24 20q8 3 16 2.5t14 -4t10.5 -9t5.5 -12.5l157 -885l431 885q4 7 10 12.5t13 9t15 4.5t15 -1q6 -2 11 -7.5t7.5 -12t2.5 -13.5t-4 -15l-510 -1030q-4 -6 -9.5 -10.5t-12.5 -4.5t-11.5 4.5t-5.5 10.5z" />
<glyph unicode="W" horiz-adv-x="1519" d="M178 1038q-2 16 8 30q9 16 25 20q8 2 15.5 1t14 -4t10.5 -9t5 -13l139 -893l505 892q6 10 15 17t21 7t19 -6t9 -18l218 -892l420 893q4 8 9.5 13.5t13 8.5t14.5 4t13 -1q14 -4 19.5 -18t-1.5 -30l-492 -1030q-3 -6 -9.5 -10.5t-12.5 -4.5q-7 0 -11.5 4.5t-6.5 10.5 l-226 938l-532 -938q-4 -6 -9 -10.5t-12 -4.5t-11 4.5t-6 10.5z" />
<glyph unicode="X" horiz-adv-x="671" d="M32.5 26q-2.5 14 5.5 27l340 498l-178 483q-4 14 3 29t21 23t28 3.5t20 -18.5l164 -443l290 439q10 14 26 19.5t30 -0.5q12 -8 15 -24t-7 -30l-324 -481l184 -495q5 -14 -2.5 -29t-22.5 -23q-8 -4 -15.5 -4t-14.5 2t-13 7t-8 11l-164 462l-313 -462q-8 -14 -23 -19 q-14 -5 -26 3q-13 8 -15.5 22z" />
<glyph unicode="Y" horiz-adv-x="782" d="M192 1030q-6 14 0 30t22 24q15 8 29.5 3.5t19.5 -18.5l213 -529l386 531q10 12 25 16q15 5 28 -3q12 -8 14 -23t-8 -29l-416 -571l-67 -422q-2 -8 -6 -15t-11 -12.5t-14 -8.5t-14 -3q-8 0 -14.5 3t-11.5 8t-7.5 12t-1.5 14l68 424z" />
<glyph unicode="Z" horiz-adv-x="784" d="M50 51q2 16 13 28l750 929h-547q-16 0 -25 10t-7 24q1 8 5.5 15t10 12.5t12 9t14.5 3.5h576q12 0 21.5 -5t16 -12t9.5 -17t1 -22q-1 -8 -5 -16q-3 -8 -9 -16l-746 -922h582q16 0 25 -11t6 -26q-2 -16 -14.5 -25.5t-26.5 -9.5h-619q-10 0 -19 4t-14.5 11t-8.5 16t-1 20z " />
<glyph unicode="[" horiz-adv-x="401" d="M45 -196l207 1305q2 8 6 15.5t10 12.5t14 8.5t16 3.5h166q17 0 27.5 -12t7.5 -28q-2 -8 -6 -14.5t-10.5 -12t-13.5 -8.5t-15 -3h-131l-195 -1227h130q17 0 26 -12q10 -10 8 -26q-2 -8 -6 -15.5t-10 -13t-14 -9.5t-15 -4h-167q-17 0 -27.5 12t-7.5 28z" />
<glyph unicode="\" horiz-adv-x="809" d="M238 1138q-4 14 2 28t19 20q15 6 28 2t17 -18l440 -1125q4 -14 -2.5 -28.5t-21.5 -20.5q-14 -6 -28 -2t-19 18z" />
<glyph unicode="]" horiz-adv-x="401" d="M45 -194q1 8 5.5 15t11 12t14.5 8t16 3h129l195 1227h-132q-16 0 -26 11q-8 12 -6 27q2 8 6 15.5t10 12.5t14 8.5t16 3.5h166q17 0 27.5 -12t7.5 -28l-207 -1305q-2 -8 -6 -15t-10 -12.5t-14 -9t-17 -3.5h-167q-8 0 -15 4t-11 9.5t-6 13t-1 15.5z" />
<glyph unicode="^" horiz-adv-x="844" d="M153 450q-1 14 7 27l376 581q10 16 26 25t34 9t30 -9t18 -24l195 -584q4 -12 -3.5 -25.5t-21.5 -19.5q-15 -6 -27.5 -1t-16.5 19l-190 556l-362 -558q-8 -14 -22 -18t-28 2q-13 6 -15 20z" />
<glyph unicode="_" horiz-adv-x="717" d="M-18 -131q2 16 14 25.5t26 9.5h644q14 0 22 -9.5t6 -23.5t-13 -24.5t-25 -10.5h-645q-14 0 -23 10q-8 9 -6 23z" />
<glyph unicode="`" horiz-adv-x="418" d="M276 962q-1 10 1.5 20t8.5 18t16 14q20 10 37 6t25 -22l78 -156q3 -6 3 -12.5t-2.5 -13t-7.5 -12.5t-11 -10q-14 -8 -28 -5t-19 16l-95 139q-5 8 -6 18z" />
<glyph unicode="a" horiz-adv-x="866" d="M95 379q13 82 50 152.5t93 122.5t129 81t157 29q46 0 87.5 -10t77 -29.5t63.5 -48.5q26 -30 44 -68l18 113q2 16 15 26.5t29 10.5t23 -12t5 -27l-110 -691q-2 -8 -5.5 -14.5t-9.5 -12t-13.5 -8.5t-14.5 -3q-15 0 -23 11t-6 25l20 120q-62 -78 -142.5 -119t-176.5 -41 q-86 0 -150 31t-104 84q-41 53 -55 125q-8 38 -7 78q0 37 6 75zM166 379q-5 -30 -5 -59q1 -32 7 -64q12 -60 43 -105.5t82 -72.5t121 -27q73 0 132.5 27.5t105 73.5t75 106.5t39.5 128.5q4 29 4 56q0 34 -6 66q-12 57 -45.5 99t-85.5 66t-121 24q-44 0 -84.5 -12t-77 -34 t-67.5 -52t-54.5 -65.5t-39.5 -74.5q-17 -40 -23 -81z" />
<glyph unicode="b" horiz-adv-x="884" d="M96 26l183 1158q2 8 6 14t10 11t13 8t14 3q16 0 25 -10t6 -26l-91 -574q30 40 67 69.5t78 49t86 28.5t89 9q84 0 148 -29t104 -81t56 -122q8 -38 8 -81q0 -35 -6 -72q-8 -54 -28.5 -105t-50 -95t-67.5 -80t-83.5 -61.5t-97.5 -39.5q-53 -14 -109 -14q-42 0 -83 10t-77 30 t-64 50t-44 68l-18 -116q-2 -8 -6 -14.5t-10 -12t-13 -8.5t-14 -3q-16 0 -24.5 11t-6.5 25zM220 379q-5 -31 -5 -61q0 -34 6 -64q11 -58 42 -103t82.5 -71.5t121.5 -26.5t129.5 27t105.5 72.5t76 105t40 123.5q5 28 5 55q0 32 -7 64q-12 58 -44 102.5t-82 71t-116 26.5 q-72 0 -133 -25t-106 -68t-75 -102t-40 -126z" />
<glyph unicode="c" horiz-adv-x="696" d="M90 377q8 54 30 104t53 93.5t72 78.5t88 60t100 39t108 14q65 0 121 -18t105 -54q12 -8 15.5 -21.5t-4.5 -27.5q-5 -7 -11.5 -12t-13.5 -7.5t-14 -2t-13 4.5q-44 33 -92 52q-48 18 -106 18q-45 0 -87.5 -12t-81 -33t-72 -51t-59 -66t-43 -76t-23.5 -83q-4 -26 -4 -51 q0 -16 2 -32q4 -41 18 -77.5t38 -66.5t55.5 -52t70.5 -34.5t84 -12.5q58 0 112 19q56 20 110 51q6 4 13 4t13.5 -2.5t11 -8t6.5 -12.5q3 -12 -4.5 -24t-21.5 -20q-64 -35 -124 -53.5t-124 -18.5q-84 0 -151 30t-110.5 83t-61.5 124q-10 41 -10 86q0 33 5 68z" />
<glyph unicode="d" horiz-adv-x="862" d="M86 276q-1 17 -1 34q0 35 5 71q13 82 50.5 152.5t93.5 122.5t128 81t158 29q44 0 84.5 -9.5t76 -29t63.5 -47.5q30 -30 50 -68l88 574q2 8 6 14.5t10 11.5t13 7.5t13 2.5q16 0 25 -10t7 -26l-184 -1160q-1 -7 -5 -13.5t-10 -11.5t-13.5 -8t-14.5 -3q-14 0 -23 10 q-8 10 -6 26l20 120q-27 -40 -64.5 -70t-79.5 -50t-87 -30t-88 -10q-58 0 -105.5 14t-84.5 39.5t-64 61.5t-42 80.5t-19 94.5zM162 381q-5 -30 -4 -59q0 -32 6 -64q12 -60 43 -105.5t82 -72.5t121 -27q73 0 133 27.5t105 73.5t74.5 106.5t39.5 128.5q4 28 4 55q0 35 -7 67 q-13 57 -46 99t-85.5 66t-121.5 24q-44 0 -84.5 -12t-76.5 -34t-66.5 -52t-54.5 -65.5t-40 -74.5q-16 -40 -22 -81z" />
<glyph unicode="e" horiz-adv-x="790" d="M90 377q8 52 28 101t49 92t67 78.5t82.5 61.5t95.5 40q50 14 106 14q76 0 137 -27.5t101 -76t58 -114.5q12 -44 11 -93q0 -25 -3 -51q-2 -14 -14 -24t-26 -10h-622q-6 -33 -5 -64q0 -34 7 -66q14 -58 48 -100t86 -64.5t118 -22.5q44 0 80.5 7.5t69 23.5t61.5 42 q29 24 55 60q6 9 14 13.5t15 5t12 -1t9 -3.5q12 -6 13 -19t-9 -25q-36 -48 -73 -80t-78 -52t-87 -28t-101 -8q-84 0 -147.5 31t-102.5 84.5t-53 124.5q-8 37 -8 77q0 36 6 74zM172 436h585v7q0 52 -14 97q-15 48 -46.5 83t-79 55t-109.5 20q-57 0 -111 -20t-99.5 -56 t-78.5 -84t-47 -102z" />
<glyph unicode="f" horiz-adv-x="317" d="M98 26l104 654h-58q-16 0 -25 8t-7 24t15 26t28 10h55l33 208q4 20 8.5 45t11.5 49t17 47t23 41q16 22 37 39t44.5 29t49.5 18q26 5 52 5q16 0 35.5 -3.5t35.5 -9.5q13 -4 19.5 -14t2.5 -24q-2 -8 -6.5 -14.5t-10 -11t-12 -6t-12.5 0.5q-41 13 -74 13q-38 0 -63 -15 t-42 -42t-27 -64.5t-17 -82.5l-33 -208h150q16 0 24 -10t6 -26q-2 -14 -13.5 -23t-25.5 -9h-149l-104 -654q-1 -7 -5 -13.5t-9.5 -11.5t-12.5 -8t-14 -3q-16 0 -25 10q-8 10 -6 26z" />
<glyph unicode="g" horiz-adv-x="874" d="M14 -133q0 8 3 14.5t9 12.5t14 10q6 3 14 4q16 2 24 -8t8 -25q4 -56 23 -96.5t52 -66.5t79 -38t104 -12q36 0 71.5 6.5t69 20t64.5 34.5t56 51q28 32 46.5 67t31.5 71t21 73t14 75l13 84q-32 -40 -70 -70t-80 -50t-86.5 -30t-88.5 -10q-55 0 -100.5 14t-82.5 40 t-63.5 62.5t-42 80t-19.5 92.5q-1 16 -1 33q0 34 5 69q8 54 29 103.5t51 92.5t69 79t85 61t97 39t106 14q46 0 86.5 -10.5t74.5 -30t60 -48.5t44 -67l18 113q2 14 14.5 24.5t26.5 10.5q16 0 24.5 -11.5t6.5 -25.5l-104 -661q-7 -43 -15.5 -84.5t-22.5 -81t-35 -78t-54 -74.5 q-32 -36 -69.5 -63t-79.5 -45t-86 -27t-88 -9q-73 0 -132.5 16t-102.5 49t-67 84q-22 51 -24 122zM174 379q-5 -31 -5 -61q0 -33 6 -64q11 -60 43 -105.5t83 -72.5t120 -27q73 0 133 27.5t105 73.5t74.5 107.5t40.5 129.5q4 29 4 56q0 34 -6 66q-13 57 -46 98t-85.5 65 t-120.5 24q-44 0 -85 -12t-77 -34t-67 -52t-55 -65t-40 -74t-22 -80z" />
<glyph unicode="h" horiz-adv-x="766" d="M100 26l184 1160q1 6 5.5 13t10.5 12t13 8t13 3q16 0 24 -12q8 -10 5 -26l-89 -566q52 71 119.5 107.5t146.5 36.5q74 0 120.5 -21.5t71 -62t28.5 -98.5q1 -15 1 -32q0 -45 -8 -98l-67 -422q-2 -16 -14 -27t-27 -11q-14 0 -23 10q-10 10 -8 26l67 424q6 34 7.5 65.5 t-2 59t-14 49.5t-29.5 38.5t-49 25.5q-28 8 -70 8q-46 0 -84.5 -13.5t-69 -37t-53 -55.5t-39 -69t-27.5 -76t-17 -77l-54 -340q-2 -16 -14 -27q-10 -11 -26 -11t-25 10t-7 26z" />
<glyph unicode="i" horiz-adv-x="309" d="M120 26l110 695q1 7 5.5 13.5t10.5 12t13 8.5t15 3q16 0 23 -12t5 -26l-109 -692q-2 -16 -14 -27q-11 -11 -27 -11q-14 0 -24 10t-8 26zM246 1004q2 13 9 24.5t17.5 20.5t23 14.5t26.5 5.5t26 -5.5t19.5 -14.5t11 -20.5t1.5 -24.5q-2 -14 -9 -26t-17.5 -21t-24 -14 t-27.5 -5t-25 5t-18.5 14t-11 21t-1.5 26z" />
<glyph unicode="j" horiz-adv-x="309" d="M58 -372l172 1093q2 16 15 26.5t27 10.5q16 0 24 -11t6 -26l-172 -1091q-2 -16 -14 -28t-28 -12q-14 0 -24 11q-8 11 -6 27zM247 1006q2 13 9 24.5t17.5 20.5t23 14.5t26.5 5.5t25.5 -5.5t19.5 -14.5t11 -20.5t1 -24.5q-2 -14 -9 -26t-17.5 -21t-24 -14t-27.5 -5t-25 5 t-18.5 14t-11 21t-0.5 26z" />
<glyph unicode="k" horiz-adv-x="639" d="M100 26l184 1160q2 16 14 27t28 11t24 -12t5 -28l-118 -748l407 312q11 11 25.5 10.5t24.5 -10.5t7 -24q-3 -16 -15 -26l-361 -272l296 -370q8 -11 6 -26t-14 -26q-13 -10 -27 -10t-22 10l-295 375l-47 -37l-50 -314q-2 -16 -14 -27t-27 -11q-16 0 -25 10q-8 10 -6 26z " />
<glyph unicode="l" horiz-adv-x="309" d="M123 26l183 1160q2 16 15 27t28 11q16 0 23 -12q8 -10 6 -26l-184 -1159q-2 -16 -14 -27q-10 -10 -26 -10t-25 10t-6 26z" />
<glyph unicode="m" horiz-adv-x="1151" d="M100 26l110 693q2 8 6 15t10 12.5t13 8.5t14 3q16 0 23.5 -13t5.5 -28l-14 -82q28 38 56 63t56.5 40t56 21.5t55.5 6.5q33 0 64.5 -11t57 -31t42 -48t20.5 -64q22 40 53 69t65.5 48t70.5 28t69 9q67 0 110 -21t65.5 -59t26.5 -92q1 -15 1 -31q0 -41 -7 -88l-71 -447 q-2 -16 -14.5 -27t-28.5 -11t-25 10t-6 26l71 449q8 46 8 87t-13 71.5t-43 48.5t-84 18q-57 0 -99.5 -23t-72 -59t-46.5 -82q-18 -46 -25 -90l-66 -418q-2 -16 -13.5 -27t-25.5 -11q-16 0 -26 10t-8 26l67 420q8 44 8 88q-1 3 -1 5q0 46 -14 82.5t-44 58.5t-82 22 q-36 0 -67 -13.5t-56.5 -37t-46 -54.5t-35.5 -65t-25 -69t-16 -67l-58 -368q-2 -16 -14 -27t-27 -11q-16 0 -25 10q-8 10 -6 26z" />
<glyph unicode="n" horiz-adv-x="755" d="M100 26l110 695q1 8 5.5 14.5t10.5 11.5t13 8t14 3q8 0 14 -3.5t10 -9t5.5 -13.5t1.5 -15l-16 -93q28 38 59.5 64.5t64.5 43t66.5 24.5t67.5 8q124 0 178 -69q38 -49 38 -135q0 -35 -6 -77l-72 -455q-2 -16 -14 -27t-28 -11t-24 10t-6 26l72 457q6 37 6 68q0 15 -1 27 q-4 40 -22.5 66.5t-52.5 39t-84 12.5q-44 0 -81 -13.5t-66 -37t-51.5 -55.5t-39 -69t-27.5 -76t-17 -77l-54 -340q-2 -8 -5.5 -14.5t-9.5 -12t-13.5 -8.5t-14.5 -3q-14 0 -23 10q-10 10 -8 26z" />
<glyph unicode="o" horiz-adv-x="833" d="M90 274q-3 21 -3 43q0 29 5 60q8 54 30 103.5t53.5 93.5t72 79.5t86.5 61t97 39.5t104 14q82 0 147.5 -30t109 -82t61.5 -123q10 -41 11 -86q0 -33 -6 -68q-9 -56 -30.5 -106.5t-52.5 -94.5t-72 -79.5t-87.5 -60.5t-98 -38.5t-106.5 -13.5q-52 0 -98.5 14t-85 39.5 t-67.5 61t-46.5 79.5t-23.5 94zM166 377q-4 -27 -5 -52q0 -37 9 -71q14 -58 48 -102t85 -70t115 -26q44 0 87 11t81.5 32t72 50t59.5 64.5t43.5 77t24.5 86.5q5 30 5 58q-1 37 -9 70q-14 59 -50 102t-90 67t-122 24q-43 0 -84 -11.5t-78.5 -33t-69.5 -51.5t-57 -65.5 t-42 -76t-23 -83.5z" />
<glyph unicode="p" horiz-adv-x="841" d="M35 -372l173 1093q2 14 14 25.5t27 11.5q8 0 13.5 -3.5t9.5 -9t5 -12.5t1 -14l-18 -115q34 43 73 73.5t79 49.5t80 28t78 9q84 0 146 -31.5t100.5 -86t51.5 -126.5q7 -37 7 -78q0 -37 -6 -76q-13 -82 -49 -152t-91 -122t-126 -81t-155 -29q-39 0 -76 7t-70.5 24t-62.5 45 t-53 69l-79 -497q-1 -7 -5 -14.5t-10 -12.5t-12.5 -9t-13.5 -4q-16 0 -25 11t-6 27zM218 358q-5 -30 -5 -58q0 -33 7 -64q12 -56 43 -97t81 -64.5t116 -23.5q42 0 82 11.5t75 32.5t65 50t53 64t38.5 74t21.5 81q4 30 4 59q0 12 -1 25q-2 41 -13 78t-31 68.5t-48.5 54t-65 35 t-80.5 12.5q-70 0 -128.5 -28t-102 -75t-71.5 -108q-30 -61 -40 -127z" />
<glyph unicode="q" horiz-adv-x="844" d="M88 366q9 56 28.5 107t48.5 95.5t67 81t82 62.5t95 40t107 14q36 0 72.5 -8t69.5 -26t62.5 -47t53.5 -73l18 109q1 8 5 14.5t9.5 11.5t12.5 8t13 3q16 0 25 -12t6 -27l-172 -1087q-2 -8 -5.5 -15.5t-9 -13t-12 -9.5t-14.5 -4q-16 0 -25 11t-6 27l80 506 q-38 -42 -76.5 -70t-77.5 -45.5t-78 -25t-77 -7.5q-83 0 -145 29t-101.5 80t-53.5 121q-8 37 -8 77q0 35 6 73zM162 360q-5 -31 -5 -59q0 -33 7 -63q11 -56 42.5 -97t82.5 -64.5t117 -23.5q42 0 81 11.5t74 32.5t65 50t53 64t39 74t22 81q5 30 5 60q0 33 -6 64 q-11 61 -41 107t-79 73.5t-115 27.5q-46 0 -88 -12.5t-78 -35t-65 -54t-51.5 -69t-37.5 -79.5q-16 -44 -22 -88z" />
<glyph unicode="r" horiz-adv-x="401" d="M98 26l110 695q2 16 14.5 26.5t26.5 10.5q16 0 24.5 -12t6.5 -26l-12 -75q12 26 31 47.5t42 37.5t51 25q26 9 56 9q21 0 40 -4q20 -4 36 -12q12 -6 19.5 -18t-0.5 -28q-4 -8 -9.5 -13t-12 -9t-14 -4t-13.5 2q-18 7 -36 11.5t-33 4.5q-40 0 -68.5 -15.5t-49.5 -41.5 t-34.5 -59.5t-22.5 -68t-14.5 -68t-9.5 -60.5l-56 -355q-2 -16 -15 -26t-28 -10q-14 0 -23 10q-8 10 -6 26z" />
<glyph unicode="s" horiz-adv-x="551" d="M52 178q-2 14 5.5 27t20.5 18q15 6 27.5 0.5t16.5 -18.5q8 -36 20.5 -64.5t32 -47.5t45.5 -29q26 -11 62 -11q34 0 66 12.5t58 35t44 53t23 65.5q6 34 -2.5 58t-25.5 40.5t-41 27.5t-49 21q-24 9 -48 19.5t-46 23.5t-40.5 28t-30.5 35t-17 45t-1 57q6 43 28 77.5 t53.5 59.5t70 39t78.5 14q27 0 53 -7t48.5 -22t40.5 -36t30 -50q6 -14 -1 -28.5t-22 -22.5q-14 -8 -27.5 -4t-19.5 18q-17 40 -47.5 61t-68.5 21q-22 0 -45.5 -8.5t-43 -24t-33.5 -35.5t-18 -44q-4 -26 2 -45.5t19 -34t32 -24.5t40 -19l61 -25q31 -12 60.5 -28t51.5 -41 q20 -25 30 -61q5 -19 6 -43q0 -20 -4 -44q-8 -52 -34 -95t-63 -73.5t-83 -47.5t-94 -17q-90 0 -147 50t-73 144z" />
<glyph unicode="t" horiz-adv-x="350" d="M132 28l102 652h-55q-16 0 -25 8q-8 8 -6 24t14 26t28 10h55l37 235q1 7 5.5 13.5t10.5 12t13 8.5t15 3q16 0 24 -11t6 -27l-38 -234h93q16 0 24.5 -9.5t6.5 -23.5q-2 -16 -14 -25.5t-26 -9.5h-94l-103 -652q-2 -16 -14.5 -27t-28.5 -11t-24 12q-8 10 -6 26z" />
<glyph unicode="u" horiz-adv-x="733" d="M127 169q-1 17 -1 36q0 45 8 96l66 420q2 14 14 25.5t27 11.5q16 0 24 -13t6 -28l-66 -416q-7 -47 -7 -87v-16q2 -46 21 -78t57 -50q36 -17 98 -17t105 17.5t72 49.5t46 78t26 103l67 420q1 7 4.5 13.5t9.5 12t13 8.5t13 3q16 0 24 -13t6 -28l-66 -416 q-12 -74 -36 -133.5t-64 -100t-97 -62t-133 -21.5q-78 0 -128 22t-77 63t-32 100z" />
<glyph unicode="v" horiz-adv-x="661" d="M126 706q-4 14 2 28q8 14 22 20q15 6 28 2q12 -4 16 -18l163 -603l339 598q7 14 21 19q15 6 29 2q13 -4 17 -18t-4 -28l-405 -700q-3 -6 -8.5 -9.5t-13.5 -3.5q-6 0 -11 3.5t-6 9.5z" />
<glyph unicode="w" horiz-adv-x="1165" d="M126 706q-4 14 4 28t22 20t27 0.5t17 -19.5l155 -598l331 601q4 6 10 10t12 4q7 0 12 -4t6 -10l144 -601l337 596q8 14 21 20q14 7 26 1q13 -6 16.5 -19t-4.5 -26l-398 -701q-3 -6 -9.5 -9.5t-12.5 -3.5t-12 3q-4 4 -6 10l-144 598l-330 -598q-3 -6 -8.5 -9.5t-13.5 -3.5 q-6 0 -11 3.5t-6 9.5z" />
<glyph unicode="x" horiz-adv-x="671" d="M25.5 23q0.5 13 10.5 24l313 351l-185 302q-7 12 -2.5 26t16.5 24t26.5 7t21.5 -13l180 -298l270 294q10 14 25 16q15 4 26 -6q10 -9 11 -24q2 -16 -9 -28l-281 -300l201 -345q8 -12 3.5 -27.5t-19.5 -25.5q-14 -10 -28.5 -7t-24.5 15l-192 334l-306 -338q-6 -6 -12 -9 t-13 -3t-13 2t-9 6q-10 10 -9.5 23z" />
<glyph unicode="y" horiz-adv-x="729" d="M123 718.5q1 7.5 5 13.5t10 11t12 9q8 3 15 3.5t13 -2t10 -7t6 -11.5l202 -663l372 661q8 14 22 19.5t28 1.5q12 -6 15 -19t-4 -27l-620 -1095q-8 -14 -21.5 -19.5t-27.5 -1.5q-13 4 -15.5 17t4.5 27l192 348l-217 720q-2 7 -1 14.5z" />
<glyph unicode="z" horiz-adv-x="710" d="M42 44q4 16 16 28l626 606h-446q-16 0 -25 10q-9 8 -7 24t15 26t28 10h500q18 0 28.5 -13t8.5 -31q-3 -16 -15 -28l-623 -608h536q16 0 25 -10t7 -25q-2 -16 -14 -24.5t-26 -8.5h-596q-18 0 -29 13t-9 31z" />
<glyph unicode="{" horiz-adv-x="401" d="M112 426l10 62q26 15 47 31.5t37 36t27 44t16 56.5l40 252q10 62 24.5 103t38.5 68t60 43t87 25q17 0 27 -10.5t8 -26.5q-2 -8 -6 -15t-10 -12.5t-14 -8.5t-15 -3q-16 -4 -33.5 -8t-33.5 -14.5t-29 -30.5t-18 -56l-43 -268q-8 -49 -21.5 -85t-33 -63.5t-43.5 -48.5 q-22 -21 -50 -39q20 -17 37 -37.5t27 -48.5t12 -66q2 -39 -6 -93l-42 -264q-6 -36 1.5 -56.5t21 -31.5t29.5 -15t30 -6q16 0 26 -11t7 -27v2q-2 -17 -15.5 -27.5t-29.5 -10.5q-50 9 -80 24.5t-45.5 42.5t-17 68t8.5 103l40 252q5 32 1.5 57t-13.5 45t-26 36t-38 32z" />
<glyph unicode="|" horiz-adv-x="428" d="M180 26l177 1119q2 16 14.5 26.5t28.5 10.5q17 0 26.5 -11t6.5 -26l-177 -1119q-2 -16 -15 -26t-28 -10q-17 0 -26 10t-7 26z" />
<glyph unicode="}" horiz-adv-x="401" d="M12 -196v-2q2 8 6 15t10 12t14 8q6 3 14 3q14 2 32 6t35 15t30 31.5t19 56.5l42 264q8 54 23 92.5t34 66.5t42.5 48.5t49.5 37.5q-22 18 -39.5 39t-27.5 48.5t-13 64t5 84.5l42 268q6 36 0 56t-18.5 30.5t-29 14.5t-30.5 8q-16 0 -26 11t-8 28q2 16 16 26.5t32 10.5 q48 -9 78.5 -25t46 -43t17.5 -69q2 -40 -8 -102l-39 -243q-5 -32 -2 -57.5t12.5 -47.5t25 -39.5t37.5 -32.5l-10 -62q-26 -16 -48 -32t-38 -36t-27 -45t-17 -57l-40 -252q-10 -62 -24 -103t-38 -68t-59.5 -42t-87.5 -25q-16 0 -26 10q-9 10 -7 28z" />
<glyph unicode="~" horiz-adv-x="844" d="M131 307q-1 7 1.5 15t8.5 14q22 23 42.5 44.5t43.5 38t51.5 26t65.5 9.5q28 0 54 -8t51 -20t49 -26t47 -26t45 -20t42 -8q21 0 38.5 6t32.5 17t29 26t28 33q12 14 28 19t30 -3q14 -10 15.5 -26t-10.5 -31q-18 -22 -39.5 -44.5t-47 -40.5t-55.5 -30q-31 -12 -65 -12 q-25 0 -48 8t-45.5 21t-45 27.5t-46 27t-48.5 20.5t-52 8q-22 0 -38.5 -5t-30.5 -14.5t-28 -23.5t-30 -32q-12 -13 -27.5 -18t-29.5 3q-7 4 -11 11t-5 14z" />
<glyph unicode="&#xa2;" horiz-adv-x="932" d="M288 536q10 62 38.5 117t71 98t96.5 71q52 28 112 36l10 60q2 14 13 23t25 9t22 -9t6 -23l-10 -58q52 -3 97 -22.5t81 -55.5q4 -4 5 -11t0 -13.5t-5.5 -13t-10.5 -11.5q-4 -4 -10.5 -5.5t-12.5 -1.5t-12 1.5t-10 5.5q-16 14 -31.5 24.5t-31 17.5t-32.5 11t-37 6l-82 -514 q39 3 80.5 21.5t82.5 48.5q5 4 11.5 6t13 2t12 -2t8.5 -6q4 -4 6 -11t2 -13.5t-3 -13t-9 -11.5q-24 -18 -50 -33.5t-54 -27t-56 -19t-54 -8.5l-10 -57q-2 -14 -13 -23.5t-24 -9.5q-14 0 -22.5 9.5t-5.5 23.5l9 59q-58 8 -102.5 35.5t-73 70.5t-39.5 99t-1 118zM357 536 q-7 -46 1.5 -88t29.5 -76.5t54 -58.5q32 -25 73 -33l81 510q-44 -8 -84 -31.5t-72 -57.5t-54 -76.5t-29 -88.5z" />
<glyph unicode="&#xa3;" horiz-adv-x="798" d="M28 33q2 14 14 24.5t26 10.5h43l65 414h-42q-14 0 -24 9q-8 9 -6 23t14 24.5t26 10.5h43l31 195q12 73 44.5 136.5t81 111.5t109.5 76t130 28t126 -24.5t95.5 -69t55 -106.5t6.5 -136q-1 -8 -5.5 -15t-10.5 -12t-14 -8t-16 -3q-16 0 -24 11t-6 27q8 59 -5 106.5t-43 82 t-74 53t-97 18.5t-100 -22t-84 -59.5t-62 -88t-33 -106.5l-32 -195h191q14 0 22.5 -10.5t6.5 -24.5t-14 -23t-26 -9h-190l-66 -414h502q14 0 23 -11t7 -24q-2 -14 -14 -23.5t-26 -9.5h-618q-14 0 -24 10q-8 9 -6 23z" />
<glyph unicode="&#xa5;" horiz-adv-x="788" d="M92 428q2 14 13 23.5t25 9.5h298l-60 143h-215q-14 0 -22.5 8.5t-5.5 22.5q2 14 13 23.5t25 9.5h178l-147 362q-6 14 0 30t22 24q15 8 29.5 3.5t20.5 -18.5l212 -529l386 531q10 12 25 16q15 5 28 -3q12 -8 14 -23t-8 -29l-267 -364h180q14 0 22 -10q8 -9 6 -23 t-13 -22.5t-25 -8.5h-214l-105 -143h297q14 0 22 -9.5t6 -23.5t-13 -22t-25 -8h-298l-58 -370q-2 -8 -6 -14.5t-10.5 -12t-14 -8.5t-13.5 -3q-16 0 -27 10t-9 26l59 372h-297q-14 0 -22 8t-6 22z" />
<glyph unicode="&#xa9;" horiz-adv-x="1212" d="M125 394q-9 70 3 148q12 77 44 148.5t79 133.5t106 113t128 88t143 57t152 20q77 0 145.5 -20t124.5 -57t99 -88t70 -113t35.5 -133.5t-3.5 -148.5t-43.5 -148.5t-78 -134.5t-106 -114t-127.5 -88t-142 -57t-152 -20q-77 0 -145.5 20t-125.5 57t-100 88t-70 114t-36 135z M200.5 412q7.5 -62 30.5 -116.5t60 -98.5t86.5 -75.5t109 -48.5t127.5 -17q67 0 131.5 17t123.5 48.5t109.5 75.5t90 98.5t66.5 116.5t38 130q10 67 3.5 129.5t-29.5 116t-60 97.5t-85 75.5t-107 48.5t-127 17t-133 -17t-124 -48.5t-110.5 -75.5t-91.5 -97.5t-67 -115.5 q-28 -62 -38 -130q-11 -68 -3.5 -130zM400 536q7 46 24.5 88t43.5 78t59 65.5t71 50.5t80 32.5t87 11.5q59 0 109 -20q49 -22 89 -60q10 -10 8.5 -24t-11.5 -25q-12 -10 -26 -11.5t-24 7.5q-20 18 -38.5 30.5t-37 20t-39 11t-43.5 3.5q-34 0 -66.5 -9t-62 -26.5t-55.5 -41.5 t-46 -52.5t-34 -60.5q-12 -34 -18 -68t-2.5 -66t14.5 -61t29 -53t41.5 -42t52.5 -28t63 -10q46 0 90 16q42 16 92 52q12 10 27 9.5t23 -11.5q7 -11 3.5 -25.5t-15.5 -23.5q-52 -39 -110.5 -61.5t-117.5 -22.5q-68 0 -121 25.5t-87.5 70t-48 104t-3.5 127.5z" />
<glyph unicode="&#xab;" horiz-adv-x="536" d="M108 459l220 221q11 11 25 12.5t24 -6.5q9 -9 8 -22.5t-11 -24.5l-178 -180l118 -179q8 -11 5 -24q-3 -12 -14 -22q-12 -10 -26.5 -9t-22.5 13zM276 459l218 221q10 11 24 12q12 2 22 -6q11 -9 11 -22q1 -14 -9 -25l-180 -180l120 -183q8 -10 4 -22t-16 -20 q-12 -10 -24 -9t-20 11z" />
<glyph unicode="&#xad;" horiz-adv-x="526" d="M135 389q2 16 13.5 26.5t27.5 10.5h306q16 0 25 -10.5t7 -26.5t-15 -26.5t-28 -10.5h-305q-16 0 -25 11t-6 26z" />
<glyph unicode="&#xae;" horiz-adv-x="1376" d="M177 395q-9 71 3 147t43 147t78 132.5t106.5 112t128 86.5t143.5 56t152 20q76 0 144.5 -20t124.5 -56t99.5 -86.5t70 -112t35.5 -132.5t-3 -147t-43.5 -147t-78 -133t-105.5 -113t-127 -87t-142 -56t-151 -20q-78 0 -146.5 20t-125.5 56t-100 87t-70 113t-36 133z M257 415q7 -61 30 -114t60 -96.5t85.5 -74.5t108 -47.5t127.5 -16.5q66 0 130 16.5t122 47.5t108.5 74.5t90 96.5t66.5 114t37 127t3 127t-30 113t-60 95.5t-85 74t-107 47.5t-125 17q-68 0 -132.5 -17t-123 -47.5t-109.5 -74t-90.5 -95.5t-66 -113t-36.5 -127t-3 -127z M490 264l84 533q1 8 5.5 14.5t11 12t14.5 8.5q9 4 17 4h194q62 0 104 -11.5t68 -33t35 -52.5t3 -69q-6 -40 -26 -71t-48 -52t-64 -32t-76 -13l108 -213q7 -16 -0.5 -32.5t-23.5 -24.5q-17 -10 -32.5 -5t-21.5 19l-120 256h-112l-38 -236q-2 -8 -6 -15.5t-10 -13t-14 -8.5 t-17 -3q-17 0 -27 11t-8 27zM620 580h94q16 0 39 -1t47 0.5t48 6t44 14.5t34 27.5t18 44.5t-7 43.5t-32 25.5t-48 12t-55 3h-154z" />
<glyph unicode="&#xbb;" horiz-adv-x="536" d="M134 259q2 13 12 21l176 179l-120 180q-8 10 -6 22.5t12 22.5q12 10 25 10t21 -10l152 -225l-222 -223q-11 -10 -24 -10q-12 0 -20 10t-6 23zM300 256q2 12 12 22l178 181l-119 178q-10 9 -7.5 23t14.5 24t26 7t22 -13l146 -219l-221 -221q-10 -11 -23 -11.5t-21 7.5 q-10 10 -7 22z" />
<glyph unicode="&#xbc;" horiz-adv-x="1171" d="M215 13.5q-1 6.5 1 13.5t7 12l901 1035q4 4 9.5 9t12 7t13.5 2t13 -4q10 -6 12 -18q2 -10 -6 -20l-900 -1040q-13 -14 -25.5 -18t-24.5 2q-6 2 -9 7.5t-4 12zM292 1053q2 12 11 20.5t21 8.5h116q12 0 19.5 -9.5t5.5 -21.5l-84 -533q-2 -12 -12.5 -21t-22.5 -9t-20 9 t-6 21l80 506h-84q-12 0 -19 8t-5 21zM657 118q1 5 3 7l414 480q5 6 12 6q6 0 9.5 -4t2.5 -10l-69 -433h57q12 0 20 -9t6 -22q-2 -12 -12 -20.5t-22 -8.5h-58l-14 -84q-2 -12 -12.5 -21t-22.5 -9t-20 9t-6 21l13 84h-290q-6 0 -9 4t-2 10zM769 164h199l45 286z" />
<glyph unicode="&#xbd;" horiz-adv-x="1171" d="M172.5 13.5q-0.5 6.5 1.5 13.5t6 12l902 1041q4 4 9 8t12 7t13 3q8 0 14 -4q10 -6 12 -18t-6 -22l-901 -1044q-13 -14 -25 -18t-24 2q-6 2 -9.5 7.5t-4 12zM292 1053q2 12 11 20.5t21 8.5h116q12 0 19.5 -9.5t5.5 -21.5l-84 -533q-2 -12 -12.5 -21t-22.5 -9t-20 9t-6 21 l80 506h-84q-12 0 -19 8t-5 21zM742 35q2 15 14 25q29 27 60.5 56.5t63.5 58.5t64 58.5t60 57.5q12 13 27 29t28 33t22 36t12 37q4 26 -2 47.5t-20.5 37.5t-35.5 25t-46 9q-24 0 -47.5 -8.5t-42.5 -25t-33 -42t-21 -59.5q-2 -14 -12.5 -22.5t-24.5 -8.5t-22 9q-6 8 -4 22 q10 49 31.5 85.5t51 60.5t64.5 36t69 12q38 0 70 -14t54 -38t31 -57t3 -71q-5 -31 -19 -58t-33.5 -51.5t-43.5 -46.5t-48 -45l-176 -165h242q12 0 19 -8q7 -10 5 -22t-11 -20t-22 -8h-297q-14 0 -23 10t-7 25z" />
<glyph unicode="&#xbe;" horiz-adv-x="1171" d="M224 652q2 14 13 22t25 8t19 -8t5 -22q-5 -58 20.5 -87t71.5 -29q24 0 47 10t42 27t32 39t17 46q4 22 -1 42t-17 36t-31 26t-44 10q-10 0 -16.5 7t-4.5 18q2 10 10.5 17.5t18.5 7.5q24 0 44.5 10t36.5 26t26 36t13 40q4 20 -1.5 38t-17.5 31.5t-29 21t-37 7.5 q-42 0 -70 -25t-44 -73q-4 -14 -13.5 -22.5t-23.5 -8.5t-21.5 8.5t-4.5 22.5q21 76 68 117t119 41q34 0 61.5 -12.5t46.5 -34t27.5 -50.5t2.5 -63q-6 -38 -30 -71.5t-62 -59.5q34 -28 49 -64.5t8 -76.5q-6 -38 -24.5 -71t-47 -57.5t-64 -38.5t-75.5 -14q-34 0 -63 10.5 t-49 32.5t-29 54t-3 76zM254.5 13.5q-0.5 6.5 1.5 13.5t6 12l902 1041q4 4 9 8t12 7t13 3q8 0 14 -4q10 -6 12 -18t-6 -22l-901 -1044q-13 -14 -26 -18t-23 2q-6 2 -9.5 7.5t-4 12zM657 118q1 5 3 7l414 480q5 6 12 6q6 0 9.5 -4t2.5 -10l-69 -433h57q12 0 20 -9t6 -22 q-2 -12 -12 -20.5t-22 -8.5h-58l-14 -84q-2 -12 -12.5 -21t-22.5 -9t-20 9t-6 21l13 84h-290q-6 0 -9 4t-2 10zM769 164h199l45 286z" />
<glyph unicode="&#xd7;" horiz-adv-x="778" d="M121.5 135.5q2.5 14.5 14.5 24.5l264 229l-192 229q-8 11 -6 25.5t14 24.5q13 11 26 11q14 1 24 -9l192 -230l266 228q13 11 26 11q14 1 24 -9q9 -10 6.5 -25t-13.5 -27l-265 -229l192 -229q8 -9 6 -23.5t-13 -24.5q-6 -6 -13 -9t-14.5 -3.5t-13.5 1.5q-6 1 -10 7 l-194 230l-266 -230q-12 -11 -26 -8.5t-22 10.5q-9 11 -6.5 25.5z" />
<glyph unicode="&#xf7;" horiz-adv-x="778" d="M117 389q1 8 5 14.5t10 11.5t13 8t14 3h594q16 0 24.5 -10.5t6.5 -26.5t-14 -27q-12 -10 -28 -10h-592q-16 0 -26 11t-7 26zM344 172q2 14 10 27t19.5 23t25.5 16q15 6 29 6t26 -6t20 -16t11 -23t1 -27h2q-2 -14 -10 -27t-19.5 -23t-25.5 -16q-15 -6 -29 -6t-26 6t-20 16 t-12 23t-2 27zM413 606q2 14 10 27.5t19.5 23t25.5 15.5t28 6t26.5 -6t21 -15.5t11.5 -23t1 -27.5t-10 -27t-19 -23t-25 -16t-28 -6t-27 6t-21 16t-12 23t-1 27z" />
<glyph unicode="&#xe01;" horiz-adv-x="932" d="M138 24l91 572l-42 58q-10 14 -12.5 28.5t0.5 28t11 25.5t19 23q36 38 79.5 70t90.5 55.5t97 36.5t102 13q92 0 164 -29.5t119 -82.5t66 -125.5t5 -160.5l-80 -510q-2 -16 -14.5 -26t-26.5 -10q-16 0 -25 10q-8 10 -6 24l80 512q12 73 -4.5 133.5t-56 103.5t-99.5 67 t-134 24q-44 0 -89 -12.5t-86.5 -34t-78.5 -51.5t-66 -64l64 -84l-95 -592q-2 -16 -13.5 -26t-27.5 -10t-25 10t-7 24z" />
<glyph unicode="&#xe02;" horiz-adv-x="798" d="M172 196q-4 36 2 76q8 54 27 92.5t45 66.5t55 48t59 37t58.5 32.5t52 35.5t39.5 47t22 65q6 35 -3 66.5t-29 55t-49 37t-65 13.5q-26 0 -47 -5.5t-40 -15.5t-34.5 -23.5t-30.5 -29.5q-10 -10 -25 -12t-25 8q-11 10 -10 24q2 16 12 26q18 20 40 37t48.5 30.5t57 21 t64.5 7.5q50 0 92 -19t69.5 -51t40 -76t4.5 -94t-26.5 -85t-43 -60t-54.5 -43q-30 -19 -60 -35q-27 -16 -55 -33q-27 -16 -51 -38q-24 -24 -41.5 -54t-24.5 -76q-7 -44 3.5 -83.5t36 -69t62.5 -46.5q36 -17 82 -17q45 0 87.5 17t76.5 46.5t57.5 69t30.5 83.5l98 623 q2 16 15 26.5t29 10.5t23 -11t5 -26l-98 -623q-6 -40 -22.5 -76t-40 -68t-54.5 -58t-66 -45t-73 -29t-78 -10t-76 10t-65 29t-51.5 45t-36.5 58t-19 68z" />
<glyph unicode="&#xe03;" horiz-adv-x="798" d="M172 196q-4 36 2 76q8 54 27 92.5t45 66.5t55 48t59 37t59 34.5t52 39.5t40 50t23 66q8 46 -8 85.5t-51 62.5l-139 -110l-138 136q-8 10 -6 22t14 22q10 10 22 10t20 -10l100 -96l134 104q33 -14 58 -37t41.5 -52t22 -64t-0.5 -73q-8 -49 -26.5 -84.5t-43.5 -62.5 t-54 -47t-60 -37q-29 -16 -56 -32.5t-51 -40.5q-24 -22 -41.5 -53t-24.5 -77q-7 -44 3.5 -83.5t36 -69t62.5 -46.5q36 -17 82 -17q45 0 87.5 17t76.5 46.5t57.5 69t30.5 83.5l98 623q2 16 15 26.5t29 10.5t23 -11t5 -26l-98 -623q-6 -40 -22.5 -76t-40 -68t-54.5 -58 t-66 -45t-73 -29t-78 -10t-76 10t-65 29t-51.5 45t-36.5 58t-19 68z" />
<glyph unicode="&#xe04;" horiz-adv-x="901" d="M92 24l86 548q8 50 28 95.5t50 85.5t68.5 73t82.5 56.5t92.5 36.5t98.5 13t94.5 -13t81 -36.5t64.5 -56.5t45 -73t23 -86q6 -45 -2 -95l-87 -546q-2 -16 -14.5 -26t-28.5 -10t-24 10t-5 24l87 548q10 60 -5 112t-48.5 91t-83 62t-109.5 23q-40 0 -79 -10t-74 -29 t-66 -45.5t-55 -58.5t-40 -68.5t-22 -76.5l-12 -72h269q16 0 25 -10q8 -9 6 -23q-2 -16 -14 -26.5t-28 -10.5h-268l-64 -404q-2 -16 -15 -26t-28 -10q-16 0 -24 10q-7 10 -5 24z" />
<glyph unicode="&#xe05;" horiz-adv-x="948" d="M90 24l90 572q9 57 33.5 109t60.5 96.5t82 80.5q48 35 100 58l142 -150l190 150q46 -24 80.5 -59t56.5 -80t30 -96.5t-1 -108.5l-90 -570q-2 -8 -6 -14t-10 -11t-13 -8t-13 -3q-16 0 -25 10t-7 26l90 570q13 82 -13.5 148t-84.5 110l-200 -160l-146 160 q-36 -22 -66.5 -50t-54 -61t-39.5 -71t-22 -78l-15 -92h291q16 0 25 -10.5t6 -24.5q-2 -16 -14.5 -26.5t-28.5 -10.5h-290l-64 -404q-2 -16 -15 -26t-28 -10q-16 0 -25 10q-8 10 -6 24z" />
<glyph unicode="&#xe06;" horiz-adv-x="911" d="M100 24l54 344q8 54 24 93.5t36.5 68.5t43.5 49q24 19 48 35q20 14 41.5 27t40 28.5t32.5 35t18 45.5q5 31 -5 58q-11 26 -33 44l-114 -92l-118 118q-8 8 -7.5 20t9.5 22q10 10 22 11t20 -7l86 -80l116 88q26 -12 45.5 -30t32 -42t16.5 -51t0 -57q-6 -38 -20 -65.5 t-32.5 -47t-41 -34t-45.5 -29t-45 -31.5t-41.5 -40.5t-34 -56t-22.5 -80.5l-4 -26q-10 -60 5 -112.5t48 -92t82.5 -62t109.5 -22.5t116.5 22.5t102.5 62t77 92t41 112.5l87 553q2 8 6 14.5t10 11.5t13 8t14 3q16 0 25 -11t6 -26l-88 -555q-8 -50 -28.5 -95.5t-50.5 -85 t-68 -72t-82.5 -56t-93 -35.5t-98.5 -12q-87 0 -155 37.5t-111 105.5l-16 -103q-1 -7 -5.5 -13.5t-10 -11.5t-13 -8t-14.5 -3q-16 0 -25 10q-8 10 -6 26z" />
<glyph unicode="&#xe07;" horiz-adv-x="760" d="M145.5 642.5q1.5 7.5 5.5 14.5t10 12q5 5 13 7q14 4 27 -1t17 -19l158 -529q5 -16 15.5 -28.5t23.5 -21t29 -13t34 -4.5q27 0 52.5 10t46 27t34.5 41q15 24 19 50l104 662h-118q-16 0 -25 10t-7 24q2 16 15 27t28 11h153q16 0 25 -11t7 -27l-111 -696q-6 -42 -27.5 -78 t-53.5 -62.5t-71 -42t-80 -15.5q-30 0 -56.5 8t-47.5 22t-36 34t-23 46l-160 528q-2 7 -0.5 14.5z" />
<glyph unicode="&#xe08;" horiz-adv-x="829" d="M138 618q18 63 56 120t90 100.5t117 68.5t137 25q48 0 91.5 -12.5t79 -35t62 -54.5t43 -71t22.5 -83t-2 -92q-5 -31 -14.5 -60t-25.5 -57l-234 -447q-4 -10 -13 -16t-21 -6q-11 0 -18 6q-6 6 -8 16l-98 527q-3 14 6 27q10 13 24 18q16 4 27 -2t14 -20l77 -428l178 346 q13 23 22 47q8 25 12 49q9 58 -5 108t-45.5 87.5t-79.5 59t-105 21.5q-58 0 -108.5 -19t-91.5 -52t-70 -77t-45 -94q-1 -7 -4.5 -13.5t-9.5 -11.5t-13 -8t-15 -3q-16 0 -25 10t-7 26z" />
<glyph unicode="&#xe09;" horiz-adv-x="854" d="M84 490q2 16 14 26t28 10h78q16 0 25 -10t6 -26l-27 -170q-9 -56 4.5 -104t44.5 -84t77 -56q44 -20 100 -20t108 20t94 55.5t71 84t38 104.5l42 266q9 58 -5 108t-46 87.5t-80 59t-106 21.5q-44 0 -85 -11.5t-76.5 -32t-64.5 -49.5q-28 -29 -48 -63q-8 -14 -23 -19t-28 1 q-12 6 -16.5 20t4.5 30q24 40 59.5 76t80 62.5t97 42t111.5 15.5q48 0 91.5 -12.5t79 -35t63 -54.5t44 -71t22 -83t-2.5 -92l-88 -560q-1 -7 -5 -13.5t-9.5 -11.5t-12.5 -8t-14 -3q-16 0 -24.5 11t-6.5 25l15 93q-31 -31 -65.5 -55.5t-71 -42t-75.5 -26.5t-77 -9 q-46 0 -88 11.5t-76 33t-61 52t-43 67.5t-22 80q-6 44 2 90l22 134h-44q-16 0 -24 10t-6 26z" />
<glyph unicode="&#xe0a;" horiz-adv-x="798" d="M173 810q-1 16 11 28q20 22 43 40t49 31.5t56 21t64 7.5q50 0 92 -19t69.5 -52t40 -77t4.5 -94t-26 -84t-43 -59t-54 -43t-58 -35q-36 -19 -64.5 -37.5t-50.5 -41.5t-37 -52.5t-21 -71.5q-7 -44 3.5 -83t35.5 -68.5t62 -46t82 -16.5t87 16.5t76 46t57.5 68.5t30.5 83 l48 304q8 54 -8 100t-52 80l227 215q13 10 28 11.5t23 -9.5q11 -10 9.5 -24.5t-13.5 -26.5l-176 -166q24 -37 33 -83q9 -45 1 -95l-48 -306q-6 -40 -22.5 -76t-40 -68t-54.5 -58t-66 -45t-73 -29t-78 -10t-75.5 10t-65 29t-51.5 45t-36 58t-18 68t2 76q8 54 27 93t44 67 t54 47.5t59 36.5q31 17 59.5 32.5t51.5 35.5t39 47t22 65q6 35 -3 66.5t-29 55t-49 37t-65 13.5q-26 0 -47 -5.5t-39 -15t-34 -23.5t-30 -28q-11 -12 -25.5 -15t-24.5 5q-12 9 -13 24z" />
<glyph unicode="&#xe0b;" horiz-adv-x="798" d="M172 196q-4 36 2 76q8 54 27.5 94t45 68.5t55.5 49t59 38.5q30 18 58.5 34.5t52 37t40 47.5t22.5 65q8 46 -8 85.5t-51 62.5l-143 -116l-134 134q-6 9 -4 22q0 12 10 22q10 9 22 8q14 0 22 -8l95 -95l139 111q33 -14 58.5 -36.5t41.5 -52t22 -63.5q5 -36 -1 -74 q-8 -49 -26 -83.5t-42.5 -60.5t-53.5 -45t-59 -35q-36 -21 -65 -41t-52 -43.5t-38 -53.5t-21 -72q-7 -44 4 -83t36 -68.5t62.5 -46t82.5 -16.5t87 17t76 46t58 69q23 38 30 84l48 304q8 52 -8 98t-52 80l229 215q12 12 26.5 12.5t22.5 -8.5q11 -11 10.5 -26t-14.5 -25 l-176 -168q24 -37 34 -82.5t2 -95.5l-50 -306q-6 -40 -22.5 -76t-40 -68t-54.5 -58t-66 -45t-73 -29t-78 -10t-76 10t-65 29t-51.5 45t-36.5 58t-19 68z" />
<glyph unicode="&#xe0c;" horiz-adv-x="1519" d="M140 35l89 561l-42 58q-10 14 -12.5 28.5t0.5 28t11 25.5t19 23q36 38 79.5 70t90.5 55.5t97 36.5t102 13q92 0 164 -29.5t119 -82.5t66 -125.5t5 -160.5l-12 -74q-4 -36 -10 -73q-8 -48 -3.5 -91.5t18 -80.5t35.5 -67t49.5 -51t59 -32t64.5 -11q52 0 98 16.5t82.5 49 t62.5 80.5q25 48 35 110l93 585q1 7 5 13.5t9.5 12t12.5 8.5t15 3q16 0 25 -11.5t7 -25.5l-94 -585q-13 -80 -46.5 -141.5t-82.5 -102.5t-109 -61.5t-124 -20.5q-50 0 -88.5 12.5t-69 35t-53 53.5t-39.5 67l-20 -128q-2 -16 -14.5 -26t-26.5 -10q-16 0 -25 10q-8 10 -6 26 q20 130 38 238q7 46 14 91t13 83t10 64q3 26 5 34q12 73 -4.5 133.5t-56 103.5t-99.5 67t-134 24q-44 0 -89 -12.5t-86.5 -34t-78.5 -51.5t-66 -64l62 -84l-86 -546h104q16 0 25 -12t7 -25q-2 -16 -14 -25.5t-26 -9.5h-144q-14 0 -23 10t-7 25z" />
<glyph unicode="&#xe0d;" horiz-adv-x="1517" d="M140 35l89 561l-42 58q-10 14 -12.5 28.5t0.5 28t11 25.5t19 23q36 38 79.5 70t90.5 55.5t97 36.5t102 13q92 0 164 -29.5t119 -82.5t66 -125.5t5 -160.5l-34 -222q-8 -53 4 -100t41.5 -81.5t73 -54.5t96.5 -20q54 0 103.5 19t90 53t68 81t37.5 103l92 581q2 16 14 26.5 t28 10.5t24 -11t5 -26l-141 -889q-8 -46 -26.5 -89t-46.5 -80.5t-63.5 -68t-77 -52.5t-87 -34t-92.5 -12t-87 11t-72.5 32t-58 50t-41.5 65q-3 6 -2.5 13t4.5 13.5t10 12t14 8.5q13 6 24 1q12 -6 18 -18q12 -24 30.5 -45t44 -37t57.5 -25t70 -9q56 0 108.5 20.5t94.5 56 t70.5 83.5t36.5 104l18 106q-26 -28 -58.5 -50.5t-68 -39t-73.5 -25.5t-76 -9q-68 0 -124 25t-94 69.5t-54 103.5q-16 60 -6 128l35 224q12 73 -4.5 133.5t-56.5 103.5t-100 66t-134 23q-44 0 -89 -12t-86 -34t-78 -51t-67 -63l63 -84l-87 -548h106q14 0 23 -11t7 -26 q-2 -16 -14 -25.5t-26 -9.5h-144q-14 0 -23 10t-7 25z" />
<glyph unicode="&#xe0e;" horiz-adv-x="952" d="M34.5 -307q-0.5 7 0.5 14t5 13t11 10q38 23 73.5 40t72.5 28.5t76 17.5t83 6q76 0 142 -20t119 -56l156 133l104 657q12 73 -4.5 133.5t-56.5 103.5t-99 67t-134 24q-44 0 -89 -12.5t-86.5 -34t-78.5 -51.5t-67 -64l63 -84l-92 -583q-2 -16 -14 -25.5t-26 -9.5h-105 q-16 0 -25 10t-7 25q2 16 14.5 26.5t26.5 10.5h69l84 524l-42 58q-10 14 -13 28.5t0 28t11 25.5q10 12 20 23q36 38 79 70t90 55.5t97.5 36.5t101.5 13q92 0 164 -29.5t119 -82.5t66.5 -125.5t5.5 -160.5l-109 -686l-229 -194q-53 46 -119 71t-144 25q-34 0 -67 -4t-65 -13 t-64.5 -24t-66.5 -37q-6 -4 -12.5 -5.5t-13 -1t-12 3.5t-8.5 9q-4 6 -4.5 13z" />
<glyph unicode="&#xe0f;" horiz-adv-x="952" d="M56 35q2 15 15 26t28 11h67l84 524l-42 58q-10 14 -13 28.5t0 28t11 25.5q10 12 20 23q36 38 79 70t90 55.5t97.5 36.5t101.5 13q92 0 164 -29.5t119 -82.5t66.5 -125.5t5.5 -160.5l-109 -686l-230 -198l-130 156l-178 -154l-168 196q-8 11 -6 25q4 15 16 25 q12 11 26 9.5t22 -11.5l124 -148l180 154l132 -156l144 125l105 661q12 74 -4.5 134.5t-56.5 103.5t-99 66.5t-134 23.5q-44 0 -89 -12t-86.5 -34t-78.5 -51t-67 -63l63 -84l-92 -583q-2 -16 -14 -25.5t-26 -9.5h-105q-16 0 -25 10t-7 25z" />
<glyph unicode="&#xe10;" horiz-adv-x="829" d="M120 -155q2 13 12 22q11 9 23.5 9t19.5 -9l116 -137l180 156l127 -148l36 30l16 99q2 14 14 25q10 10 26 10t25 -11t7 -26l-19 -119l-119 -102l-125 151l-181 -155l-153 182q-7 10 -5 23zM138 618q9 42 28.5 81t48.5 74t65 64t77 50t87 33t94 12q57 0 105.5 -17t86.5 -47 l103 98q13 12 28 14t25 -9q12 -11 12 -27q-2 -16 -14 -28l-104 -100q35 -46 50 -106q14 -58 4 -126q-10 -61 -40 -117l-234 -447q-4 -10 -13 -16t-21 -6q-11 0 -18 6q-6 6 -8 16l-98 527q-3 14 6 27q10 13 24 18q16 4 27 -2t14 -20l77 -428l178 346q12 24 21 48t13 48 q9 58 -5 108t-45.5 87.5t-79.5 59t-105 21.5q-38 0 -74.5 -9t-69 -25t-61 -38t-50.5 -49t-38 -57q-15 -32 -22 -64q-2 -14 -14 -25t-28 -11t-25 10t-7 26z" />
<glyph unicode="&#xe11;" horiz-adv-x="891" d="M100 25l60 381q8 54 24.5 95t37 72t44.5 55t49 42q16 13 37 26.5t39.5 29.5t32.5 34t18 41q3 18 -4.5 31.5t-25.5 21.5l-127 -100l-117 114q-8 9 -7 21.5t9 22.5q12 10 24 12t20 -6l82 -80l116 88q26 -7 46 -19.5t32 -29t16 -36.5q4 -21 1 -43q-5 -32 -18 -54.5 t-30 -40.5t-39 -33.5t-44 -31.5t-44 -36t-41 -47t-34 -63t-23 -86l-36 -226l510 746q56 -1 98 -20.5t68 -53.5t35 -80t0 -100l-102 -646q-2 -16 -14.5 -26t-26.5 -10q-16 0 -25 10t-6 26l103 650q6 35 0 67t-21 56.5t-37 39t-49 15.5l-577 -843q-5 -7 -12.5 -11.5 t-15.5 -4.5q-13 0 -20.5 8.5t-5.5 21.5z" />
<glyph unicode="&#xe12;" horiz-adv-x="1540" d="M114 322q0 58 10 124q16 102 51 183t83 142t106 102t120 63l131 -129l174 129q46 -18 82 -48t59.5 -70t32.5 -91t-1 -111q-4 -34 -10 -73q-5 -34 -11.5 -76.5t-14.5 -87.5q-7 -46 -1.5 -87.5t20.5 -77.5t37 -65t49 -50t57 -32t59 -11q52 0 98.5 16.5t83.5 49t63 80.5 t36 110l92 583q2 16 14 27q12 10 28 10t25 -11t7 -26l-93 -583q-13 -80 -47 -141.5t-83 -102.5t-109 -61.5t-126 -20.5q-38 0 -75 14t-69.5 39t-58.5 58.5t-42 72.5l-23 -144q-2 -16 -14 -26t-26 -10q-16 0 -25 10t-7 26q16 106 29.5 188t23 143t16.5 103q7 44 11 72 q10 66 14 80q6 40 1 76.5t-19 66.5t-36 54t-52 41l-184 -135l-142 139q-45 -22 -86.5 -58t-76.5 -87t-61 -117t-38 -146q-8 -50 -8 -98.5t9.5 -91.5t27.5 -79t44.5 -62.5t61.5 -40.5t79 -14q17 0 28.5 1t19.5 4t16 7t18 10q14 11 29 11t24 -11q10 -11 7.5 -25.5t-15.5 -26.5 q-17 -10 -32 -18t-31 -13.5t-34 -8t-40 -2.5q-56 0 -101 15.5t-79 45t-57.5 70.5t-35.5 92t-13 111z" />
<glyph unicode="&#xe13;" horiz-adv-x="1519" d="M140 35l89 561l-42 58q-10 14 -12.5 28.5t0.5 28t11 25.5t19 23q36 38 79.5 70t90.5 55.5t97 36.5t102 13q92 0 164 -29.5t119 -82.5t66 -125.5t5 -160.5l-35 -224q-10 -63 1.5 -111.5t39.5 -80.5t69 -48t91 -16q30 0 64 11t68 31t65 48t56.5 62t43 72t23.5 78l86 537 q2 16 14 26.5t28 10.5t24.5 -11.5t6.5 -25.5l-137 -869q-1 -7 -5.5 -13.5t-10.5 -11.5t-13 -8t-15 -3q-16 0 -24 10t-6 26l20 128q-26 -37 -61.5 -68t-75 -53.5t-81 -34.5t-81.5 -12q-66 0 -120 20.5t-89.5 61.5t-50.5 102q-15 62 -2 142l35 224q12 73 -4.5 133.5t-56 103.5 t-99.5 67t-134 24q-44 0 -89 -12.5t-86.5 -34t-78.5 -51.5t-66 -64l62 -84l-86 -548h104q16 0 25 -11t6 -26q-2 -16 -14 -25q-11 -8 -27 -8h-142q-14 0 -23 10t-7 25z" />
<glyph unicode="&#xe14;" horiz-adv-x="936" d="M124 258q-12 82 4 180q14 88 42.5 159t67 126t85.5 95t98 66t104.5 38t105.5 12q46 0 89.5 -11t81 -31t67 -50t48.5 -68t26 -85t-2 -101l-89 -562q-2 -16 -14.5 -26t-26.5 -10q-16 0 -25 10q-8 10 -6 24l88 560q7 44 1.5 82t-22 70t-41.5 56t-56.5 40t-68.5 24t-75 8 q-42 0 -85 -11.5t-84 -34t-79 -57.5t-69 -82t-54 -107t-35 -134q-12 -76 -4 -144t35 -120t73.5 -82t112.5 -30q36 0 63.5 12t51.5 32q13 11 28 11.5t24 -11.5q9 -11 6.5 -25.5t-14.5 -24.5q-37 -30 -79.5 -48t-90.5 -18q-83 0 -142.5 33.5t-94.5 93t-45 141.5z" />
<glyph unicode="&#xe15;" horiz-adv-x="958" d="M122 263q-10 83 6 181q16 100 51 181.5t83 143t106 102.5t120 63l132 -129l174 129q45 -18 81.5 -48t60 -70.5t32.5 -91.5q10 -50 0 -110l-94 -588q-2 -16 -14 -26t-26 -10q-16 0 -25 10t-7 24l93 586q6 40 1.5 76.5t-18.5 66.5t-37 54t-51 41l-184 -136l-142 140 q-46 -23 -88 -60.5t-77 -88.5t-60 -116t-38 -143q-12 -77 -4.5 -146t34.5 -121.5t73.5 -83.5t112.5 -31q34 0 62 14t54 34q13 11 29 11.5t25 -9.5q8 -12 5 -28q-4 -16 -18 -26q-35 -30 -78.5 -47.5t-89.5 -17.5q-84 0 -143.5 33.5t-95 93.5t-45.5 143z" />
<glyph unicode="&#xe16;" horiz-adv-x="932" d="M140 35l89 561l-42 58q-10 14 -12.5 28.5t0.5 28t11 25.5t19 23q36 38 79.5 70t90.5 55.5t97 36.5t102 13q92 0 164 -29.5t119 -82.5t66 -125.5t5 -160.5l-80 -510q-2 -16 -14.5 -26t-26.5 -10q-16 0 -25 10q-8 10 -6 26l80 510q12 73 -4.5 133.5t-56 103.5t-99.5 67 t-134 24q-44 0 -89 -12.5t-86.5 -34t-78.5 -51.5t-66 -64l62 -84l-86 -548l104 2q16 0 25 -12t7 -25q-2 -16 -14 -25.5t-26 -9.5h-144q-14 0 -23 10t-7 25z" />
<glyph unicode="&#xe17;" horiz-adv-x="901" d="M92 24l138 871q2 16 14 26.5t26 10.5q16 0 25 -10.5t7 -24.5l-24 -145q38 48 82 83t90 58t93 34t91 11q42 0 81.5 -9t73 -27.5t60 -46t43 -63.5t21.5 -81t-3 -99l-93 -586q-2 -16 -14.5 -26t-26.5 -10q-15 0 -24.5 10t-6.5 24l93 588q10 62 -4 109t-45 79.5t-75 49 t-94 16.5q-39 0 -79.5 -11t-80 -31t-75 -48.5t-64.5 -63.5t-48 -75.5t-27 -85.5l-83 -527q-2 -14 -14 -24t-26 -10q-16 0 -25 10q-8 10 -6 24z" />
<glyph unicode="&#xe18;" horiz-adv-x="827" d="M121 301l24 151q1 7 5 13.5t10 12t12.5 9t13.5 3.5q8 0 14.5 -3.5t11 -9t6.5 -11.5t1 -14l-24 -149q-10 -58 4.5 -103t46.5 -76.5t80 -47.5t105 -16q58 0 110.5 16.5t94.5 48t70.5 76t37.5 100.5q8 51 -5 86.5t-41 60t-66 39.5t-79.5 25t-83.5 17q-43 7 -77 13 q-22 4 -49 11t-53 17t-49.5 23.5t-40 32t-25 42.5t-3.5 55q5 32 23 61.5t45.5 53.5t62.5 43.5t74 33t80.5 20.5t82.5 7q59 0 110.5 -10t92.5 -31.5t72 -57t49 -85.5q2 -7 1 -14.5t-5 -14t-10 -11.5q-6 -6 -14 -8t-15 -1.5t-13 3t-10.5 8.5t-5.5 13q-19 46 -46.5 73.5 t-61.5 43.5t-74 21t-82 5q-34 0 -68 -5t-65 -15t-57 -24t-46.5 -30t-33.5 -35t-16 -38q-4 -26 10 -45.5t39 -34t57 -25t64 -17.5t60.5 -11.5t46.5 -7.5q42 -8 82 -18t75.5 -25.5t64.5 -37t48 -50.5t27 -67.5t0 -88.5q-12 -72 -48 -129.5t-90 -98.5t-120 -63t-138 -22 t-131 22t-100 63t-60 99t-8 129z" />
<glyph unicode="&#xe19;" horiz-adv-x="903" d="M133.5 213q-5.5 45 3.5 99l93 585q2 16 14 26.5t26 10.5q16 0 25 -11t7 -26l-94 -585q-10 -62 4.5 -110t45 -80.5t74.5 -49t94 -16.5q39 0 80 10t80 30t74.5 48t64.5 63t48 76t27 87l83 525q2 16 14.5 26.5t26.5 10.5q16 0 25 -10.5t6 -24.5l-138 -871q-2 -16 -14.5 -26 t-26.5 -10q-15 0 -24 10q-10 8 -7 24l23 146q-38 -48 -81.5 -82.5t-90 -57t-93 -33.5t-90.5 -11q-42 0 -81.5 9t-73 27t-60 45.5t-43 64t-22 81.5z" />
<glyph unicode="&#xe1a;" horiz-adv-x="901" d="M140.5 252q-5.5 46 2.5 96l87 547q2 16 14 27q10 10 26 10t25 -11.5t6 -25.5l-87 -547q-10 -60 5 -112.5t48.5 -91.5t83 -61.5t109.5 -22.5q40 0 79 10t74 29t66 45t55 58t40 69t22 77l87 547q2 16 14.5 26.5t26.5 10.5q8 0 14 -3t11 -8.5t7 -12t0 -13.5l-88 -547 q-8 -50 -28 -96t-50 -85.5t-68 -72t-82 -55.5t-93 -36t-99 -13t-94 13t-81 36t-64.5 55.5t-45 72t-23 85.5z" />
<glyph unicode="&#xe1b;" horiz-adv-x="903" d="M140.5 252q-5.5 46 2.5 96l87 547q2 16 14 26.5t26 10.5q16 0 25 -11.5t6 -25.5l-87 -547q-10 -59 5 -111.5t49 -91.5t83 -61t109 -22q40 0 79 10t74.5 29t66 45t54.5 58t40 68t22 76l141 889q2 16 14.5 26.5t26.5 10.5q8 0 14 -3t11 -8.5t7 -12t0 -13.5l-142 -889 q-8 -50 -28 -96t-50 -85.5t-68 -72t-82 -55.5t-93 -36t-99 -13t-94 13t-81 36t-64.5 55.5t-45 72t-23 85.5z" />
<glyph unicode="&#xe1c;" horiz-adv-x="1026" d="M122 219l56 355q8 49 27 92.5t46.5 81.5t62.5 69t75.5 55t85.5 39t93 21q16 2 24 -9t6 -26q-2 -16 -14 -25.5t-28 -11.5q-56 -8 -107 -32t-92 -61t-69 -86t-38 -107l-56 -355q-5 -32 3 -60.5t26.5 -50.5t45.5 -34t60 -12t64 12t55.5 34t41 50t22.5 61l54 340 q2 16 14 26.5t26 10.5q16 0 25 -11t7 -26l-54 -340q-5 -32 2.5 -60.5t26 -50.5t45.5 -34t60 -12t63.5 12t55.5 34t42 50t22 61l107 676q2 16 14 26.5t26 10.5q16 0 25 -12t6 -27l-107 -674q-8 -47 -32 -88t-60 -72t-81 -49t-92 -18q-62 0 -108.5 28t-69.5 76 q-19 -24 -43 -43t-51 -32.5t-57 -21t-60 -7.5q-48 0 -87 18t-66 49t-39 72t-4 88z" />
<glyph unicode="&#xe1d;" horiz-adv-x="1026" d="M122 219l56 355q8 50 28 94.5t49 83t65 70.5t77 55t84 37t86 16q16 2 24.5 -9t6.5 -26q-2 -16 -14 -25.5t-28 -11.5q-53 -6 -104 -28t-92.5 -59.5t-70.5 -87t-39 -109.5l-56 -355q-5 -32 3 -60.5t26.5 -49.5t44.5 -33q28 -12 60 -12q33 0 63.5 12t55.5 33t42 49t23 61 l54 340q2 16 14 26.5t26 10.5q16 0 25 -11t7 -26l-54 -340q-5 -32 2.5 -60.5t26 -49.5t45 -33t58.5 -12q33 0 64.5 12t56.5 33t42 49t22 61l155 979q1 8 5 15t9.5 12t12.5 8.5t13 3.5q8 0 14 -3.5t10.5 -9t6 -12.5t1.5 -14l-156 -979q-8 -47 -32 -88t-60 -72t-81 -49 t-92 -18q-31 0 -58.5 8t-50.5 22t-41 33q-17 19 -29 43q-19 -24 -43.5 -43t-51.5 -33t-56 -22t-59 -8q-48 0 -87.5 18t-66 49t-38.5 72t-4 88z" />
<glyph unicode="&#xe1e;" horiz-adv-x="1067" d="M124 230l106 665q2 16 14 27q12 10 28 10t24 -12q6 -12 4 -27l-104 -663q-6 -34 2.5 -65t28 -54t48.5 -36t64 -13q36 0 68.5 14t59 37t44 54t23.5 65l104 661q2 8 6 15t10 12.5t13 8.5t15 3q16 0 24 -12q6 -12 4 -27l-104 -663q-6 -34 2.5 -65t28 -54t48.5 -36t64 -13 t68 13t59 36t44 53q18 32 24 66l105 665q1 7 5 13.5t10 12t13 8.5t15 3q16 0 23 -12t5 -27l-105 -663q-8 -49 -33.5 -92.5t-63 -75.5t-84 -51t-96.5 -19q-32 0 -61 8t-53 23t-42 35q-19 20 -31 46q-20 -26 -45.5 -46t-54 -35t-60 -23t-63.5 -8q-50 0 -91 19t-69 51t-40 75 t-4 93z" />
<glyph unicode="&#xe1f;" horiz-adv-x="1067" d="M124 230l106 665q2 16 14 26.5t26 10.5q16 0 24 -12t6 -27l-104 -663q-6 -34 2.5 -65t28 -54t47.5 -36t63 -13q36 0 68.5 13t59.5 36t45 54t24 67l105 663q1 7 5 13.5t10 12t12.5 8.5t13.5 3q16 0 24 -12t6 -27l-104 -663q-6 -34 2.5 -65t28 -54t47.5 -36t63 -13t68 13 t60 36t45 53q18 32 24 66l154 970q2 16 14 26.5t26 10.5q16 0 24 -11q8 -12 6 -28l-153 -968q-8 -49 -33.5 -92.5t-63.5 -75.5t-84.5 -51t-95.5 -19q-33 0 -62.5 8t-53.5 23t-42 35t-29 46q-20 -26 -45.5 -46t-54 -35t-60 -23t-63.5 -8q-50 0 -91 19t-69 51t-40 75t-4 93z " />
<glyph unicode="&#xe20;" horiz-adv-x="952" d="M56 33q2 15 15 27t28 12h67l84 524l-42 58q-10 14 -13 28.5t0 28t11 25.5q10 12 20 23q36 38 79 70t90 55.5t97.5 36.5t101.5 13q92 0 164 -29.5t119 -82.5t66.5 -125.5t5.5 -160.5l-80 -508q-2 -8 -5.5 -14.5t-9.5 -12t-14 -8.5q-6 -3 -14 -3q-16 0 -24 11t-6 25l81 510 q12 73 -4.5 133.5t-56.5 103.5t-99 67t-134 24q-44 0 -89 -12.5t-86.5 -34t-78.5 -51.5t-67 -64l63 -84l-92 -583q-2 -16 -14 -25.5t-26 -9.5h-105q-16 0 -25 9t-7 24z" />
<glyph unicode="&#xe21;" horiz-adv-x="901" d="M92 26l137 867q2 8 5.5 15t9.5 12.5t14 8.5q6 3 14 3q16 0 24 -11.5t5 -25.5l-83 -525q-7 -44 -0.5 -85t24 -76t44 -63t59.5 -48t70.5 -31t76.5 -11q50 0 99 16.5t90 49t70 80.5t39 110l93 583q2 16 13.5 26.5t27.5 10.5t24 -12t6 -27l-92 -581q-8 -54 -28 -99t-48 -81.5 t-63 -64t-74 -45.5t-81 -27t-85 -9q-44 0 -87.5 11t-82.5 33.5t-72 57t-55 82.5l-22 -142q-2 -16 -15 -27t-28 -11q-16 0 -23 10q-8 10 -6 26z" />
<glyph unicode="&#xe22;" horiz-adv-x="893" d="M120 324l190 162l-76 88q-24 30 -35 67t-5 82q6 44 29 82.5t56.5 67t75 45t85.5 16.5q19 0 34.5 -2t28.5 -7t25 -11t26 -15q12 -8 12 -22.5t-12 -26.5t-26 -14t-27 4q-12 6 -19.5 10t-15 6.5t-16.5 3.5q-8 2 -22 2q-30 0 -57.5 -11t-49.5 -29.5t-37.5 -44t-19.5 -54.5 q-5 -31 4.5 -58t27.5 -47l116 -134l-218 -187q1 -50 20.5 -94t52.5 -76.5t78 -50.5t100 -18q62 0 119.5 23t103.5 63t78 94q30 54 40 114l86 543q2 16 15 26.5t29 10.5t25 -10.5t6 -24.5l-87 -545q-8 -50 -28 -96.5t-51 -87t-70 -73.5t-83.5 -57t-94 -37t-99.5 -13 q-72 0 -132 25.5t-102 70.5t-63 106.5t-17 133.5z" />
<glyph unicode="&#xe23;" horiz-adv-x="801" d="M102 242q1 14 10 27t25 17q8 2 14.5 2t12 -3t9 -8.5t3.5 -12.5q0 -49 17.5 -87.5t48 -65.5t72.5 -41t94 -14t102 16t92 47t72 76t38 102q6 42 -5 71.5t-35 49.5t-56 32q-30 12 -64 21l-52 12q-26 7 -54 11q-34 7 -68 14.5t-64 17.5t-55.5 24t-43 34t-24.5 46t-1 62 q10 60 43 107t81 79t105 48t115 16q56 0 107 -13t91 -37t67 -59t35 -79q2 -14 -7 -27t-23 -19q-14 -4 -27 2.5t-17 20.5q-8 33 -27.5 59t-50 44.5t-70.5 28t-87 9.5q-46 0 -90 -11t-80.5 -33.5t-61.5 -55t-31 -76.5q-6 -36 10 -57t48 -37q18 -8 39 -14t43 -11t44 -9.5 t42 -8.5q38 -7 77 -16t74.5 -22t65.5 -31t50.5 -45t28.5 -63.5t0 -84.5q-8 -50 -28 -93.5t-49 -78.5t-65 -61t-76 -44t-83 -27t-85 -9q-60 0 -113 18t-94 51t-65 81t-24 108z" />
<glyph unicode="&#xe24;" horiz-adv-x="932" d="M140 35l89 561l-42 58q-10 14 -12.5 28.5t0.5 28t11 25.5t19 23q36 38 79.5 70t90.5 55.5t97 36.5t102 13q92 0 164 -29.5t119 -82.5t66 -125.5t5 -160.5l-134 -848q-2 -8 -5.5 -14.5t-9 -12t-12.5 -8.5t-13 -3q-16 0 -25 10t-7 26l134 848q12 74 -4.5 134.5t-56 103.5 t-99.5 66q-60 24 -134 24q-44 0 -89 -12t-86.5 -34t-78.5 -51t-66 -63l62 -84l-86 -546h104q16 0 25 -12t7 -25q-2 -16 -14 -25.5t-26 -9.5h-144q-14 0 -23 10t-7 25z" />
<glyph unicode="&#xe25;" horiz-adv-x="889" d="M123 262q8 52 29.5 97t51.5 82.5t69 67t81.5 49.5t88 31t91.5 11q40 0 78 -7.5t72.5 -24t64.5 -41.5q29 -25 53 -60l22 131q7 44 0.5 80t-22.5 65.5t-41 52t-55.5 37t-65.5 21.5q-36 8 -72 8q-54 0 -108 -16.5t-99.5 -50t-78.5 -83.5q-32 -50 -44 -118q-2 -16 -15 -26.5 t-29 -10.5t-24 11q-8 10 -6 26q10 56 32 103.5t53.5 85t70 65.5t81.5 47t89 28t90 9t87 -9.5t81 -28t69 -46.5t51.5 -65t28 -83.5t-0.5 -101.5l-90 -570q-2 -8 -6 -15t-10 -13t-12.5 -9t-13.5 -3q-8 0 -14 3t-10.5 8t-6 12t-1.5 13l38 238q7 44 1.5 81.5t-21 67t-39.5 51.5 t-54 37t-64.5 22t-70.5 7q-54 0 -108 -16.5t-99 -50t-77 -83.5q-34 -50 -44 -116q-6 -34 -2 -64.5t15 -58t28 -52.5t39 -47q10 -10 8 -25q-4 -15 -16 -25q-12 -11 -27 -12q-15 0 -24 10q-56 50 -80.5 120t-11.5 154z" />
<glyph unicode="&#xe26;" horiz-adv-x="952" d="M56 35q2 16 15 26.5t28 10.5h67l84 525l-42 59q-10 14 -13 28t0 27t11 25q10 13 20 24q36 38 79 70t90 55t97.5 36t101.5 13q92 0 164 -29.5t119 -82.5t66.5 -125.5t5.5 -160.5l-134 -848q-2 -16 -14.5 -27t-28.5 -11t-24 10t-6 26l135 850q12 73 -4.5 133.5t-56.5 103.5 t-99 67t-134 24q-44 0 -89 -12.5t-86.5 -34t-78.5 -51.5t-67 -64l63 -84l-92 -583q-2 -16 -14 -25.5t-26 -9.5h-105q-16 0 -25 10t-7 25z" />
<glyph unicode="&#xe27;" horiz-adv-x="831" d="M33.5 151q2.5 15 14.5 25t27 10t24 -10q40 -47 88 -74.5t100 -38t105.5 -4.5t105.5 27.5t98 56.5t84 83t64 107t38 128q14 92 -4 166.5t-60 127t-102 81t-131 29.5t-147 -29q-75 -28 -147 -92q-12 -11 -27 -11.5t-24 11.5q-9 11 -6.5 25.5t14.5 24.5q64 56 131 90t132 46 t127 5t115.5 -32t96 -67t70 -98t37 -126t-2.5 -151q-13 -81 -45 -151t-77.5 -126t-101.5 -98t-118 -67t-126 -33t-126 4.5t-118 45.5t-102 89q-9 11 -6.5 26z" />
<glyph unicode="&#xe28;" horiz-adv-x="901" d="M92 26l87 550q8 50 28.5 95.5t50 85.5t68 73t82.5 56.5t92 36.5t98 13q59 0 109 -17t90 -49l109 105q13 12 28.5 13.5t25.5 -9.5t10 -26t-12 -27l-111 -105q36 -50 52.5 -112.5t4.5 -132.5l-86 -548q-1 -7 -5.5 -13.5t-10.5 -12t-13 -9t-15 -3.5q-16 0 -24 10 q-6 10 -4 26l86 550q10 60 -4 113t-47.5 92t-83 61t-110.5 22q-40 0 -78.5 -10t-74 -29t-66 -45t-54.5 -58.5t-41 -69t-23 -76.5l-11 -74h269q16 0 24 -10t6 -26t-14 -25t-28 -9h-268l-64 -404q-1 -7 -5 -13.5t-10 -12t-13.5 -9t-14.5 -3.5q-16 0 -23 10q-8 10 -6 26z" />
<glyph unicode="&#xe29;" horiz-adv-x="903" d="M140.5 252q-5.5 46 2.5 96l87 547q2 16 14 26.5t26 10.5q16 0 24 -12t6 -27l-86 -545q-10 -60 5 -112.5t48.5 -91.5t83 -61.5t109.5 -22.5q40 0 78.5 10t74 29t66 45t55 58t40.5 69t22 77l26 162h-156q-26 0 -45.5 9t-33 24t-18.5 35t-1 44l2 19q2 16 13 26.5t27 10.5 t22 -12t4 -27l-3 -15q-2 -9 1 -17t8.5 -14.5t13.5 -9.5t17 -3h160l50 315q2 16 14.5 26.5t26.5 10.5q16 0 24 -12t6 -27l-50 -313h60q16 0 24.5 -12t6.5 -26q-2 -16 -14.5 -24t-27.5 -8h-59l-26 -162q-8 -50 -28 -96t-50 -85.5t-68 -72t-82 -55.5t-93 -36t-99 -13t-94 13 t-81 36t-64.5 55.5t-45 72t-23 85.5z" />
<glyph unicode="&#xe2a;" horiz-adv-x="889" d="M121 262q8 52 29.5 97t51.5 82.5t69 67t82 49.5t89 31t92 11q39 0 76.5 -7.5t72.5 -24t65 -41.5t52 -60l22 131q7 44 0.5 80t-22.5 65.5t-41 52t-55 37t-65 22t-71 7.5t-72 -7.5t-70.5 -22.5t-66 -37.5t-56.5 -52t-43 -66.5q-16 -38 -24 -82q-2 -16 -15 -26t-28 -9 q-16 0 -24 11q-7 10 -5 26q9 58 30.5 105t53.5 84t71 65t82 46t89 27t90 9q29 0 58.5 -4t58.5 -12t55 -20t47 -28l99 92q6 6 13 10t14 4t13 -2t11 -8q11 -9 10 -23.5t-11 -26.5l-100 -95q30 -42 44 -96.5t4 -124.5l-91 -572q-2 -8 -6 -15t-10 -12t-13 -8t-14 -3q-8 0 -14 3 t-10.5 8t-6 12t-1.5 13l38 238q11 68 -5.5 118t-52 83t-85 49t-103.5 16t-108 -16.5t-99 -50t-77 -83.5q-34 -50 -44 -116q-10 -68 11 -125t67 -98q11 -10 8 -24.5t-16 -24.5q-12 -11 -27 -10.5t-24 10.5q-55 51 -80 119.5t-12 152.5z" />
<glyph unicode="&#xe2b;" horiz-adv-x="925" d="M92 26l138 869q2 16 14 26.5t26 10.5q16 0 24 -12t6 -27l-62 -393l654 426q12 8 26 6t20 -12q6 -12 2 -26t-18 -22l-215 -143q52 -6 93.5 -29.5t69 -58.5t38.5 -80t3 -96l-69 -437q-1 -7 -5 -13.5t-10 -12t-13.5 -9t-14.5 -3.5q-16 0 -25 10q-8 10 -4 26l70 445 q6 40 -4 75.5t-33 62t-57 41.5q-34 16 -74 16q-31 0 -60.5 -8t-55.5 -25l-330 -213l-62 -392q-2 -16 -15 -27t-28 -11q-16 0 -23 10q-8 10 -6 26z" />
<glyph unicode="&#xe2c;" horiz-adv-x="1067" d="M124 232l106 663q2 16 14 26.5t26 10.5q16 0 24 -12t6 -27l-104 -661q-6 -36 3 -67t28 -53t47 -35q30 -13 64 -13q36 0 68.5 13t59 36t44.5 53q18 32 24 66l61 384q1 8 5 15t10 12.5t12.5 9t13.5 3.5q8 0 14 -4t10 -9.5t6 -13t0 -15.5l-60 -382q-6 -36 2.5 -67t28 -53 t47.5 -35q30 -13 64 -13q35 0 67.5 13t59.5 35t45 53t24 67l72 458q6 40 1 70.5t-20 50t-39 29.5q-26 10 -56 10h-76q-12 0 -20 9t-6 21t13 22t23 10h82q44 0 70.5 4t42 14t22.5 25t11 36q4 14 16 25q10 10 26 10t25 -9.5t5 -25.5q-5 -23 -12.5 -43t-18.5 -36t-27 -28 t-38 -18q20 -16 32 -33t17 -38.5t5 -46.5q-2 -24 -6 -54l-72 -462q-8 -50 -34 -94t-64 -76t-84.5 -51t-95.5 -19q-33 0 -62.5 8t-53.5 23t-42 35t-29 46q-20 -26 -45.5 -46t-54 -35t-60 -23t-63.5 -8q-50 0 -91 19t-68.5 51t-40 76t-4.5 94z" />
<glyph unicode="&#xe2d;" horiz-adv-x="1007" d="M131 336q-5 62 6 128q2 14 14 25q13 11 27 11h376q14 0 24 -11t7 -26q-2 -16 -14.5 -24.5t-27.5 -8.5h-333q-6 -51 -1 -99t21 -90.5t43 -77t63 -60t80.5 -39t97.5 -13.5q54 0 104 14.5t94.5 41.5t82.5 65t67.5 83.5t49.5 98t30 109.5q14 86 0 161.5t-53 131.5t-101 88 t-144 32q-62 0 -119 -19t-106 -52t-87 -75q-36 -42 -60 -87q-7 -14 -22 -21q-14 -6 -26 0q-13 6 -17.5 20t1.5 28q29 54 74.5 104t103.5 88t126 61t144 23q68 0 123.5 -18t99 -50t74.5 -76t49 -98t22 -115t-7 -126q-10 -66 -34.5 -127t-59.5 -114.5t-81 -97.5t-99.5 -76 t-114 -49t-125.5 -17q-64 0 -119.5 17t-99.5 48t-76.5 75t-52 98t-24.5 116z" />
<glyph unicode="&#xe2e;" horiz-adv-x="1007" d="M131 336q-5 62 6 128q2 14 14 25q13 11 27 11h376q14 0 24 -11t7 -26q-2 -16 -14.5 -24.5t-27.5 -8.5h-333q-6 -51 -1 -99t21 -90.5t43 -77t63 -60t80.5 -39t97.5 -13.5q54 0 104.5 14.5t95 41.5t82.5 65t68 83.5t50 98t30 109.5q9 56 5.5 108.5t-18.5 97.5t-41 82 t-62.5 64t-83 41t-100.5 14q-64 0 -119 -17.5t-101.5 -48t-84 -71.5t-65.5 -88q-8 -14 -23 -20.5t-27 -2.5q-14 4 -19.5 17t3.5 29q18 34 45 67t60 64t71 57t80.5 45t88.5 30q45 11 93 11q36 0 70 -5t64.5 -15t57.5 -23t49 -31l125 121q13 12 29.5 12.5t26.5 -10.5 q9 -10 7.5 -26t-13.5 -27l-124 -121q27 -33 45.5 -73t29 -86t11.5 -95.5t-7 -101.5q-10 -65 -34.5 -126t-59.5 -114t-80.5 -97t-99 -76t-114 -49t-125.5 -17q-64 0 -119.5 17t-100 48t-77 75t-52 98t-24.5 116z" />
<glyph unicode="&#xe2f;" horiz-adv-x="850" d="M232 895q2 16 13 26.5t25 10.5t23 -9.5t7 -23.5q-9 -56 7.5 -98t50.5 -70.5t82 -42.5t100 -14q53 0 102.5 17.5t88.5 47.5t65 70.5t34 85.5q2 16 14 27q12 10 28 10t25 -10.5t7 -24.5l-138 -869q-2 -8 -5.5 -14.5t-9.5 -12t-13.5 -8.5t-14.5 -3q-16 0 -24.5 11t-6.5 25 l110 699q-26 -28 -58 -50.5t-66.5 -38t-72 -24t-75.5 -8.5q-68 0 -127 20t-101 57t-62 91t-8 123z" />
<glyph unicode="&#xe30;" horiz-adv-x="424" d="M127 235l1 5q2 16 14 26t28 10t24 -10t6 -26l-1 -5q-3 -20 8 -33.5t29 -13.5h98q16 0 24 -10t6 -24q-2 -16 -14.5 -27t-26.5 -11h-96q-24 0 -44.5 10t-34 26t-19.5 37.5t-2 45.5zM206 735l1 5q2 16 14.5 26t28.5 10t24 -10t5 -26l-1 -5q-3 -20 8 -33q12 -14 30 -14h98 q16 0 24 -10t6 -24q-2 -16 -15 -27t-27 -11h-96q-24 0 -44 10t-34 26t-20 37.5t-2 45.5z" />
<glyph unicode="&#xe31;" d="M-377 1178l3 24q2 16 15 26.5t28 10.5q16 0 23.5 -10.5t5.5 -26.5l-4 -24q-4 -20 6 -31t28 -11h348q16 0 24 -9.5t6 -25.5t-14 -26t-28 -10h-348q-26 0 -45.5 8.5t-31 23.5t-16 36t-0.5 45z" />
<glyph unicode="&#xe32;" horiz-adv-x="659" d="M155 845q1 7 5 13t10 10q24 16 49 28.5t52 21t57 12.5t66 4q84 0 141 -26t90 -70t43 -103t0 -125l-93 -586q-2 -16 -14.5 -26t-28.5 -10t-24 10t-5 26l91 572q10 64 1.5 114t-35 85t-71.5 53t-109 18q-28 0 -50.5 -3t-42 -9t-37.5 -15t-38 -20q-14 -9 -27.5 -10t-22.5 10 q-4 6 -6 12.5t-1 13.5z" />
<glyph unicode="&#xe33;" horiz-adv-x="659" d="M-70 1157q4 24 17 45.5t32 38.5t42 27t48 10q24 0 44.5 -10t34.5 -27t20 -38.5t2 -45.5t-17 -45.5t-32 -38t-42.5 -26t-47.5 -9.5t-44 9.5t-34.5 26t-20.5 37.5t-2 46zM-5 1157q-2 -10 1.5 -20.5t9.5 -18t15 -12t21 -4.5q10 0 20.5 4.5t19 12t14 18t7.5 20.5q2 11 -1 21 t-9 17t-15 11q-10 4 -20 4q-11 0 -21.5 -4t-19 -11t-15 -17t-7.5 -21zM153.5 846q2.5 14 16.5 22q24 16 49 28.5t52 21t57 12.5t66 4q84 0 141 -26t90 -70t43 -103t0 -125l-93 -586q-2 -16 -14.5 -26t-28.5 -10t-24 10t-5 26l89 564q10 64 2 115t-34.5 88t-71 56t-108.5 19 q-28 0 -50.5 -3t-42 -9t-37.5 -15t-38 -20q-14 -9 -28 -9t-24 11q-9 11 -6.5 25z" />
<glyph unicode="&#xe34;" d="M-640 1100q1 8 4.5 14.5t9.5 11.5t12.5 7.5t13.5 2.5h655q16 0 24.5 -11t6.5 -25q-2 -16 -14.5 -26.5t-26.5 -10.5h-655q-16 0 -24 11q-8 10 -6 26z" />
<glyph unicode="&#xe35;" d="M-640 1100q2 16 14 25t28 9h618l14 88q2 16 14 27t26 11q16 0 25 -10t7 -26l-20 -124q-2 -16 -14.5 -26.5t-26.5 -10.5h-655q-16 0 -24 11q-8 10 -6 26z" />
<glyph unicode="&#xe36;" d="M-644 1100q2 16 14 26t26 10h476q-4 11 -5 22.5t1 23.5q4 24 17 46t32 38.5t43 25.5q24 10 48 10t44 -9.5t33 -26t19.5 -38.5t2.5 -46t-16.5 -45t-31.5 -37t-42 -25.5t-47 -9.5h-586q-16 0 -24 11q-6 10 -4 24zM-68 1182q-2 -10 1 -20t9.5 -17.5t16 -12t19.5 -4.5t21 4.5 t20 12t15 17.5t8 20q2 11 -1.5 20.5t-10 17.5t-15.5 12.5t-19 4.5q-11 0 -22 -4.5t-19.5 -12.5t-14.5 -18t-8 -20z" />
<glyph unicode="&#xe37;" d="M-638 1100q2 16 14 25t26 9h469l17 109q2 16 14 26.5t26 10.5q16 0 25 -10.5t7 -24.5l-18 -111h78l17 109q2 16 14.5 26.5t26.5 10.5q16 0 25 -10.5t6 -24.5l-23 -145q-2 -16 -14.5 -26.5t-26.5 -10.5h-653q-16 0 -24 11q-8 10 -6 26z" />
<glyph unicode="&#xe38;" d="M-270 -127q2 16 15 26.5t28 10.5h88q16 0 24.5 -11t6.5 -26l-26 -164q-2 -16 -14 -27q-10 -10 -26 -10t-24 11t-6 26l21 127h-55q-16 0 -25 11t-7 26z" />
<glyph unicode="&#xe39;" d="M-474 -127q2 16 14 26.5t28 10.5h68q16 0 24 -11t6 -26l-10 -67q-2 -16 1.5 -30.5t12.5 -25t22.5 -16.5t29.5 -6t31 6t27 17t20 25t10 30l12 71q2 16 14 26.5t28 10.5t25 -10.5t6 -24.5l-11 -73q-5 -31 -21.5 -58.5t-39.5 -47.5t-53 -32t-60 -12q-31 0 -55.5 12t-41.5 32 t-24 47t-3 59l6 30h-36q-16 0 -24 11t-6 26z" />
<glyph unicode="&#xe3a;" d="M-206 -137q2 12 9 23.5t16.5 19.5t21.5 13t24 5t22.5 -5t17.5 -13t10.5 -19.5t1.5 -23.5t-8.5 -23.5t-16.5 -19.5t-22 -13t-24 -5t-22.5 5t-17.5 13t-10.5 19t-1.5 24z" />
<glyph unicode="&#xe3e;" />
<glyph unicode="&#xe3f;" horiz-adv-x="788" d="M125 41l159 1001q2 17 16 28q12 12 28 12h162l20 124q1 8 5.5 15t10.5 12t13 7.5t14 2.5q16 0 24.5 -10.5t6.5 -26.5l-20 -126q59 0 102.5 -23t70.5 -61t36 -88t1 -106q-12 -70 -47 -126t-103 -98q46 -16 81 -42.5t56 -62t28 -78.5t0 -92q-10 -66 -43.5 -123.5 t-90.5 -101.5q-32 -24 -63.5 -39.5t-63.5 -24t-65 -11.5t-67 -3l-22 -135q-2 -8 -6 -14.5t-10 -11.5t-13 -8t-14 -3q-16 0 -24.5 11t-6.5 26l22 135h-164q-8 0 -14.5 3.5t-11 9t-6.5 13.5t-1 15zM206 72h124l74 450h-127zM288 594h126l65 414h-125zM404 72q45 0 90 8t89 34 q52 32 85 79.5t43 107.5q9 58 -5 99t-46 67.5t-80 39.5t-105 13zM488 598q42 4 77 21t61.5 43t43.5 61.5t24 79.5q6 42 0.5 76.5t-23.5 60t-48.5 42t-70.5 22.5z" />
<glyph unicode="&#xe40;" horiz-adv-x="289" d="M112 24l138 873q2 14 14.5 24.5t26.5 10.5q16 0 24.5 -10.5t6.5 -24.5l-138 -873q-2 -14 -14 -24t-26 -10q-16 0 -25 10t-7 24z" />
<glyph unicode="&#xe41;" horiz-adv-x="524" d="M112 24l138 873q2 14 14.5 24.5t26.5 10.5q16 0 24.5 -10.5t6.5 -24.5l-138 -873q-2 -16 -14 -26t-26 -10q-16 0 -25 10t-7 26zM350 24l138 873q2 14 14 24.5t26 10.5q16 0 25 -10.5t7 -24.5l-138 -873q-2 -16 -14.5 -26t-26.5 -10q-16 0 -25 10q-8 10 -6 26z" />
<glyph unicode="&#xe42;" horiz-adv-x="377" d="M157 24l155 982q4 22 0 38t-13 29t-21 23t-25.5 20t-26 19.5t-21.5 21t-13 26.5t-2 35q4 28 21.5 50t41.5 35.5t53 20.5t58 7h222q16 0 24 -10.5t6 -24.5q-2 -16 -14 -25t-28 -9h-233q-31 0 -53 -12t-26 -32q-2 -12 5 -21.5t18 -18t22.5 -16t19.5 -13.5 q13 -10 25.5 -22.5t21 -30t12 -40t-1.5 -52.5l-155 -980q-1 -7 -5 -13.5t-10 -11.5t-13 -8t-15 -3q-16 0 -24 10t-5 26z" />
<glyph unicode="&#xe43;" horiz-adv-x="377" d="M135 1138q7 43 28.5 80.5t53 64.5t70.5 43t81 16t76.5 -16t58 -42.5t33.5 -62.5t4 -78q-7 -44 -29.5 -79.5t-55.5 -63.5l-85 -74l-143 -900q-2 -16 -14.5 -26t-26.5 -10q-16 0 -25 10t-6 24l147 930l110 92q22 18 36 44q16 25 20 53q4 26 -2.5 49.5t-21 41t-36.5 28 t-50 10.5t-53 -11t-45 -29.5t-34 -43.5q-14 -26 -18 -54q-2 -8 -6 -14t-10 -10.5t-13 -7t-13 -2.5q-16 0 -25 12q-9 10 -6 26z" />
<glyph unicode="&#xe44;" horiz-adv-x="377" d="M155 24l155 980q5 30 15.5 52.5t24.5 40t30.5 30t32.5 22.5q10 6 23.5 13t27.5 15.5t24 18.5t12 22q2 10 -2.5 18t-13 14t-21.5 9t-28 3l-234 -2q-16 0 -25 10q-8 10 -6 26t14 26q12 9 28 9h222q29 0 55.5 -7t46.5 -20.5t30 -35.5t6 -50q-3 -20 -12.5 -35t-24.5 -28 q-14 -12 -29 -21.5t-30.5 -19.5t-30.5 -19.5t-27 -22t-21 -28.5t-13 -38l-154 -980q-2 -16 -15 -26t-29 -10t-25 10t-6 24z" />
<glyph unicode="&#xe45;" horiz-adv-x="659" d="M155 833.5q-1 6.5 0 13.5t5 13t10 10q24 16 49.5 28t52.5 20t57 12q31 4 65 4q84 0 141 -26t90 -70t43 -103t0 -125l-146 -926q-2 -16 -15 -26t-29 -10t-24 10q-6 10 -4 26l144 914q10 63 1.5 113t-35 85t-71.5 53.5t-108 18.5q-26 0 -47.5 -2t-41 -8t-39.5 -16 q-19 -9 -43 -23q-14 -8 -28 -8.5t-22 10.5q-4 6 -5 12.5z" />
<glyph unicode="&#xe46;" horiz-adv-x="948" d="M179 538q-1 30 5 66q9 56 33.5 107t62 94.5t85 76t102.5 52.5l103 -123l142 123q48 -20 86 -52t62.5 -75t33.5 -94t0 -107l-146 -922q-2 -16 -14 -25t-28 -9t-25 10t-6 24l145 922q6 39 2 75.5t-18 68.5t-37.5 58t-54.5 44l-156 -135l-114 133q-36 -18 -68 -43.5t-56 -57 t-40 -68.5t-23 -77q-4 -28 -3.5 -52t5.5 -45t14 -40t20 -37q7 -12 3.5 -27t-15.5 -24q-12 -10 -26.5 -9.5t-24.5 13.5q-14 24 -25 48t-17 50.5t-7 56.5z" />
<glyph unicode="&#xe47;" d="M-541 1224q5 33 23 62.5t43 52t57 35t64 12.5h452q14 0 22 -10t6 -22q-2 -14 -13 -23.5t-23 -9.5h-454q-20 0 -39 -7.5t-34 -20.5t-25 -31t-14 -38q-3 -20 2 -37t15.5 -30t26.5 -21t36 -8q17 0 33.5 6t30.5 16.5t25 25t17 32.5q4 12 15 20t24 8t21 -8t8 -20 q0 -18 7 -32.5t18 -25t25 -16.5q16 -6 32 -6q20 0 36 6.5t29 16.5t22 21.5t15 23.5q8 14 17 24t23 9q9 0 15.5 -4t10 -10t4 -13.5t-3.5 -14.5q-12 -25 -29 -47.5t-39 -39.5t-49 -27t-60 -10q-40 0 -70.5 17.5t-48.5 45.5q-13 -14 -28.5 -25t-33.5 -20t-37 -13.5t-38 -4.5 q-34 0 -61.5 12.5t-45.5 35t-26 52t-3 61.5z" />
<glyph unicode="&#xe48;" d="M60 1386l23 146q2 16 14 25t26 9q16 0 25 -10q8 -10 6 -24l-22 -146q-2 -16 -14.5 -25t-26.5 -9q-16 0 -24.5 10t-6.5 24z" />
<glyph unicode="&#xe49;" d="M-222 1535q2 13 12 23q14 11 34 20t46 9q30 0 50 -9.5t31 -25t15 -34t0 -36.5q-2 -14 -10.5 -31t-21.5 -31h235q14 0 23 -10t7 -24q-2 -16 -14.5 -25t-26.5 -9h-366q28 30 47.5 51t32 36t18.5 24t6 17q1 7 1 14.5t-3.5 13.5t-10.5 10t-21 4q-9 0 -18 -2t-16 -8 q-5 -4 -11.5 -6.5t-12.5 -3t-12 1.5q-6 4 -9 8q-8 9 -5 23z" />
<glyph unicode="&#xe4a;" d="M-219 1417.5q-1 12.5 1 24.5q4 24 17 46t31.5 38t42 25t47.5 9t44 -9.5t34 -24.5q18 15 41 24.5t49 9.5q24 0 44 -9t33.5 -25t19.5 -38t2 -46q-1 -6 -3 -11t-5 -11h103q16 0 24 -10t6 -24q-2 -16 -13 -25t-25 -9h-210l44 63q4 6 7 13.5t5 13.5q4 22 -9 36.5t-35 14.5 q-11 0 -20.5 -4t-17.5 -11.5t-14 -18.5t-8 -23h-65q4 26 -9 41.5t-33 15.5q-22 0 -39 -15q-16 -14 -20 -36v-10t1 -13t3 -13t3 -10q7 -12 3 -24q-4 -10 -16 -20q-12 -9 -26 -6t-22 14q-3 4 -6.5 13t-5.5 20.5t-3 24z" />
<glyph unicode="&#xe4b;" d="M-22 1476q2 14 13 23t22 9h66l9 58q2 16 14 27t28 11t24 -11t6 -24l-10 -61h68q14 0 21 -9t5 -21q-2 -14 -12 -22t-22 -8h-67l-9 -62q-2 -16 -15 -25t-28 -9q-16 0 -23.5 10t-5.5 24l10 62h-68q-13 0 -20.5 8t-5.5 20z" />
<glyph unicode="&#xe4c;" d="M-29 1362.5q-1 13.5 1 23.5q4 24 16 45t30 36.5t40 24.5t46 9h92q14 0 22 -10.5t6 -22.5q-2 -14 -13 -24t-25 -10h-92q-9 0 -17.5 -4t-15.5 -11t-11 -15t-6 -18q-1 -3 -1.5 -6.5t1.5 -9.5q4 -12 0 -26t-17 -21q-7 -4 -14 -5.5t-14 -0.5t-12.5 5t-8.5 11q-6 16 -7 29.5z " />
<glyph unicode="&#xe4d;" d="M-70 1157q4 24 17 45.5t32 38.5t42 27t48 10q24 0 44.5 -10t34.5 -27t20 -38.5t2 -45.5t-17 -45.5t-32 -38t-42.5 -26t-47.5 -9.5t-44 9.5t-34.5 26t-20.5 37.5t-2 46zM-5 1157q-2 -10 1.5 -20.5t9.5 -18t15 -12t21 -4.5q10 0 20.5 4.5t19 12t14 18t7.5 20.5q2 11 -1 21 t-9 17t-15 11q-10 4 -20 4q-11 0 -21.5 -4t-19 -11t-15 -17t-7.5 -21z" />
<glyph unicode="&#xe4e;" d="M-162 1118q6 39 28 71q20 32 52 52q-24 22 -36 54.5t-6 70.5q5 32 22 60.5t41.5 49.5t54.5 33.5t62 12.5t58 -12q26 -14 44 -34q8 -8 8 -21t-13 -23q-13 -11 -26 -10.5t-21 10.5q-10 12 -25.5 19t-34.5 7t-36.5 -7t-32.5 -20t-24.5 -29.5t-12.5 -35.5t1.5 -35.5 t15.5 -29.5t28 -20t39 -7l-10 -64q-22 0 -41 -7t-34 -19.5t-25 -29t-13 -36.5q-3 -19 1.5 -35.5t16 -29.5t28 -20t38.5 -7q14 0 21 -10q8 -8 6 -22t-13 -24t-25 -10q-34 0 -62 13t-46 34t-26 50t-2 61z" />
<glyph unicode="&#xe4f;" horiz-adv-x="1048" d="M154.5 302q-6.5 54 2.5 112q10 60 34.5 115t61 103t82.5 87t98.5 67t108.5 43t114 15q60 0 112 -16t95.5 -44.5t76.5 -68.5t53.5 -87.5t27 -101.5t-2.5 -112q-10 -60 -34.5 -115.5t-61 -103t-82.5 -86.5t-98 -67t-109 -43t-114 -15q-60 0 -112.5 15.5t-96 44t-76 68.5 t-53 88t-27 102zM230.5 319.5q5.5 -45.5 22.5 -85t44 -72t62.5 -55.5t79 -35t92.5 -12q48 0 95.5 12t90.5 35t80 55.5t66 72t49 85t28 94.5q12 74 -6 138t-58 112t-100 76t-132 28q-49 0 -96.5 -12.5t-90.5 -35.5t-80.5 -55.5t-67 -71.5t-49.5 -85q-19 -44 -27 -94 q-8 -49 -2.5 -94.5zM368 414q8 45 31.5 84.5t58 69.5t77 47.5t87.5 17.5t82.5 -17.5t62.5 -47.5t36 -69.5t3 -84.5q-7 -45 -30.5 -85t-58 -69.5t-77 -47.5t-88.5 -18q-45 0 -81.5 18t-61.5 47.5t-36.5 69t-4.5 85.5zM442 414q-4 -31 3 -57.5t24 -46.5t41 -31t54 -11 q32 0 60.5 12t51 32t37.5 47t19 55q5 32 -2.5 58t-24.5 46t-41 30q-26 11 -54 11q-31 0 -59.5 -11.5t-50.5 -31.5t-38 -47t-20 -55z" />
<glyph unicode="&#xe50;" horiz-adv-x="925" d="M126 282q-6 50 2 103q8 54 31 104.5t57 94.5t76 81t91 63t101 40t104 14q55 0 103.5 -14.5t88.5 -41t70.5 -63.5t49 -81t24.5 -94t-2 -103q-8 -55 -31 -106t-56 -95t-75.5 -80t-91 -62t-100.5 -40t-105 -14q-56 0 -104.5 14.5t-88.5 41t-70 63.5t-49 81t-25 94zM200 385 q-10 -68 6 -127.5t53 -103.5t92 -69t123 -25q45 0 88.5 11t83 32.5t74 51t61.5 65.5t45 78t25 87t2 87t-20 78t-40 65.5t-58 51t-73 32.5t-84 11q-45 0 -88.5 -11t-83.5 -32.5t-74 -51t-61 -65.5t-45.5 -78t-25.5 -87z" />
<glyph unicode="&#xe51;" horiz-adv-x="925" d="M154.5 470.5q2.5 24.5 12 50t23.5 49.5q28 46 70 85t92.5 67t107.5 44t116 16q56 0 104.5 -14t89 -40t71 -62t49.5 -80.5t24.5 -95.5t-2.5 -105t-30 -105t-55 -95.5t-75 -80.5t-90 -62t-101 -40t-109 -14q-83 0 -146 24t-113 73q-10 10 -9.5 25.5t12.5 25.5q6 6 12.5 10 t14 4.5t14 -1t11.5 -7.5q23 -22 46.5 -37.5t49.5 -25.5t55 -14.5t63 -4.5q45 0 88.5 11t83.5 32.5t74.5 51t61.5 66t45.5 78t25.5 86.5q10 68 -6 127t-53.5 103.5t-92.5 69.5t-122 25q-50 0 -98.5 -13.5t-90.5 -37.5t-76 -56.5t-58 -70.5q-12 -18 -16.5 -37.5t-1 -36 t16.5 -26.5t37 -10h63q16 0 24 -10q7 -11 5 -25q-2 -16 -14 -26.5t-26 -10.5h-68q-32 0 -54 10t-35.5 26t-18 38t-2 46.5z" />
<glyph unicode="&#xe52;" horiz-adv-x="1065" d="M165 300q-5 56 5 116l80 500q2 16 14 26t26 10q15 0 24 -10q10 -10 7 -26l-79 -498q-12 -76 2 -141.5t52 -114t101 -75.5t149 -27q82 0 152 26t125 73.5t91.5 115t49.5 151.5q4 22 9 52t8 61t2 62t-11 55t-29 39t-53 15q-22 0 -44 -8t-41 -22t-32 -33t-16 -41q0 -3 -1 -7 q0 -5 -2 -11q-2 -14 -14 -24t-26 -10t-22.5 10t-6.5 24q1 6 1 10q2 5 2 8q4 22 -3 41t-21 33t-34 22t-42 8q-27 0 -50.5 -10t-41 -27.5t-29 -39.5t-13.5 -45q-5 -30 6 -56q10 -24 40 -46q6 -4 8 -11t1.5 -14t-4 -15t-9.5 -14q-13 -12 -29 -13t-27 9q-38 32 -51.5 74t-6.5 86 q6 36 24 71t46 62t66 44q36 17 80 17q48 0 84.5 -21t55.5 -57q32 36 75 57t89 21q36 0 61 -9.5t42.5 -27t28 -40.5t14.5 -50t4.5 -57t-2 -59.5t-6.5 -58t-8 -52.5q-10 -67 -34 -125.5t-58 -107.5t-78 -88t-96 -65t-112 -40t-124 -14q-66 0 -121.5 15t-99 42t-75 66t-50 86.5 t-23.5 102.5z" />
<glyph unicode="&#xe53;" horiz-adv-x="1063" d="M123.5 281q-2.5 47 5.5 96q10 64 37 127.5t70.5 119.5t103.5 100q60 42 138 68l160 -190l216 184q56 -23 98.5 -61.5t69.5 -88.5t36.5 -110t-0.5 -126q-11 -70 -36.5 -132.5t-65 -114t-93 -91.5t-121.5 -66q-14 -4 -26 1t-15 19q-4 14 3.5 28t22.5 20q58 21 102.5 53.5 t76.5 75t52 95.5q20 52 30 112q8 50 2 95.5t-24.5 84.5t-48 70.5t-67.5 51.5l-228 -196l-170 202q-55 -23 -98.5 -58.5t-75.5 -79.5t-51.5 -93.5t-27.5 -99.5q-6 -41 -4.5 -81t10.5 -75.5t26.5 -66t43 -52.5t59.5 -34t76 -12q18 0 37 4t35 12q6 3 13 2.5t12.5 -3.5t9 -8 t5.5 -11q2 -14 -6 -27t-22 -19q-24 -11 -46 -15q-20 -3 -46 -3q-54 0 -97 16t-76 43t-56 63.5t-35 80t-14.5 90.5z" />
<glyph unicode="&#xe54;" horiz-adv-x="952" d="M127.5 277.5q-6.5 50.5 2.5 105.5q8 54 30.5 105t55.5 95.5t75 80.5t90.5 62t101.5 40t107 14h332q12 0 22 6t18 15l88 96q11 12 25.5 14.5t26.5 -6.5q11 -9 11 -24q1 -15 -11 -27l-97 -106q-14 -16 -37.5 -28t-50.5 -12h-338q-45 0 -88.5 -11t-83 -32.5t-74 -51t-61 -66 t-45 -78t-25.5 -86.5q-10 -68 6 -127t53 -103.5t92 -69.5t123 -25q60 0 120 20t113 55l-150 179q-13 16 -17 35t-1 38.5t14 39t27 34.5l48 43q14 10 29 10t25 -10q8 -12 6 -27t-15 -25l-51 -42q-10 -9 -13 -22.5t5 -23.5l260 -304q8 -11 5 -26t-16 -26q-12 -10 -26.5 -9 t-24.5 11l-62 74q-64 -45 -138 -70.5t-150 -25.5q-54 0 -103 14t-89 40t-70 62t-49 80.5t-25.5 95z" />
<glyph unicode="&#xe55;" horiz-adv-x="952" d="M127.5 277.5q-6.5 50.5 2.5 105.5q12 76 47.5 142t88 117.5t118.5 86.5t140 49q-7 14 -8.5 31.5t0.5 36.5q5 30 21.5 56.5t39.5 45.5t51 30t57 11q30 0 55 -10.5t42.5 -29.5t24.5 -45t3 -58q-2 -17 -9.5 -33.5t-17.5 -30.5h139q12 0 22 6t18 15l94 100q10 12 25 15 q15 4 26 -4q11 -10 11 -25t-10 -27l-102 -112q-15 -16 -38 -28q-22 -12 -50 -12h-338q-46 0 -90 -11t-84 -32.5t-74 -51t-61 -66t-45.5 -78t-25.5 -86.5q-10 -68 6 -127.5t53.5 -104t93 -70t123.5 -25.5q60 0 120 20t113 57l-149 179q-13 14 -17.5 33t-1.5 39t14 39t27 34 l48 43q12 10 27 10t25 -10q9 -11 6.5 -25.5t-15.5 -26.5l-49 -42q-10 -9 -12 -22q-4 -12 4 -22l260 -304q9 -11 7.5 -27t-14.5 -27q-12 -10 -27.5 -11t-23.5 9l-66 80q-64 -46 -138 -72t-150 -26q-54 0 -103 14t-89 40t-70 62t-49 80.5t-25.5 95zM586 846q-2 -16 2 -30 t12.5 -25t21 -17t28.5 -6t31 6t27 17t21 25t11 30t-2 30t-12.5 25t-22 17t-29.5 6t-30 -6t-26 -17t-21 -25t-11 -30z" />
<glyph unicode="&#xe56;" horiz-adv-x="891" d="M121 253q3 25 16 48t36 43l47 41q13 11 27.5 11t24.5 -11q11 -11 7.5 -25t-15.5 -24l-48 -41q-10 -9 -16 -21t-7.5 -24t1 -25t8.5 -25q16 -30 40.5 -55t55.5 -44t68 -29q38 -10 78 -10q45 0 88.5 12t83 33.5t74 52t61.5 67t45 78t26 86.5q8 51 0.5 98t-27.5 87t-51.5 71 t-72.5 49l-208 -178l-248 297q-10 10 -7.5 24.5t14.5 24.5q13 10 27 10q15 0 23 -10l208 -246l186 160q60 -18 107 -55t77 -88t42 -112.5t2 -129.5q-9 -55 -31.5 -106.5t-55.5 -96t-75 -81.5t-90.5 -63.5t-101.5 -41t-108 -14.5q-52 0 -97 13t-81.5 35t-65.5 52 q-28 32 -47 66q-12 23 -17.5 47.5t-2.5 49.5z" />
<glyph unicode="&#xe57;" horiz-adv-x="1075" d="M129 235q-11 69 0 142q10 64 36.5 127.5t70 119.5t104.5 100q60 42 138 68l160 -190l216 184q58 -25 101 -63.5t70 -91.5l41 274q2 16 15 26.5t29 10.5t24 -10t5 -24l-81 -508q-12 -70 -40.5 -135t-72.5 -119t-101.5 -95t-125.5 -65q-14 -8 -27 -4t-17 18q-3 6 -2.5 13 t3 13.5t8 12t12.5 8.5q58 21 107.5 56t87.5 81t64 101q24 55 34 115q8 47 3 91.5t-23 84t-47 72t-71 54.5l-228 -196l-170 202q-55 -23 -98.5 -58.5t-75.5 -79.5t-51.5 -93.5t-27.5 -99.5q-6 -41 -4.5 -80t10.5 -74.5t27 -65.5t43.5 -52t58.5 -35q34 -12 76 -14 q7 0 16.5 1.5t20 4.5t21 7.5t17.5 8.5q14 4 25.5 -3.5t13.5 -21.5q2 -12 -6 -25.5t-24 -19.5q-23 -10 -47 -15q-23 -5 -45 -5q-80 2 -137 36t-91 88t-45 123z" />
<glyph unicode="&#xe58;" horiz-adv-x="1081" d="M124 370q9 57 32 109.5t57 98.5t77.5 84t93.5 64.5t105 41t111 14.5h404q12 0 22 6t18 15l87 96q12 12 27 14.5t26 -5.5q11 -10 11.5 -24t-11.5 -26l-97 -108q-14 -16 -37 -28q-22 -12 -50 -12h-408q-47 0 -92.5 -12t-87.5 -34t-78 -53t-64 -69t-48 -81q-18 -43 -26 -91 q-8 -52 -1 -99t27 -87t52 -71t74 -51l234 202l174 -206q40 4 77 21t66.5 45t49.5 64q21 36 27 76q6 42 -4 79.5t-34.5 65t-61 44t-81.5 16.5q-14 2 -21.5 12.5t-3.5 26.5q2 8 6 14t10 10.5t13 6.5q7 1 13 1q60 0 108 -21t79 -59t44 -88t4 -108t-39 -108.5t-74 -88t-98 -59.5 q-56 -22 -114 -22l-155 184l-221 -190q-58 21 -104 58.5t-76 88.5t-41.5 113t-0.5 130z" />
<glyph unicode="&#xe59;" horiz-adv-x="1097" d="M127.5 277.5q-6.5 50.5 2.5 105.5q8 55 31 106t55.5 95.5t74 81t87 62.5t95 40t97.5 14q19 0 40.5 -4t40.5 -12.5t35 -22t26 -31.5l25 -54q19 18 40 37t42 34.5t42 26.5t41 14q16 2 30 3.5t28 2t30 0.5h36q11 0 24.5 8t28.5 21t30 30t29 34.5t26 34t22 30.5q8 10 21.5 14 t23.5 -2q10 -8 11.5 -20.5t-8.5 -24.5q-10 -16 -23.5 -36t-30 -41t-34.5 -41.5t-37.5 -36.5t-40 -26t-40.5 -12q-31 -2 -61.5 0t-62.5 -4q-12 -2 -29.5 -13t-36 -26t-37.5 -33t-35 -34l258 -534q6 -14 0 -28q-4 -14 -18 -22q-16 -10 -29.5 -6t-20.5 16l-300 638 q-6 14 -17 23t-24 15t-27 8t-29 2q-38 0 -77.5 -11.5t-76.5 -33t-71 -51.5t-61 -66t-45.5 -77t-25.5 -86q-10 -68 6 -127.5t53 -104t92 -70t123 -25.5q34 0 73 9t73 23q14 5 27 -1.5t15 -20.5t-7 -27t-23 -19q-43 -18 -84.5 -27t-85.5 -9q-54 0 -103 14t-89 40t-70 62 t-49 80.5t-25.5 95z" />
<glyph unicode="&#xe5a;" horiz-adv-x="1065" d="M232 895q2 16 13 26.5t25 10.5t23 -9.5t7 -23.5q-9 -56 7.5 -98t50.5 -70.5t82 -42.5t100 -14q53 0 102.5 17.5t88.5 47.5t65 70.5t34 85.5q2 16 14 27q12 10 28 10t25 -10.5t7 -24.5l-138 -869q-2 -8 -5.5 -14.5t-9.5 -12t-13.5 -8.5t-14.5 -3q-16 0 -24.5 11t-6.5 25 l110 699q-26 -28 -58 -50.5t-66.5 -38t-72 -24t-75.5 -8.5q-68 0 -127 20t-101 57t-62 91t-8 123zM928 26l137 869q2 16 14.5 26.5t28.5 10.5t25 -10.5t7 -24.5l-138 -869q-2 -8 -6 -14.5t-10 -12t-13 -8.5t-15 -3q-16 0 -24 11t-6 25z" />
<glyph unicode="&#xe5b;" horiz-adv-x="2060" d="M196 471q8 56 27.5 102.5t47 83.5t60.5 65t68.5 46t73 27.5t72.5 9.5q48 0 86.5 -14.5t64.5 -41.5t38.5 -65.5t8.5 -87.5q-2 -16 -14 -25.5t-26 -9.5t-21.5 10.5t-5.5 22.5q0 32 -10.5 57.5t-29 43.5t-45.5 28t-61 10q-40 0 -82 -16.5t-78 -48.5t-62 -81.5t-37 -115.5 q-12 -73 6.5 -128t59 -92t99 -56t128.5 -19q54 0 107 20t100 55t85.5 81t64 99t36.5 109q11 58 2 112l61 38q14 -16 31 -41t34 -55t34.5 -62t33.5 -64.5t29.5 -62t23.5 -53.5q18 23 39 53.5t41 62.5t38 61q16 29 28 49l70 40q10 -17 26 -44.5t33 -59.5t32 -63t24 -55 q10 13 21.5 27.5t21.5 30t19 29.5t15 25h358q16 0 25 -10.5t7 -26.5t-15 -26.5t-28 -10.5h-330q-6 -10 -19.5 -30t-30 -42t-34 -45t-31.5 -41q-10 23 -24.5 56t-31 67.5t-33.5 67t-31 55.5q-9 -16 -24.5 -40t-34.5 -52t-40 -57.5t-42 -57.5t-41 -53t-34 -43q-8 21 -18.5 47 t-23 54t-26 57t-28 57t-28.5 52t-26 44q-27 -92 -73.5 -169t-107.5 -133.5t-136 -88t-157 -31.5q-102 0 -175.5 27.5t-119 76t-61.5 114.5t-4 145z" />
<glyph unicode="&#x2000;" horiz-adv-x="802" />
<glyph unicode="&#x2001;" horiz-adv-x="1604" />
<glyph unicode="&#x2002;" horiz-adv-x="802" />
<glyph unicode="&#x2003;" horiz-adv-x="1604" />
<glyph unicode="&#x2004;" horiz-adv-x="534" />
<glyph unicode="&#x2005;" horiz-adv-x="401" />
<glyph unicode="&#x2006;" horiz-adv-x="267" />
<glyph unicode="&#x2007;" horiz-adv-x="267" />
<glyph unicode="&#x2008;" horiz-adv-x="200" />
<glyph unicode="&#x2009;" horiz-adv-x="320" />
<glyph unicode="&#x200a;" horiz-adv-x="89" />
<glyph unicode="&#x200b;" />
<glyph unicode="&#x2010;" horiz-adv-x="526" d="M135 389q2 16 13.5 26.5t27.5 10.5h306q16 0 25 -10.5t7 -26.5t-15 -26.5t-28 -10.5h-305q-16 0 -25 11t-6 26z" />
<glyph unicode="&#x2011;" horiz-adv-x="526" d="M135 389q2 16 13.5 26.5t27.5 10.5h306q16 0 25 -10.5t7 -26.5t-15 -26.5t-28 -10.5h-305q-16 0 -25 11t-6 26z" />
<glyph unicode="&#x2012;" horiz-adv-x="526" d="M135 389q2 16 13.5 26.5t27.5 10.5h306q16 0 25 -10.5t7 -26.5t-15 -26.5t-28 -10.5h-305q-16 0 -25 11t-6 26z" />
<glyph unicode="&#x2013;" horiz-adv-x="778" d="M118 358q2 12 13 21.5t23 9.5h594q14 0 21 -9.5t5 -21.5t-13 -21t-23 -9h-594q-14 0 -21 9t-5 21z" />
<glyph unicode="&#x2014;" horiz-adv-x="1556" d="M118 358q2 12 13 21.5t23 9.5h1372q14 0 21 -9.5t5 -21.5t-13 -21t-23 -9h-1372q-14 0 -21 9t-5 21z" />
<glyph unicode="&#x2018;" horiz-adv-x="385" d="M241 941.5q-3 19.5 0 39.5q4 26 18 52t36 52.5t51 50.5q30 26 64 48q8 6 16 4q8 0 14 -8q4 -6 4 -13q-2 -7 -12 -14q-43 -29 -73.5 -60.5t-49.5 -72.5q14 6 24.5 8t20.5 2q14 0 27 -6t21.5 -16t12.5 -24t2 -30t-11 -30t-22 -26t-29.5 -19t-34.5 -7q-24 0 -40 10t-26 25 t-13 34.5z" />
<glyph unicode="&#x2019;" horiz-adv-x="385" d="M235 903q1 7 12 14q43 29 74 60.5t49 72.5q-14 -6 -24 -8t-20 -2q-14 0 -27 6t-22 16t-13 24t-2 30t11 30t22 26t30 19t34 7q24 0 40.5 -10t26 -25t12.5 -34.5t0 -39.5q-4 -26 -18 -52t-36 -52.5t-51 -50.5q-29 -26 -64 -48q-8 -6 -17 -4q-8 0 -13 8q-5 6 -4 13z" />
<glyph unicode="&#x201c;" horiz-adv-x="598" d="M241 941.5q-3 19.5 0 39.5q4 26 18 52t36 52.5t51 50.5q30 26 64 48q8 6 16 4q8 0 14 -8q4 -6 4 -13q-2 -7 -12 -14q-43 -29 -73.5 -60.5t-49.5 -72.5q14 6 24.5 8t20.5 2q14 0 27 -6t21.5 -16t12.5 -24t2 -30t-11 -30t-22 -26t-29.5 -19t-34.5 -7q-24 0 -40 10t-26 25 t-13 34.5zM487 941.5q-3 19.5 0 39.5q4 26 18 52t36 52.5t51 50.5q30 26 64 48q8 6 16 4q8 0 14 -8q4 -6 4 -13q-2 -7 -12 -14q-43 -29 -73.5 -60.5t-49.5 -72.5q14 6 24.5 8t20.5 2q14 0 27 -6t21.5 -16t12.5 -24t2 -30t-11 -30t-22 -26t-29.5 -19t-34.5 -7q-24 0 -40 10 t-26 25t-13 34.5z" />
<glyph unicode="&#x201d;" horiz-adv-x="631" d="M235 903q1 7 12 14q43 29 74 60.5t49 72.5q-14 -6 -24 -8t-20 -2q-14 0 -27 6t-22 16t-13 24t-2 30t11 30t22 26t30 19t34 7q24 0 40.5 -10t26 -25t12.5 -34.5t0 -39.5q-4 -26 -18 -52t-36 -52.5t-51 -50.5q-29 -26 -64 -48q-8 -6 -17 -4q-8 0 -13 8q-5 6 -4 13zM481 903 q1 7 12 14q43 29 74 60.5t49 72.5q-14 -6 -24 -8t-20 -2q-14 0 -27 6t-22 16t-13 24t-2 30t11 30t22 26t30 19t34 7q24 0 40.5 -10t26 -25t12.5 -34.5t0 -39.5q-4 -26 -18 -52t-36 -52.5t-51 -50.5q-29 -26 -64 -48q-8 -6 -17 -4q-8 0 -13 8q-5 6 -4 13z" />
<glyph unicode="&#x2022;" horiz-adv-x="901" d="M192 410q7 44 25 85.5t44.5 77t61 65.5t74 51t82.5 32.5t87 11.5t84 -11.5t72.5 -32.5t57.5 -51t40.5 -65.5t20 -77t-2.5 -85.5t-24.5 -86t-44.5 -78t-61 -65t-74 -50.5t-83 -33t-87 -11.5q-67 0 -121.5 25.5t-91.5 69.5t-53 103q-16 58 -6 126z" />
<glyph unicode="&#x202f;" horiz-adv-x="320" />
<glyph unicode="&#x205f;" horiz-adv-x="401" />
<glyph unicode="&#x20ac;" horiz-adv-x="1138" d="M98 428q2 14 13 23.5t25 9.5h105q0 18 2.5 37.5t5.5 39.5q2 17 5.5 33t9.5 33h-105q-14 0 -22.5 8.5t-5.5 22.5q2 14 13 23.5t25 9.5h115q24 62 61 117t83 103t100 86t114 65t123 42t127 15q84 0 160 -29t138 -82q11 -9 12.5 -24t-8.5 -29q-6 -7 -13 -11.5t-15 -5.5 t-15 1t-12 6q-59 50 -126 75t-137 25q-53 0 -105 -12t-101.5 -35t-94.5 -55t-84 -71t-71 -85t-54 -96h436q14 0 22 -9.5t6 -23.5t-13 -22.5t-25 -8.5h-450l-10 -36q-4 -18 -6 -36q-6 -37 -5 -71h449q14 0 22 -9q6 -10 4 -24t-12.5 -22t-24.5 -8h-433q12 -70 47 -132.5 t87 -109t119.5 -72.5t144.5 -26q70 0 144 24t148 74q14 10 28 7t22 -15q7 -12 2 -27t-19 -25q-79 -53 -165 -81.5t-170 -28.5q-93 0 -173.5 31t-142.5 86t-102 131t-51 164h-119q-14 0 -22 8t-6 22z" />
<glyph unicode="&#x2122;" horiz-adv-x="1165" d="M216 1054q2 11 11 19.5t20 8.5h329q11 0 17.5 -8t5.5 -20q-2 -10 -11 -18t-20 -8h-137l-87 -551q-2 -12 -12 -21q-10 -8 -22 -8t-18 8.5t-4 20.5l88 551h-138q-11 0 -17.5 8t-4.5 18zM470 470l220 610q2 6 6 8.5t10 2.5q10 0 12 -9l128 -532l294 532q6 10 16 10q4 0 8 -3 t4 -9l26 -610q0 -11 -8 -20q-10 -8 -20 -10q-12 -2 -20 4t-8 18l-16 486l-275 -496q-3 -4 -8 -7.5t-10 -3.5q-6 0 -9.5 3.5t-4.5 7.5l-120 496l-175 -488q-4 -11 -14 -16.5t-20 -3.5q-9 2 -14.5 10t-1.5 20z" />
<glyph unicode="&#x25cc;" horiz-adv-x="1372" d="M427 588l99 45q-8 -23 -12 -49q-3 -24 -2 -44zM485 336l50 96q20 -40 53 -66zM579 838l87 -33q-44 -24 -76 -61zM694 320q22 -4 44 -4q20 0 40 4l-56 -86zM772 846l62 92l31 -90q-23 2 -43 2q-24 0 -50 -4zM898 362q40 24 70 58l10 -84zM966 805l106 33l-50 -96 q-21 36 -56 63zM1038 545q6 19 10 39q4 22 4 44l78 -44z" />
<glyph unicode="&#x25fc;" horiz-adv-x="757" d="M0 0v758h758v-758h-758z" />
<glyph unicode="&#xf700;" horiz-adv-x="829" d="M138 618q18 63 56 120t90 100.5t117 68.5t137 25q57 0 105.5 -17t86.5 -47l103 98q13 12 28 14t25 -9q12 -11 12 -27q-2 -16 -14 -28l-104 -100q35 -46 50 -106q14 -58 4 -126q-10 -61 -40 -117l-234 -447q-4 -10 -13 -16t-21 -6q-11 0 -18 6q-6 6 -8 16l-98 527 q-3 14 6 27q10 13 24 18q16 4 27 -2t14 -20l77 -428l178 346q12 24 21 48t13 48q9 58 -5 108t-45.5 87.5t-79.5 59t-105 21.5q-58 0 -108.5 -19t-91.5 -52t-70 -77t-45 -94q-1 -7 -4.5 -13.5t-9.5 -11.5t-13 -8t-15 -3q-16 0 -25 10t-7 26z" />
<glyph unicode="&#xf701;" d="M-692 1100q2 16 15 26t28 10h531q16 0 24 -10t6 -26t-14 -26q-12 -11 -28 -11h-531q-16 0 -24.5 10.5t-6.5 26.5z" />
<glyph unicode="&#xf702;" d="M-692 1100q2 16 14 25t28 9h496l14 88q2 16 14 27t26 11q16 0 25 -11t7 -25l-20 -124q-2 -16 -14 -26q-12 -11 -28 -11h-531q-16 0 -24.5 10.5t-6.5 26.5z" />
<glyph unicode="&#xf703;" d="M-692 1100q2 16 15 26t28 10h393q-4 11 -4.5 22.5t1.5 23.5q4 24 17.5 46t32.5 38.5t42.5 26t47.5 9.5t44.5 -9.5t34.5 -26t20 -38.5t2 -46t-16.5 -45t-31 -37t-41.5 -25.5t-47 -9.5h-506q-16 0 -25 10.5t-7 24.5zM-194 1182q-2 -10 1.5 -20t10 -17.5t15.5 -12t19 -4.5 t21 4.5t19.5 12t14.5 17.5t8 20q2 11 -1.5 20.5t-9.5 17.5t-15 12.5t-19 4.5q-11 0 -21.5 -4.5t-19.5 -12.5t-15 -18t-8 -20z" />
<glyph unicode="&#xf704;" d="M-692 1100q2 16 14 25t28 9h346l14 88q2 16 14.5 27t26.5 11q16 0 25 -11q8 -11 6 -25l-14 -90h78l14 88q2 16 14 27t26 11q16 0 25 -11t7 -25l-20 -124q-2 -16 -14 -26q-12 -11 -28 -11h-531q-16 0 -24.5 10.5t-6.5 26.5z" />
<glyph unicode="&#xf705;" d="M-258 1100l30 188q2 8 6 14.5t10 11.5t13 8t13 3q16 0 25 -10.5t7 -24.5l-30 -190q-2 -16 -14 -26q-12 -11 -26 -11q-16 0 -26 10.5t-8 26.5z" />
<glyph unicode="&#xf706;" d="M-480 1243.5q0 7.5 3 15t9 11.5q22 15 41 21.5t41 6.5q30 0 50 -9.5t31 -25t15 -33.5t0 -36q-2 -16 -11 -32t-21 -30h236q14 0 22 -10t6 -24t-13 -24.5t-25 -10.5h-370q22 24 39 42q17 17 30 33q15 17 25 30.5t12 21.5t0.5 15.5t-5.5 14t-11.5 10t-19.5 3.5q-6 0 -9 0.5 t-6.5 -0.5t-7 -3t-9.5 -6q-14 -8 -24 -9t-16 2.5t-9 11t-3 15z" />
<glyph unicode="&#xf707;" d="M-627 1132.5q-1 13.5 2 28.5q4 27 18.5 51t35.5 42.5t46 29t53 10.5q30 0 52 -12q22 -10 38 -32q24 22 50.5 33t55.5 11q27 0 49.5 -10t37.5 -28t21 -42t2 -50q-1 -8 -3.5 -16t-5.5 -18h99q14 0 21.5 -10t5.5 -22q-2 -14 -13 -24q-12 -11 -24 -11h-206l45 65q6 8 10.5 17 t5.5 19q2 14 -1 25.5t-10.5 20.5t-18.5 14t-25 5q-13 0 -25.5 -5.5t-23 -14.5t-18 -21t-10.5 -27h-65q2 14 -2 26.5t-11 21.5t-18 14.5t-24 5.5q-14 0 -26.5 -5.5t-23 -14.5t-18 -21.5t-9.5 -26.5q-2 -16 2 -31q2 -16 8 -24q7 -12 1.5 -24t-17.5 -19q-14 -8 -27 -5t-19 15 q-3 4 -6.5 13.5t-5.5 21t-3 25z" />
<glyph unicode="&#xf708;" d="M-398 1208q2 14 12 22q12 9 24 9h86l12 82q1 8 5.5 14.5t10.5 11.5t13 8t15 3q16 0 23 -10.5t5 -24.5l-12 -82h86q14 0 21.5 -9.5t5.5 -23.5t-13 -22t-25 -8h-84l-13 -82q-2 -16 -14 -26.5t-26 -10.5q-16 0 -25 10.5t-7 24.5l14 82h-88q-12 0 -20 9t-6 23z" />
<glyph unicode="&#xf709;" d="M-290 1088q0 20 2 36q4 24 16 45t30 36t40 23.5t46 8.5h90q16 0 24 -9.5t6 -23.5q-2 -16 -14 -25t-27 -9h-90q-20 0 -35 -14q-14 -14 -17 -32q-2 -8 -1 -16q2 -8 6 -16q8 -11 4 -24.5t-16 -21.5q-14 -10 -27 -8t-23 14q-12 16 -14 36z" />
<glyph unicode="&#xf70a;" d="M14 1098l30 190q2 16 14 26.5t26 10.5q16 0 25 -9.5t7 -25.5l-30 -190q-2 -16 -14.5 -26.5t-26.5 -10.5q-16 0 -24.5 10.5t-6.5 24.5z" />
<glyph unicode="&#xf70b;" d="M-292 1217.5q2 13.5 12 25.5q20 25 49 40t60 15q30 0 50.5 -9.5t31.5 -25t15 -33.5t2 -36q-2 -16 -12 -32t-23 -30h229q16 0 24.5 -10t6.5 -24t-14.5 -24.5t-26.5 -10.5h-353l61 75q14 17 24 30.5t10 21.5q2 8 1 15.5t-4.5 14t-11 10t-21.5 3.5q-16 0 -30 -10.5 t-24 -22.5q-5 -6 -11 -9t-12.5 -4t-12.5 1q-8 2 -12 6q-10 10 -8 23.5z" />
<glyph unicode="&#xf70c;" d="M-453 1130.5q-1 13.5 2 28.5q4 27 17.5 51.5t33.5 43t45 29.5t53 11q30 0 52 -12q22 -10 38 -32q24 22 50.5 33t55.5 11q27 0 49.5 -10t37.5 -28t21 -42t2 -50q-1 -8 -3.5 -16t-6.5 -20h129q14 0 22 -9t6 -23t-13.5 -23.5t-25.5 -9.5h-234l44 63q6 9 10 17.5t6 20.5 q2 13 -1 24.5t-10 20.5t-18 14.5t-25 5.5q-13 0 -25.5 -5.5t-23 -14.5t-18 -21t-10.5 -27h-65q2 14 -2 26.5t-11 21.5t-18 14.5t-24 5.5q-14 0 -26.5 -6t-21.5 -15.5t-16 -22.5t-9 -26q-2 -8 -1 -17.5t3 -17.5t4 -14q4 -7 6 -10q6 -11 1 -23.5t-19 -19.5q-14 -8 -27 -5.5 t-18 15.5q-4 6 -7.5 15.5t-5.5 22t-3 26z" />
<glyph unicode="&#xf70d;" d="M-90 1216q2 14 13 24t23 10h92l14 88q2 16 14 26t26 10q16 0 25 -10t7 -26l-14 -86h90q14 0 22 -10t6 -24t-13 -22t-23 -8h-92l-14 -88q-2 -16 -14.5 -26.5t-26.5 -10.5q-16 0 -24.5 10.5t-6.5 26.5l14 86h-90q-14 0 -22 9t-6 21z" />
<glyph unicode="&#xf70e;" d="M-128 1088q0 20 2 37q4 24 16 44.5t29.5 35.5t40 23.5t45.5 8.5h90q16 0 24 -9.5t6 -23.5q-2 -16 -13.5 -25t-27.5 -9h-89q-20 0 -34.5 -13t-17.5 -32q-1 -8 -1 -17q2 -8 6 -16q8 -11 4 -24.5t-16 -20.5q-14 -10 -27 -8.5t-23 14.5q-12 16 -14 35z" />
<glyph unicode="&#xf70f;" horiz-adv-x="1536" d="M140 35l90 562l-43 59q-10 14 -12.5 28t0.5 27t11 25.5t19 23.5q36 38 79.5 70t90.5 55t97 36t102 13q92 0 164 -29.5t119 -82.5t66 -125.5t5 -160.5l-35 -224q-8 -52 4.5 -99t41.5 -82t73 -55t96 -20q54 0 104 19t90.5 53t68 81t36.5 103l93 585q2 14 14 24.5t26 10.5 q16 0 25 -10.5t7 -24.5l-94 -585q-7 -45 -25.5 -87t-45.5 -78.5t-61.5 -66t-74 -51t-83.5 -32.5t-88 -11q-68 0 -125 25t-95 69.5t-54 104t-5 127.5l35 224q12 73 -4.5 133.5t-56 103.5t-99.5 67t-134 24q-44 0 -89 -12.5t-86.5 -34t-78.5 -51.5t-66 -64l63 -82l-87 -548 h104q16 0 25 -10.5t7 -24.5q-2 -16 -14 -27q-12 -10 -28 -10h-142q-14 0 -23 10t-7 25z" />
<glyph unicode="&#xf710;" d="M-356 1131q-4 21 0 45l4 24q2 16 14 26.5t28 10.5t24 -10.5t6 -26.5l-4 -24q-4 -20 5 -31t28 -11h425q16 0 24 -9.5t6 -25.5t-14 -26t-28 -10h-424q-26 0 -46 8.5t-32 23.5t-16 36z" />
<glyph unicode="&#xf711;" d="M-362 1157q4 24 17 45.5t32.5 38.5t43 27t47.5 10t45 -10t35 -27t20 -38.5t2 -45.5t-17 -45.5t-32.5 -38t-43 -26t-47.5 -9.5t-44 9.5t-34 26t-21 37.5t-3 46zM-296 1157q-2 -10 1.5 -20.5t10 -18t15.5 -12t20 -4.5q10 0 20.5 4.5t19.5 12t14.5 18t7.5 20.5q2 11 -1 21 t-9.5 17t-15.5 11t-19 4t-21 -4t-20 -11t-15 -17t-8 -21z" />
<glyph unicode="&#xf712;" d="M-617 1224q5 33 23 62.5t43 52t57 35t65 12.5h413q14 0 21.5 -10t5.5 -22q-2 -14 -12.5 -23.5t-24.5 -9.5h-412q-20 0 -39 -7.5t-34.5 -20.5t-26 -31t-14.5 -38q-3 -20 2 -37t16 -30t27.5 -21t36.5 -8q17 0 33 6t29.5 16.5t24.5 25t17 32.5q4 12 15 20t25 8q13 0 21 -8 t9 -20q0 -18 7 -32.5t18 -25t25 -16.5t32 -6q20 0 36 6.5t28.5 16.5t21.5 22.5t15 24.5q7 14 15 23.5t22 9.5q7 0 13.5 -3t11.5 -8t6 -11.5t-1 -14.5q-8 -24 -25 -47t-40 -42t-52 -30.5t-61 -11.5q-39 0 -69.5 17.5t-48.5 45.5q-28 -28 -63 -45.5t-75 -17.5 q-33 0 -60.5 12.5t-46.5 35t-27 52t-3 61.5z" />
<glyph unicode="&#xf713;" d="M-108 1382l21 134q2 14 12.5 22t22.5 8t20 -9t6 -21l-21 -134q-2 -14 -12.5 -22t-22.5 -8t-20 9t-6 21z" />
<glyph unicode="&#xf714;" d="M-284 1535q2 13 13 23q14 11 34 20t46 9q30 0 49.5 -9.5t31 -25t14.5 -34.5q4 -20 1 -38q-2 -14 -10.5 -30t-22.5 -30h236q14 0 23 -10t7 -24q-2 -16 -14 -25t-26 -9h-367q28 30 47.5 51t31.5 35t18 23t6 15q2 8 1 16.5t-4.5 15t-11 10.5t-21.5 4q-20 0 -32 -10 q-5 -4 -11 -6.5t-12.5 -3t-12.5 1.5l-8 8q-8 9 -6 23z" />
<glyph unicode="&#xf715;" d="M-309 1417.5q-1 12.5 1 24.5q4 24 17 46t31.5 38t41.5 25q24 9 48 9q25 0 44.5 -9.5t33.5 -24.5q18 15 42 24q24 10 48 10t44 -9t33.5 -25t19.5 -38t2 -46q-1 -6 -3 -11t-2 -11h100q16 0 24 -10t6 -24q-2 -16 -14 -25q-10 -9 -24 -9h-209l42 63q4 6 7.5 13.5t5.5 13.5 q4 22 -9 36.5t-35 14.5t-39 -15.5t-21 -41.5h-65q4 26 -9 42q-14 15 -34 15q-10 0 -20 -4t-18 -10.5t-14 -16.5q-4 -10 -6 -20v-10t1 -13t2.5 -13t3.5 -10q7 -12 3 -24q-4 -10 -16 -20q-12 -9 -26 -6t-22 14q-3 4 -6.5 13t-5.5 20.5t-3 24z" />
<glyph unicode="&#xf716;" d="M-196 1476q2 14 13 23t23 9h65l10 61q2 15 14.5 25t27.5 10q16 0 24 -11t6 -24l-10 -61h67q12 0 20 -9t6 -21q-2 -14 -12 -22t-22 -8h-66l-10 -60q-2 -16 -14 -26t-28 -10t-24 10t-6 24l10 62h-68q-14 0 -21 8t-5 20z" />
<glyph unicode="&#xf717;" d="M-176.5 1361q-1.5 11 0.5 25q4 24 16.5 45t30 36.5t39.5 24.5t46 9h91q14 0 23 -9.5t7 -23.5q-2 -16 -13.5 -25t-27.5 -9h-91q-8 0 -16.5 -4t-15.5 -10t-12 -15t-7 -19q-2 -14 3 -22q2 -6 1 -12t-4 -12t-7.5 -10.5t-10.5 -6.5q-15 -6 -28.5 -2.5t-18.5 17.5 q-4 12 -5.5 23z" />
<glyph unicode="&#xf718;" d="M-318 -444q2 16 14 26t28 10h89q15 0 24 -10t7 -26l-26 -164q-2 -15 -14 -26t-27 -11q-16 0 -23.5 10.5t-5.5 26.5l20 126h-55q-16 0 -24.5 11t-6.5 27z" />
<glyph unicode="&#xf719;" d="M-524 -444q2 16 14 26t28 10h68q15 0 24 -10q8 -10 6 -26l-10 -68q-2 -16 1.5 -30t12.5 -25t22.5 -17t29.5 -6t31 6.5t26.5 17t19.5 24.5q9 14 11 30l11 72q2 16 14.5 26t28.5 10t24.5 -10t6.5 -24l-12 -74q-5 -31 -21 -58t-39.5 -47.5t-53 -32.5t-59.5 -12q-31 0 -56 12 t-41.5 32.5t-24 47.5t-2.5 58l5 30h-35q-16 0 -24 11t-6 27z" />
<glyph unicode="&#xf71a;" d="M-257 -459q2 12 9 23.5t16.5 19.5t21.5 13t24 5t23 -5t18 -13t10 -19.5t1 -23.5t-9 -23.5t-16.5 -19.5t-21 -13t-24.5 -5q-12 0 -22.5 5t-17.5 13t-10.5 19.5t-1.5 23.5z" />
<glyph unicode="&#xf71d;" horiz-adv-x="1067" d="M124 232l106 663q2 16 14 26.5t26 10.5q16 0 24 -12t6 -27l-104 -661q-6 -36 3 -67t28 -53t47 -35q30 -13 64 -13q36 0 68.5 13t59 36t44.5 53q18 32 24 66l61 384q1 8 5 15t10 12.5t12.5 9t13.5 3.5q8 0 14 -4t10 -9.5t6 -13t0 -15.5l-60 -382q-6 -36 2.5 -67t28 -53 t47.5 -35q30 -13 64 -13q35 0 67.5 13t59.5 35t45 53t24 67l72 458q6 40 1 70.5t-20 50t-39 29.5q-26 10 -56 10h-76q-12 0 -20 9t-6 21t13 22t23 10h82q44 0 70.5 4t42 14t22.5 25t11 36q4 14 16 25q10 10 26 10t25 -9.5t5 -25.5q-5 -23 -12.5 -43t-18.5 -36t-27 -28 t-38 -18q20 -16 32 -33t17 -38.5t5 -46.5q-2 -24 -6 -54l-72 -462q-8 -50 -34 -94t-64 -76t-84.5 -51t-95.5 -19q-33 0 -62.5 8t-53.5 23t-42 35t-29 46q-20 -26 -45.5 -46t-54 -35t-60 -23t-63.5 -8q-50 0 -91 19t-68.5 51t-40 76t-4.5 94z" />
<glyph unicode="&#xf881;" horiz-adv-x="1378" d="M140 35l90 562l-43 59q-10 14 -12.5 28t0.5 27t11 25.5t19 23.5q36 38 79.5 70t90.5 55t97 36t102 13q80 0 145 -23t111 -63q50 42 120.5 64t149.5 22q84 0 143 -26t95 -70t49 -103t2 -125l-148 -934q-1 -7 -5 -13.5t-10 -11.5t-13 -8t-15 -3q-16 0 -24 11t-5 25l145 914 q10 63 -1 114.5t-40 87.5t-77 56q-46 20 -110 20q-29 0 -58.5 -4t-56.5 -13t-52 -22t-45 -31q38 -51 52 -118q14 -66 2 -146l-136 -858q-1 -7 -4.5 -13.5t-9.5 -11.5t-14 -8q-6 -3 -14 -3q-16 0 -24 11t-6 25l136 858q12 74 -4.5 134.5t-56 103.5t-99.5 66q-60 24 -134 24 q-44 0 -89 -12t-86.5 -34t-78.5 -51t-66 -63l62 -84l-86 -546h114q16 0 25 -11t7 -26q-2 -16 -14 -25q-12 -10 -28 -10h-152q-14 0 -23 10t-7 25z" />
<glyph unicode="&#xf882;" horiz-adv-x="1399" d="M46 35q2 16 15 26.5t28 10.5h77l84 525l-42 59q-10 14 -13 28t0 27t11 25q10 13 20 24q36 38 79 70t90 55t97.5 36t101.5 13q80 0 145.5 -22t111.5 -64q50 42 120.5 64t148.5 22q84 0 143.5 -26t95.5 -70t48.5 -103t2.5 -125l-149 -936q-1 -7 -5 -13.5t-10 -11.5t-13 -8 t-15 -3q-16 0 -23.5 11t-5.5 25l145 916q10 63 -0.5 114.5t-40 87.5t-76.5 56t-111 20q-29 0 -58 -4t-56.5 -13t-51.5 -22t-44 -31q37 -51 51.5 -117.5t1.5 -146.5l-136 -858q-1 -7 -5 -13.5t-10 -11.5t-13 -8t-15 -3q-16 0 -24 11t-5 25l136 860q12 73 -4.5 133.5 t-56.5 103.5t-99 67t-134 24q-44 0 -89 -12.5t-86.5 -34t-78.5 -51.5t-67 -64l63 -84l-92 -583q-2 -16 -14 -25.5t-26 -9.5h-115q-16 0 -25 10t-7 25z" />
<glyph d="M-286 1118q6 39 28 71t54 52q-24 22 -36 54.5t-6 70.5q5 32 21.5 60.5t41 49.5t55 33.5t62.5 12.5t58 -12t43 -34q8 -8 7.5 -21t-12.5 -23q-13 -11 -26 -10q-12 0 -20 10q-10 12 -26 19t-34 7q-20 0 -38 -7t-32 -20t-24 -29.5t-13 -35.5t2 -35.5t16 -29.5t28 -20t38 -7 l-10 -64q-22 0 -41 -7t-34 -19.5t-25 -29t-13 -36.5q-3 -19 1.5 -35.5t15.5 -29.5t28 -20t39 -7q14 0 22 -10q8 -8 5 -22q-2 -14 -12.5 -24t-24.5 -10q-34 0 -62 13t-46.5 34t-26.5 50q-9 29 -3 61z" />
<glyph horiz-adv-x="659" d="M-362 1157q4 24 17 45.5t32.5 38.5t43 27t47.5 10t45 -10t35 -27t20 -38.5t2 -45.5t-17 -45.5t-32.5 -38t-43 -26t-47.5 -9.5t-44 9.5t-34 26t-21 37.5t-3 46zM-296 1155q-2 -12 1 -21.5t10 -16.5t16 -11t20 -4q10 0 20.5 4t19 11t14.5 17q5 10 7 21q2 12 -0.5 22 t-9 17.5t-15.5 11.5t-19 4t-21 -4t-20 -11.5t-15 -17.5t-8 -22zM140 846q48 41 111 64.5t143 23.5q84 0 141 -26t90 -70t43 -103t0 -125l-96 -610h-72l92 588q10 64 2 115t-34.5 88t-71 56t-108.5 19q-60 0 -109 -17t-89 -53z" />
<glyph horiz-adv-x="659" d="M-362 1157q4 24 17 45.5t32.5 38.5t43 27t47.5 10t45 -10t35 -27t20 -38.5t2 -45.5t-17 -45.5t-32.5 -38t-43 -26t-47.5 -9.5t-44 9.5t-34 26t-21 37.5t-3 46zM-296 1155q-2 -12 1 -21.5t10 -16.5t16 -11t20 -4q10 0 20.5 4t19 11t14.5 17q5 10 7 21q2 12 -0.5 22 t-9 17.5t-15.5 11.5t-19 4t-21 -4t-20 -11.5t-15 -17.5t-8 -22zM140 846q48 41 111 64.5t143 23.5q84 0 141 -26t90 -70t43 -103t0 -125l-96 -610h-72l92 588q10 64 2 115t-34.5 88t-71 56t-108.5 19q-60 0 -109 -17t-89 -53z" />
<glyph d="M-590 1100q2 16 15 26t27 10h614q14 0 22 -10t6 -26t-14 -25.5t-26 -9.5h-614q-14 0 -23 9.5t-7 25.5z" />
<glyph d="M-590 1100q2 16 15 26t27 10h568l17 105q1 8 5 14.5t10 11.5t13 8t14 3q14 0 23 -11q8 -11 6 -26l-22 -141q-2 -16 -14 -25.5t-26 -9.5h-606q-14 0 -23 9.5t-7 25.5z" />
<glyph d="M-590 1100q2 16 15 26t27 10h420q-4 11 -5 22.5t1 23.5q4 24 17 46t32 38.5t43 25.5q24 10 48 10t44 -9.5t33 -26t19.5 -38.5t2.5 -46t-16.5 -45t-31.5 -37t-42 -25.5t-47 -9.5h-530q-14 0 -23 9.5t-7 25.5zM-68 1182q-2 -10 1 -20t9.5 -17.5t16 -12t19.5 -4.5t21 4.5 t20 12t15 17.5t8 20q2 11 -1.5 20.5t-10 17.5t-15.5 12.5t-19 4.5q-11 0 -22 -4.5t-19.5 -12.5t-14.5 -18t-8 -20z" />
<glyph d="M-590 1100q2 16 15 26t27 10h420l16 105q1 8 5.5 14.5t10 11.5t12.5 8t14 3q14 0 23 -11t7 -26l-17 -105h77l17 105q1 8 5 14.5t10 11.5t13 8t14 3q14 0 23 -11q8 -11 6 -26l-22 -141q-2 -16 -14 -25.5t-26 -9.5h-606q-14 0 -23 9.5t-7 25.5z" />
<glyph d="M-452 -127q2 16 15 26.5t27 10.5h89q15 0 24 -11t7 -26l-26 -164q-2 -16 -14 -27q-10 -10 -26 -10t-24 11t-6 26l20 127h-55q-15 0 -24 11t-7 26z" />
<glyph d="M-556 -127q2 16 14 27q12 10 28 10h68q15 0 24 -11q8 -11 6 -26l-10 -67q-2 -16 1.5 -31t12.5 -26t22.5 -17t29.5 -6t31 7t27 18t20 25t10 30l12 71q2 16 14 26.5t28 10.5t25 -10.5t6 -24.5l-11 -73q-5 -31 -21.5 -58.5t-39.5 -47.5t-53 -32t-60 -12q-31 0 -55.5 12 t-41.5 32t-24 47t-3 59l6 30h-35q-16 0 -25 11q-8 11 -6 26z" />
<glyph d="M-224 1382l22 134q2 14 12 22t23 8q12 0 20.5 -9t6.5 -21l-22 -134q-2 -14 -12 -22q-12 -8 -24 -8t-20 9t-6 21z" />
<glyph d="M-311 1476q2 14 12.5 23t22.5 9h66l10 61q2 15 14 25t28 10t24 -11t6 -24l-10 -61h68q12 0 20 -9t6 -21q-2 -14 -12 -22t-22 -8h-68l-9 -60q-2 -16 -14.5 -26t-28.5 -10t-24 10t-5 24l9 62h-67q-14 0 -21 8t-5 20z" />
<glyph d="M-122 1535q2 13 12 23q14 11 34 20t46 9q30 0 50 -9.5t31 -25t14.5 -34t0.5 -36.5q-2 -14 -11 -31t-21 -31h235q14 0 23 -10t7 -24q-2 -16 -14.5 -25t-26.5 -9h-366q28 30 47.5 51t32 36t18.5 24t6 17q1 7 1 14.5t-3.5 13.5t-10.5 10t-21 4q-9 0 -18 -2t-16 -8 q-5 -4 -11.5 -6.5t-12.5 -3t-12 1.5q-6 4 -9 8q-8 9 -5 23z" />
<glyph d="M-119 1417.5q-1 12.5 1 24.5q4 24 17 46t31.5 38t41.5 25q24 9 48 9t44 -9.5t34 -24.5q18 15 41 24.5t49 9.5q24 0 44 -9t33.5 -25t19.5 -38t2 -46q-1 -6 -3 -11t-5 -11h103q16 0 24 -10t6 -24q-2 -16 -13 -25t-25 -9h-210l44 63q4 6 7 13.5t5 13.5q4 22 -9 36.5 t-35 14.5q-11 0 -20.5 -4t-17.5 -11.5t-14 -18.5t-8 -23h-66q4 26 -9 41.5t-33 15.5q-10 0 -20 -4t-18 -10.5t-14 -16.5q-4 -10 -6 -20v-10t1 -13t3 -13t3 -10q7 -12 3 -24q-4 -10 -16 -20q-12 -9 -26 -6t-22 14q-3 4 -6.5 13t-5.5 20.5t-3 24z" />
</font>
</defs>
</svg>
