<?xml version="1.0" standalone="no"?>
<!DOCTYPE svg PUBLIC "-//W3C//DTD SVG 1.1//EN" "http://www.w3.org/Graphics/SVG/1.1/DTD/svg11.dtd" >
<svg xmlns="http://www.w3.org/2000/svg" xmlns:xlink="http://www.w3.org/1999/xlink" version="1.1">
<metadata></metadata>
<defs>
<font id="db_admanrounded_xboldit" horiz-adv-x="0" >
<font-face units-per-em="2048" ascent="1638" descent="-410" />
<missing-glyph horiz-adv-x="512" />
<glyph unicode="&#x2b;&#x2d;" horiz-adv-x="809" d="M39 80q2 17 11.5 31.5t22 26t28.5 18t33 6.5h592q17 0 30.5 -6.5t23.5 -18t14 -26t1 -31.5q-2 -17 -11 -31.5t-22 -25.5t-28.5 -17t-33.5 -6h-592q-17 0 -30.5 6t-23 17t-14 25.5t-1.5 31.5zM117 572q2 17 11.5 31.5t22 25.5t28.5 18t33 7h215l34 214q2 17 10.5 32 t21.5 26.5t28.5 17.5t32.5 6t30.5 -6t23.5 -17.5t14 -26t1 -32.5l-34 -214h215q17 0 30.5 -7t23.5 -18t14 -26t1 -31q-3 -17 -12 -31.5t-22 -25.5t-28.5 -17t-32.5 -6h-215l-34 -216q-2 -17 -11.5 -31.5t-22 -25.5t-28.5 -18t-33 -7t-30.5 7t-22.5 18t-13 26t-1 31l34 216 h-215q-17 0 -31 6t-23.5 17t-13.5 25t-1 32z" />
<glyph unicode="&#x2e;&#x2e;&#x2e;" horiz-adv-x="1038" d="M74 90q4 26 16.5 48t31 38t42.5 25.5t49 9.5q26 0 46.5 -9.5t34.5 -25.5t20 -38t2 -46q-4 -26 -17 -48t-32 -38t-43 -25t-49 -9q-26 0 -46.5 9t-33.5 25t-19 38t-2 46zM414 90q4 26 16.5 48t31 38t42.5 25.5t49 9.5q26 0 46.5 -9.5t34 -25.5t20 -38t2.5 -46 q-4 -26 -17 -48t-32 -38t-43 -25t-49 -9q-26 0 -46.5 9t-33.5 25t-19 38t-2 46zM754 90q4 26 16.5 48t31 38t42.5 25.5t49 9.5q26 0 46.5 -9.5t34 -25.5t20 -38t2.5 -46q-4 -26 -17 -48t-32 -38t-43 -25t-49 -9q-26 0 -46.5 9t-33.5 25t-19 38t-2 46z" />
<glyph unicode="&#x3c;&#x3d;" horiz-adv-x="819" d="M104 346l32 201l664 -393q14 -8 22.5 -21t11 -28t-0.5 -31t-13 -31q-11 -16 -25.5 -26.5t-30 -15.5t-31.5 -4t-30 9zM149 633l23 143l703 326q16 8 32.5 9t31 -4t26 -16t17.5 -26q5 -16 3.5 -32t-9.5 -31.5t-20 -27.5q-14 -14 -30 -22l-526 -248l446 -264q14 -8 22 -21 t11 -28t-0.5 -31t-13.5 -30q-11 -15 -25 -25.5t-30 -15.5t-32 -4t-30 8z" />
<glyph unicode="&#x3e;&#x3d;" horiz-adv-x="819" d="M10 73.5q2 16.5 9.5 31.5t20.5 27q12 14 29 22l789 393l-32 -201l-706 -340q-16 -8 -33 -9t-31 4t-25 16t-17 26q-6 14 -4 30.5zM56 360q2 16 9 31t20 28t29 21l530 264l-448 248q-14 8 -23 21t-11.5 28.5t1 32t13.5 31.5q11 16 25.5 26.5t30.5 15.5t32 4q18 -1 32 -9 l598 -326l-22 -143l-707 -340q-16 -8 -32.5 -8.5t-30.5 4.5t-25 15t-17 26q-6 14 -4 30z" />
<glyph unicode="&#xe4f;&#x22;" horiz-adv-x="1151" d="M147.5 354q-8.5 64 2.5 132t39.5 131t69.5 119t94.5 102t114 78.5t127.5 50.5t135 18t128.5 -18t111 -50.5t88.5 -78.5t62 -102t32.5 -119t-2.5 -131t-39.5 -132t-69.5 -119.5t-94.5 -101t-114 -78.5t-127 -51t-134.5 -18t-128.5 18t-111 51t-89 78.5t-62.5 101 t-32.5 119.5zM288 391q6 -46 23 -86.5t45 -73.5t64 -56.5t80 -36.5t93 -13t97 13t92 36.5t82 56t68 72t50 83.5t28 91q8 50 2 97t-23 88t-45 74.5t-64 58t-80 38t-93 13.5t-97 -13t-92 -37t-82 -57t-68 -73t-50 -86t-28 -94q-8 -49 -2 -95zM398 486q8 52 35 98t67 80t89 54 t101 20t95 -20t71.5 -54t41 -80t4.5 -98t-35 -98t-67 -80.5t-89 -54t-101 -19.5t-95 19.5t-72 54t-41 80.5t-4 98zM533 486q-4 -24 2 -45.5t19.5 -37.5t33.5 -25.5t44 -9.5t46 9.5t41 25.5t31 37.5t16 45.5t-2 45t-19 37t-33 25t-44 9t-46.5 -9t-41 -25t-31.5 -37t-16 -45z M584 1090l22 206q2 14 10 27t19 23t25 16t28 6t25.5 -6t20 -17t11.5 -24t1 -27l-49 -204q-6 -24 -22.5 -41t-44.5 -17q-25 0 -36 16q-12 18 -10 42zM789 1090l22 206q2 14 9.5 27t19 23t25 16t27.5 6t26 -6t20 -17t12 -24t0 -27l-48 -204q-6 -24 -23 -41t-45 -17 q-24 0 -36 16q-12 18 -9 42z" />
<glyph unicode="&#xe0e;&#xe3a;" horiz-adv-x="1009" d="M6 -295q0 17 7 33t19 30.5t29 24.5q43 26 85 45.5t84 32.5t86 20t90 7q64 0 122 -13t111 -39l80 66l97 614q8 49 -3.5 90.5t-40 70.5t-73.5 46t-103 17q-26 0 -52 -6t-52 -16t-50 -24t-45 -32l41 -52l-82 -521q-3 -20 -14 -38.5t-26.5 -31.5t-34.5 -21t-40 -8h-118 q-20 0 -35.5 7t-26 20t-15 29.5t-1.5 35.5q3 20 13 37t24.5 30t32.5 20q17 7 37 7h19l60 380l-43 55q-12 15 -12.5 32t4 32.5t12.5 28.5t16 21q40 44 88 80.5t101 62.5t110 41t116 15q100 0 179 -30t131 -84t75 -128q22 -76 8 -164l-109 -684l-279 -225q-38 30 -70.5 50 t-62 32.5t-58.5 17.5t-59 5t-59 -5t-59 -15t-61 -24t-65 -34q-17 -10 -34.5 -13t-34.5 0t-30 13t-21 26t-8 33zM634 -518q4 24 17 46t31.5 38t41 25t46.5 9t44.5 -9t34 -25t19.5 -37t2 -45t-16.5 -46t-31 -38t-41.5 -25.5t-47 -9.5t-44 9.5t-34 25.5t-20 37t-2 45z" />
<glyph unicode="&#xe0f;&#xe3a;" horiz-adv-x="1009" d="M45 92q3 20 13 37t24.5 30t32.5 20q17 7 37 7h19l60 380l-43 55q-12 15 -12.5 32t4 32.5t12.5 28.5t16 21q40 44 88 80.5t101 62.5t110 41t116 15q100 0 179 -30t131 -84t75 -128q22 -76 8 -164l-108 -680l-304 -235l-137 143l-183 -143l-196 205q-11 12 -15.5 27 t-3.5 31t8.5 32t20.5 28q14 13 30.5 20.5t33 9t32.5 -3t27 -15.5l106 -107l175 138l132 -138l86 64l98 622q8 49 -4 90t-41 70.5t-74 45.5t-104 16q-26 0 -51.5 -5.5t-51.5 -15t-50 -23.5t-45 -32l41 -52l-82 -521q-3 -20 -14 -38.5t-26.5 -31.5t-34.5 -21t-40 -8h-118 q-20 0 -35.5 7t-26 20t-15 29.5t-1.5 35.5zM634 -518q4 24 17 46t31.5 38t41 25t46.5 9t44.5 -9t34 -25t19.5 -37t2 -45t-16.5 -46t-31 -38t-41.5 -25.5t-47 -9.5t-44 9.5t-34 25.5t-20 37t-2 45z" />
<glyph unicode="&#xe0e;&#xe38;" horiz-adv-x="1009" d="M6 -295q0 17 7 33t19 30.5t29 24.5q43 26 85 45.5t84 32.5t86 20t90 7q64 0 122 -13t111 -39l80 66l97 614q8 49 -3.5 90.5t-40 70.5t-73.5 46t-103 17q-26 0 -52 -6t-52 -16t-50 -24t-45 -32l41 -52l-82 -521q-3 -20 -14 -38.5t-26.5 -31.5t-34.5 -21t-40 -8h-118 q-20 0 -35.5 7t-26 20t-15 29.5t-1.5 35.5q3 20 13 37t24.5 30t32.5 20q17 7 37 7h19l60 380l-43 55q-12 15 -12.5 32t4 32.5t12.5 28.5t16 21q40 44 88 80.5t101 62.5t110 41t116 15q100 0 179 -30t131 -84t75 -128q22 -76 8 -164l-109 -684l-279 -225q-38 30 -70.5 50 t-62 32.5t-58.5 17.5t-59 5t-59 -5t-59 -15t-61 -24t-65 -34q-17 -10 -34.5 -13t-34.5 0t-30 13t-21 26t-8 33zM528 -504q3 20 13.5 37t25.5 30t33 20t38 7h134q20 0 36 -7t27 -19.5t15.5 -29t1.5 -36.5l-32 -206q-3 -20 -13.5 -37t-24.5 -30t-32 -20.5t-38 -7.5 q-19 0 -35 7.5t-26.5 20.5t-15.5 30t-2 37l17 110h-42q-19 0 -35.5 7.5t-27 20t-15 30t-2.5 36.5z" />
<glyph unicode="&#xe0f;&#xe38;" horiz-adv-x="1009" d="M45 92q3 20 13 37t24.5 30t32.5 20q17 7 37 7h19l60 380l-43 55q-12 15 -12.5 32t4 32.5t12.5 28.5t16 21q40 44 88 80.5t101 62.5t110 41t116 15q100 0 179 -30t131 -84t75 -128q22 -76 8 -164l-108 -680l-304 -235l-137 143l-183 -143l-196 205q-11 12 -15.5 27 t-3.5 31t8.5 32t20.5 28q14 13 30.5 20.5t33 9t32.5 -3t27 -15.5l106 -107l175 138l132 -138l86 64l98 622q8 49 -4 90t-41 70.5t-74 45.5t-104 16q-26 0 -51.5 -5.5t-51.5 -15t-50 -23.5t-45 -32l41 -52l-82 -521q-3 -20 -14 -38.5t-26.5 -31.5t-34.5 -21t-40 -8h-118 q-20 0 -35.5 7t-26 20t-15 29.5t-1.5 35.5zM528 -504q3 20 13.5 37t25.5 30t33 20t38 7h134q20 0 36 -7t27 -19.5t15.5 -29t1.5 -36.5l-32 -206q-3 -20 -13.5 -37t-24.5 -30t-32 -20.5t-38 -7.5q-19 0 -35 7.5t-26.5 20.5t-15.5 30t-2 37l17 110h-42q-19 0 -35.5 7.5t-27 20 t-15 30t-2.5 36.5z" />
<glyph unicode="&#xe0e;&#xe39;" horiz-adv-x="1009" d="M6 -295q0 17 7 33t19 30.5t29 24.5q43 26 85 45.5t84 32.5t86 20t90 7q64 0 122 -13t111 -39l80 66l97 614q8 49 -3.5 90.5t-40 70.5t-73.5 46t-103 17q-26 0 -52 -6t-52 -16t-50 -24t-45 -32l41 -52l-82 -521q-3 -20 -14 -38.5t-26.5 -31.5t-34.5 -21t-40 -8h-118 q-20 0 -35.5 7t-26 20t-15 29.5t-1.5 35.5q3 20 13 37t24.5 30t32.5 20q17 7 37 7h19l60 380l-43 55q-12 15 -12.5 32t4 32.5t12.5 28.5t16 21q40 44 88 80.5t101 62.5t110 41t116 15q100 0 179 -30t131 -84t75 -128q22 -76 8 -164l-109 -684l-279 -225q-38 30 -70.5 50 t-62 32.5t-58.5 17.5t-59 5t-59 -5t-59 -15t-61 -24t-65 -34q-17 -10 -34.5 -13t-34.5 0t-30 13t-21 26t-8 33zM266 -502q3 20 13.5 36.5t25.5 29t33 19.5t38 7h124q20 0 36 -7t26.5 -19.5t15 -29t2.5 -36.5l-20 -122q-3 -18 8.5 -29t28.5 -11t32 10q15 12 17 30l22 132 q3 19 12.5 36t24 29.5t32.5 19.5t37 7q20 0 35.5 -7t26 -19.5t15 -29t1.5 -36.5l-20 -128q-8 -46 -32 -84.5t-60 -66t-80 -42.5t-90 -15q-45 0 -83.5 12t-66.5 34.5t-41 54t-7 69.5l10 62h-36q-20 0 -36 7.5t-26.5 20t-15.5 30t-2 36.5z" />
<glyph unicode="&#xe0f;&#xe39;" horiz-adv-x="1009" d="M45 92q3 20 13 37t24.5 30t32.5 20q17 7 37 7h19l60 380l-43 55q-12 15 -12.5 32t4 32.5t12.5 28.5t16 21q40 44 88 80.5t101 62.5t110 41t116 15q100 0 179 -30t131 -84t75 -128q22 -76 8 -164l-108 -680l-304 -235l-137 143l-183 -143l-196 205q-11 12 -15.5 27 t-3.5 31t8.5 32t20.5 28q14 13 30.5 20.5t33 9t32.5 -3t27 -15.5l106 -107l175 138l132 -138l86 64l98 622q8 49 -4 90t-41 70.5t-74 45.5t-104 16q-26 0 -51.5 -5.5t-51.5 -15t-50 -23.5t-45 -32l41 -52l-82 -521q-3 -20 -14 -38.5t-26.5 -31.5t-34.5 -21t-40 -8h-118 q-20 0 -35.5 7t-26 20t-15 29.5t-1.5 35.5zM266 -502q3 20 13.5 36.5t25.5 29t33 19.5t38 7h124q20 0 36 -7t26.5 -19.5t15 -29t2.5 -36.5l-20 -122q-3 -18 8.5 -29t28.5 -11t32 10q15 12 17 30l22 132q3 19 12.5 36t24 29.5t32.5 19.5t37 7q20 0 35.5 -7t26 -19.5t15 -29 t1.5 -36.5l-20 -128q-8 -46 -32.5 -84.5t-60.5 -66t-80 -42.5t-90 -15q-45 0 -84 12t-66 34.5t-40 54t-7 69.5l10 62h-36q-20 0 -36 7.5t-26.5 20t-15.5 30t-2 36.5z" />
<glyph unicode="&#xd;" horiz-adv-x="579" />
<glyph unicode=" "  horiz-adv-x="512" />
<glyph unicode="&#x09;" horiz-adv-x="512" />
<glyph unicode="&#xa0;" horiz-adv-x="512" />
<glyph unicode="!" horiz-adv-x="440" d="M106 102q4 27 18 50t34 39.5t45 26.5t52 10t49 -10t37 -26.5t21 -39.5t2 -50t-18 -49.5t-34 -38.5t-45 -25t-51 -9q-27 0 -49.5 9t-37.5 25t-21 39t-2 49zM188 352l25 283l55 348q4 22 15 42t28 34.5t37 23.5q22 9 44 9t40 -9t31 -23.5t18 -34t2 -42.5l-55 -348l-66 -283 q-4 -18 -13 -34t-22 -27.5t-30 -18t-36 -6.5q-18 0 -32.5 6.5t-23.5 18t-13 27.5q-6 16 -4 34z" />
<glyph unicode="&#x22;" horiz-adv-x="493" d="M181 756l31 272q2 16 11 31t22 26t29 18t32 7t30 -7t24 -18t14 -26q6 -15 2 -31l-58 -272q-3 -14 -10.5 -26t-18.5 -21t-24 -14t-29 -5q-14 0 -25 5t-18 14t-10 21t-2 26zM414 756l31 272q2 16 11 31t22.5 26t29.5 18t32 7t30 -7t24 -18t14 -26t1 -31l-57 -272 q-3 -14 -10.5 -26t-18.5 -21t-25 -14q-12 -5 -28 -5q-14 0 -25 5t-18 14t-11 21t-2 26z" />
<glyph unicode="#" horiz-adv-x="919" d="M105 379q2 18 11.5 33.5t22.5 26.5t29 17.5t34 6.5h102l40 133h-82q-18 0 -32 6.5t-23.5 18t-14 26.5t-0.5 33q3 18 11.5 33t21.5 26.5t30 18t34 6.5h105l63 211q6 18 17.5 32.5t26 24.5t32 14t35.5 2q17 -3 29.5 -11.5t20.5 -22t10 -30t-2 -34.5l-60 -186h114l64 211 q6 18 17 32.5t25.5 24.5t31 14t34.5 2q17 -3 30.5 -11.5t21 -21.5t10 -29t-3.5 -34l-58 -188h62q18 0 32 -6.5t23 -18t13.5 -26.5t1.5 -33t-12 -33t-22 -26.5t-29.5 -18t-34.5 -6.5h-88l-41 -133h74q18 0 32 -6.5t23.5 -17.5t13.5 -27t2 -33q-3 -18 -12 -33.5t-22.5 -26.5 t-29.5 -17.5t-34 -6.5h-100l-76 -235q-6 -17 -17 -31t-24.5 -23.5t-29.5 -13.5q-17 -4 -33 -2q-16 3 -28.5 11.5t-20 20.5t-9.5 27.5t3 32.5l67 213h-112l-70 -231q-6 -18 -17 -33t-25 -25t-31 -14t-33 -2q-17 3 -30.5 12t-21.5 21.5t-10 28.5t3 32l65 211h-78 q-18 0 -32 6.5t-24 17.5t-14 27t-1 33zM473 463h112l41 133h-112z" />
<glyph unicode="$" horiz-adv-x="876" d="M81 249q1 20 10 38.5t24 34.5t37 26q20 10 40 12t37 -4t30.5 -18t20.5 -31q22 -56 55 -93.5t81 -49.5l54 336q-45 20 -87 40t-79 50q-22 18 -40 38t-29 45t-15 54t2 65q10 59 39 110.5t73.5 91.5t103 66t126.5 36l14 86q2 16 10 29t20 23t26 16t30 6t28 -6t20 -16t12 -24 q4 -12 2 -28l-15 -90q38 -8 70 -23.5t58.5 -35.5t49 -44t40.5 -51q10 -14 12.5 -33t-1.5 -38t-15 -37t-29 -32q-18 -13 -37 -18.5t-38 -4.5t-36 9.5t-27 22.5q-19 26 -37.5 48.5t-40.5 39.5l-41 -258l141 -67q36 -22 62.5 -47t42.5 -55.5t21.5 -66t-1.5 -77.5 q-10 -60 -43 -114t-82.5 -97t-111.5 -74t-130 -45l-17 -102q-2 -16 -10 -29.5t-19.5 -23.5t-25.5 -15.5t-30 -5.5t-28 5.5t-21 15.5t-13 23q-2 14 0 30l14 92q-105 8 -179.5 64t-120.5 163q-8 18 -7 38zM431 796q-3 -18 3 -31t17 -24t25 -19q12 -8 26 -16l33 206 q-20 -6 -37 -16t-30.5 -24t-23.5 -33t-13 -43zM566 178q50 20 85 56t43 90q3 20 -5 35.5t-21.5 29t-30.5 24.5t-31 19z" />
<glyph unicode="%" horiz-adv-x="1161" d="M162 842q8 52 34.5 96.5t66 77t88 51.5t101.5 19q52 0 95 -19t71.5 -51.5t41 -77t4.5 -96.5t-35 -96t-65.5 -76t-87 -50t-100.5 -18t-95 18t-72.5 50t-42 76t-4.5 96zM206 16.5q-2 16.5 2 33.5q6 18 16 32l762 1028q12 16 28 26t33 15t34 3t32 -11q14 -10 22.5 -24 t10.5 -30.5t-3 -34.5t-17 -34l-766 -1024q-10 -14 -26 -24.5t-33 -15t-34 -2.5t-31 11q-13 8 -20.5 21.5t-9.5 30zM326 842q-3 -18 1.5 -33t14.5 -26t25 -17t33 -6t35 7t31 18t24 26t12 31q3 18 -2 33t-15.5 26t-25.5 18t-32 7q-18 0 -35.5 -7t-31 -18t-23 -26t-11.5 -33z M662 238q8 53 35 97.5t67 76.5t88 49.5t100 17.5t95 -17.5t72 -49.5t42 -76.5t5 -97.5q-8 -52 -35 -96t-66.5 -76t-88 -50t-100.5 -18q-50 0 -93 18t-73 50t-43 76t-5 96zM826 238q-3 -18 1.5 -33t14.5 -26t25 -17t34 -6q18 0 35.5 6t31.5 17t23.5 26t12.5 33t-1.5 33 t-15.5 27t-26 19t-33 7t-35.5 -7t-31 -19t-23.5 -28q-9 -14 -12 -32z" />
<glyph unicode="&#x26;" horiz-adv-x="1134" d="M135 262q3 44 17 84t36 75t50 67t60 60t66 54t66 50q-14 19 -26.5 40t-21 44.5t-12.5 49.5t-2 54q4 52 28 99t62 84t86 60t100 27q54 4 98 -12t75 -47t46.5 -73t11.5 -91q-3 -44 -19 -82.5t-40 -71.5t-54 -61t-62 -52l145 -194l92 86q16 16 34.5 24t36.5 9.5t34 -4.5 q18 -6 30 -19q13 -14 18.5 -31t4 -35t-10 -35t-23.5 -32l-107 -107l115 -163q10 -14 12.5 -31t-1.5 -34.5t-14 -33.5t-27 -28q-16 -12 -34 -18t-35.5 -4.5t-32.5 9t-23 21.5l-110 148q-41 -32 -85 -62t-89.5 -54t-93.5 -40t-98 -20q-68 -6 -126 14t-98.5 60t-61.5 96 t-17 120zM336 284q-2 -30 5.5 -55t23 -42t37.5 -25t48 -6q27 2 56 13t59.5 29t62.5 41.5t67 51.5l-159 215q-18 -12 -40 -27t-43.5 -32t-42 -36t-36.5 -39t-26.5 -42t-11.5 -46zM562 848q-1 -12 2.5 -23.5t9 -23t12 -21.5t12.5 -18q13 10 27.5 21.5t27 25t21 28.5t8.5 33 q0 30 -15 45t-39 13q-10 -1 -21 -7.5t-21 -17.5t-17 -25t-7 -30z" />
<glyph unicode="'" horiz-adv-x="329" d="M214 756l30 272q2 16 11 31t22.5 26t30 18t32.5 7t30 -7t23.5 -18t14 -26t0.5 -31l-57 -272q-3 -14 -10.5 -26t-18.5 -21t-24.5 -14t-29.5 -5q-14 0 -24.5 5t-17.5 14t-10.5 21t-1.5 26z" />
<glyph unicode="(" horiz-adv-x="485" d="M98 296q0 82 14 165q13 84 39.5 162.5t63 154.5t82 148t97.5 143q12 16 28 27.5t33 16.5t33.5 4t30.5 -9q16 -8 25 -22t11.5 -31t-1.5 -34.5t-15 -33.5q-38 -53 -74.5 -112t-67.5 -125t-55 -139t-36 -152q-7 -44 -10.5 -84t-3.5 -78t3 -75q3 -36 9 -74q6 -37 14.5 -71.5 t17 -65.5t17.5 -57t15 -48q5 -16 3.5 -33.5t-9.5 -34t-21 -29.5t-31 -22q-16 -8 -33 -9.5t-32 4.5t-27 17t-18 27q-32 73 -55 150.5t-35 157.5t-12 162z" />
<glyph unicode=")" horiz-adv-x="485" d="M79.5 -161.5q-2.5 16.5 1.5 33.5q5 18 15 34q14 22 30 48t35 57t38 65t37 72t33 74.5t27 74.5t21 78t15 84q12 80 12 152.5t-10 138.5t-28 125t-40 112q-6 16 -4 33.5t10 34.5t21 31t31 22q17 8 34.5 9t32.5 -4t27 -16.5t20 -27.5q30 -70 52 -142.5t35 -148.5t14 -155 t-11 -162q-14 -83 -40 -165t-63 -162t-84 -157.5t-103 -150.5q-12 -16 -27.5 -27t-32 -17t-32.5 -5t-30 10q-16 8 -25 21.5t-11.5 30z" />
<glyph unicode="*" horiz-adv-x="721" d="M194.5 883.5q1.5 16.5 9.5 32.5t21.5 28.5t29 20t31.5 9.5t32 -3l110 -41l14 118q2 17 12 32.5t23 27t29 18t34 6.5q17 0 30.5 -6.5t23.5 -18t14 -26.5t2 -33l-20 -118l124 41q17 5 33 3t28.5 -9.5t21.5 -20t13 -28.5q3 -16 -0.5 -32.5t-12.5 -31t-22 -25.5t-31 -16 l-130 -37l64 -112q8 -14 10 -31t-3 -33t-16 -30t-27 -26q-16 -10 -33 -14t-32 -2t-28 10.5t-22 22.5l-57 107l-97 -107q-13 -14 -29 -22.5t-32 -10.5t-32 2t-28 14q-12 11 -18 25.5t-6 30.5t6 32q7 18 20 32l100 112l-118 37q-15 6 -24.5 16.5t-14 25t-3 31z" />
<glyph unicode="+" horiz-adv-x="809" d="M89 398q3 17 12 31.5t22 25.5t28.5 17.5t32.5 6.5h215l34 215q3 17 11.5 32t21 26t28 17.5t32.5 6.5t31 -6.5t23.5 -17.5t13.5 -25.5t1 -32.5l-34 -215h215q17 0 31 -6.5t23.5 -17.5t13.5 -26t1 -31q-2 -17 -11 -31.5t-22 -25.5t-28.5 -17t-33.5 -6h-214l-34 -216 q-2 -17 -11.5 -31.5t-22 -25.5t-28.5 -18t-34 -7q-17 0 -30.5 7t-22.5 18t-13 26q-2 15 0 31l34 216h-216q-17 0 -30.5 6t-23 17t-14 25t-1.5 32z" />
<glyph unicode="," horiz-adv-x="348" d="M16 -147q0 11 4 21t12 19q6 9 16 15q12 8 24.5 16t24 17.5t23.5 20.5q12 12 24 26q-42 11 -62 38q-20 28 -14 66q4 22 15.5 43t29.5 37t41 26q22 9 48 9q33 0 55.5 -13.5t35 -33.5t16 -45t0.5 -49q-10 -60 -63.5 -124.5t-147.5 -121.5q-20 -12 -42 -9t-34 21q-6 10 -6 21 z" />
<glyph unicode="-" horiz-adv-x="588" d="M106 400q2 17 11 31.5t22 25.5t29 18t33 7h338q17 0 31 -7t23 -18t13 -26t2 -31q-2 -17 -11 -32t-22 -26.5t-29 -17.5t-33 -6h-338q-17 0 -31 6t-23 17.5t-13 26t-2 32.5z" />
<glyph unicode="." horiz-adv-x="348" d="M69 102q4 26 16.5 48t31.5 38t43 25.5t49 9.5q26 0 46.5 -9.5t34 -25.5t20 -38t2.5 -46q-4 -26 -17 -47.5t-32 -38t-43 -25.5t-49 -9q-26 0 -46.5 9t-34 25t-19.5 38t-2 46z" />
<glyph unicode="/" horiz-adv-x="971" d="M122 56.5q-2 16.5 2.5 34t15.5 32.5l744 1055q11 16 26.5 26t32.5 15.5t35 4.5q17 -2 31 -10t22.5 -22t11.5 -30t-1 -34q-4 -16 -14 -32l-746 -1059q-11 -16 -26.5 -26.5t-33 -15.5t-35 -3.5t-31.5 10.5q-16 9 -24 23.5t-10 31z" />
<glyph unicode="0" horiz-adv-x="880" d="M115 412q1 68 11 135t31.5 134t53 128t73.5 114t92 91.5t109.5 61t126.5 22.5t119 -22.5t90.5 -61t63 -91.5t37 -114t12.5 -128t-10 -134t-32 -135t-54 -130.5t-73 -117t-92 -94.5t-111 -63q-58 -23 -126 -23t-120 23t-90 63t-62.5 94.5t-36.5 117t-12 130.5zM320 392 q6 -69 26 -117.5t51 -74.5t69 -26t77 26t74 74.5t62 117.5t41 155q12 76 6 141.5t-26 113.5t-50 76q-30 27 -68 27q-25 0 -51.5 -12.5t-52 -35t-49 -55t-43.5 -72t-35 -86t-23 -97.5q-14 -86 -8 -155z" />
<glyph unicode="1" horiz-adv-x="880" d="M320 985q3 20 13.5 37.5t25.5 30.5t33.5 21t38.5 8h213q20 0 36.5 -8t27.5 -21t15.5 -30.5t2.5 -37.5l-142 -895q-4 -22 -15 -40t-27 -31.5t-36 -21t-41 -7.5q-22 0 -39 7.5t-28.5 21t-15.5 31.5q-6 18 -2 40l127 799h-107q-20 0 -36 7.5t-27 20.5t-15.5 30.5t-1.5 37.5z " />
<glyph unicode="2" horiz-adv-x="880" d="M92 96q3 20 13 37t25 31l396 338q36 30 69.5 63t61 66t45.5 64t23 59q5 33 -3 61t-26.5 48.5t-46 32.5t-61.5 12q-33 0 -61 -11t-50.5 -31t-38.5 -47.5t-27 -60.5q-6 -21 -19.5 -38.5t-30.5 -29.5t-37 -18q-20 -4 -40 -2q-20 3 -36 13t-26 25.5t-13 34.5t5 39 q8 22 19.5 49t28 55.5t39.5 56.5q23 29 51 53q29 26 61.5 44t66.5 30.5t69 19t69 6.5q50 0 95 -12t82 -34t65 -53.5t46 -70t24 -83.5t-2 -93q-6 -38 -21 -75t-36 -70t-47 -64t-53 -59t-55 -53t-52 -46l-227 -195h313q19 0 35.5 -7t27 -20t15 -30t2.5 -37q-3 -20 -13.5 -37 t-25.5 -30t-33 -20t-37 -7h-549q-20 0 -36 7.5t-27 21t-15.5 30.5t-1.5 37z" />
<glyph unicode="3" horiz-adv-x="880" d="M138 266q0 22 8 41t22 34t32.5 25t39.5 13q22 2 40 -3t31 -16.5t20 -27.5t9 -37q2 -26 8.5 -47.5t21 -38t36.5 -26t54 -9.5q33 0 62.5 11.5t52.5 32t39 48.5t21 62q4 27 2.5 52.5t-16 45.5t-45 34t-82.5 19q-18 2 -29 13.5t-14 28.5t0.5 36.5t12 37t22.5 29.5t33 15 q50 7 82 21.5t50.5 34t27.5 43.5q9 22 13 48q4 28 -1.5 50t-19.5 37t-35.5 23.5t-47.5 8.5q-24 0 -45.5 -7.5t-38.5 -21.5t-29.5 -34t-20.5 -44q-7 -22 -20.5 -38.5t-30.5 -28t-37 -16.5t-40 -3q-21 3 -37.5 13.5t-25.5 26t-11 35t6 41.5q18 56 50.5 105t78 85.5t103.5 58 t130 21.5q66 0 122 -23t94 -65t54.5 -99t5.5 -127q-10 -65 -42 -119.5t-87 -99.5q47 -48 66 -107.5t8 -125.5q-12 -72 -46 -135t-87.5 -110.5t-123.5 -75t-153 -27.5q-68 0 -126.5 23t-100.5 71q-20 24 -32 49t-19.5 50t-11 48t-3.5 41z" />
<glyph unicode="4" horiz-adv-x="880" d="M54 274q6 32 26 56l619 713q18 20 41.5 31.5t49.5 11.5q22 0 39 -8t29 -22t17 -33t1 -40l-96 -611h40q20 0 37 -7.5t28 -21t16 -31.5t2 -38t-13.5 -37t-26 -30.5t-34.5 -21t-39 -7.5h-41l-13 -86q-4 -22 -15 -40t-27 -32t-36 -22t-42 -8t-39 8t-28.5 22t-16.5 32 q-6 18 -2 40l14 86h-412q-20 0 -35 7.5t-26 21t-15 30.5t-2 37zM352 372h222l50 312z" />
<glyph unicode="5" horiz-adv-x="880" d="M87 203q-1 19 4.5 37t18 35t30.5 28q19 12 38.5 17t38.5 2.5t34 -12.5t25 -26q34 -57 77 -83.5t90 -26.5q46 0 88.5 15.5t76 44t56.5 67.5q22 39 30 88q6 42 -5 78t-36 63t-61 42.5t-79 15.5q-24 0 -53.5 -3t-65.5 -11.5t-80 -25t-97 -42.5l76 479q3 20 13 37.5t25 30.5 t34 21t39 8h424q20 0 36.5 -8t27.5 -21t15.5 -30.5t2.5 -37.5q-3 -20 -13.5 -37t-25.5 -29.5t-34 -20t-39 -7.5h-315l-19 -123q24 4 47 7t44 3q86 0 155 -31t114.5 -84t65.5 -124q18 -71 6 -152q-10 -59 -33 -112t-58 -97.5t-79.5 -80.5t-95 -61.5t-106.5 -38.5t-114 -13 q-53 0 -98.5 13t-85 37t-72 58t-56.5 76q-10 16 -11 35z" />
<glyph unicode="6" horiz-adv-x="880" d="M106 279q-4 51 4 106q6 36 16 68.5t25 62.5t34 58.5t41 56.5l380 453q15 18 33.5 29t37.5 15t38 0t35 -16t24 -29t9 -35t-6 -38t-21 -37l-158 -187q51 -4 95 -21t80 -44t62.5 -64t43 -80t21 -92t-3.5 -100q-8 -54 -30 -104t-54.5 -94.5t-74 -82t-89.5 -64t-101 -41.5 t-107 -15q-55 0 -103.5 14t-88 40t-69.5 63t-48.5 82t-24.5 96zM314 385q-8 -46 2 -84.5t32 -66.5t53.5 -43t68.5 -15q36 0 73 16t68 44t53.5 66.5t29.5 82.5t-3 82.5t-32 66.5t-54 44q-33 16 -69 16q-37 0 -73.5 -15t-66.5 -43t-52 -66.5t-30 -84.5z" />
<glyph unicode="7" horiz-adv-x="880" d="M148 63.5q-2 18.5 3 38.5t19 38l550 749h-428q-20 0 -36 7.5t-27 20.5t-16 30.5t-1 37.5q3 20 13 37.5t25 30.5t33.5 21t38.5 8h554q26 0 47 -10t35 -27t20 -39t2 -48q-6 -34 -26 -60l-624 -857q-14 -18 -32 -30.5t-37 -17.5t-39 -3t-36 12q-17 10 -26.5 26.5t-11.5 35z " />
<glyph unicode="8" horiz-adv-x="880" d="M136 314q24 156 150 251q-38 46 -51 98.5t-4 112.5q7 46 25 87t45 77t61.5 65t75 49.5t85 32t91.5 11.5q70 0 127 -25t95 -68t54 -102t4 -127q-10 -60 -39 -112t-82 -99q96 -93 71 -251q-8 -48 -28 -91t-49 -80t-67 -66t-80.5 -50t-89 -32t-92.5 -11q-70 0 -131 24.5 t-103 68.5t-61 104.5t-7 132.5zM340 320q-5 -30 2.5 -57t25.5 -46.5t43.5 -31t56.5 -11.5q30 0 59 12t53 32t41 46t21 56t-3.5 55.5t-25 45t-43.5 30t-56 10.5q-31 0 -60.5 -10.5t-53.5 -30t-40 -45t-20 -55.5zM433 778q-4 -27 2.5 -49.5t21.5 -39.5t37 -26t50 -9 q27 0 52.5 10t45.5 26.5t34 39t18 48.5q4 28 -3 51t-22 40.5t-37 27t-48 9.5q-28 0 -53 -9.5t-45.5 -27t-34 -40.5t-18.5 -51z" />
<glyph unicode="9" horiz-adv-x="880" d="M149 594q-5 48 3 100q8 53 30.5 103.5t55 95.5t74.5 82t89.5 64t100 42t108.5 15q55 0 103 -14.5t87.5 -41t69.5 -63t48 -81t24 -95.5t-3 -107q-12 -72 -41.5 -131t-75.5 -115l-378 -452q-15 -18 -33.5 -29t-38 -15t-38 0t-34.5 15q-16 12 -25 29t-9.5 35.5t6.5 38.5 q6 18 21 36l159 187q-51 4 -95.5 21t-80.5 44.5t-63 63.5t-43 79.5t-21 92.5zM356 694q-7 -44 2.5 -82t31.5 -66t54 -44t68 -16q37 0 73.5 15t67.5 43t52.5 66t28.5 84q8 46 -2 84.5t-31.5 66t-53 43t-68.5 15.5t-74 -16t-68 -44t-52.5 -66.5t-28.5 -82.5z" />
<glyph unicode=":" horiz-adv-x="348" d="M72 104q4 26 17 48t31.5 38t41.5 26q24 10 48 10q26 0 46 -10t34 -26t20 -38t2 -48v2q-4 -26 -17 -47.5t-32 -38t-42 -25.5t-47 -9q-26 0 -46.5 9t-34 25t-19.5 38t-2 46zM154 620q4 26 16.5 48t31 38t41.5 26t48 10q26 0 46.5 -10t34 -26t20 -38t2.5 -46 q-4 -26 -17 -47.5t-32 -38t-42 -25.5t-47 -9q-26 0 -46.5 9t-34 25.5t-19.5 38t-2 45.5z" />
<glyph unicode=";" horiz-adv-x="348" d="M16 -147q0 11 4 21t12 19q6 9 16 15q12 8 24.5 16t24 17.5t23.5 20.5q12 12 24 26q-42 11 -62 38q-20 28 -14 66q4 22 15.5 43t29.5 37t41 26q22 9 48 9q33 0 55.5 -13.5t35 -33.5t16 -45t0.5 -49q-10 -60 -63.5 -124.5t-147.5 -121.5q-20 -12 -42 -9t-34 21q-6 10 -6 21 zM151 620q4 26 16.5 48t31.5 38t42 26t48 10q26 0 46.5 -10t34 -26t19.5 -38t2 -48t-16.5 -47.5t-31.5 -38t-43 -25.5t-49 -9q-24 0 -44.5 9t-34 25.5t-19.5 38.5q-6 21 -2 47z" />
<glyph unicode="&#x3c;" horiz-adv-x="870" d="M110 417q6 33 27 60t51 41l642 297q16 8 32.5 8.5t31 -4.5t25.5 -15t17 -26q5 -15 3.5 -31.5t-9 -31.5t-20 -28t-29.5 -21l-526 -248l445 -264q14 -8 22.5 -21t11 -28t-0.5 -31t-13 -31q-11 -16 -25.5 -26.5t-30 -15.5t-31.5 -4t-30 9l-549 311q-24 14 -37 40.5t-7 59.5z " />
<glyph unicode="=" horiz-adv-x="815" d="M80 272q2 17 11 32t22 26.5t29 17.5t33 6h579q17 0 31 -6t23.5 -17.5t13.5 -26t2 -32.5q-2 -17 -11.5 -31.5t-22 -25.5t-28.5 -18t-34 -7h-579q-17 0 -31 7t-23 18t-13 26t-2 31zM120 522q2 17 11 32t22 26t29 17.5t32 6.5h580q17 0 30.5 -6.5t23.5 -17.5t14 -26t1 -32 q-2 -17 -11.5 -31.5t-22 -25.5t-28.5 -18t-33 -7h-580q-17 0 -30.5 7t-23 18t-13.5 25q-3 15 -1 32z" />
<glyph unicode="&#x3e;" horiz-adv-x="870" d="M62 73.5q2 16.5 9 31.5t20 27q13 14 29 22l530 264l-448 248q-14 8 -23 21t-11.5 28t1 31.5t13.5 31.5q11 16 25.5 26t30.5 15t32 4t31 -8l547 -297q26 -14 39 -41t7 -60t-26 -59.5t-49 -40.5l-649 -311q-16 -8 -32 -9t-30 4t-25 16t-17 26q-6 14 -4 30.5z" />
<glyph unicode="?" horiz-adv-x="737" d="M160 780q1 32 15 69t38.5 75t58.5 72t76 60t90 40t102 10q74 0 131 -24t93.5 -66t51 -98t4.5 -120q-7 -43 -23 -77.5t-37.5 -63.5t-47.5 -53t-50 -45q-17 -14 -37.5 -30.5t-39.5 -35t-33 -38.5q-14 -19 -18 -41l-9 -58q-3 -20 -13 -36.5t-25 -29.5t-33.5 -20.5 t-37.5 -7.5q-20 0 -35.5 7.5t-26.5 20.5t-16 30q-4 16 -2 36l10 62q6 38 20.5 69t34 57t43.5 48.5t48 43t47 39.5t41.5 39t31 41t16.5 46q4 20 0 41.5t-18 38.5t-38.5 28t-61.5 11t-64.5 -12t-46.5 -31t-31 -44t-17 -53q-4 -20 -14.5 -37t-25.5 -30t-33 -20t-38 -7t-35 7 t-25 20t-15.5 30t-4.5 37zM264 92q4 27 17 50t32.5 39.5t44 26t51.5 9.5q26 0 46.5 -9.5t35.5 -26t21 -39.5t2 -50t-17 -49.5t-32.5 -39.5t-44 -26.5t-50.5 -9.5q-27 0 -48.5 9.5t-35.5 26.5t-20 39.5t-2 49.5z" />
<glyph unicode="@" horiz-adv-x="1179" d="M108 376q-10 79 4 169q12 79 45 152t81 136t109 114.5t131.5 88t147 56.5t156.5 20q74 0 140 -16t121.5 -46t98 -73t69 -97t35.5 -118q10 -64 -2 -134q-10 -60 -33.5 -115t-58 -104t-77 -89t-88.5 -69t-94 -45t-93 -16q-30 0 -50 7t-33 17t-20 23t-11 25q-46 -23 -88 -33 t-80 -10q-56 0 -95 18.5t-62 50.5t-31 75t0 91q8 46 26 96t46.5 97t66 88.5t83.5 73t99.5 49.5t113.5 18q75 0 137 -50l6 10q6 12 16.5 22t23 16t25.5 7t24 -3q12 -4 21 -12.5t13 -20t3 -25.5q-2 -14 -8 -26l-2 -6q-13 -24 -31 -57.5t-41.5 -82t-52.5 -114.5t-65 -155 q-4 -7 -7 -16t-4 -17.5t3 -14t16 -5.5q22 0 48 13t53.5 35t54 52t48.5 64t38 71t22 72q8 52 -0.5 97.5t-30 83.5t-54.5 68t-73 51t-87 32.5t-96 11.5q-62 0 -121.5 -16.5t-113.5 -46t-101 -70.5t-83.5 -90.5t-61 -104.5t-34.5 -115q-10 -67 -2 -126.5t31.5 -109.5 t61.5 -89.5t87.5 -67t109.5 -42.5t128 -15q49 0 101 8t102.5 26t96.5 46t86 68q11 12 24.5 16t27.5 3.5t26 -6t20 -15.5t11 -23t0 -27t-11 -26.5t-20 -22.5q-7 -6 -20.5 -17.5t-35 -27t-51 -33t-68.5 -35.5q-37 -16 -76 -28t-79 -20t-79 -12.5t-77 -4.5q-86 0 -163 18.5 t-141 54.5t-113 88t-79 117.5t-40 144.5zM472 419.5q2 -19.5 12 -33.5t28.5 -22t49.5 -8q24 0 50 12t50 30t44 40q20 24 32 46l80 165q4 7 1 22t-12.5 29.5t-28 26t-47.5 11.5q-26 0 -54.5 -12t-55.5 -32t-51 -47.5t-44 -58t-33 -62.5t-19 -63q-4 -24 -2 -43.5z" />
<glyph unicode="A" horiz-adv-x="1030" d="M61 89.5q3 19.5 15 39.5l526 912q13 23 37 37q23 14 51 14t48 -14t25 -37l232 -912q5 -20 2 -39.5t-12.5 -37.5t-26 -32t-37.5 -22q-20 -8 -39.5 -8.5t-35.5 7t-28 21t-18 33.5l-62 242h-352l-138 -242q-12 -20 -29 -33.5t-35.5 -21t-38 -7t-37.5 8.5t-30 22t-16 32 t-1 37.5zM494 477h196l-62 235z" />
<glyph unicode="B" horiz-adv-x="827" d="M94 102l139 877q4 22 14.5 40.5t25.5 32.5t35 22t41 8h177q76 0 138.5 -18.5t104 -57t58.5 -98.5q10 -35 10 -79q0 -31 -5 -65q-18 -104 -84 -174q60 -44 88 -111q18 -44 19 -95q0 -26 -5 -54q-9 -58 -31.5 -104.5t-55 -83t-73.5 -63.5t-87 -44.5t-95.5 -26t-97.5 -8.5 h-232q-22 0 -39 8t-28 22t-16 32t-1 40zM310 188h90q56 0 98.5 7t73 23.5t49.5 43.5t25 66q2 13 2 25q0 24 -8 43q-10 28 -38 40q-14 8 -33 13t-41 8t-47 3.5t-51 0.5h-76zM384 652h48q43 0 77 4t58.5 17t39.5 36.5t21 62.5q6 34 -1 57t-26 36.5t-51 19.5t-80 6h-48z" />
<glyph unicode="C" horiz-adv-x="989" d="M102 391q-4 31 -5 64q0 41 7 83q12 78 44 149.5t79 133.5t108 113t130 87.5t145 56.5t154 20q86 0 163 -26t149 -83q14 -12 22 -27.5t9 -33.5t-5 -36.5t-20 -35.5t-31.5 -27.5t-36 -14.5t-36.5 0q-19 4 -34 16q-20 18 -47 32.5t-56 25t-59 15.5t-54 2q-49 0 -97.5 -13.5 t-92.5 -38t-83.5 -59t-70.5 -75.5t-52 -89t-29 -98q-4 -25 -5 -49q0 -21 4 -42q7 -45 25.5 -84.5t46.5 -73t65 -58t81 -38t93 -13.5q27 0 54 4t56 13t61 23t68 36q20 12 39.5 15t37 0t31 -14t21.5 -28q9 -17 9.5 -35.5t-6 -36t-19.5 -33.5t-31 -28q-45 -28 -87.5 -48 t-85.5 -33t-86 -19t-90 -6q-76 0 -145 20t-126.5 56t-102 87t-72 112t-37.5 132z" />
<glyph unicode="D" horiz-adv-x="932" d="M94 102l139 877q4 22 14.5 40.5t25.5 32.5t35 22t41 8h145q85 0 159.5 -17t134.5 -49t106 -79t73.5 -107.5t36.5 -133.5q3 -27 3 -55q0 -49 -9 -103q-13 -83 -44.5 -154.5t-79 -131.5t-108 -107t-131.5 -79t-149 -49t-162 -17h-146q-22 0 -39 8t-28 22t-16 32t-1 40z M310 190h42q86 0 161 25t133 70t97 109t51 144q5 33 5 63q-1 45 -11 83q-18 66 -61 111t-110.5 69.5t-154.5 24.5h-41z" />
<glyph unicode="E" horiz-adv-x="735" d="M94 102l139 877q4 22 14.5 40.5t25.5 32.5t35 22t41 8h424q20 0 36.5 -8t27.5 -21t16 -30.5t1 -37.5q-3 -20 -13.5 -37.5t-25.5 -30.5t-34 -20.5t-39 -7.5h-321l-33 -209h310q20 0 36 -7.5t27 -21t15.5 -30.5t1.5 -37q-3 -19 -13.5 -36.5t-25.5 -30.5t-33 -20t-38 -7 h-310l-48 -300h324q20 0 35.5 -7t26.5 -20.5t15.5 -31t1.5 -37.5q-3 -19 -13 -36.5t-25 -30t-33 -20t-38 -7.5h-426q-22 0 -39 8t-28 22t-16 32t-1 40z" />
<glyph unicode="F" horiz-adv-x="645" d="M92 92l141 887q4 22 14.5 40.5t25.5 32.5t35 22t41 8h359q20 0 36 -8t27 -21t16 -30.5t2 -37.5q-3 -19 -13.5 -36t-25.5 -30t-33.5 -20.5t-38.5 -7.5h-256l-34 -211h248q20 0 36 -7.5t27 -21t16 -30.5t1 -37q-3 -19 -13 -36.5t-25 -30.5t-33.5 -20t-38.5 -7h-248 l-63 -398q-4 -22 -14.5 -40t-26.5 -32t-36 -22t-42 -8t-39 8t-28 22t-15 32q-6 18 -2 40z" />
<glyph unicode="G" horiz-adv-x="1181" d="M109 393q-4 30 -4 62q0 42 7 85q12 76 44 147.5t79 133t108 112.5t130.5 88t146 57t156.5 20q74 0 138 -17t119 -48.5t100 -76.5t81 -101q10 -17 12 -36.5t-4 -39t-18 -36.5t-30 -29q-19 -12 -39 -17t-38.5 -2t-34.5 13t-26 26q-26 40 -57 71.5t-66.5 53t-77 32 t-91.5 10.5q-52 0 -101.5 -13t-95 -36.5t-84.5 -56.5t-70 -73t-52 -86t-28 -96q-4 -27 -4 -53q0 -21 3 -41q6 -46 24 -86t47 -73t67 -57t84 -37q44 -13 96 -13q62 0 121 19.5t109 54t90 82.5t66 106h-328q-20 0 -36.5 8t-28 21.5t-16.5 31t-1 37.5q3 20 13.5 38t26 32 t35 21.5t39.5 7.5h442q20 0 36.5 -7.5t28 -21.5t16 -32t1.5 -38q-12 -76 -42 -147t-75 -133t-103 -113t-125.5 -87t-143 -56t-156.5 -20q-80 0 -150 20t-128.5 56t-102.5 87t-72 113t-37 133z" />
<glyph unicode="H" horiz-adv-x="1016" d="M94 92l142 897q4 22 14.5 40.5t26 32.5t35.5 22q18 8 40 8t39.5 -8t29 -22t16.5 -33t2 -40l-49 -309h452l50 309q4 22 14 40.5t26 32.5t36 22t42 8t39 -8t29 -22t17 -33t1 -40l-144 -907q-4 -22 -14 -39t-26 -29t-36 -18q-18 -6 -40 -6t-40 8t-29 22t-16 32t-1 40l62 396 h-452l-63 -396q-4 -22 -14.5 -40t-26.5 -32t-36 -22t-42 -8t-39 8t-28 22t-15 32q-6 18 -2 40z" />
<glyph unicode="I" horiz-adv-x="381" d="M102 94l142 893q4 22 14 40.5t26 33t36 23t41 8.5q22 0 40 -8.5t29.5 -23t16.5 -33.5t2 -40l-141 -893q-4 -22 -15 -40.5t-27 -33t-36 -22.5q-22 -8 -44 -8t-38.5 8t-28 22.5t-15.5 33.5q-6 18 -2 40z" />
<glyph unicode="J" horiz-adv-x="381" d="M-179.5 -160q1.5 19 9.5 37.5t24 34.5t33 24t35 10t34 -4t29 -18q7 -7 17 -10.5t24 -3.5q10 0 20 3.5t17 10t13 15t7 18.5l163 1030q4 22 14 40.5t26 33t36 23t41 8.5q22 0 40 -8.5t29.5 -23t16.5 -33.5t2 -40l-163 -1030q-8 -50 -35 -94.5t-66 -77.5t-88.5 -52 t-102.5 -19q-27 0 -49 4.5t-40.5 12.5t-34 18.5t-29.5 22.5q-13 13 -18.5 31t-4 37z" />
<glyph unicode="K" horiz-adv-x="829" d="M92 92l142 897q3 21 13.5 39.5t26.5 32.5t36 23q18 8 40 8t39.5 -8.5t29 -22.5t16.5 -32.5t2 -39.5l-41 -254l396 328q18 14 37 21.5t38 7.5t35 -8t28 -23t16 -33t0 -36.5t-14 -36.5q-10 -17 -28 -33l-434 -363l346 -397q13 -16 18 -34t2.5 -37t-12.5 -37t-26 -34 q-16 -15 -35.5 -22.5t-38 -7.5t-36 7t-30.5 21l-317 365l-46 -291q-4 -20 -14.5 -39t-26.5 -33t-36 -22t-42 -8t-39 8t-28 22t-15 33q-6 19 -2 39z" />
<glyph unicode="L" horiz-adv-x="557" d="M92 94l142 895q3 21 13.5 39.5t26.5 32.5t36 23q18 8 40 8t39.5 -8.5t29 -22.5t16.5 -32.5t2 -39.5l-127 -801h166q19 0 35 -7t26.5 -20t15.5 -30t2 -37q-3 -19 -13 -36.5t-25 -30t-33 -20t-38 -7.5h-274q-19 0 -35 7.5t-27 20t-15.5 30t-2.5 36.5z" />
<glyph unicode="M" horiz-adv-x="1308" d="M34 70q-1 20 6 40l338 911q5 14 14.5 26t22 20.5t26.5 13.5t29 5q26 0 45 -14t24 -37l173 -669l385 669q13 23 36 37t50 14q15 0 27.5 -5t22 -13.5t14.5 -20.5t7 -26l46 -911q1 -20 -6.5 -40t-20.5 -36t-31 -27q-20 -11 -40 -15q-21 -4 -39.5 0t-33.5 15t-23 27 q-10 16 -10 36l-22 470l2 99l-48 -97l-311 -542h-123l-142 551l-16 92l-30 -94l-176 -479q-7 -20 -20.5 -36t-31.5 -27t-38.5 -15t-40.5 0t-34 15t-22 27t-9 36z" />
<glyph unicode="N" horiz-adv-x="1179" d="M92 92l141 888q4 22 15.5 41.5t28 34t37 22.5t42.5 8q24 0 42 -9t30 -25l523 -724l105 661q3 21 13.5 39.5t26 32.5t35 22.5t41.5 8.5t39 -8.5t29 -22.5t17 -32.5t1 -39.5l-140 -888q-4 -22 -15 -41.5t-28 -33.5t-37.5 -22.5t-42.5 -8.5q-24 0 -42.5 9t-30.5 25l-522 726 l-105 -663q-4 -20 -14.5 -39t-26.5 -33t-36 -22t-42 -8t-39 8t-28 22t-15 33q-6 19 -2 39z" />
<glyph unicode="O" horiz-adv-x="1181" d="M109 393q-4 30 -4 62q0 42 7 85q12 76 43.5 147t78.5 133t107 113t128.5 87.5t144.5 57t154 20.5q76 0 145 -20t126 -57t100.5 -88t70.5 -113q28 -60 37 -132q4 -31 4 -63q0 -42 -7 -85q-12 -76 -43.5 -147t-79 -133t-107.5 -113t-128 -87t-143 -56t-152 -20 q-78 0 -146.5 20t-126 56t-101 87t-71.5 113t-37 133zM312 445q6 -46 23.5 -86.5t46 -74.5t65.5 -58.5t81 -38t94 -13.5q49 0 97 13.5t92.5 38t83.5 58.5t69 74.5t51 86.5t29 95q5 28 5 55q0 21 -3 41q-6 46 -24 86.5t-46 74t-65 57.5t-81 37.5t-93 13.5q-51 0 -100 -13.5 t-93 -37t-83 -57t-69 -74t-50.5 -87t-28.5 -96.5q-4 -27 -5 -53q1 -21 4 -42z" />
<glyph unicode="P" horiz-adv-x="706" d="M92 92l141 887q4 22 14.5 40.5t25.5 32.5t35 22t41 8h141q77 0 141.5 -18.5t108.5 -57.5q44 -38 64 -98q12 -36 12 -81q0 -30 -5 -63q-14 -84 -53 -144t-96 -98t-127 -56q-71 -18 -145 -18h-38l-57 -356q-4 -20 -14.5 -39t-26.5 -33t-36 -22t-42 -8t-39 8t-28 22t-15 33 q-6 19 -2 39zM382 641h51q76 0 120.5 29.5t54.5 95.5q6 36 -0.5 60t-25 38.5t-47.5 20.5t-69 6h-44z" />
<glyph unicode="Q" horiz-adv-x="1181" d="M105 392q-4 31 -4 62q0 43 7 86q12 76 43.5 147.5t78.5 133t107 112.5t128.5 88t144.5 57t154 20q76 0 144 -20t125 -56t101.5 -86.5t72 -112t37.5 -131.5q4 -32 4 -64q0 -41 -7 -83q-31 -188 -171 -342l41 -53q12 -16 15 -35t-1.5 -39t-15.5 -38t-29 -32 q-18 -13 -37 -18.5t-38 -4.5t-35 9t-28 24l-40 58q-80 -43 -159 -66.5t-158 -23.5q-78 0 -147.5 19.5t-126.5 56t-100.5 87t-70 112t-35.5 133.5zM308 540q-5 -29 -5 -57q0 -45 12 -85q19 -67 61.5 -116.5t105 -78.5t138.5 -29q38 0 80 12q40 12 86 35l-99 123 q-12 16 -15 34.5t1.5 38t15.5 37.5t29 32q18 13 37 18.5t37.5 4t35 -10t28.5 -23.5l96 -123q36 43 57 87q21 43 29 93q5 31 5 62q0 19 -2 37q-5 48 -22 89.5t-45 75.5t-64.5 58t-81 37.5t-95.5 13.5q-50 0 -98 -13.5t-92.5 -37.5t-83.5 -57.5t-70 -74t-52 -86.5t-29 -96z " />
<glyph unicode="R" horiz-adv-x="798" d="M92 90l141 889q4 22 14.5 40.5t25.5 32.5t35 22t41 8h137q52 0 101 -7t89 -22t71.5 -39t51 -59t25.5 -83q4 -21 3 -45q0 -30 -5 -63q-10 -60 -34 -108t-59 -86t-81 -64t-98 -41l175 -321q8 -16 8.5 -35.5t-6 -38t-19.5 -35.5q-14 -17 -32 -29q-18 -10 -37 -14t-37.5 -0.5 t-34 14t-23.5 27.5l-202 379l-52 -322q-3 -20 -13.5 -38t-26.5 -32t-35.5 -22t-40.5 -8q-20 0 -37 8t-28 22t-15.5 32t-1.5 38zM380 639h67q30 0 59.5 6t52.5 20.5t39 39t22 61.5q2 17 2 31q0 20 -4 34q-8 25 -28.5 38t-49 17.5t-62.5 4.5h-58z" />
<glyph unicode="S" horiz-adv-x="778" d="M62.5 154q0.5 18 7 35t18.5 30q12 14 27.5 23.5t34 12t38.5 -3t40 -21.5q10 -12 27 -24.5t39 -23t50 -16.5t64 -6q44 0 78 14t57 36t36 49t17 53q2 13 2 25q0 22 -8 40q-12 27 -35 48t-57 38t-72 33q-32 14 -63.5 28t-60 32t-51.5 41t-38 53t-21 68q-3 16 -3 35 q0 24 5 52q12 74 48 130t87.5 93t114 55.5t128.5 18.5q52 0 91 -8t69 -21t51 -30t38 -33q18 -18 23.5 -40t2.5 -42q-6 -34 -23.5 -56.5t-41.5 -32t-50 -5.5q-28 5 -50 24q-16 14 -30 26t-29.5 19.5t-34.5 12t-45 4.5q-36 0 -61.5 -8t-43.5 -23t-28 -34.5t-14 -43.5t6 -44 t29.5 -36.5t47.5 -31.5t61 -29q36 -16 72 -34t67 -39t56 -47t41.5 -60t21.5 -77q2 -17 2 -35q0 -29 -5 -62q-11 -69 -45 -130.5t-88 -106.5t-125 -71t-155 -26q-57 0 -103 9.5t-82 25t-62.5 33.5t-42.5 36q-16 16 -23 33t-6.5 35z" />
<glyph unicode="T" horiz-adv-x="715" d="M148 985q3 20 13.5 37.5t25.5 30.5t34 21t38 8h539q20 0 36 -8t27 -21t16 -30.5t2 -37.5t-14 -37t-26 -29.5t-33 -20.5q-18 -7 -38 -7h-168l-126 -799q-4 -20 -15 -39t-27 -33t-36 -22t-42 -8t-38.5 8t-28 22t-15.5 33q-6 19 -2 39l127 799h-168q-19 0 -35 7.5t-27.5 20 t-16.5 29.5t-2 37z" />
<glyph unicode="U" horiz-adv-x="962" d="M136 303v19q0 48 8 100l90 565q4 22 14 40.5t26 33t36 23.5q18 8 40 8t40 -8.5t30 -23t17 -33.5t1 -40l-86 -547q-10 -60 -10 -108.5t16 -83.5t52 -54.5t99 -19.5q45 0 79 10t58.5 27t41.5 41.5t28.5 54t19.5 63.5t14 70l86 547q4 22 14 40.5t26 33t36 23t41 8.5 q22 0 39.5 -8.5t29.5 -23t17 -33.5t1 -40l-89 -565q-15 -95 -53 -175.5t-97.5 -139t-140 -91t-182.5 -32.5q-70 0 -125 15t-95 43t-67 67.5t-40 88t-15 105.5z" />
<glyph unicode="V" horiz-adv-x="907" d="M198 956q-4 20 0 40t15 38t27.5 31t37.5 21q21 7 41 5.5t36.5 -9.5t27.5 -22.5t15 -33.5l102 -518l16 -117l52 115l268 520q10 19 26 33.5t34.5 22.5t39 9t38.5 -5q18 -7 31 -20.5t18 -31.5t3 -38t-13 -40l-470 -903q-6 -13 -16.5 -23.5t-22.5 -18t-25 -12t-27 -4.5 q-28 0 -48 16q-20 15 -26 41z" />
<glyph unicode="W" horiz-adv-x="1595" d="M197 960q-4 19 1 39t15.5 37t26.5 30.5t36 19.5q21 7 40.5 5.5t35.5 -10.5t27 -23.5t15 -33.5l90 -510l18 -137l70 131l310 524q14 24 39 39t53 15t47 -14.5t25 -38.5l145 -521l28 -133l55 129l252 514q10 20 26 35t34.5 23.5t39 10t38.5 -4.5t30.5 -20t18 -31t4.5 -37 t-11 -40l-448 -905q-13 -26 -37.5 -42t-52.5 -16t-47 16.5t-25 40.5l-184 677l-394 -676q-14 -26 -38 -42q-26 -16 -54 -16q-14 0 -26 4.5t-22 11.5t-16.5 18t-8.5 23z" />
<glyph unicode="X" horiz-adv-x="846" d="M76 62.5q-2 18.5 4 38.5q5 21 18 39l294 409l-158 391q-7 18 -5.5 38.5t9.5 39.5t22 36q14 16 32 26q20 10 41 11.5t39 -4t33 -17.5t21 -30l116 -284l198 284q12 18 31 30t39 17.5t40 4t38 -11.5q16 -10 24 -26.5t10 -35.5t-3.5 -39.5t-18.5 -38.5l-276 -389l166 -414 q7 -18 5.5 -37.5t-9.5 -38.5t-22 -35t-31 -26q-20 -9 -40.5 -10.5t-38.5 4t-32 17t-20 28.5l-125 311l-221 -311q-13 -17 -31.5 -28.5t-38.5 -17t-40 -3.5t-36 12q-15 10 -23.5 26t-10.5 34.5z" />
<glyph unicode="Y" horiz-adv-x="960" d="M226 978q0 20 7 38.5t20 34.5t32 26q20 11 40.5 14t39 -1t33 -15t22.5 -29l168 -376l284 376q12 17 30.5 28.5t38 15.5t39.5 1t36 -14q15 -10 23.5 -26t9 -34.5t-6 -38.5t-19.5 -38l-368 -488l-57 -358q-4 -22 -15 -40.5t-27 -33t-36 -22.5t-43 -8q-22 0 -39.5 8 t-28.5 22.5t-16 33t-1 40.5l56 358l-214 488q-8 18 -8 38z" />
<glyph unicode="Z" horiz-adv-x="860" d="M51 108q2 16 9.5 31t17.5 28l610 724h-408q-20 0 -36 7.5t-26.5 20t-15 29.5t-1.5 37t13 37.5t25 30.5t33 21t38 8h574q22 0 40 -8.5t30 -23t17 -33.5t1 -40q-2 -16 -9 -30.5t-17 -27.5l-614 -731h426q20 0 36.5 -7t27 -20t15 -30t1.5 -37t-13 -37t-24.5 -30t-33 -20 t-38.5 -7h-587q-22 0 -40.5 8.5t-31 23t-17.5 34.5t-2 42z" />
<glyph unicode="[" horiz-adv-x="450" d="M36 -150l192 1213q3 18 12.5 34.5t24 29.5t32.5 20.5t37 7.5h170q19 0 34.5 -7.5t26.5 -20.5t15 -29t2 -35q-3 -20 -13 -36.5t-24.5 -28.5t-32.5 -19.5t-37 -7.5h-78l-163 -1029h78q19 0 34.5 -7t26.5 -20t15 -29q4 -18 2 -36q-3 -19 -13 -35.5t-24.5 -29t-32.5 -20 t-37 -7.5h-170q-19 0 -34.5 8t-26 20.5t-15.5 29t-1 34.5z" />
<glyph unicode="\" horiz-adv-x="971" d="M285 1131q1 17 8.5 33t20 30t30.5 22q16 8 34 10t33.5 -3t27.5 -16t18 -27l414 -1057q6 -16 4.5 -33.5t-8.5 -34.5t-20 -31.5t-30 -23.5q-18 -8 -36 -9.5t-34 4t-28.5 16.5t-18.5 28l-410 1059q-6 16 -5 33z" />
<glyph unicode="]" horiz-adv-x="450" d="M26 -150q3 18 12.5 35t24 30t32.5 20t37 7h78l163 1029h-78q-19 0 -35 7.5t-26 19.5t-15 29t-1 36q3 18 12.5 34.5t24 29.5t32.5 20.5t37 7.5h170q19 0 34.5 -7.5t26.5 -20.5t15 -29t2 -35l-192 -1213q-3 -18 -13 -34.5t-24.5 -29t-32.5 -20.5t-37 -8h-170q-19 0 -35 7.5 t-26 20t-15 29.5t-1 35z" />
<glyph unicode="^" horiz-adv-x="872" d="M127 434q-3 14 0 30t13 30l370 572q17 26 44.5 43t57.5 17q32 0 54 -16t31 -42l192 -574q5 -14 3 -30t-9 -29.5t-19 -24.5q-12 -12 -28 -19q-16 -8 -32.5 -8.5t-30 4t-23.5 15.5q-12 10 -16 24l-160 463l-302 -463q-9 -14 -22.5 -24.5t-28.5 -15t-31 -3.5t-30 8t-22 18 t-11 25z" />
<glyph unicode="_" horiz-adv-x="817" d="M-26 -129q2 17 11 32t21 26t28 17.5t34 6.5h666q18 0 32 -6.5t23 -17.5t13 -26t1 -32t-11.5 -32t-21 -27t-28.5 -18q-16 -7 -34 -7h-666q-18 0 -32 6.5t-23 18.5t-12.5 27t-0.5 32z" />
<glyph unicode="`" horiz-adv-x="444" d="M242 974q-2 18 4 35t18 32t28 26q17 12 35.5 16.5t35.5 2.5t31 -11t22 -25l92 -182q6 -13 7 -28t-4 -29.5t-15 -28t-26 -22.5q-15 -10 -30.5 -12.5t-29.5 0t-26 10.5t-20 20l-110 164q-10 14 -12 32z" />
<glyph unicode="a" horiz-adv-x="913" d="M95 276q-2 18 -2 36q0 33 6 67q12 80 51 149.5t99 121t138.5 81t170.5 29.5q54 0 104 -18t90 -50q14 31 43 50.5t63 19.5q20 0 37 -7.5t28 -21t16 -31.5t1 -38l-90 -574q-3 -20 -13.5 -38t-26 -31.5t-35 -21t-39.5 -7.5q-34 0 -56 19q-24 19 -28 51q-20 -14 -45.5 -28 t-53 -24t-56.5 -16t-57 -6q-63 0 -114.5 14t-92.5 40t-70 62t-46 79t-22 93zM292 379q-4 -22 -4 -42q0 -23 5 -43q9 -39 32 -68t58.5 -45.5t82.5 -16.5q49 0 90.5 16.5t72.5 46t51 70.5t28 90q3 19 3 38q-1 22 -5 42q-8 37 -31 64t-60 42t-86 15q-44 0 -84 -17.5t-72 -46.5 t-53.5 -66.5t-27.5 -78.5z" />
<glyph unicode="b" horiz-adv-x="917" d="M92 88l165 1044q3 20 13.5 38t25.5 32t33.5 21.5t38.5 7.5t37 -7.5t28 -21.5t16 -32t3 -38l-66 -417q52 29 105 42t107 13q61 0 112.5 -14t92.5 -39t70 -60.5t47 -78.5q18 -42 23 -92q2 -18 1 -36q0 -33 -5 -67q-10 -59 -32.5 -111t-56.5 -96t-76 -79t-90 -59t-99 -37 t-101 -13q-54 0 -104 18t-98 60q-6 -16 -17 -30t-26 -24t-31.5 -16t-33.5 -6q-20 0 -37 8t-28 21t-16 31t-1 38zM328 381q-4 -22 -4 -43q0 -22 4 -42q8 -40 31 -69t59 -45t85 -16q47 0 88 16.5t72.5 46t52 69t28.5 85.5q2 17 2 34q0 25 -5 47q-9 38 -31.5 66.5t-57.5 45.5 q-36 16 -80 16q-52 0 -93 -15.5t-72 -43t-51 -66.5t-28 -86z" />
<glyph unicode="c" horiz-adv-x="780" d="M98 377q8 54 31 104t56.5 93.5t77 78.5t94 60t107 39t116.5 14q34 0 67 -5t62.5 -14t55.5 -21q26 -14 46 -28q14 -10 22.5 -24t11 -31t-2 -35t-16.5 -34q-12 -17 -28 -28.5t-33 -15.5t-35 -2q-16 2 -32 10q-19 12 -37 21t-36 15.5t-37 9.5q-18 4 -40 4q-30 0 -60 -8 t-57 -22t-50 -33.5t-41 -43t-30 -50t-17 -54.5q-3 -17 -2 -33q0 -25 6 -49q11 -39 36.5 -68.5t63 -47t83.5 -17.5q43 0 82 12.5t84 36.5q18 9 36 11.5t34 -2t28 -15t19 -27.5q6 -17 5.5 -35.5t-8 -35.5t-21 -32t-31.5 -24q-63 -34 -124.5 -49.5t-129.5 -15.5 q-90 0 -161.5 30t-119 83t-67.5 124q-12 44 -12 93q0 30 4 61z" />
<glyph unicode="d" horiz-adv-x="917" d="M97 272q-3 21 -3 44q0 32 6 67q8 53 28.5 102.5t51.5 92.5t71.5 78.5t89.5 60.5t104.5 39t116.5 14q54 0 104 -18t90 -56l68 436q3 20 13.5 38t26.5 32t35 21.5t39 7.5t36 -7.5t27 -21.5t16 -32t1 -38l-165 -1044q-3 -20 -13.5 -38t-26 -31t-34.5 -21t-39 -8q-17 0 -32 6 t-26.5 16t-18.5 24t-8 30q-60 -42 -115.5 -60t-109.5 -18q-51 0 -98 13t-87 37t-71 59t-50.5 79t-26.5 96zM294 383q-4 -22 -4 -42q0 -23 5 -43q9 -40 31 -69.5t58 -46t82 -16.5q49 0 90.5 16t73 45t52 68.5t27.5 85.5q4 24 4 46q1 21 -3 40q-8 39 -30.5 66.5t-59 43 t-88.5 15.5q-44 0 -84.5 -16.5t-72 -45t-53.5 -66.5t-28 -81z" />
<glyph unicode="e" horiz-adv-x="860" d="M95 277q-2 19 -2 38q0 31 5 62q8 51 29 100t51.5 92t71 79t88.5 62.5t103 41t116 14.5q84 0 146.5 -26t104.5 -74t62 -114q19 -61 18 -133v-14q0 -18 -9 -33t-23 -26.5t-31.5 -17.5t-34.5 -6h-506q3 -36 17.5 -66t38.5 -51.5t56 -33t70 -11.5q33 0 59.5 7t46.5 18t35 23 t25 22q14 14 31 22t34 11t33.5 -1t29.5 -14q12 -12 19 -28t7 -33t-6 -34q-8 -17 -22 -30q-32 -30 -66.5 -55.5t-74 -44.5t-85.5 -29t-99 -10q-62 0 -112.5 15t-90.5 41t-68.5 63t-45 81t-21.5 93zM333 488h353q-15 51 -54.5 75.5t-99.5 24.5q-30 0 -59 -7t-54 -20.5t-47 -32 t-39 -40.5z" />
<glyph unicode="f" horiz-adv-x="485" d="M123 662q3 18 12.5 34t23 28t30.5 19t36 7h8l31 192q3 18 7.5 41.5t11.5 48t19 49.5t28 45q22 28 48 48t55 33t60 19.5t61 6.5q24 0 48 -5.5t41 -18.5t23 -34t-5 -53q-6 -18 -18.5 -31.5t-27.5 -22.5t-33 -12t-36 1q-4 2 -7.5 2h-6.5q-18 0 -29 -5.5t-18.5 -15.5t-12 -23 t-7.5 -28l-37 -237h94q18 0 33 -7t25 -19t14.5 -28t1.5 -34t-12.5 -34.5t-23.5 -28.5t-31 -18.5t-35 -6.5h-94l-78 -486q-3 -20 -13.5 -38t-26 -31t-34.5 -21t-39 -8t-36.5 8t-27.5 21t-15.5 31t-1.5 38l77 486h-8q-18 0 -33 6.5t-25 18.5t-15 28q-4 17 -1 35z" />
<glyph unicode="g" horiz-adv-x="917" d="M20 -135q-2 19 4.5 37.5t19 34t29.5 26.5t35 15q21 4 39 0t31.5 -14t22.5 -25t11 -35q4 -33 16.5 -60.5t34 -47.5t52.5 -31t72 -11q60 0 104.5 16t75.5 46.5t49.5 76.5t28.5 107q0 4 1.5 10t2.5 13t2 13t1 10q-55 -36 -109.5 -51t-110.5 -15q-60 0 -109.5 15t-89.5 41 t-69 63t-46.5 80t-22.5 92q-2 19 -2 38q0 30 5 61q8 54 29.5 103.5t53.5 92t73.5 77.5t91 60t105 39t115.5 14q56 0 105 -17t83 -53q6 16 17 30t25 23.5t30 15t34 5.5q20 0 37 -8t28.5 -21.5t16.5 -32.5q6 -18 2 -38l-96 -609q-6 -36 -14 -76.5t-23 -83.5t-38 -86t-59 -81 q-36 -37 -77 -64.5t-85 -45.5t-91 -27t-96 -9q-70 0 -129.5 18t-105.5 54t-74 90t-36 125zM292 375q-3 -20 -3 -38q0 -25 5 -47q10 -40 33 -70t58.5 -47t81.5 -17q49 0 90 16.5t72 46.5t51.5 71.5t28.5 90.5q3 19 3 37q0 23 -5 44q-9 37 -32 64t-60 42.5t-87 15.5 q-44 0 -84 -17.5t-71 -46.5t-53 -66q-22 -38 -28 -79z" />
<glyph unicode="h" horiz-adv-x="809" d="M92 88l166 1046q3 20 13.5 38t25.5 32t33.5 21.5t38.5 7.5t36.5 -7.5t28 -21.5t16.5 -32t2 -38l-66 -419q36 23 77 37t86 14q60 0 103.5 -11.5t74 -33t49 -50.5t26.5 -65q8 -32 8 -69v-9q0 -42 -7 -86l-57 -354q-3 -20 -13.5 -38t-26 -31t-34.5 -21t-39 -8t-36.5 8 t-27.5 21t-15.5 31t-1.5 38l56 354q5 34 4.5 61.5t-10.5 46.5t-33 29.5t-63 10.5q-43 0 -72.5 -15.5t-49.5 -44t-32.5 -69.5t-20.5 -91l-45 -282q-3 -20 -13.5 -38t-26.5 -31t-35 -21t-39 -8t-36 8t-27 21t-16 31t-1 38z" />
<glyph unicode="i" horiz-adv-x="370" d="M102 88q-3 -20 1.5 -38t15.5 -31t27 -21t36 -8t39 8t35 21t26.5 31t13.5 38l91 574q3 20 -2 38t-16 31t-28 21t-37 8t-38.5 -8t-34 -21t-25.5 -31t-14 -38zM220 1006q4 24 17 46t32 38t44 25t51 9q27 0 48.5 -9t35.5 -25t20 -38t2 -46t-17 -46t-33 -38t-44 -25.5 t-50 -9.5q-27 0 -48.5 9.5t-35.5 25.5t-20 38t-2 46z" />
<glyph unicode="j" horiz-adv-x="372" d="M32 -350q-3 -20 1.5 -38t15.5 -31.5t27.5 -21t36.5 -7.5t39 7.5t34.5 21t26.5 31.5t14 38l160 1012q3 20 -2 38t-16 31t-28 21t-37 8t-38.5 -8t-34 -21t-25.5 -31t-14 -38zM220 1006q4 24 17 45t32 37.5t44 26t51 9.5q27 0 48.5 -9.5t35.5 -26t20 -37.5t2 -45 q-4 -26 -17 -47.5t-33 -37.5t-44 -25t-50 -9q-27 0 -48.5 9t-35.5 25t-20 37.5t-2 47.5z" />
<glyph unicode="k" horiz-adv-x="782" d="M92 88l166 1046q3 20 13.5 38t25.5 32t33.5 21.5t38.5 7.5t36.5 -7.5t28 -21.5t16.5 -32t2 -38l-89 -560l245 159q18 12 36.5 18t36 6.5t33 -6.5t26.5 -20q11 -14 15.5 -32.5t1.5 -36.5t-13 -35t-27 -29l-263 -176l233 -270q12 -14 16.5 -31.5t1.5 -35.5t-12 -35.5 t-25 -31.5t-34.5 -21t-37 -7t-34.5 6t-27 20l-219 264l-30 -192q-3 -20 -13.5 -38t-26.5 -31t-35 -21t-39 -8t-36 8t-27 21t-16 31t-1 38z" />
<glyph unicode="l" horiz-adv-x="372" d="M102 88l166 1048q3 20 13.5 38t25.5 32t34 21.5t39 7.5t36.5 -7.5t28 -21.5t16.5 -32t1 -38l-166 -1048q-3 -20 -13.5 -38t-26.5 -31t-35 -21t-39 -8t-36 8t-27 21t-16 31t-1 38z" />
<glyph unicode="m" horiz-adv-x="1157" d="M92 86l91 578q3 21 14 38.5t27 31t36 20.5q20 8 40 8q34 0 56 -19q24 -19 26 -53l-1 -2q39 38 81 54t86 16t82.5 -21t68.5 -61q46 42 102.5 63t112.5 21q61 0 104 -13t71.5 -35t43.5 -52t21 -65q4 -26 4 -54v-19q-2 -40 -8 -78l-57 -356q-3 -20 -14 -38t-26.5 -31 t-34.5 -21t-39 -8q-21 0 -37.5 8t-28 21t-16 31t-1.5 38l58 364q5 34 4.5 59.5t-8.5 42.5t-26 25.5t-47 8.5q-22 0 -43.5 -9t-38.5 -27.5t-30 -46.5q-13 -27 -19 -65l-56 -354q-3 -19 -14 -36.5t-26.5 -30.5t-34.5 -21t-39 -8t-36.5 8t-27 21t-15.5 30.5t-2 36.5l55 350 q6 41 6.5 69.5t-7 47t-24.5 27t-45 8.5q-24 0 -48 -16t-44 -43t-35 -63t-21 -75l-48 -305q-3 -19 -13.5 -36.5t-26 -30.5t-34 -21t-38.5 -8t-36 8t-27 21t-16 30.5t-1 36.5z" />
<glyph unicode="n" horiz-adv-x="794" d="M92 86l91 580q3 20 14 37t27 30.5t35.5 21t39.5 7.5q17 0 32 -5t26 -15.5t17 -25t4 -32.5v-6q16 17 37.5 32t45.5 26.5t50 17.5q25 6 51 6q77 0 126.5 -24t75.5 -66t31 -100q2 -18 1 -37q0 -42 -7 -89l-57 -358q-3 -19 -13.5 -36.5t-26 -30.5t-35 -21t-39.5 -8t-36 8 t-27 21t-15.5 30.5t-1.5 36.5l56 358q5 31 5 53q0 11 -1 21q-4 28 -16 43t-31 20t-43 5q-33 0 -62.5 -19.5t-53.5 -50t-41 -69.5t-23 -79l-44 -282q-3 -19 -13.5 -36.5t-26 -30.5t-34 -21t-38.5 -8t-36 8t-27 21t-16 30.5t-1 36.5z" />
<glyph unicode="o" horiz-adv-x="905" d="M96 274q-3 22 -2 45q0 28 4 58q8 54 31 103.5t57 93.5t77 79.5t93 61t104.5 39.5t111.5 14q58 0 110 -13.5t94 -38t75 -59.5t53 -79t26 -94q3 -21 4 -43q0 -30 -6 -62q-9 -56 -31.5 -106.5t-56.5 -94.5t-77.5 -79.5t-94 -60.5t-106.5 -38.5t-114 -13.5t-109 14t-92 39.5 t-73 61t-52 79.5t-26 94zM295 377q-3 -17 -2 -33q0 -24 6 -48q11 -38 35 -67t60 -46t78 -17q49 0 93.5 16t79.5 44t58.5 66.5t30.5 84.5q3 17 3 33q1 27 -7 51q-12 39 -37.5 67t-65 44t-87.5 16q-44 0 -85 -16.5t-74.5 -45t-56 -67.5t-29.5 -82z" />
<glyph unicode="p" horiz-adv-x="899" d="M22 -350l160 1012q4 21 14.5 39t26 31.5t34.5 21.5t39 8q34 0 57.5 -20t27.5 -54q28 22 54.5 36t52.5 22t52 11.5t52 4.5h14q44 0 84 -10q46 -12 86 -36t71 -59t50 -79.5t26 -97.5q3 -21 3 -44q0 -33 -6 -68q-8 -54 -28 -103t-50 -92t-70 -78t-87.5 -60t-102.5 -39 t-116 -14q-51 0 -99 12t-89 41l-61 -385q-3 -20 -14 -38t-26.5 -31.5t-35 -21t-39.5 -7.5t-36 7.5t-27 21t-15 31.5t-2 38zM328 278q8 -36 30 -62t57 -40t81 -14q42 0 80.5 16t69 43.5t51 64.5t27.5 80q4 22 4 42q0 23 -5 45q-9 41 -30 71t-54.5 47t-76.5 17 q-46 0 -85.5 -17t-70 -47.5t-50.5 -71.5q-20 -42 -28 -92q-4 -23 -4 -43.5t4 -38.5z" />
<glyph unicode="q" horiz-adv-x="901" d="M95 266q-2 17 -2 35q0 32 6 67q10 60 33 112.5t56.5 97t75.5 79.5t89.5 59t98.5 36q43 10 86 10h14q25 -1 49.5 -4.5t47.5 -12t46 -22.5t45 -35q6 18 17.5 31.5t26 23t30.5 14.5t34 5q21 0 37.5 -8t27.5 -21.5t16 -32t1 -38.5l-160 -1012q-3 -20 -13.5 -38t-25.5 -31.5 t-34 -21t-39 -7.5t-37 7.5t-28 21t-16 31.5t-1 38l60 385q-52 -28 -103 -40.5t-102 -12.5q-61 0 -111.5 14t-90 39t-68.5 60t-45 78t-21 93zM296 366q-3 -19 -3 -38q0 -22 5 -42q8 -37 29.5 -64.5t55 -43.5t75.5 -16q46 0 85 14t69.5 40t49.5 62q20 36 28 82q4 26 4 50 q0 21 -3 41q-7 42 -28 72.5t-55.5 47.5t-80.5 17q-43 0 -82 -17t-69.5 -47t-51 -71t-28.5 -87z" />
<glyph unicode="r" horiz-adv-x="522" d="M92 88l90 574q4 21 14.5 39t26 31.5t34.5 21.5t39 8q17 0 31.5 -5t26 -14.5t19 -22t9.5 -28.5v-2q36 38 73 53t73 15t60 -8q16 -6 28 -18t18 -28.5t5 -35t-9 -37.5q-8 -18 -22 -32.5t-31 -23.5t-35 -10t-36 7q-26 12 -48.5 7t-41 -21.5t-33.5 -42t-26 -54.5t-18 -58.5 t-11 -54.5l-42 -260q-3 -20 -13.5 -38t-26.5 -31t-35 -21t-39 -8t-36 8t-27 21t-16 31t-1 38z" />
<glyph unicode="s" horiz-adv-x="624" d="M67 188q3 18 11.5 34.5t23 30t33.5 21.5t37 9t34 -5t28 -18t17 -30q4 -14 11.5 -28t18 -23.5t25 -15t32.5 -5.5t35 6.5t31 18.5t23.5 28.5t12.5 34.5q2 14 -3 24.5t-16 18.5t-27 14.5t-36 12.5q-23 8 -48.5 19t-50.5 26t-46.5 33t-37 41.5t-22.5 51t-1 60.5q8 52 35 92.5 t66 68.5t85 43t94 15q32 0 58 -6t48 -18t40 -29t33 -37q9 -14 11 -31.5t-3 -34.5t-16 -33t-29 -28q-16 -12 -32.5 -16.5t-32.5 -2t-30 11t-24 22.5q-14 18 -27.5 23t-25.5 5t-21.5 -4t-17 -10t-11.5 -13t-5 -14q-2 -14 10.5 -24.5t34.5 -20.5t50.5 -20t57.5 -24t56.5 -32.5 t46.5 -44.5q19 -27 28 -61q5 -18 5 -39q0 -19 -4 -41q-9 -58 -39 -106t-74 -83t-97.5 -54t-111.5 -19q-49 0 -88 12.5t-69 35t-50.5 54.5t-32.5 68q-6 18 -3 36z" />
<glyph unicode="t" horiz-adv-x="510" d="M131 662q3 18 12.5 34t23 28t30.5 19t36 7h27l28 180q3 20 14 38t26.5 31t34.5 21t39 8t37 -8t28 -21t16 -31t2 -38l-29 -180h72q18 0 33 -7t25 -19t14.5 -28t1.5 -34t-12.5 -34.5t-23 -28.5t-31 -18.5t-35.5 -6.5h-72l-76 -486q-3 -20 -14 -38t-26.5 -31t-34.5 -21 t-39 -8t-37 8t-28 21t-16 31t-2 38l77 486h-27q-18 0 -33 6.5t-25 18.5t-15 28q-4 17 -1 35z" />
<glyph unicode="u" horiz-adv-x="796" d="M127 312l55 350q3 20 14 38t26.5 31t34 21t37.5 8q20 0 37 -8t28 -21t16 -31t2 -38l-55 -350q-4 -32 -5 -55q0 -7 1 -15q2 -28 14.5 -46t35 -26t55.5 -8q34 0 59 8t43.5 25t30.5 46t18 71l55 350q3 20 14 38t26 31t34 21t37 8q20 0 37 -8t28 -21t16 -31t3 -38l-56 -353 q-11 -70 -36.5 -129.5t-69 -103t-109 -68t-159.5 -24.5q-62 0 -107 11t-77.5 32t-52 50t-29.5 65q-9 35 -9 75q0 43 8 95z" />
<glyph unicode="v" horiz-adv-x="778" d="M136 660q2 20 11 37t24 31q15 16 34 24t38 8.5t36 -6t29 -18.5q12 -14 18 -32l101 -332l15 -65l32 68l200 329q11 18 27.5 31t35.5 19.5t38 6t36 -8.5q16 -8 26.5 -23t13.5 -32t-1 -37q-3 -20 -14 -38l-354 -572q-14 -24 -39 -39.5t-53 -15.5t-48 14.5t-27 38.5l-175 574 q-6 18 -4 38z" />
<glyph unicode="w" horiz-adv-x="1233" d="M135 662q3 20 12 37t24 31t34 22t38 8t35 -6.5t28 -19.5q12 -14 18 -32l92 -315l16 -73l36 71l185 319q14 22 36.5 36t48.5 14q27 0 46 -14t25 -37l83 -307l15 -84l44 81l187 311q10 18 26 31t34 19t37 6t35 -8q16 -7 26 -21t13 -31.5t0 -36.5t-14 -37l-348 -576 q-14 -24 -39 -39.5t-53 -15.5t-47.5 14.5t-26.5 38.5l-100 360l-208 -358q-14 -24 -38.5 -39.5t-53.5 -15.5q-28 0 -47.5 14.5t-25.5 38.5l-170 576q-6 18 -3 38z" />
<glyph unicode="x" horiz-adv-x="786" d="M54 72.5q1 18.5 9 36.5q9 19 23 33l242 251l-148 217q-10 14 -12 32t2.5 36t15.5 34q12 16 28 28q17 12 35.5 16.5t35.5 2.5t32 -10.5t25 -23.5l129 -195l189 193q14 16 32 24.5t36 11t36 -2t31 -16.5q14 -12 19.5 -29t4.5 -35t-9 -36t-22 -34l-212 -217l161 -247 q10 -16 12 -34t-2.5 -35.5t-16 -34t-28.5 -28.5q-18 -12 -36 -17t-35.5 -2.5t-32.5 11.5q-14 8 -24 24l-146 222l-216 -224q-14 -14 -32 -23t-36.5 -11t-36 3t-29.5 17q-13 12 -19 28t-5 34.5z" />
<glyph unicode="y" horiz-adv-x="866" d="M139 -354q3 18 13 36l198 330l-206 614q-6 17 -3.5 35.5t11.5 36t23.5 32t33.5 22.5q18 8 36.5 8t34.5 -6t28 -18t18 -30l162 -468l283 468q10 18 26.5 30t34.5 18t37 6t35 -8t25.5 -22.5t13 -32t-0.5 -35.5t-14 -36l-613 -1017q-10 -18 -26 -30.5t-34 -19.5t-37 -7 t-36 8q-16 7 -27 20.5t-15 30t-1 35.5z" />
<glyph unicode="z" horiz-adv-x="745" d="M41 99q3 20 13 37t24 30l441 410h-301q-18 0 -33 6t-24.5 18t-14.5 28q-4 16 0 34q3 18 11.5 34t22.5 28t30 19q18 7 36 7h496q20 0 36.5 -8t27.5 -21t15.5 -30t2.5 -37q-3 -19 -12.5 -35.5t-23.5 -30.5l-445 -414h323q18 0 33 -7t25 -19t14 -28t0 -34q-3 -18 -11.5 -34 t-22 -27.5t-30 -18t-35.5 -6.5h-515q-20 0 -37 8t-28 21t-16 31t-2 39z" />
<glyph unicode="{" horiz-adv-x="467" d="M102 400l19 118q32 16 53 31t34.5 31t19.5 33t9 34l37 227q10 67 36 119t62 87.5t79 54t86 18.5q18 0 34 -4.5t28.5 -15t19.5 -25t7 -33.5q0 -18 -7 -34.5t-19.5 -29.5t-29.5 -22q-16 -9 -36 -11q-7 0 -18 -2.5t-21.5 -8t-19.5 -15.5t-11 -24l-38 -244q-7 -43 -16.5 -77 t-22.5 -61.5t-30 -49.5t-37 -40q14 -19 24 -41.5t14 -50.5t3 -63t-9 -78l-36 -233q-2 -16 3 -25.5t14.5 -15t20 -8.5t17.5 -3q18 -2 31.5 -10t21.5 -22t10 -31t-3 -35q-6 -18 -17.5 -32t-26.5 -24.5t-33 -15.5q-18 -6 -35 -4q-19 2 -39 7t-40 13t-38 21q-20 13 -34 31 q-15 18 -22.5 39.5t-10.5 47t-1 55t7 63.5l35 223q3 18 1.5 36t-10 35t-24.5 33t-41 32z" />
<glyph unicode="|" horiz-adv-x="446" d="M145 66l168 1060q3 18 12.5 35t23 29t31.5 19t36 7t33 -7t26 -19t15 -28q4 -18 2 -36l-168 -1060q-3 -18 -13 -35t-24.5 -29t-31.5 -19t-36 -7q-18 0 -33 7t-25 19t-15 28q-4 18 -1 36z" />
<glyph unicode="}" horiz-adv-x="467" d="M-16 -160q0 18 7 35t19.5 31t29 22t34.5 10q7 0 18.5 3t22.5 8.5t19 14.5q10 10 12 26l36 233q7 43 17 78t23 63t29.5 51t37.5 41q-14 18 -24 40t-14.5 49.5t-3.5 61.5t9 77l38 244q2 15 -3 24.5t-14 15t-19 8t-18 2.5q-19 2 -32.5 11t-22 22t-10.5 30q-3 17 3 34 q6 18 18 33t28 25.5t34 15.5t35 4q43 0 80 -18.5t61.5 -54t34.5 -86.5q9 -52 -1 -120l-36 -227q-2 -18 -1 -34.5t9 -32.5t24.5 -31t43.5 -31l-19 -118q-30 -15 -51 -31.5t-34.5 -33.5t-21.5 -35t-10 -36l-36 -223q-10 -68 -30 -119q-22 -50 -62 -86q-21 -18 -43 -31 t-44.5 -21t-44.5 -13t-41 -7q-18 -2 -33.5 3.5t-27.5 16t-19 24.5t-7 32z" />
<glyph unicode="~" horiz-adv-x="938" d="M112 295q0 17 6.5 35t20.5 34q27 28 55 57t60 52t70 37t82 14q28 0 57 -8t56.5 -20t53 -26t48.5 -26t41 -20t32 -8q10 0 25 10t29 23.5t26 27.5t18 22q13 16 28.5 26.5t31.5 14.5t32 2q16 -4 32 -12q16 -9 25 -24t11.5 -33t-2.5 -36.5t-18 -34.5q-26 -30 -53 -58t-60 -58 q-64 -54 -156 -54q-29 0 -55 8t-49.5 20t-46 26.5t-44.5 27t-44 20.5t-46 8q-9 0 -23.5 -8t-29.5 -20t-29 -25t-22 -23q-14 -16 -32 -26.5t-36 -15t-37 -0.5t-34 16q-11 9 -17 23.5t-6 31.5z" />
<glyph unicode="&#xa2;" horiz-adv-x="932" d="M227 423q-11 63 1 134q11 69 41.5 132t76.5 114t105 87t124 52l9 54q3 18 12 34t23 28t31 19q18 7 36 7t33 -7t25 -19t14 -28t2 -34l-8 -46q26 -6 51 -15.5t46.5 -20.5t38 -21.5t24.5 -18.5q14 -10 22 -25.5t9 -33t-4 -35.5t-18 -34q-14 -16 -31 -27t-34.5 -15t-34.5 0 t-31 16q-11 10 -28.5 20.5t-39.5 21.5l-65 -412q26 11 47 24q20 14 39 26q16 10 34.5 13t34.5 -0.5t30 -14t22 -26.5t7 -33t-8 -33t-19.5 -31t-28.5 -27q-36 -26 -82.5 -48t-104.5 -36l-10 -60q-3 -18 -12.5 -34t-23 -28t-30.5 -19q-18 -7 -36 -7t-33 7t-25 19t-14 28t-2 34 l10 62q-62 18 -109 55t-76 88t-40 114zM408 557q-10 -64 9.5 -114.5t65.5 -80.5l61 386q-54 -30 -90 -79.5t-46 -111.5z" />
<glyph unicode="&#xa3;" horiz-adv-x="897" d="M45 94q3 20 13 37t25 30t33 20t38 7l38 236q-20 0 -36 7.5t-26.5 20t-15 30t-2.5 36.5q3 20 13.5 37t25.5 30t33 20t38 7l18 111q8 49 26 96t46 88.5t64 76.5t80 60.5t94 39.5t105 14q74 0 131.5 -24.5t97.5 -68t62 -103.5t26 -130q0 -20 -7 -40t-21 -36t-33 -27.5 t-40 -15.5q-20 -4 -38.5 0.5t-32.5 15.5t-23 27t-9 37q0 28 -9 58t-27 54.5t-44.5 40t-63.5 15.5q-33 0 -63.5 -12.5t-54.5 -35.5t-41 -56t-23 -74l-18 -111h118q19 0 34.5 -7t26.5 -20t16 -30t1 -37q-3 -19 -13 -36.5t-25 -30t-33.5 -20t-36.5 -7.5h-118l-37 -236h410 q19 0 35 -7t27 -20t15.5 -30t1.5 -37q-3 -19 -13.5 -36.5t-25 -30t-33 -20t-36.5 -7.5h-613q-20 0 -35.5 7.5t-26.5 20t-16 30t-2 36.5z" />
<glyph unicode="&#xa5;" horiz-adv-x="868" d="M106 416q3 20 13 36t24.5 29t32.5 20t37 7h164l-31 76h-121q-19 0 -35 7t-26 19.5t-14.5 29t-1.5 36.5q3 19 12.5 35.5t24.5 29.5t33 20t36 7h13l-77 174q-8 18 -8 37.5t7 38t21 34.5t34 28q20 10 40 13t38 -2t32 -17t22 -30l164 -374l284 374q14 18 32 30t37.5 17 t38.5 2t35 -13q17 -11 26 -27.5t10 -35t-5 -38t-20 -37.5l-130 -174h15q19 0 35 -7t26 -20t15 -29.5t1 -35.5q-3 -20 -12.5 -36.5t-24.5 -29t-33 -19.5t-36 -7h-124l-56 -76h168q19 0 34.5 -7t26 -20t15.5 -29q4 -16 1 -36q-3 -19 -13 -36t-24 -29.5t-32 -19.5t-38 -7h-202 l-37 -230q-4 -22 -15 -40.5t-27.5 -33t-36.5 -22.5t-42 -8t-39 8t-28.5 22.5t-16.5 33.5q-6 18 -2 40l37 230h-199q-19 0 -34.5 7t-26.5 19.5t-15 29t-2 36.5z" />
<glyph unicode="&#xa9;" horiz-adv-x="1212" d="M123 392q-9 72 3 150t44 149.5t78.5 134t106 113.5t128.5 88t144 57t153 20t146.5 -20t125 -57t99.5 -88t70 -113.5t35.5 -134t-3.5 -149.5t-43.5 -150t-78.5 -135t-106 -114.5t-127.5 -88t-143 -56.5t-152.5 -20t-147 20t-126 56.5t-100.5 88t-70 114.5t-35.5 135z M250.5 424q6.5 -56 27 -104.5t54 -88t78 -67.5t98.5 -44q52 -16 114 -16q60 0 118 16t111 44t99 67.5t82 88t60 104.5t34 118q10 60 3 116t-27 104.5t-53.5 88t-77 67.5t-97.5 44q-54 15 -114 15q-62 0 -120 -15.5t-111.5 -43.5t-99.5 -68t-81.5 -88t-59.5 -104t-34 -116 q-10 -62 -3.5 -118zM370 443q4 -45 19 -84t40 -71t59 -55t76 -36t92 -13q34 0 64.5 6.5t58 16.5t51.5 23t44 26q13 9 22.5 21.5t14 25.5t4 26t-6.5 25t-16.5 19t-23 8.5t-26.5 -1.5q-14 -4 -28 -14q-14 -9 -31 -17t-35 -14.5t-37 -9.5t-36 -3q-40 0 -73 17t-55 47t-31.5 69 t-3.5 81q7 44 29 83t53.5 68t70.5 46t80 17q36 0 65 -12q28 -14 56 -38q11 -9 24.5 -12.5t27 -1.5t26 9t23.5 20q10 12 15.5 25.5t4.5 27.5t-6 26t-17 21q-42 36 -91 54t-105 18q-48 0 -94 -12.5t-87.5 -35.5t-77 -54.5t-63 -70.5t-46.5 -84q-18 -46 -26 -94t-4 -93z" />
<glyph unicode="&#xab;" horiz-adv-x="708" d="M97 459l263 264q12 13 28 20t32 9t30 -3t26 -16q10 -10 15 -24.5t3 -29.5t-9 -30t-21 -29l-160 -161l110 -162q8 -13 10.5 -28t-0.5 -30.5t-12 -29.5q-8 -15 -22 -25q-15 -11 -31.5 -15.5t-31.5 -3t-29 8.5q-14 8 -22 20zM392 459l263 264q13 13 28.5 20t31 9t30.5 -3 t27 -16q10 -10 14 -24.5t2.5 -29.5t-9 -30t-19.5 -29l-161 -161l109 -162q8 -13 11 -28t0 -30.5t-12 -29.5q-9 -15 -23 -25q-15 -11 -31 -15.5t-31.5 -3t-28.5 9t-22 19.5z" />
<glyph unicode="&#xad;" horiz-adv-x="588" d="M106 400q2 17 11 31.5t22 25.5t29 18t33 7h338q17 0 31 -7t23 -18t13 -26t2 -31q-2 -17 -11 -32t-22 -26.5t-29 -17.5t-33 -6h-338q-17 0 -31 6t-23 17.5t-13 26t-2 32.5z" />
<glyph unicode="&#xae;" horiz-adv-x="1270" d="M126 416.5q-10 75.5 4 157.5q13 82 46 156.5t82.5 140t112.5 119t136 91.5t152 59t161 21t155 -21t133 -59.5t105.5 -92t74 -119t38 -140t-3.5 -155.5q-13 -82 -46.5 -157.5t-82.5 -141t-112 -119.5t-135 -93t-151 -60t-161 -21t-155 21t-134 60t-107 93t-74 119.5 t-38 141zM255 449.5q7 -59.5 29.5 -111.5t58.5 -94t83.5 -71.5t105.5 -46.5q56 -16 122 -16q64 0 126.5 16.5t118.5 46t104.5 71.5t86.5 94t64 111.5t36 124.5q10 62 3 119t-29 108t-58 93.5t-82.5 73t-103 47.5t-120.5 17q-66 0 -129 -16t-120 -46t-106 -71.5t-87 -92.5 t-64 -109.5t-36 -122.5q-10 -65 -3 -124.5zM465 328l77 483q2 14 8.5 25.5t16.5 20t22.5 13t26.5 4.5h208q116 0 164 -46t34 -132q-6 -38 -22 -67t-39 -50t-52 -36t-61 -23l78 -154q6 -12 7 -24t-3 -24.5t-13 -23.5q-9 -12 -22 -20t-26 -10t-25 0t-22 9t-16 18l-106 225h-76 l-30 -188q-2 -14 -9 -26t-17 -20t-23 -13t-27 -5q-28 0 -42.5 18t-10.5 46zM642 633h105q20 0 43.5 -0.5t45 3.5t38 16t20.5 38q3 18 -4.5 29t-20.5 17t-30 8t-35 2h-144z" />
<glyph unicode="&#xbb;" horiz-adv-x="708" d="M70.5 238.5q1.5 15.5 9 30.5t20.5 28l161 162l-110 161q-8 13 -10.5 28.5t0.5 30.5t12 29t23 25t30 16t32 3t29 -9t21 -20l180 -264l-264 -265q-13 -13 -28.5 -20t-31 -8.5t-30 3.5t-26.5 15q-10 10 -14.5 24.5t-3 30zM365.5 238.5q1.5 15.5 9 30.5t20.5 28l161 162 l-110 161q-8 13 -11 28.5t0.5 30.5t12 29t22.5 25t31 16t32 3t29 -9t22 -20l178 -264l-262 -265q-13 -13 -28.5 -20t-31.5 -8.5t-31 3.5t-25 15t-15 24.5t-3.5 30z" />
<glyph unicode="&#xbc;" horiz-adv-x="1302" d="M257 1016q2 14 9 26t17.5 21t23 14t26.5 5h115q14 0 25 -5t18 -14t10 -21t1 -26l-74 -476q-2 -14 -10 -25.5t-18 -20.5t-23 -14t-27 -5t-25 5t-19 14t-11 21q-3 11 -1 25l65 410h-45q-14 0 -26 5t-19 14t-10.5 21t-1.5 26zM273 43q-1 13 4 25t14 24l835 969 q10 12 22.5 19t25 9.5t24.5 0.5q13 -2 23 -10t15.5 -19.5t6.5 -24t-4 -25.5t-14 -24l-835 -969q-10 -12 -22.5 -19t-25 -9t-25 0t-22.5 10t-15.5 19t-6.5 24zM778 144q2 16 12 27l388 453q8 10 20 16t25 6q10 0 18.5 -4t14.5 -11t8 -16q4 -9 2 -19l-60 -375h25 q26 0 40.5 -17.5t10.5 -43.5q-2 -13 -8 -24.5t-16 -19.5t-22 -13t-24 -5h-25l-7 -45q-2 -13 -9 -24.5t-17 -20t-22.5 -13.5t-25.5 -5t-23.5 5t-18 13.5t-11 20t-1.5 24.5l8 45h-244q-19 0 -30.5 13.5t-7.5 32.5zM975 221h105l22 146z" />
<glyph unicode="&#xbd;" horiz-adv-x="1292" d="M217.5 43q-0.5 13 4 25t14.5 24l835 969q10 12 22.5 19t25 9.5t25.5 0.5q12 -2 22 -10t15.5 -19.5t6 -24t-3.5 -25.5t-14 -24l-836 -969q-21 -24 -47.5 -29t-46.5 11q-10 8 -16 19t-6.5 24zM257 1016q2 14 9 26t17.5 21t23 14t26.5 5h115q14 0 25 -5t18 -14t10 -21t1 -26 l-74 -476q-2 -14 -10 -25.5t-18 -20.5t-23 -14t-27 -5t-25 5t-19 14t-11 21q-3 11 -1 25l65 410h-45q-14 0 -26 5t-19 14t-10.5 21t-1.5 26zM833 68q-2 -14 1.5 -26.5t11 -22t19 -14.5t25.5 -5h292q14 0 27 5t23 13t17 20t9 26t-1 26t-11 20.5t-19 13.5t-25 5h-150l50 47 q11 9 25.5 21.5t29.5 26.5t29 28q14 12 25 24q16 17 31.5 35t27.5 37.5t21 41.5t13 48q7 43 -4 80.5t-35.5 65.5t-60.5 44.5t-80 16.5q-42 0 -82 -17.5t-72.5 -45.5t-55.5 -62q-24 -34 -32 -66q-3 -12 -1.5 -24.5t6.5 -23t14 -18.5t23 -11q12 -2 25 0.5t25 9.5t22 18t14 25 q6 18 15 33.5t20 27t26 17.5t32 6q16 0 29.5 -6t23 -16t14 -23t2.5 -29q-2 -12 -9.5 -25.5t-18 -27t-22.5 -26.5t-24 -25q-56 -54 -116 -110t-123 -112q-10 -9 -17 -21q-6 -11 -9 -25z" />
<glyph unicode="&#xbe;" horiz-adv-x="1313" d="M192 600q-2 -22 9 -49t34 -50t56 -39t73 -16q45 0 85 15t71.5 41t52.5 62t28 79q6 39 -3.5 74t-31.5 61q27 25 44.5 55.5t23.5 65.5q6 39 -3 73t-31 58.5t-54 39t-72 14.5q-46 0 -81 -14t-61 -37t-44 -53t-28 -62q-4 -12 -3 -24t6.5 -21.5t14.5 -16t22 -8.5q24 -3 45 12 t31 41q5 13 13.5 24t18.5 19.5t22 13t23 4.5q30 0 44.5 -16t9.5 -45q-3 -18 -7.5 -32.5t-13.5 -25.5t-23.5 -18t-37.5 -9q-10 -1 -17 -7.5t-11.5 -16.5t-6 -22t0 -21.5t6.5 -16t14 -6.5q22 0 36 -5.5t21.5 -16t8.5 -26.5t-3 -37q-2 -16 -10 -30.5t-20 -24.5t-27 -16.5 t-33 -6.5t-30 5.5t-19 14.5t-11 20t-4 23q0 13 -6 23.5t-15 17.5t-21 9q-14 3 -26 0q-17 -4 -28 -11t-17.5 -17t-10 -22t-4.5 -26zM322.5 43q-0.5 13 3.5 25t14 24l836 969q10 12 22 19t25 9.5t25 0.5t22 -10t16 -19.5t6 -24t-4 -25.5t-14 -24l-836 -969q-20 -24 -46.5 -29 t-47.5 11q-10 8 -15.5 19t-6 24zM778 144q2 16 12 27l388 453q8 10 20 16t25 6q10 0 18.5 -4t14.5 -11t8 -16q4 -9 2 -19l-60 -375h25q26 0 40.5 -17.5t10.5 -43.5q-2 -13 -8 -24.5t-16 -19.5t-22 -13t-24 -5h-25l-7 -45q-2 -13 -9 -24.5t-17 -20t-22.5 -13.5t-25.5 -5 t-23.5 5t-18 13.5t-11 20t-1.5 24.5l8 45h-244q-19 0 -30.5 13.5t-7.5 32.5zM975 221h105l22 146z" />
<glyph unicode="&#xd7;" horiz-adv-x="794" d="M76 123q2 15 10 29t22 26l244 211l-177 211q-10 12 -13.5 26t-1.5 29t10 29t20 24q14 12 29 18t30 6t28 -6t23 -18l178 -210l244 210q14 12 29 18t30 6t28.5 -6t23.5 -18q9 -10 12 -24t0.5 -29t-10.5 -29t-21 -26l-244 -211l177 -211q10 -12 13.5 -26t1.5 -29t-10 -29 t-20 -24q-14 -12 -29 -18t-30 -6t-29 6q-12 6 -22 18l-178 210l-244 -210q-14 -12 -29 -18t-30 -6t-29 6t-23 18q-9 11 -12 24.5t-1 28.5z" />
<glyph unicode="&#xf7;" horiz-adv-x="805" d="M89 398q3 17 12 32t22 26.5t29 18.5t32 7h592q17 0 31 -7t23.5 -18.5t13.5 -27t1 -31.5q-2 -17 -11.5 -32t-22 -26.5t-28.5 -17.5t-33 -6h-592q-17 0 -30.5 6t-23.5 17.5t-14 26t-1 32.5zM308 150q4 24 16 44t29 35t38 23t43 8q24 0 43 -8t31.5 -23t17.5 -35q6 -20 2 -44 v2q-4 -24 -16 -44.5t-29 -35t-38 -23t-43 -8.5q-24 0 -43 8.5t-31.5 23.5t-17.5 35q-6 20 -2 42zM386 645q4 24 16 44.5t29 35t38 23t43 8.5q24 0 43 -9t31.5 -23.5t18 -34.5t1.5 -42q-4 -24 -16 -44.5t-29 -35t-38 -23t-43 -8.5q-24 0 -43 9t-31 23.5t-18 33.5q-6 20 -2 43 z" />
<glyph unicode="&#xe01;" horiz-adv-x="995" d="M141 90l74 467l-37 47q-15 18 -16.5 39t4 39.5t15.5 34t19 24.5q44 46 92.5 82.5t100.5 61.5t106.5 38t111.5 13q66 0 122.5 -14t103.5 -39.5t81.5 -62t56 -82.5t28.5 -99t-3 -113l-68 -434q-3 -20 -14 -38t-26.5 -32t-35.5 -22t-40 -8t-37 8t-28 22t-16 32t-1 38l68 434 q8 49 -3.5 90.5t-40 71.5t-73.5 47t-103 17q-54 0 -104 -20t-95 -58l41 -54l-84 -530q-3 -20 -14.5 -38t-27 -32t-35 -22t-39.5 -8q-21 0 -37.5 8t-28 22t-16 32t-1.5 38z" />
<glyph unicode="&#xe02;" horiz-adv-x="860" d="M132.5 723q-1.5 17 3.5 35q6 18 20 34q28 32 58 59t64.5 46t73 29t80.5 10q59 0 107.5 -20t81.5 -55t47 -84t4 -107q-6 -40 -18 -70.5t-28.5 -55t-38 -44t-47.5 -37t-56 -34.5t-62 -36q-16 -10 -27.5 -19.5t-19 -20.5t-12.5 -25t-7 -31q-4 -27 3 -50t22.5 -40t39.5 -27 t54 -10t56.5 10t47.5 27t35 40t18 50l86 537q3 20 13.5 38t26.5 31t35 21t39 8t36.5 -8t28 -21t16.5 -31t1 -38l-84 -537q-7 -43 -25.5 -83t-45.5 -74.5t-62 -63t-75.5 -48.5t-85 -31t-90.5 -11t-86.5 11t-74.5 31t-60 48.5t-42.5 63t-22.5 74.5t2 83q9 58 30 99.5 t53.5 74.5t74.5 61t94 56q16 9 27 17.5t19 17.5t12.5 19t6.5 24q6 42 -12.5 66t-60.5 24q-24 0 -52 -16t-56 -48q-14 -16 -31 -26t-35 -14t-36 -1t-32 13t-22 26t-9.5 33z" />
<glyph unicode="&#xe03;" horiz-adv-x="839" d="M141 297q8 54 28 94.5t50.5 74t70.5 61.5q40 29 90 57q14 8 28 16.5t26 19t20.5 23.5t11.5 31q2 10 0 21t-8 24l-124 -91l-166 148q-12 12 -18 28t-5 33t8 34t21 30q14 14 31 22.5t34.5 10.5t34.5 -2q16 -4 28 -16l64 -58l112 80q104 -42 149 -110t31 -156 q-6 -39 -18 -68.5t-28 -52t-37 -40t-45 -33.5t-52 -31t-58 -33q-20 -12 -33.5 -23.5t-23 -25t-15.5 -30.5t-10 -38q-4 -26 2 -48.5t22 -40.5t39 -28t53 -10t57 10t48 28t35 41t18 48l85 537q3 20 14 38t26.5 31t34.5 21t39 8t36.5 -8t28 -21t16.5 -31t2 -38l-85 -537 q-7 -43 -25 -83t-45 -74t-62 -62t-75.5 -48t-85 -31t-90.5 -11q-68 0 -125 24t-96 66t-57 98t-7 121z" />
<glyph unicode="&#xe04;" horiz-adv-x="962" d="M92 90l74 467q8 52 30 99.5t55 89.5t75.5 76t91 58.5t102.5 38t109 13.5t104 -13.5t90 -38t73 -58.5t51.5 -76t26 -90t-1.5 -99l-73 -465q-3 -20 -14 -38t-27 -32t-35 -22t-40 -8t-37.5 8t-28 22t-15.5 32t-2 38l74 465q6 39 -4.5 74t-34 61t-58.5 41t-77 15 q-44 0 -84 -15t-71.5 -41t-53 -61t-27.5 -74h130q19 0 34.5 -7.5t26 -19.5t15 -29t1.5 -36q-3 -20 -13 -36.5t-24 -28.5t-32 -18.5t-38 -6.5h-128l-46 -285q-3 -20 -13.5 -38t-26.5 -32t-35.5 -22t-40.5 -8q-20 0 -37 8t-28 22t-15.5 32t-1.5 38z" />
<glyph unicode="&#xe05;" horiz-adv-x="1007" d="M92 90l78 492q10 59 36.5 113t70 101.5t102.5 87.5t135 70l122 -120l162 118q64 -30 110 -69t75 -86.5t39 -102t0 -112.5l-78 -490q-3 -20 -13.5 -38t-26.5 -32t-36 -22t-40 -8q-21 0 -37.5 8t-27.5 22t-16 32t-1 38l77 490q6 42 -4.5 79t-36.5 66l-187 -139l-140 139 q-34 -30 -57 -67.5t-30 -79.5l-4 -23h144q19 0 34.5 -7.5t26.5 -19.5t15 -29t2 -36q-3 -20 -13.5 -36.5t-24.5 -28.5t-32 -18.5t-37 -6.5h-143l-46 -285q-3 -20 -13.5 -38t-26.5 -32t-35.5 -22t-40.5 -8q-20 0 -37 8t-28 22t-15.5 32t-1.5 38z" />
<glyph unicode="&#xe06;" horiz-adv-x="968" d="M98 88l46 293q8 48 25 84.5t40 65.5t49 52t51 41t46 34t35 32q3 4 5.5 11t4.5 15t3 16t-1 14l-90 -72l-134 118q-12 10 -16.5 25t-4 30t7.5 30t19 28q12 12 27.5 20t31 9.5t29.5 -2.5t26 -14l50 -42l94 68q87 -36 124 -92q36 -56 24 -133q-6 -40 -25.5 -71.5t-45 -56.5 t-54.5 -47t-54.5 -44t-44 -46t-22.5 -54q-8 -46 5 -88t41.5 -73.5t68 -50t85.5 -18.5q36 0 70 10t60.5 30.5t45 50t24.5 69.5l80 502q3 20 13.5 38t25.5 32t34.5 22t40.5 8t38 -8t28.5 -22t16.5 -32t1 -38l-79 -502q-8 -54 -30 -101t-53.5 -85t-70.5 -68t-83 -50.5t-90 -31 t-90 -10.5q-34 0 -67 6t-62 19t-55 34t-47 51l-1 -6q-3 -19 -13.5 -36.5t-26.5 -31.5t-35 -22t-39 -8q-21 0 -37.5 8t-27.5 22t-16 31.5t-1 36.5z" />
<glyph unicode="&#xe07;" horiz-adv-x="813" d="M147.5 631q1.5 19 10 37t24 33t35.5 24q19 9 38.5 10t36 -5t29.5 -19t20 -31l164 -490q9 -16 29 -16q14 0 24 9t12 22l85 533h-43q-19 0 -34.5 7t-26.5 19t-15 29t-2 37q3 19 13 35.5t24.5 29t32.5 20t37 7.5h147q19 0 35 -7.5t26.5 -20t15 -29.5t1.5 -35l-99 -625 q-7 -44 -31 -84t-60 -69.5t-80.5 -46.5t-91.5 -17q-36 0 -67 9t-55 26t-42 41q-17 22 -27 50l-161 480q-6 18 -4.5 37z" />
<glyph unicode="&#xe08;" horiz-adv-x="893" d="M134 594.5q0 19.5 9 38.5q28 64 71 119.5t98 95.5t120.5 63t137.5 23q54 0 102.5 -13t88.5 -36.5t70.5 -57t49.5 -73.5t25.5 -87t-1.5 -97q-11 -68 -45 -126l-214 -388q-16 -28 -44 -46t-61 -18q-32 0 -52.5 17.5t-26.5 43.5l-86 401q-4 18 0.5 37.5t15 36t26.5 29.5 t36 21q20 7 39 5.5t34.5 -8.5t27 -21t15.5 -34l34 -162l80 148q9 17 14.5 32.5t7.5 31.5q6 36 -4 68t-32.5 56.5t-56 39t-73.5 14.5q-34 0 -60.5 -9t-48 -23t-38.5 -32t-30 -36.5t-22 -36t-16 -31.5q-8 -19 -23.5 -34.5t-33.5 -24.5t-38 -12t-38 3t-31.5 18t-20 28.5 t-6.5 36z" />
<glyph unicode="&#xe09;" horiz-adv-x="932" d="M74 465q3 18 12.5 34.5t23.5 28.5t32 20q18 7 36 7h106q18 0 33.5 -7.5t26 -19.5t15 -28t1.5 -35l-22 -139q-6 -41 5 -71.5t34 -49.5t54.5 -27t66.5 -5t70.5 16t65 37t51 58t27.5 78l34 208q6 36 -4.5 68.5t-33 57t-55.5 38.5t-74 14q-30 0 -58.5 -7t-54.5 -20.5 t-48 -32.5t-38 -43q-12 -18 -28 -30.5t-34 -18.5t-36 -6q-20 1 -36 10t-26 23t-14 31t0 35.5t16 37.5q30 42 70 79.5t88 66t106 45.5q56 16 122 16q54 0 102 -13t88 -36.5t70 -57t49 -73.5t26 -87t-1 -97l-76 -482q-3 -20 -13.5 -37.5t-26.5 -31t-35 -21.5t-39 -8 q-19 -1 -35.5 6.5t-28.5 20.5t-17 29.5t-3 33.5q-56 -50 -116 -71t-120 -21q-43 2 -83.5 13.5t-75 32.5t-62.5 51t-46 67.5t-25 81.5q-6 46 2 96l7 45q-18 0 -33.5 7t-25.5 19.5t-15 28.5t-1 35z" />
<glyph unicode="&#xe0a;" horiz-adv-x="878" d="M135.5 719.5q-1.5 18.5 4.5 37.5t20 35q29 34 61.5 61.5t67.5 47t74 30.5t81 11t79.5 -11t67.5 -31t52.5 -47t34.5 -61l212 189q16 14 35 21t38 6.5t36 -7.5t29 -20q12 -14 15.5 -31.5t0.5 -35.5t-12.5 -36t-25.5 -32l-152 -136q18 -30 24 -66q7 -34 0 -76l-42 -267 q-7 -44 -25.5 -84t-45.5 -74.5t-62 -63.5t-75 -49t-85 -31t-91 -11t-86 11t-74 31t-60 49t-42.5 63.5t-22 75t0.5 83.5q6 42 19 75t30 59t40 47t49.5 39.5t57.5 35.5t66 37q16 9 27.5 17.5t19 17.5t11.5 19q5 12 7 24q7 42 -15 65t-67 23q-12 0 -24 -4t-24.5 -13t-25.5 -23 t-27 -34q-13 -18 -31.5 -29t-37.5 -14t-38 0t-35 15q-15 10 -24 26.5t-10.5 35zM365 301q-4 -27 3 -50t23 -40t39.5 -27t51.5 -10t55 10t48 27t35 40q16 23 20 50l42 267q2 12 1 24q-1 10 -6 24q-14 -42 -36 -70.5t-51.5 -51.5t-64.5 -43q-35 -19 -73 -43q-17 -10 -31.5 -20 t-26 -22.5t-19 -28t-10.5 -36.5z" />
<glyph unicode="&#xe0b;" horiz-adv-x="874" d="M154 841q1 17 8 35q8 18 22 32t31.5 22.5t35 10.5t34 -2.5t29.5 -14.5l76 -62l114 84q67 -27 110 -65q42 -39 61 -87l205 187q16 14 35 21t38 7t36 -7.5t28 -20.5q12 -14 15.5 -31t0.5 -35.5t-13 -36.5q-8 -18 -24 -32l-146 -136q15 -30 23 -66q8 -34 1 -76l-42 -269 q-7 -43 -25.5 -83t-45.5 -74.5t-62.5 -63t-76 -48.5t-85.5 -31t-91 -11q-69 0 -125.5 24t-95.5 66.5t-56 99t-7 121.5q8 52 25.5 90.5t41 67.5t51 50.5t55.5 38.5t54.5 31.5t47.5 29t35 32t18 39.5q2 14 1 25t-4 20l-129 -95l-179 152q-14 12 -20 28t-5 33zM358 299 q-4 -26 3.5 -48.5t23 -40.5t39.5 -28t52 -10q30 0 56.5 10t47.5 27.5t34.5 41t18.5 50.5l41 264q2 12 2 24.5t-6 26.5q-14 -39 -36 -67.5t-51 -51.5t-63 -42.5t-72 -42.5q-18 -12 -33 -23t-26.5 -24t-19 -29t-11.5 -37z" />
<glyph unicode="&#xe0c;" horiz-adv-x="1569" d="M142 99l74 468l-42 55q-12 15 -13 32t4 32.5t13 28.5t16 21q40 44 89 81t103.5 63t113 41t116.5 15q66 0 124.5 -14t106 -39t83.5 -61.5t58 -82t30 -97.5q8 -53 -2 -112l-19 -118q-9 -58 3 -102t38 -74.5t62 -46t72 -15.5q28 0 56 9t50.5 29t39 49.5t22.5 70.5l79 498 q4 22 14.5 40t26 32t35 22t41.5 8t39 -8t29 -22t17 -32t1 -40l-78 -498q-8 -52 -28 -97.5t-49 -84t-65 -68.5t-76 -51t-83 -32t-86 -11q-60 0 -113 23.5t-98 78.5q-3 -20 -14 -38.5t-26.5 -32t-35.5 -21.5t-40 -8q-21 0 -38.5 8t-28.5 21.5t-16 32t-2 38.5l69 436 q8 49 -4 90.5t-42 71.5t-75.5 47t-104.5 17q-54 0 -106 -20t-100 -60l42 -50l-70 -438h52q19 0 34.5 -7t26.5 -19.5t15 -29t2 -36.5q-3 -19 -13.5 -35.5t-24.5 -29.5t-32 -20t-37 -7h-151q-20 0 -37 8t-28 21t-16 31t-3 39z" />
<glyph unicode="&#xe0d;" horiz-adv-x="1558" d="M142 99l74 468l-42 55q-12 15 -13 32t4 32.5t13 28.5t16 21q40 44 89 81t103.5 63t113 41t116.5 15q66 0 125 -14t106 -39t83.5 -61.5t59 -82t30.5 -97.5q8 -53 -2 -112l-32 -198q-6 -33 3 -62.5t29 -51t50 -34t67 -12.5q38 0 71.5 12t59.5 33t44 51q16 30 22 64l80 500 q3 21 13.5 39t26 31.5t35 21.5t41.5 8q20 0 37 -8t28.5 -21.5t16.5 -32t2 -38.5l-132 -834q-8 -49 -28.5 -94.5t-52 -84.5t-71 -71.5t-86 -56t-97.5 -35.5t-104 -12q-55 0 -101 13t-83 37t-66 58t-51 74q-8 17 -9 36.5t6 37.5t20 34t31 27q18 12 38 15.5t38 -0.5t32 -14 q16 -10 24 -28q14 -26 29 -45t33 -33t39.5 -21t48.5 -7q38 0 73 12.5t64 35t48.5 53t25.5 67.5l7 43q-40 -30 -87 -41.5t-95 -11.5q-52 0 -98.5 12t-84.5 35t-67 55t-47.5 70.5t-24.5 82.5t2 91l30 196q8 49 -4 90t-41.5 70.5t-76 45.5t-106.5 16q-54 0 -106.5 -20 t-96.5 -56l43 -50l-70 -440h52q19 0 34.5 -7t26.5 -19.5t15 -29t2 -36.5q-3 -19 -13.5 -35.5t-24.5 -29.5t-32 -20t-37 -7h-155q-20 0 -37 8t-28 21t-16 31t-3 39z" />
<glyph unicode="&#xe0e;" horiz-adv-x="1009" d="M4 -305q0 17 7 33t19 30.5t30 24.5q43 26 84.5 45.5t84 32.5t86 20t89.5 7q64 0 122 -13t112 -39l79 66l99 624q8 49 -3.5 90.5t-40 70.5t-73.5 46t-103 17q-26 0 -52 -6t-52 -16t-50 -24t-45 -32l41 -52l-82 -521q-3 -20 -14 -38.5t-26.5 -31.5t-34.5 -21t-40 -8h-118 q-20 0 -35.5 7t-26 20t-15 29.5t-1.5 35.5q3 20 13 37t24.5 30t32.5 20q17 7 37 7h19l60 380l-43 55q-12 15 -12.5 32t4 32.5t12.5 28.5t16 21q40 44 88 80.5t101 62.5t110 41t116 15q100 0 179 -30t131 -84t75 -128q22 -76 8 -164l-110 -694l-280 -225q-38 30 -70 50 t-62 32t-59 17.5t-59 5.5t-59 -5t-59 -15t-61 -25t-65 -33q-17 -10 -34.5 -13t-34 0t-30 13t-21.5 26t-8 33z" />
<glyph unicode="&#xe0f;" horiz-adv-x="1009" d="M45 92q3 20 13 37t24.5 30t32.5 20q17 7 37 7h19l60 380l-43 55q-12 15 -12.5 32t4 32.5t12.5 28.5t16 21q40 44 88 80.5t101 62.5t110 41t116 15q100 0 179 -30t131 -84t75 -128q22 -76 8 -164l-110 -690l-304 -236l-136 144l-183 -144l-197 206q-12 12 -16 26.5 t-2.5 31t9 32.5t19.5 28q14 13 31 20.5t33 8.5t32 -3q16 -6 27 -16l107 -106l174 137l132 -137l86 64l100 632q8 49 -4 90t-41 70.5t-74 45.5t-104 16q-26 0 -51.5 -5.5t-51.5 -15t-50 -23.5t-45 -32l41 -52l-82 -521q-3 -20 -14 -38.5t-26.5 -31.5t-34.5 -21t-40 -8h-118 q-20 0 -35.5 7t-26 20t-15 29.5t-1.5 35.5z" />
<glyph unicode="&#xe10;" horiz-adv-x="893" d="M60 -142q2 16 9 31.5t21 28.5t30 20.5t32 8.5t31 -3q15 -6 27 -16l104 -104l189 146l137 -140l8 49q3 20 12.5 36.5t24.5 29t33 20t37 7.5t35 -7.5t26 -20t15 -29.5t1 -36l-18 -119l-208 -160l-140 150l-190 -150l-197 202q-12 12 -16.5 26t-2.5 30zM134 594.5 q0 19.5 9 38.5q11 26 24 50.5t30.5 49.5t40.5 49q22 26 51 50q62 50 133.5 76t147.5 26q42 0 79 -7.5t69 -21.5l22 -10l84 78q17 16 36.5 23.5t38 8.5t36 -5t29.5 -19q14 -14 19 -32t3 -37t-11 -37.5t-25 -32.5l-79 -74q26 -41 34.5 -92.5t-0.5 -105.5q-11 -68 -45 -126 l-214 -388q-16 -28 -44 -46t-61 -18q-32 0 -52.5 17.5t-26.5 43.5l-86 401q-4 18 0.5 37.5t15 36t26.5 29.5t36 21q20 7 38.5 5.5t34.5 -8.5t27.5 -21t15.5 -34l34 -162l80 148q9 17 14.5 32.5t7.5 31.5q6 36 -4 68t-32.5 56.5t-56 39t-73.5 14.5q-34 0 -61 -9t-48 -23 t-38 -32t-30 -36t-22 -36l-16 -32q-9 -19 -24 -34.5t-33 -24.5t-38 -12t-38 3t-31.5 18t-20 28.5t-6.5 36z" />
<glyph unicode="&#xe11;" horiz-adv-x="975" d="M120 854q2 14 9 28t21 26q12 12 27 17.5t29 6t27 -4.5t21 -15l34 -38l98 68q84 -37 118 -92.5t24 -127.5q-6 -33 -21 -63.5t-34 -59.5t-41 -58t-40 -59q-20 -32 -26 -86l422 534q62 -7 108.5 -31t75 -61.5t39 -85.5t1.5 -103l-89 -561q-3 -20 -14 -38t-26.5 -31.5 t-35 -21t-40.5 -7.5t-38 7.5t-28 21t-15.5 31.5t-1.5 38l90 570q2 14 2 25q2 11 -2 19l-525 -665q-15 -19 -37 -30.5t-47 -11.5q-19 0 -34.5 7t-26 19.5t-15 29.5t-1.5 35l45 286q6 36 16.5 68t23.5 60t28 52t29 46q17 26 33.5 48t28.5 40.5t19 34t5 29.5l-102 -84l-119 137 q-9 10 -13 23.5t-2 27.5z" />
<glyph unicode="&#xe12;" horiz-adv-x="1591" d="M114 330q-2 58 8 118q15 96 52.5 175.5t92.5 142t126.5 107t155.5 71.5l115 -102l149 102q64 -24 112.5 -57t79.5 -76t43 -97q10 -54 0 -118l-30 -190q-9 -56 4 -100t38.5 -73.5t61.5 -45t72 -15.5q28 -1 56 8.5t50.5 29t39.5 49.5q16 31 22 71l80 500q4 22 14 40t26 32 t36 22q18 8 40 8t39.5 -8t29 -22t16.5 -32t1 -40l-78 -500q-8 -52 -28 -98t-47.5 -84t-62 -67t-73.5 -49.5t-81 -31t-84 -10.5q-28 0 -58 5t-58 17t-55 31t-51 47q-3 -20 -13.5 -38.5t-26.5 -32t-35.5 -21.5t-40.5 -8t-38 8t-28.5 21.5t-16.5 32t-1 38.5l79 502 q6 42 -7.5 77t-38.5 58l-173 -115l-138 117q-28 -18 -54 -43.5t-48 -60t-39 -78.5q-17 -45 -26 -99q-10 -64 -3.5 -115t27.5 -87t54 -55t75 -19q17 0 30.5 6t32.5 18q17 12 36 18t36 5t33 -8t26 -23q10 -14 13.5 -31.5t-1 -36t-15 -35t-27.5 -29.5q-18 -13 -39 -26 t-45 -22.5t-52 -15.5t-58 -6q-67 0 -120 17t-92.5 48t-65.5 74.5t-39 95t-15 109.5z" />
<glyph unicode="&#xe13;" horiz-adv-x="1558" d="M142 99l74 467l-42 56q-12 15 -13 31.5t4 32.5t13 29t15 21q40 44 89.5 80t104 62.5t113 41t116.5 14.5q66 0 124.5 -13.5t106 -39t83.5 -61.5t58 -81t30 -98t-2 -112l-32 -199q-6 -40 1 -70t23 -50t40 -30q26 -10 54 -10q36 0 74.5 14t72 41t58.5 66t33 90l72 451 q3 21 13.5 39t26 31.5t35 21.5t41.5 8q20 0 37 -8t28.5 -21.5t16.5 -32t2 -38.5l-118 -742q-3 -20 -13.5 -38.5t-26.5 -32t-36 -21.5t-40 -8q-21 0 -37.5 8t-28 21.5t-16.5 32t-2 38.5q-32 -32 -63 -52t-62 -31.5t-61 -16t-60 -2.5q-64 2 -117 27t-89.5 70t-52.5 107t-4 138 l31 196q8 49 -4 90.5t-42 70.5t-76 46t-106 17q-54 0 -107 -21t-97 -57l40 -50l-70 -438h54q19 0 34.5 -7t26.5 -19.5t15 -29t2 -36.5q-3 -19 -13.5 -35.5t-24.5 -29.5t-32 -20t-37 -7h-153q-20 0 -37 8t-28 21t-16 31t-3 39z" />
<glyph unicode="&#xe14;" horiz-adv-x="1011" d="M113 324q-2 56 8 118q14 86 43.5 156t71 124t92.5 94t107.5 66t115.5 39t117 13q51 0 99.5 -11t91.5 -32t77.5 -52t57 -71t31.5 -89t-1 -107l-76 -482q-3 -20 -14 -38.5t-26.5 -32t-35.5 -21.5t-40 -8q-22 0 -39 8t-28.5 21.5t-16 32t-1.5 38.5l75 478q7 45 -7.5 80.5 t-44.5 59t-72 35t-87 7.5t-91.5 -23t-86 -56.5t-69.5 -94t-42 -134.5q-10 -62 -3 -111.5t28 -84.5t54 -53.5t75 -18.5q19 0 34.5 4t23.5 10q18 10 36 14t35 1t31 -12t21 -25q8 -16 8.5 -33t-5.5 -34t-18.5 -33t-29.5 -27q-14 -9 -30 -18t-36 -16t-45 -11t-55 -4 q-66 0 -118 16.5t-92 46t-66 71.5t-40.5 92t-16.5 108z" />
<glyph unicode="&#xe15;" horiz-adv-x="1018" d="M116 328.5q-2 57.5 8 117.5q15 96 51 175.5t89.5 142t123.5 107t154 71.5l116 -100l144 100q62 -24 110 -57t78 -76t42 -97t2 -118l-80 -506q-3 -20 -14 -38t-26.5 -31t-35.5 -21t-40 -8t-37 8t-28 21t-16 31t-2 38l79 502q7 42 -4.5 76t-37.5 57l-174 -117l-136 121 q-27 -18 -52.5 -44.5t-47 -61.5t-38 -79t-24.5 -96q-10 -62 -2.5 -112t28 -85t52.5 -54t72 -19q23 0 39 7t28 15q18 11 37 14.5t36.5 0.5t31.5 -12q12 -9 20 -25t8.5 -33t-6 -34t-18.5 -32t-28 -28q-15 -12 -33 -22t-39.5 -18t-47.5 -12.5t-57 -4.5q-64 0 -115 17t-89.5 47 t-64.5 72t-40 92.5t-16 108z" />
<glyph unicode="&#xe16;" horiz-adv-x="995" d="M142 99l73 458l-37 47q-15 18 -16.5 39t4 39.5t15.5 34t19 24.5q44 46 92.5 82.5t100.5 61.5t106.5 38t111.5 13q66 0 122.5 -14t103.5 -39.5t81.5 -62t56 -82.5t28.5 -99t-3 -113l-68 -436q-3 -20 -14.5 -38t-27 -32t-35 -22t-40.5 -8q-20 0 -37 8t-28 22t-15.5 32 t-1.5 38l71 436q8 49 -4 90.5t-41 71.5t-74 47t-103 17q-26 0 -52 -6t-52 -16t-50 -24t-45 -32l41 -52l-70 -438h50q19 0 34.5 -7t26.5 -19.5t15 -29t2 -36.5q-3 -19 -13.5 -35.5t-24.5 -29.5t-32 -20t-37 -7h-149q-20 0 -37 8t-28 21t-16 31t-3 39z" />
<glyph unicode="&#xe17;" horiz-adv-x="962" d="M92 88l118 748q4 21 14 38.5t25.5 31t34.5 20.5q20 8 40 8q21 0 37.5 -7.5t28.5 -21t17 -31t1 -38.5q66 51 128 76q62 26 126 26q46 0 90.5 -10t83 -29t68.5 -48t50 -67.5t26.5 -86.5t-2.5 -105l-80 -504q-3 -20 -13.5 -38t-26.5 -31.5t-36 -20.5q-20 -8 -40 -8 q-21 0 -37.5 7.5t-27.5 21t-16 31.5t-1 38l80 504q6 39 -3 69.5t-29 50.5t-50.5 31t-66.5 11q-31 0 -61.5 -9t-59 -24t-54 -36t-45.5 -46t-33.5 -54t-17.5 -59l-70 -438q-3 -20 -13.5 -38t-26.5 -31.5t-35.5 -21t-40.5 -7.5q-20 0 -37 7.5t-28 21t-16 31.5t-1 38z" />
<glyph unicode="&#xe18;" horiz-adv-x="932" d="M127 220q-7 46 1 98l12 80q3 20 14 37.5t26.5 31t34.5 21.5t39 8t37 -8t28 -21.5t16 -31t2 -37.5l-12 -78q-4 -34 4.5 -62t29.5 -47t55 -30t80 -11q44 0 80.5 11t64.5 30t45.5 46t23.5 61q5 33 -9.5 56.5t-42.5 40t-64.5 28.5t-75.5 22q-45 12 -89.5 23.5t-84.5 25.5 t-74 32t-57 42t-33 54t-4 70q7 44 30 80t56.5 63t76 46t88 31t91.5 17q48 5 90 5q28 0 59 -2t63 -8t63.5 -15t59 -22.5t49.5 -32t36 -42.5q16 -29 15 -55.5t-15 -46.5t-36 -33.5t-47 -16t-50 6.5t-43 32q-8 10 -26 20.5t-43 20t-55 16t-62 6.5q-34 0 -67.5 -2.5t-61.5 -10 t-47 -21t-23 -33.5q-2 -12 9.5 -22.5t31.5 -19.5t45 -17t48.5 -13.5t43 -10t27.5 -6.5q38 -9 79.5 -21t80 -29t72.5 -40t57 -54.5t33 -71.5t2 -92t-30 -97.5t-54 -82.5t-72.5 -65.5t-87 -48.5t-96.5 -30t-100 -10q-52 0 -99 10t-87 30t-71.5 48.5t-52 65.5t-27.5 82z" />
<glyph unicode="&#xe19;" horiz-adv-x="962" d="M128.5 229q-6.5 47 1.5 101l80 502q3 21 13.5 39t25.5 31.5t35 21.5t40 8q21 0 37.5 -8t28 -21.5t16.5 -32t2 -38.5l-80 -502q-6 -39 3 -69t29.5 -50.5t50.5 -30.5t66 -10q28 0 58.5 10t59.5 27t55 40t47 51t36 59t19 63l66 412q3 21 13.5 39t25.5 31.5t34.5 21.5t40.5 8 q20 0 37 -8t28.5 -21.5t16.5 -32t2 -38.5l-118 -742q-3 -20 -13.5 -38.5t-26.5 -32t-36 -21.5t-40 -8q-21 0 -37.5 8t-27.5 21.5t-15.5 32t-1.5 38.5l2 14q-30 -30 -62 -52.5t-66 -37.5t-69 -22.5t-67 -7.5q-46 0 -89 10.5t-80 31t-66.5 50.5t-48.5 68t-25.5 85z" />
<glyph unicode="&#xe1a;" horiz-adv-x="962" d="M133 262q-7 48 2 100l75 470q3 21 13.5 39t25.5 31.5t35 21.5t40 8q21 0 37.5 -8t28 -21.5t16.5 -32t2 -38.5l-74 -470q-6 -38 4 -72t33.5 -60t58.5 -41t79 -15q42 0 81.5 15t71.5 41t53.5 60t27.5 72l75 470q3 21 13.5 39t25.5 31.5t34.5 21.5t40.5 8q20 0 37 -8 t28.5 -21.5t16.5 -32t2 -38.5l-74 -470q-8 -52 -30.5 -100t-55.5 -90t-75.5 -76t-90.5 -58t-102 -37t-108 -13q-56 0 -105 13t-90 37t-73 58t-52 76t-27 90z" />
<glyph unicode="&#xe1b;" horiz-adv-x="962" d="M133 262q-7 48 2 100l75 470q3 21 13.5 39t25.5 31.5t35 21.5t40 8q21 0 37.5 -8t28 -21.5t16.5 -32t2 -38.5l-74 -470q-6 -38 4 -72t33.5 -60t58.5 -41t79 -15q42 0 81.5 15t71.5 41t53.5 60t27.5 72l139 881q4 21 14.5 39t26 32t34.5 22t40 8q20 0 37.5 -8t28.5 -22 t16 -32t2 -39l-139 -881q-8 -52 -30.5 -100t-55.5 -90t-75.5 -76t-90.5 -58t-102 -37t-108 -13q-56 0 -105 13t-90 37t-73 58t-52 76t-27 90z" />
<glyph unicode="&#xe1c;" horiz-adv-x="1079" d="M118 252l48 305q13 80 57 147.5t114 119.5q35 26 71 43.5t70 29.5t66 19q34 6 62 10q18 2 34 -3t28 -16t19 -27t7 -34t-8 -36t-21 -32t-30.5 -23t-35.5 -11q-46 -6 -86.5 -22t-71.5 -40t-51 -56t-26 -69l-48 -305q-2 -16 2 -29.5t13 -24t23 -16.5t32 -6t34 6t28.5 16.5 t21 24t10.5 29.5l41 258q3 20 13.5 38.5t26 32t34.5 21.5t40 8t38 -8t28 -21.5t16 -32t3 -38.5l-42 -258q-2 -16 2 -29.5t13.5 -24t23.5 -16.5q13 -6 31 -6t34 6t29 16.5t21 24t10 29.5l92 580q3 21 13.5 39t26.5 31.5t35 21.5t39 8q21 0 38.5 -8t28.5 -21.5t16 -32t2 -38.5 l-92 -580q-8 -54 -38 -102t-73.5 -83t-97.5 -55t-112 -20q-106 0 -174 61q-84 -61 -189 -61q-58 0 -105.5 20t-80.5 55t-47 83t-6 102z" />
<glyph unicode="&#xe1d;" horiz-adv-x="1079" d="M118 252l48 305q13 80 57 147.5t114 119.5q35 26 71 43.5t70 29.5t66 19q34 6 62 10q18 2 34 -3t28 -16t19 -27t7 -34t-8 -36t-21 -32t-30.5 -23t-35.5 -11q-46 -6 -86.5 -22t-71.5 -40t-51 -56t-26 -69l-48 -305q-2 -16 2 -29.5t13 -24t23 -16.5t32 -6t34 6t28.5 16.5 t21 24t10.5 29.5l41 258q3 20 13.5 38.5t26 32t34.5 21.5t40 8t38 -8t28 -21.5t16 -32t3 -38.5l-42 -258q-2 -16 2 -29.5t13.5 -24t23.5 -16.5q13 -6 31 -6t34 6t29 16.5t21 24t10 29.5l158 991q4 21 14 39t25 32t35 22t40 8q21 0 37.5 -8t28.5 -22t17 -32t1 -39l-157 -991 q-8 -54 -38 -102t-73.5 -83t-97.5 -55t-112 -20q-106 0 -174 61q-84 -61 -189 -61q-58 0 -105.5 20t-80.5 55t-47 83t-6 102z" />
<glyph unicode="&#xe1e;" horiz-adv-x="1116" d="M119 260l91 572q3 21 13.5 39t25.5 31.5t35 21.5t40 8q21 0 37.5 -8t28 -21.5t16.5 -32t2 -38.5l-90 -572q-3 -18 1 -33t14.5 -26.5t26.5 -18t36 -6.5t37 6.5t31 18t23.5 26.5t12.5 33l90 572q3 21 13.5 39t26.5 31.5t35 21.5t39 8q21 0 38.5 -8t28.5 -21.5t16 -32 t2 -38.5l-91 -572q-3 -18 1.5 -33t14.5 -26.5t26 -18t37 -6.5q20 0 37.5 6.5t31.5 18t24 26.5t12 33l92 574q3 20 13.5 38t25.5 31t34 21t41 8q20 0 36.5 -8t28 -21t16.5 -31t1 -38l-90 -574q-6 -38 -22 -73t-40 -65t-54.5 -54.5t-65 -42t-72.5 -26.5t-78 -9q-110 0 -180 68 q-92 -68 -202 -68q-60 0 -109 20.5t-83 57t-49 85.5t-6 107z" />
<glyph unicode="&#xe1f;" horiz-adv-x="1116" d="M119 260l91 572q3 21 13.5 39t25.5 31.5t35 21.5t40 8q21 0 37.5 -8t28 -21.5t16.5 -32t2 -38.5l-90 -572q-3 -18 1 -33t14.5 -26.5t26.5 -18t36 -6.5t37 6.5t31 18t23.5 26.5t12.5 33l90 572q3 21 13.5 39t26.5 31.5t35 21.5t39 8q21 0 38.5 -8t28.5 -21.5t16 -32 t2 -38.5l-91 -572q-3 -18 1.5 -33t14.5 -26.5t26 -18t37 -6.5q20 0 37.5 6.5t31.5 18t24 26.5t12 33l156 985q3 20 13.5 38t26 31.5t35 21.5t39.5 8t37 -8t28 -21.5t16 -31.5t3 -38l-156 -985q-6 -38 -22 -73t-40 -65t-54.5 -54.5t-65 -42t-72.5 -26.5t-78 -9 q-110 0 -180 68q-92 -68 -202 -68q-60 0 -109 20.5t-83 57t-49 85.5t-6 107z" />
<glyph unicode="&#xe20;" horiz-adv-x="1009" d="M54 92q3 20 12.5 36.5t24 29t32.5 19.5t37 7h10l61 382l-43 55q-12 15 -12.5 32t4 32.5t12.5 28.5t16 21q40 44 88 80.5t101 62.5t110 41t116 15q100 0 179 -30t131 -84t75 -128q22 -76 8 -164l-70 -438q-3 -20 -14 -38t-26.5 -32t-35.5 -22t-40 -8t-36.5 8t-27.5 22 t-15.5 32t-1.5 38l69 436q8 49 -4 90.5t-41 71.5t-74 47t-103 17q-51 0 -102.5 -21t-95.5 -57l40 -52l-82 -523q-3 -20 -14 -38.5t-26.5 -31.5t-34.5 -21t-40 -8h-110q-19 0 -35 7t-26 20t-15 29.5t-1 35.5z" />
<glyph unicode="&#xe21;" horiz-adv-x="962" d="M92 90l118 742q3 21 13.5 39t26.5 31.5t36 21.5t40 8q21 0 37.5 -8t27.5 -21.5t15.5 -32t1.5 -38.5l-65 -412q-5 -30 0 -60t17 -58t31 -52t42 -42t50 -28t55 -10q36 0 70 10t60.5 30.5t45 50t24.5 69.5l80 502q3 21 13.5 39t26.5 31.5t35.5 21.5t40.5 8q20 0 37 -8 t28 -21.5t15.5 -32t1.5 -38.5l-80 -502q-8 -54 -29.5 -101t-53 -85t-70.5 -68t-82.5 -50.5t-90 -31t-91.5 -10.5q-33 0 -65 7.5t-61 22.5t-55 37.5t-45 52.5l-3 -14q-3 -20 -13.5 -38.5t-25.5 -32t-34.5 -21.5t-40.5 -8q-20 0 -37 8t-28.5 21.5t-16.5 32t-2 38.5z" />
<glyph unicode="&#xe22;" horiz-adv-x="927" d="M123 364l135 118q-20 22 -36 43t-26 45.5t-14 53.5q-4 28 2 64q8 52 35.5 97t67 78t88.5 52t100 19q27 0 48.5 -5t39 -13t32.5 -19t29 -23t20 -27.5t6 -33.5t-7 -36q-7 -17 -21 -33t-31 -24.5t-35 -10t-35 2.5t-31 15q-12 8 -23 14.5t-21 6.5q-14 0 -27 -5t-22.5 -13 t-16 -19t-8.5 -23q-4 -22 18 -47l136 -162l-210 -180q7 -28 21.5 -51t36 -40t49 -26.5t61.5 -9.5q42 0 81 15.5t70.5 42t52.5 61.5q22 35 28 75l74 470q3 20 13.5 37t25.5 30.5t33 21t37 7.5q21 0 37 -7.5t27 -21t15.5 -30.5t1.5 -37l-74 -470q-8 -52 -30 -101t-54 -91 t-73.5 -76t-89 -59t-99.5 -38t-106 -13q-76 0 -140 27t-109 77t-67 120q-22 68 -15 152z" />
<glyph unicode="&#xe23;" horiz-adv-x="878" d="M109 167q1 27 13.5 48t34 34t47 16t51 -7.5t46.5 -36.5q9 -12 27 -21.5t41 -16.5t47 -11t46 -4q41 0 73.5 9t55.5 22.5t36 30t16 30.5q4 28 -7 47t-30.5 31.5t-43 21t-44.5 15.5l-84 24t-80 27.5t-70.5 36.5t-54 51t-29.5 72t0 100q8 50 30 88t53 66.5t69 48t79 31.5 t82 17t79 5q42 0 84 -6t80.5 -20t71 -37.5t53.5 -59.5q16 -28 15.5 -54.5t-13.5 -47.5t-35 -34.5t-47 -16t-50 8.5t-45 37q-10 13 -21.5 23.5t-28 17.5t-39.5 11t-53 4q-32 0 -60 -7t-50 -19t-36 -26t-16 -30q-4 -27 7 -45.5t31 -31.5t45 -21t46 -14q41 -12 83 -24 t80.5 -27.5t71 -36t53.5 -51t29.5 -72t-0.5 -99.5q-8 -48 -28.5 -87t-51 -69t-69.5 -52t-82 -37t-89 -22t-90 -7q-40 0 -85 6t-88 20t-80 38q-37 22 -59 58q-18 28 -17 55z" />
<glyph unicode="&#xe24;" horiz-adv-x="995" d="M142 99l73 458l-37 47q-15 18 -16.5 39t4 39.5t15.5 34t19 24.5q44 46 92.5 82.5t100.5 61.5t106.5 38t111.5 13q66 0 122.5 -14t103.5 -39.5t81.5 -62t56 -82.5t28.5 -99t-3 -113l-124 -786q-3 -20 -14 -38t-26.5 -32t-35.5 -22t-40 -8t-37 8t-27.5 22t-15 32t-0.5 38 l124 786q8 49 -4 90.5t-41 71.5t-74 47t-103 17q-26 0 -52 -6t-52 -16t-50 -24t-45 -32l41 -52l-70 -438h50q19 0 34.5 -7t26.5 -19.5t15 -29t2 -36.5q-3 -19 -13.5 -35.5t-24.5 -29.5t-32 -20t-37 -7h-149q-20 0 -37 8t-28 21t-16 31t-3 39z" />
<glyph unicode="&#xe25;" horiz-adv-x="917" d="M113.5 188q-2.5 35 3.5 74q8 52 29.5 99t53.5 86t72 70t85 53t94 33t99 11q26 0 52 -4t52 -11t48 -18t38 -24l5 35q6 38 -4.5 67t-35.5 48.5t-61 30t-78 10.5q-46 0 -79 -10t-56 -26t-39 -37t-28 -42q-10 -18 -24.5 -32t-32 -23t-35.5 -11.5t-34 3.5q-18 5 -30.5 17 t-18.5 28.5t-5.5 34.5t8.5 36q6 14 18 34t29 42.5t40.5 45.5t53.5 44q61 43 129 61.5t134 18.5q45 0 90 -9.5t85.5 -29t74 -48.5t56 -68t30.5 -88t-1 -109l-78 -494q-3 -19 -13 -36.5t-25.5 -30.5t-34 -21t-38.5 -8t-36 8t-27 21t-15 30.5t-2 36.5l28 172q6 40 -4.5 72 t-34 54t-57.5 33t-74 11q-38 0 -74 -11t-65 -32.5t-49 -52.5t-27 -70q-2 -18 -0.5 -33.5t8 -30t16 -29.5t23.5 -29q12 -13 16 -30.5t2 -35.5t-12 -36t-26 -32q-15 -14 -33 -21t-36 -7.5t-35 6t-29 20.5q-25 28 -43 57t-29 60.5t-13.5 66.5z" />
<glyph unicode="&#xe26;" horiz-adv-x="1009" d="M54 92q3 20 12.5 36.5t24 29t32.5 19.5t37 7h10l61 382l-43 55q-12 15 -12.5 32t4 32.5t12.5 28.5t16 21q40 44 88 80.5t101 62.5t110 41t116 15q100 0 179 -30t131 -84t75 -128q22 -76 8 -164l-126 -788q-3 -20 -13.5 -38t-26.5 -32t-35.5 -22t-40.5 -8q-20 0 -36 8 t-27 22t-16 32t-1 38l124 786q8 49 -4 90.5t-41 71.5t-74 47t-103 17q-51 0 -102.5 -21t-95.5 -57l40 -52l-82 -523q-3 -20 -14 -38.5t-26.5 -31.5t-34.5 -21t-40 -8h-110q-19 0 -35 7t-26 20t-15 29.5t-1 35.5z" />
<glyph unicode="&#xe27;" horiz-adv-x="844" d="M77.5 178q1.5 18 10 35t22.5 31q15 14 33.5 22t36.5 9t34 -4t26 -17q16 -18 35.5 -33t42 -25.5t47 -16.5t51.5 -6q47 0 91 21t80.5 58.5t62.5 90.5t36 118t0.5 118t-34 90t-62.5 57t-85 20q-27 0 -53.5 -7t-52 -18t-49.5 -25t-44 -30q-16 -12 -34 -17t-35 -3.5t-32 9 t-27 21.5q-10 14 -12.5 31t1.5 34.5t14.5 34t25.5 29.5q36 28 74.5 51.5t78.5 41t83 27t85 9.5q58 0 109 -16t94 -45t75 -71t52 -94.5t25.5 -115t-5.5 -131.5t-36 -131t-60.5 -115t-80.5 -95.5t-96 -72t-106 -45.5t-111 -16q-88 0 -161 33t-129 95q-12 12 -17 29t-3.5 35z " />
<glyph unicode="&#xe28;" horiz-adv-x="962" d="M92 90l74 467q8 52 30 99.5t55 89.5t75.5 76t91 58.5t102.5 38t109 13.5q42 0 80.5 -7t73.5 -26l79 69q17 16 35.5 24t37 9t35 -5t28.5 -19q13 -14 18.5 -31.5t3.5 -35.5t-11 -36t-24 -32l-59 -56q16 -23 27 -49.5t17 -56.5t7 -61t-5 -62l-73 -465q-3 -20 -14 -38 t-27 -32t-35 -22t-40 -8t-37.5 8t-28 22t-15.5 32t-2 38l74 465q6 39 -4.5 74t-34 61t-58.5 41t-77 15q-44 0 -84 -15t-71.5 -41t-53 -61t-27.5 -74h130q19 0 34.5 -7.5t26 -19.5t15 -29t1.5 -36q-3 -20 -13 -36.5t-24 -28.5t-32 -18.5t-38 -6.5h-128l-46 -285 q-3 -20 -13.5 -38t-26.5 -32t-35.5 -22t-40.5 -8q-20 0 -37 8t-28 22t-15.5 32t-1.5 38z" />
<glyph unicode="&#xe29;" horiz-adv-x="983" d="M137 282q-7 52 3 109l70 441q3 21 13.5 39t25.5 31.5t35 21.5t40 8q21 0 37.5 -8t28 -21.5t16.5 -32t2 -38.5l-70 -443q-8 -47 1.5 -86t33 -67t60.5 -44t86 -16q48 0 90.5 17t75.5 46t54.5 68t28.5 84l8 51h-122q-36 0 -65 13t-47 34.5t-26 50.5t-3 62l5 26q3 20 12.5 37 t23.5 29t32 19.5t38 7.5q19 0 34.5 -7.5t26.5 -19.5t15 -29t2 -37l-2 -4h105l33 208q3 21 13.5 39t26 31.5t35 21.5t39.5 8t37.5 -8t29 -21.5t16.5 -32t1 -38.5l-32 -208h2q19 0 34.5 -7t26.5 -19.5t15 -29t2 -36.5q-3 -19 -13 -35.5t-24.5 -28.5t-32.5 -19t-36 -7h-3 l-9 -51q-9 -58 -31.5 -109.5t-56.5 -96.5t-77.5 -81.5t-93.5 -62t-105 -39.5q-54 -14 -112 -14t-109 14t-92.5 39.5t-73.5 62t-51.5 81.5t-26.5 97z" />
<glyph unicode="&#xe2a;" horiz-adv-x="917" d="M117 262q8 52 29.5 99t53.5 86t72 70t85 53t94 33t99 11q26 0 52 -4t52 -11t48 -18t38 -24l5 35q6 38 -4.5 67t-35.5 48.5t-61 30t-78 10.5q-46 0 -79 -10t-56 -26t-39 -37t-28 -42q-10 -18 -24.5 -32t-32 -23t-35.5 -11.5t-34 3.5q-18 5 -30.5 17t-18.5 28.5t-5.5 34.5 t8.5 36q6 14 18 34t29 42.5t40.5 45.5t53.5 44q61 43 129 61.5t134 18.5q17 0 39.5 -2t46.5 -7t48 -12.5t46 -19.5l86 77q17 16 35.5 24t37 9t35 -5t28.5 -19q13 -14 18.5 -31.5t3.5 -35.5t-11 -36t-24 -32l-79 -76q12 -24 19 -47t9.5 -47t1 -47t-4.5 -45l-78 -494 q-3 -19 -13 -36.5t-25.5 -30.5t-34 -21t-38.5 -8t-36 8t-27 21t-15 30.5t-2 36.5l28 172q6 40 -4.5 72t-34 54t-57.5 33t-74 11q-38 0 -74 -11t-65 -32.5t-50 -52.5t-27 -70q-2 -18 0 -33.5t8 -30t16 -29.5t24 -29q12 -13 16 -30.5t2 -35.5t-12 -36t-26 -32q-15 -14 -33 -21 t-36 -7.5t-34.5 6t-29.5 20.5q-51 54 -73 117t-9 141z" />
<glyph unicode="&#xe2b;" horiz-adv-x="950" d="M92 86l118 750q3 20 13.5 37t25 30.5t33 21t38.5 7.5t36 -7.5t27 -21t16 -30.5t1 -37l-36 -236l488 310q17 10 35.5 14.5t35.5 3t31 -10.5t22 -24q10 -14 12 -32t-3 -35.5t-16.5 -33.5t-28.5 -26l-104 -68q30 -20 53 -46t37 -58t19 -69t-1 -77l-58 -362 q-3 -20 -13.5 -37.5t-25.5 -30.5t-34 -20.5t-39 -7.5t-36 7.5t-26.5 20.5t-15 30.5t-0.5 37.5l58 368q4 22 -2 42t-19 35t-32 23.5t-43 8.5q-18 0 -41 -8t-49 -20.5t-54 -29.5t-55 -34t-51 -34t-41.5 -30t-28 -21t-10.5 -9l-46 -291q-3 -20 -13.5 -37.5t-25.5 -30.5 t-34 -20.5t-39 -7.5t-36 7.5t-26.5 20.5t-15 30.5t-0.5 37.5z" />
<glyph unicode="&#xe2c;" horiz-adv-x="1116" d="M119 260l91 572q3 21 13.5 39t25.5 31.5t35 21.5t40 8q21 0 37.5 -8t28 -21.5t16.5 -32t2 -38.5l-90 -572q-3 -18 1 -33t14.5 -26.5t26.5 -18t36 -6.5t37 6.5t31 18t23.5 26.5t12.5 33l42 262q3 21 13.5 39.5t25.5 31.5t35 21t40 8q21 0 37.5 -8t28 -21t16.5 -31.5 t2 -39.5l-42 -262q-3 -18 1.5 -33t14.5 -26.5t26 -18t37 -6.5q20 0 37.5 6.5t31.5 18t24 26.5t12 33l63 394q4 24 1.5 39t-9.5 23t-18 11.5t-25 3.5h-48q-18 0 -32 6.5t-23 17.5t-13.5 27t-1.5 33q3 18 12 33.5t22 27.5t29.5 18.5t34.5 6.5h57q10 0 20.5 -0.5t18.5 1t14 5.5 q6 5 8 13q3 20 12.5 37t24.5 30.5t34 21t39 7.5t37 -8t28 -21t16 -29t1 -34q-6 -38 -22 -71t-41 -61q33 -62 21 -140l-62 -392q-6 -38 -22 -73t-40 -65t-54.5 -54.5t-65 -42t-72.5 -26.5t-78 -9q-110 0 -180 68q-92 -68 -202 -68q-60 0 -109 20.5t-83 57t-49 85.5t-6 107z " />
<glyph unicode="&#xe2d;" horiz-adv-x="1028" d="M123 307.5q-7 56.5 3 118.5q3 18 12.5 35t24 29t32 19t35.5 7h322q18 0 34 -7t26 -19.5t14.5 -29t1.5 -34.5t-12.5 -34.5t-23.5 -29t-32 -19.5t-36 -7h-196q6 -38 24 -69t46 -53t65 -34t79 -12q56 0 108 22t93 61.5t69.5 93.5t38.5 118q10 65 -0.5 120t-39 94t-73 61 t-102.5 22q-39 0 -75.5 -10t-68.5 -29.5t-61 -46t-53 -60.5q-12 -17 -28.5 -28t-35 -15.5t-37 -2.5t-34.5 12q-16 9 -24.5 23.5t-11 31.5t2 36t16.5 35q36 48 81.5 91.5t101 76t119.5 51.5t138 19q71 0 129.5 -18t103.5 -50.5t76.5 -77.5t49.5 -98.5t22.5 -113.5t-5.5 -123 q-10 -64 -34 -124t-60 -113.5t-83 -97.5t-102 -76t-118 -50t-132 -18q-64 0 -120.5 15.5t-102.5 44t-81 69t-57 89.5t-29 105.5z" />
<glyph unicode="&#xe2e;" horiz-adv-x="1028" d="M123 307.5q-7 56.5 3 118.5q3 18 12.5 35t24 29t32 19t35.5 7h322q18 0 34 -7t26 -19.5t14.5 -29t1.5 -34.5t-12.5 -34.5t-23.5 -29t-32 -19.5t-36 -7h-196q6 -39 24 -70t46 -52.5t65 -33.5t79 -12q56 0 108 22t93 61.5t69.5 93.5t38.5 118q10 65 -0.5 120t-39 94t-73 61 t-102.5 22q-39 0 -75.5 -10t-69 -29t-61 -46t-52.5 -61q-12 -16 -29 -27t-35 -16t-36.5 -3t-34.5 12t-24.5 24t-11 31.5t2 36t16.5 34.5q35 48 80.5 92t101 76t120 51t138.5 19q54 0 101 -11t94 -36l98 88q17 16 36 23.5t37.5 8.5t35 -5t29.5 -18q13 -14 18 -32t3.5 -36.5 t-10.5 -37.5q-8 -18 -24 -32l-92 -86q20 -34 32.5 -71t18.5 -76t5.5 -79t-6.5 -81q-10 -64 -34 -124t-60 -113.5t-83 -97.5t-102 -76t-118.5 -50t-131.5 -18q-64 0 -120.5 15.5t-102.5 44t-81 69t-57 89.5t-29 105.5z" />
<glyph unicode="&#xe2f;" horiz-adv-x="872" d="M195 819q0 21 8 40t21 34t30.5 25.5t38.5 13.5q21 4 39 -1t32 -16t21 -27t7 -36q0 -33 10 -61t28 -48.5t44 -32.5t60 -12t63.5 11.5t53 30t39.5 42.5t26 48q9 20 20 39t25.5 33.5t32.5 23t42 8.5q22 0 39 -8t29 -22.5t18 -33.5q6 -18 2 -40l-118 -740q-3 -20 -13.5 -38.5 t-26.5 -32t-35.5 -21.5t-40.5 -8q-20 0 -36 8t-27 21.5t-15.5 32t-1.5 38.5l76 484q-38 -30 -83 -45t-98 -15q-66 0 -123.5 21t-99.5 61t-65 96t-22 127z" />
<glyph unicode="&#xe30;" horiz-adv-x="502" d="M103 250l3 22q3 20 13.5 38t25 31t33 20t38.5 7t36 -7t27 -20t16 -31t2 -38l-2 -10h99q18 0 33 -7t26 -19.5t15 -29t2 -34.5q-3 -18 -13 -34.5t-24.5 -29t-31.5 -19.5t-36 -7h-115q-37 0 -66.5 13t-49.5 36t-28 54t-3 65zM177 717l3 23q3 20 13.5 37t25 30t33 21t38.5 8 t36 -8t27 -21t16 -30t2 -37l-2 -11h99q18 0 33 -7.5t25.5 -19.5t15 -28t2.5 -35q-3 -18 -13 -34.5t-24.5 -28.5t-31.5 -19.5t-36 -7.5h-115q-37 0 -66.5 13.5t-49.5 36t-28 53t-3 65.5z" />
<glyph unicode="&#xe31;" d="M-465 1214l7 44q3 18 12.5 33t22.5 27t30 19t35 7t32 -7t24 -19t14 -28q5 -14 2 -32q-4 -21 0 -30.5t21 -9.5h381q18 0 33 -6.5t24.5 -18.5t14.5 -28q4 -17 1 -35t-12 -34t-23 -27t-30.5 -18t-34.5 -7h-413q-40 0 -69 13t-47 35.5t-24 53.5q-7 32 -1 68z" />
<glyph unicode="&#xe32;" horiz-adv-x="760" d="M132.5 737q-2.5 19 1 37t14 35t26.5 29q34 26 67 44t68 29.5t72 17t80 5.5q63 0 113 -13t87 -36t62 -55t39 -70t17 -81t-4 -89l-79 -502q-3 -20 -14 -38t-26.5 -31.5t-35.5 -21t-40 -7.5t-37 7.5t-28 21t-16 31.5t-2 38l77 488q28 178 -144 178q-43 0 -79 -15 q-37 -15 -73 -41q-16 -13 -35 -18.5t-37 -4.5t-34 8t-26 21q-11 14 -13.5 33z" />
<glyph unicode="&#xe33;" horiz-adv-x="760" d="M-160 1222q6 38 25.5 71t48 58t64.5 39q34 15 72 15t69 -14.5t52 -39.5t30 -58t3 -71t-26 -71t-48.5 -57.5t-64 -39t-72.5 -14.5q-38 0 -68.5 14.5t-51.5 39t-30 58.5q-9 32 -3 70zM-34 1220q-2 -12 1 -21t9 -16t16 -11q8 -4 20 -4q23 0 40.5 14.5t21.5 37.5 q4 24 -8.5 40t-35.5 16q-12 0 -22.5 -4t-19 -12t-14.5 -18t-8 -22zM133 738q3 -20 13 -34t26 -21t34 -8t37 5t35 18q36 26 73 41t79 15q172 0 144 -178l-77 -488q-3 -20 2 -38t16 -31.5t27 -20.5q18 -8 38 -8q21 0 40.5 7.5t35 21t26 31.5t14.5 38l79 502q7 46 4 89t-17 81 t-39 70t-62 55t-87 36t-113 13q-42 0 -79.5 -5.5t-72.5 -17t-68 -29.5t-67 -44q-16 -12 -26.5 -29t-14 -35t-0.5 -36z" />
<glyph unicode="&#xe34;" d="M-703 1130q3 18 12 34.5t22.5 28.5t30 18.5t34.5 6.5h643q18 0 32.5 -6.5t24.5 -18.5t14 -28q4 -17 2 -35q-3 -18 -12.5 -33t-23.5 -27t-30 -19t-34 -7h-643q-18 0 -32.5 7t-24.5 19t-14 28q-4 14 -1 32z" />
<glyph unicode="&#xe35;" d="M-703 1130q3 18 12 34.5t22.5 28.5t30 18.5t34.5 6.5h545l7 46q3 18 12.5 34t23.5 28t31 19t35 7t32.5 -7t24 -19t14 -28t1.5 -34l-21 -134q-3 -18 -12 -33t-23 -27t-31 -19t-34 -7h-632q-18 0 -32.5 7t-24.5 19t-14 28q-4 14 -1 32z" />
<glyph unicode="&#xe36;" d="M-703 1130q3 18 12 34.5t22.5 28.5t30 18.5t34.5 6.5h438q10 27 27 49.5t39 39t47 26t53 9.5q30 0 55 -12t42.5 -32t25 -47t3.5 -57q-5 -31 -21.5 -58t-39.5 -47.5t-52 -32.5t-59 -12h-585q-18 0 -32.5 7t-24.5 19t-14 28q-4 14 -1 32zM-73 1192q-2 -10 0.5 -19 t8.5 -15.5t14 -10.5t18 -4t20 4t17 10.5t12 15.5t7 19t-0.5 19t-8 15.5t-13.5 10.5t-18 4t-19.5 -4t-17.5 -10.5t-13.5 -15.5t-6.5 -19z" />
<glyph unicode="&#xe37;" d="M-703 1130q3 18 12 34.5t22.5 28.5t30 18.5t34.5 6.5h306l6 42q3 17 12 31.5t22.5 25.5t29 18t31.5 7q17 0 31 -7t24 -18t14.5 -26t1.5 -31l-6 -42h82l6 40q3 18 12 33t22 26t29.5 18t32.5 7q17 0 31 -7t23.5 -18t13.5 -27q4 -14 1 -32l-20 -128q-3 -18 -12 -33t-23 -27 t-31 -19t-34 -7h-632q-18 0 -32.5 7t-24.5 19t-14 28q-4 14 -1 32z" />
<glyph unicode="&#xe38;" d="M-430 -184q3 20 13 36.5t25 29.5t33.5 20.5t37.5 7.5h135q20 0 35 -7.5t26 -20.5t16 -30q5 -16 2 -36l-33 -205q-3 -20 -12.5 -36.5t-24.5 -29.5t-33 -21t-36 -8q-19 0 -35.5 8t-27 21t-15 30t-2.5 36l18 111h-43q-20 0 -35.5 7t-26.5 20t-16 30t-1 37z" />
<glyph unicode="&#xe39;" d="M-690 -184q3 20 13 36t24.5 29t33 20t37.5 7h125q20 0 35.5 -7.5t26.5 -20.5t16 -30q5 -16 1 -36l-18 -121q-3 -19 8.5 -29t27.5 -10q17 0 31.5 10t18.5 29l20 133q3 19 13.5 35.5t24.5 29.5t32 20t38 7q19 0 34.5 -7t26 -20t15 -29.5t0.5 -35.5l-20 -129 q-8 -46 -31.5 -84.5t-59 -65.5t-79 -42t-89.5 -15t-84.5 12t-66.5 34t-41 53.5t-7 70.5l10 62h-38q-19 0 -34.5 7t-26.5 20t-16 30t-1 37z" />
<glyph unicode="&#xe3a;" d="M-319 -166q4 24 16.5 46t31.5 38t41.5 25.5t46.5 9.5t44.5 -9.5t33.5 -25.5t19 -38t2 -46t-16.5 -46t-31 -38t-41 -25t-46.5 -9t-44.5 9t-34 25t-19.5 38t-2 46z" />
<glyph unicode="&#xe3e;" />
<glyph unicode="&#xe3f;" horiz-adv-x="870" d="M92 102l139 877q4 22 14.5 40.5t25.5 32.5t35 22t41 8h161l14 88q2 17 11 31.5t21 25t27 17t32 6.5t30.5 -6.5t23 -17t13.5 -25.5q2 -15 0 -31l-15 -97q53 -12 93.5 -35.5t66 -61t33.5 -88.5q8 -52 -2 -120q-18 -106 -90 -180q66 -42 94 -110q28 -66 14 -152 q-8 -52 -27 -95t-46 -78t-62 -61.5t-74 -45.5t-82 -30.5t-87 -15.5l-16 -96q-2 -17 -11 -31.5t-21 -25.5t-28 -17t-32 -6q-17 0 -30.5 6t-22.5 17t-12 25t-1 32l16 96h-162q-22 0 -39 8t-28 22t-16 32t-1 40zM274 170h90l48 301h-90zM350 641h89l43 273h-90zM523 174 q36 6 66.5 16t53.5 28t38 44t21 62q6 39 -2 65t-26 42.5t-45 25t-59 12.5zM600 658q16 7 30 16t25 22.5t19 33t12 46.5q8 49 -6 76t-44 41z" />
<glyph unicode="&#xe40;" horiz-adv-x="415" d="M122 90l118 742q3 21 13.5 39t26 31.5t35 21.5t39.5 8t37.5 -8t29 -21.5t16.5 -32t1 -38.5l-117 -742q-3 -20 -14 -38.5t-27 -32t-35 -21.5t-40 -8t-37.5 8t-28 21.5t-15.5 32t-2 38.5z" />
<glyph unicode="&#xe41;" horiz-adv-x="770" d="M122 90l118 742q3 21 13.5 39t26 31.5t35 21.5t39.5 8t37.5 -8t29 -21.5t16.5 -32t1 -38.5l-117 -742q-3 -20 -14 -38.5t-27 -32t-35 -21.5t-40 -8t-37.5 8t-28 21.5t-15.5 32t-2 38.5zM477 90l117 742q3 21 13.5 39t26.5 31.5t35 21.5t39 8q21 0 38.5 -8t28.5 -21.5 t16 -32t2 -38.5l-117 -742q-3 -20 -14.5 -38.5t-27 -32t-35 -21.5t-40.5 -8q-20 0 -37 8t-28 21.5t-15.5 32t-1.5 38.5z" />
<glyph unicode="&#xe42;" horiz-adv-x="377" d="M100 90l138 870q2 15 -7 26.5t-24 23t-32 24.5t-31 31t-21 42.5t-2 60.5q6 36 20.5 62t34.5 44t44 29t48 17t47 8.5t41 2.5h202q20 0 36 -7.5t26 -19.5t15 -29t1 -36q-3 -19 -12.5 -35.5t-24 -28.5t-32.5 -19q-17 -7 -37 -7h-191q23 -14 44 -32.5t35 -41.5t20 -52t0 -65 l-138 -868q-3 -20 -13.5 -38.5t-26.5 -32t-36 -21.5t-42 -8q-21 0 -37.5 8t-27.5 21.5t-15.5 32t-1.5 38.5z" />
<glyph unicode="&#xe43;" horiz-adv-x="377" d="M84 1114.5q0 18.5 8 38.5q16 40 46 74.5t67 60.5t80 41t85 15q56 0 101 -20t74 -53t42 -79q13 -44 5 -96q-6 -39 -22 -70.5t-38 -58.5t-50 -51t-58 -50l-124 -778q-3 -20 -13.5 -38t-26.5 -31t-36 -21t-40 -8q-21 0 -37.5 8t-27.5 21t-16 31t-1 38l132 836q10 8 26 20.5 t33.5 27t36 30.5t33.5 32.5t25 32t13 29.5q5 32 -9 49t-48 17q-14 0 -27 -5t-22.5 -14t-16.5 -20q-8 -11 -12 -23q-7 -20 -20.5 -35t-31.5 -23.5t-37 -11t-38 3.5q-18 6 -30.5 18t-18.5 28t-6 34.5z" />
<glyph unicode="&#xe44;" horiz-adv-x="377" d="M102 88l138 870q6 36 20.5 65t36 52t47.5 41q24 18 52 33h-190q-19 0 -34.5 7t-26.5 19t-15 28.5t-2 35.5q3 19 13 36t24.5 29t32.5 19.5t37 7.5h203q18 0 40 -3t44 -10.5t42 -19.5t34 -30t20 -43t0 -57q-5 -30 -19.5 -53.5t-33.5 -42t-40.5 -33t-40 -27.5t-31.5 -25.5 t-15 -26.5l-138 -872q-3 -20 -13.5 -38t-26.5 -31t-36 -21t-40 -8q-21 0 -37.5 8t-27.5 21t-16 31t-1 38z" />
<glyph unicode="&#xe45;" horiz-adv-x="760" d="M132.5 737q-2.5 19 1 37t14 35t26.5 29q34 26 67 44t68 29.5t72 17t80 5.5q63 0 113 -13t87 -36t62 -55t39 -70t17 -81t-4 -89l-135 -854q-4 -21 -14.5 -39t-26 -31.5t-35 -20.5t-40.5 -7q-20 0 -37 7t-28 20.5t-16 31.5t-1 39l132 840q28 178 -144 178q-43 0 -79 -15 q-37 -15 -73 -41q-16 -13 -35 -18.5t-37 -4.5t-34 8t-26 21q-11 14 -13.5 33z" />
<glyph unicode="&#xe46;" horiz-adv-x="973" d="M154.5 485q-1.5 33 4.5 70q10 62 39.5 119t76.5 105.5t110 88t141 66.5l90 -100l120 100q70 -27 120.5 -66t82 -87.5t43 -105t1.5 -118.5l-130 -821q-4 -21 -14.5 -39t-26 -31.5t-34.5 -20.5t-39 -7t-37 7t-28.5 20.5t-15.5 31.5q-6 18 -2 39l130 821q14 91 -50 149 l-162 -132l-120 132q-40 -30 -66 -68t-34 -83q-6 -36 4 -64.5t26 -54.5q10 -16 12 -35t-4 -37.5t-18 -35t-30 -29.5q-17 -12 -36.5 -16t-37.5 -1.5t-33.5 11.5t-24.5 25q-16 24 -28 50t-20 55t-9.5 62z" />
<glyph unicode="&#xe47;" d="M-634 1274q8 54 31.5 101t58 81.5t79.5 54t97 19.5h462q18 0 32 -6.5t24 -18t14 -26.5t2 -33q-3 -18 -12.5 -33t-22.5 -26.5t-29 -18t-34 -6.5h-462q-13 0 -24 -8t-19.5 -21t-14.5 -28t-8 -31t-1 -30t6 -25t13 -17q10 -6 22 -6q18 0 29 7t19 25q12 30 37.5 44.5 t55.5 14.5q14 0 26.5 -3.5t22.5 -10t16 -17.5t7 -26q2 -36 39 -36q14 0 27 9t21 28q8 17 20 30t27.5 21t32 10t32.5 -2t27 -15t17 -25t6 -30t-8 -32q-2 -6 -6 -16t-12 -23t-20 -29q-11 -14 -28 -30q-36 -31 -76.5 -45.5t-82.5 -14.5q-38 0 -66 12q-27 12 -53 35 q-33 -23 -67 -35t-70 -12q-49 0 -88 17.5t-63.5 49t-34 76.5t-1.5 101z" />
<glyph unicode="&#xe48;" d="M-10 1528l22 143q3 18 13 34.5t24 28.5t31 18q16 7 34 7t33 -6.5t24.5 -18.5t14 -28t0.5 -35l-22 -143q-3 -18 -12.5 -34.5t-23 -28.5t-30 -18.5t-34.5 -6.5t-33 6.5t-25 18.5t-14 28.5t-2 34.5z" />
<glyph unicode="&#xe49;" d="M-349.5 1668.5q0.5 12.5 5.5 24t14.5 22.5t21.5 19t36 16.5t60 8.5q33 0 61 -10.5t47.5 -30.5t28.5 -49t3 -65q-1 -8 -1.5 -13t-3.5 -10l19 2h247q14 0 26.5 -5.5t20.5 -15.5t12 -23t1 -27q-2 -14 -10 -28t-19.5 -23.5t-25.5 -15t-28 -5.5h-489q11 14 23 31l24 34 t23 33.5t21 30.5q8 12 11.5 22.5t2.5 18.5t-7.5 13t-18.5 5q-3 0 -5.5 -1t-6.5 -3q-13 -8 -26.5 -10t-24.5 1t-21 11q-10 6 -16 18t-5.5 24.5z" />
<glyph unicode="&#xe4a;" d="M-358 1577q6 37 24.5 68t46 53t61.5 34q32 13 68 13q23 0 47 -9q23 -10 45 -30q26 20 54 30q26 9 50 9q33 0 61.5 -11.5t48.5 -33.5t29 -53t5 -70l17 2h75q14 0 26 -5.5t20 -14.5t11.5 -22t1.5 -27t-9.5 -27t-18.5 -23t-25 -15t-28 -5h-313q24 27 46.5 56.5t42.5 63.5 q4 6 6 16t0 18t-8 14t-18 6q-20 0 -30 -12q-12 -12 -18 -44h-98q0 8 -1 17.5t-4 17.5t-9.5 13.5t-16.5 5.5q-16 0 -25.5 -8.5t-12.5 -24.5q-1 -8 2 -16.5t7 -12.5q8 -9 10.5 -21.5t1 -26.5t-7.5 -26.5t-16 -21.5q-25 -22 -50.5 -22t-44.5 16q-32 24 -45.5 58t-7.5 71z" />
<glyph unicode="&#xe4b;" d="M-119 1628q2 17 10.5 31.5t21 24.5t28 16t31.5 6h44l5 33q3 18 12.5 34.5t23 28.5t30.5 18.5t36 6.5q18 0 33.5 -6.5t25.5 -18.5t14 -28t1 -35l-5 -33h45q16 0 29.5 -6t22.5 -16t13 -24q2 -15 0 -32t-10.5 -31.5t-20.5 -24.5t-27.5 -16t-31.5 -6h-44l-6 -30 q-3 -18 -12 -34.5t-22.5 -28.5t-31.5 -19q-18 -6 -36 -6t-33 6.5t-25 18.5t-14 28q-4 17 -1 35l5 30h-45q-16 0 -29.5 6t-22.5 16t-13 24.5t-1 31.5z" />
<glyph unicode="&#xe4c;" d="M-152 1493q6 38 23 67.5t43 50.5t59 32.5t70 11.5h129q17 0 30.5 -6.5t23.5 -17.5t14 -26t1 -32q-2 -17 -11.5 -32t-22 -26t-28.5 -17.5t-33 -6.5h-117q-14 0 -21 -8q-6 -9 4 -19l16 -16q10 -12 14 -27.5t2 -31t-10 -30.5t-22 -28q-14 -12 -29 -17.5t-31 -5.5t-30 5.5 t-24 17.5q-31 38 -44.5 77.5t-5.5 84.5z" />
<glyph unicode="&#xe4d;" d="M-160 1222q6 38 25.5 71t48 58t64.5 39q34 15 72 15t69 -14.5t52 -39.5t30 -58t3 -71t-26 -71t-48.5 -57.5t-64 -39t-72.5 -14.5q-38 0 -68.5 14.5t-51.5 39t-30 58.5q-9 32 -3 70zM-34 1220q-2 -12 1 -21t9 -16t16 -11q8 -4 20 -4q23 0 40.5 14.5t21.5 37.5 q4 24 -8.5 40t-35.5 16q-12 0 -22.5 -4t-19 -12t-14.5 -18t-8 -22z" />
<glyph unicode="&#xe4e;" d="M-179 1130q5 32 20 60t39 51q-34 47 -24 113q6 36 24 67t45 54t60 36t69 13q38 0 64 -12q26 -14 46 -34q8 -8 12 -19t3 -23t-7 -24t-16 -22t-21 -14.5t-22 -5t-21 3.5t-18 12q-10 8 -19 12.5t-19 4.5q-23 0 -39.5 -14.5t-19.5 -34.5q-2 -9 0.5 -20t11.5 -20.5t25 -15.5 t41 -6l-17 -110q-25 0 -42.5 -4.5t-29 -11.5t-17 -16.5t-7.5 -19.5q-3 -18 10 -32q13 -12 44 -14q12 -1 22 -7.5t15 -15.5t7 -21q2 -13 -2 -26t-12 -23.5t-18 -17.5t-23 -11t-25 -2q-33 6 -61 20t-47.5 35t-28 50t-2.5 65z" />
<glyph unicode="&#xe4f;" horiz-adv-x="1151" d="M147.5 354q-8.5 64 2.5 132t39.5 131t69.5 119t94.5 102t114 78.5t127.5 50.5t135 18t128.5 -18t111 -50.5t88.5 -78.5t62 -102t32.5 -119t-2.5 -131t-39.5 -132t-69.5 -119.5t-94.5 -101t-114 -78.5t-127 -51t-134.5 -18t-128.5 18t-111 51t-89 78.5t-62.5 101 t-32.5 119.5zM288 391q6 -46 23 -86.5t45 -73.5t64 -56.5t80 -36.5t93 -13t97 13t91 36.5t81.5 56.5t68 73.5t49.5 86t28 95.5l2 -9q8 50 2 97t-23 88t-45 74.5t-64 58t-80 38t-93 13.5t-97 -13t-92 -37t-82 -57t-68 -73t-50 -86t-28 -94q-8 -49 -2 -95zM398 486q8 52 35 98 t67 80t89 54t101 20t95 -20t71.5 -54t41 -80t4.5 -98t-35 -98t-67 -80.5t-89 -54t-101 -19.5t-95 19.5t-72 54t-41 80.5t-4 98zM533 486q-4 -24 2 -45.5t19.5 -37.5t33.5 -25.5t44 -9.5t46 9.5t41 25.5t31 37.5t16 45.5t-2 45t-19 37t-33 25t-44 9t-46.5 -9t-41 -25 t-31.5 -37t-16 -45z" />
<glyph unicode="&#xe50;" horiz-adv-x="946" d="M97.5 299q-7.5 55 2.5 115t34 114.5t61 102t83 87.5t99.5 68t112 43t118.5 15t114 -15t98 -43t78.5 -68t56 -87.5t28.5 -102t-3 -114.5t-34 -115t-60.5 -103t-83 -87t-100 -67t-112 -43t-118.5 -15t-114 15t-98 43t-78 67t-55.5 87t-29 103zM278.5 346.5 q4.5 -32.5 17 -60.5t32.5 -51.5t46.5 -40t58 -25.5t67.5 -9t70 9t66 25.5t59 40t49 51.5t36 60.5t20 67.5t1.5 67t-17 60.5t-32.5 51.5t-46.5 39.5t-58 26t-67.5 9.5q-54 0 -104 -20t-91 -55t-69 -81t-36 -98q-6 -35 -1.5 -67.5z" />
<glyph unicode="&#xe51;" horiz-adv-x="946" d="M126 492.5q4 31.5 15 62.5t27 55q34 52 81 95t103 74t118 48t128 17q60 0 113.5 -15t98 -43.5t78 -68t55 -87.5t28.5 -103t-3 -115t-34 -115t-60.5 -103t-83 -87t-99.5 -67t-111 -43t-118 -15q-93 0 -164.5 29.5t-118.5 86.5q-11 14 -17 29t-5 32t7 33t20 30t32 23 t35.5 11t33 -3t27.5 -19q32 -39 78 -58q46 -18 100 -18q35 0 69.5 9t65.5 25.5t59 40t50 51.5t36 60t20 68q8 52 -5 98.5t-43 81t-74 55.5t-98 21q-40 0 -78 -11t-71.5 -29t-61 -44t-46.5 -56q-8 -14 -8 -20t8 -6h94q18 0 33.5 -7t25 -19t14 -28t0.5 -34q-3 -18 -12 -34.5 t-22.5 -28.5t-30.5 -18.5t-36 -6.5h-100q-48 0 -79 14t-48.5 37.5t-23.5 53.5t-2 61.5z" />
<glyph unicode="&#xe52;" horiz-adv-x="1084" d="M143 324q-7 58 3 122l77 484q3 18 12 34t23 28t31 19t36 7q18 0 33.5 -7t25.5 -19t14 -28t1 -34l-75 -482q-10 -62 4 -114t49 -89.5t89 -58.5q54 -22 126 -22q68 0 125 19.5t101 56.5t73 90.5t40 121.5q2 18 6 41t6.5 48t2.5 48.5t-4 42.5t-13 30.5t-25 11.5 q-12 0 -22 -4t-19 -12t-15.5 -18t-8.5 -24q-2 -18 -11 -33.5t-22 -27t-29.5 -18.5t-33.5 -7q-18 0 -32 7t-23.5 18.5t-13.5 27t-2 33.5q4 26 -7 42t-41 16q-26 0 -45 -17t-24 -47q-1 -6 0 -13t3.5 -16t7.5 -18t13 -18q11 -12 16 -27t3 -30.5t-10 -30.5t-21 -27 q-14 -13 -30 -20t-31.5 -8.5t-29.5 3.5t-25 17q-42 43 -59.5 88.5t-9.5 99.5q4 28 16 57t29 55t40.5 49t52 40t61.5 27t71 10q40 0 73 -12q33 -14 60 -40q36 26 74.5 39t80.5 13q54 0 89 -19.5t56 -52t29 -74t9 -85.5t-3 -87q-4 -42 -10 -78q-17 -106 -65.5 -191 t-120 -145.5t-163 -93t-196.5 -32.5q-72 0 -134 16t-112 46t-87 71t-59.5 92t-29.5 109z" />
<glyph unicode="&#xe53;" horiz-adv-x="1083" d="M100 307q-2 51 6 103q10 68 39.5 135t80 127.5t123.5 110t171 79.5l142 -168l192 164q73 -28 126.5 -72t86.5 -99t45 -120t0 -137q-12 -76 -43 -142.5t-77.5 -122t-108 -99.5t-133.5 -76q-18 -8 -35 -9t-32 4.5t-27 17t-18 27.5q-5 16 -3.5 34t9.5 34t22 30t32 22 q48 22 88.5 50t71 63t50.5 76.5t28 90.5q10 68 -12 125t-70 94l-230 -199l-174 208q-36 -21 -65 -49t-50 -60.5t-34 -68.5t-19 -72q-8 -52 -1 -98t28 -80t55 -53q32 -19 78 -19q10 0 20.5 1t15.5 3q16 8 33 7t31 -8t24 -19q10 -14 14 -30t1 -32.5t-12.5 -32t-23.5 -27.5 t-31 -18q-21 -8 -46.5 -13t-54.5 -3q-62 2 -111.5 19.5t-86.5 47.5t-61.5 70.5t-38 86.5t-15.5 97z" />
<glyph unicode="&#xe54;" horiz-adv-x="1003" d="M104 300q-8 56 2 116t34.5 114.5t60.5 102t82.5 87.5t99.5 68t112 43t120 15h315l131 141q14 14 30.5 22.5t34 10.5t34.5 -2q16 -4 28 -16t18.5 -27.5t6 -32t-8.5 -34.5q-7 -18 -21 -32l-138 -147q-12 -12 -26 -23t-30.5 -19t-35.5 -12.5t-40 -4.5h-325q-54 0 -105.5 -20 t-93 -55t-69.5 -81t-36 -98q-6 -35 -1 -67.5t17 -61t32.5 -52t47 -40.5t58.5 -26t68 -9q32 0 64 7t66 21l-71 84q-14 16 -25 34t-18.5 37t-9.5 40t4 42t20 43t40 44l64 56q16 13 34 19.5t35 6t32 -7.5t26 -21q11 -13 15 -29t1 -33t-12.5 -34t-25.5 -31l-40 -32l241 -285 q12 -14 16.5 -30.5t2 -33t-11.5 -32.5t-24 -29q-15 -14 -32 -21t-34 -7t-32 6.5t-27 19.5l-58 66q-62 -36 -130 -56t-138 -20q-61 0 -114.5 15t-98.5 43t-78.5 67.5t-54.5 87.5t-28 103z" />
<glyph unicode="&#xe55;" horiz-adv-x="1003" d="M104 300q-8 56 2 116q8 48 25.5 93t43 86t58.5 77t72 65.5t82 52t89 36.5q-1 4 0 10q0 6 2 14q6 40 27.5 76t52.5 63t69.5 42t78.5 15t74 -15t56 -42t32 -63t4 -76l-1 -4h59l131 141q14 14 30.5 22.5t34 10.5t34.5 -2q16 -4 28 -16t18.5 -27.5t6 -32t-8.5 -34.5 q-7 -18 -21 -32l-138 -147q-12 -12 -26 -23t-30.5 -19t-35.5 -12.5t-40 -4.5h-325q-54 0 -105.5 -20t-93 -55t-69.5 -81t-36 -98q-6 -35 -1 -67.5t17 -61t32.5 -52t47 -40.5t58.5 -26t68 -9q32 0 64 7t66 21l-71 84q-14 16 -25 34t-18.5 37t-9.5 40t4 42t20 43t40 44l64 56 q16 13 34 19.5t35 6t32 -7.5t26 -21q11 -13 15 -29t1 -33t-12.5 -34t-25.5 -31l-40 -32l241 -285q12 -14 16.5 -30.5t2 -33t-11.5 -32.5t-24 -29q-15 -14 -32 -21t-34 -7t-32 6.5t-27 19.5l-58 66q-62 -36 -130 -56t-138 -20q-61 0 -114.5 15t-98.5 43t-78.5 67.5 t-54.5 87.5t-28 103zM608 852q-2 -14 1 -27t10.5 -22t19 -14t25.5 -5t28 5t24 14t17.5 22t9.5 27t-1 27t-10.5 22t-19.5 14t-26 5t-27.5 -5t-24 -14t-17.5 -22t-9 -27z" />
<glyph unicode="&#xe56;" horiz-adv-x="932" d="M100 274q2 24 9 45t24 44t46 51t75 68q15 12 32 18t33.5 6t31.5 -6t26 -18q10 -13 14 -29t1.5 -32.5t-11.5 -32.5t-23 -30q-24 -18 -40 -31t-24 -23t-9 -17t4 -15q12 -24 31.5 -43.5t44.5 -34t54.5 -22.5t62.5 -8q53 0 103.5 21t92 56t70 82.5t36.5 100.5q6 34 2 66.5 t-16.5 61t-32.5 52.5t-47 41l-212 -182l-272 321q-11 13 -15 29.5t-1.5 32.5t11.5 32t25 30q15 13 32 19.5t34 6.5t32.5 -6t26.5 -18l167 -200l162 140q78 -22 136 -64t94 -98t50 -123t2 -141q-10 -60 -34 -115t-61 -103.5t-83 -89t-99.5 -69t-112 -44t-118.5 -15.5 q-58 0 -108 14t-91 38t-72 57t-52 71q-35 60 -31 106z" />
<glyph unicode="&#xe57;" horiz-adv-x="1095" d="M102 307q-2 51 6 103q10 68 39.5 135t80 127.5t123.5 110t171 79.5l142 -168l192 164q78 -31 136 -80l22 144q3 18 12.5 34t23.5 28t32 19t36 7t33 -7t25 -19t14.5 -28t1.5 -34l-78 -492q-12 -76 -43 -142.5t-77.5 -122t-108 -99.5t-133.5 -76q-18 -8 -35 -9t-32 4.5 t-27 17t-18 27.5q-5 16 -3.5 34t9.5 34t22 30t32 22q48 22 88.5 50t71 63t50.5 76.5t28 90.5q10 68 -12 125t-70 94l-230 -199l-174 208q-36 -21 -65 -49t-50 -60.5t-34 -68.5t-19 -72q-8 -52 -1 -98t28 -80t55 -53q32 -19 78 -19q10 0 20.5 1t15.5 3q16 8 33 7t31 -8 t24 -19q10 -14 14 -30t1 -32.5t-12.5 -32t-23.5 -27.5t-31 -18q-21 -8 -46.5 -13t-53.5 -3q-62 2 -112 19.5t-86.5 47.5t-61.5 70.5t-38.5 86.5t-15.5 97z" />
<glyph unicode="&#xe58;" horiz-adv-x="1102" d="M104 408q10 62 35 118t62 105t85 90t102.5 69t115 44t122.5 16h368h10.5t6.5 1.5t5 4.5q4 2 8 8l101 109q13 14 29 23t33 11.5t33.5 -2.5t29.5 -16q13 -10 19.5 -25.5t5.5 -32t-8 -33.5q-7 -18 -20 -32l-121 -133q-22 -24 -56 -41q-34 -18 -76 -18h-396q-58 0 -111 -21 t-96 -57t-72 -84t-37 -104q-6 -36 -2.5 -69.5t15.5 -63t32.5 -53.5t46.5 -42l240 203l182 -215q24 6 46.5 19t40 31t28.5 40t15 47q4 26 -3 49.5t-25 42.5t-45.5 31t-63.5 16q-18 2 -31.5 12t-21.5 23t-10 30t2 33q6 18 17.5 33.5t26.5 25.5t32.5 14.5t36.5 2.5 q38 -4 75 -16t68.5 -31t57.5 -45t42 -59.5t22 -74t-1 -87.5q-10 -67 -45 -125t-88 -101t-120.5 -67t-145.5 -24l-131 152l-197 -166q-76 27 -132.5 70t-92 99t-48.5 123q-13 68 -1 142z" />
<glyph unicode="&#xe59;" horiz-adv-x="1130" d="M104 301q-8 55 2 115q10 62 33.5 117.5t58 103.5t78.5 87t95 66.5t107.5 42.5t116.5 15q54 0 99.5 -22t75.5 -64q38 33 69 49.5t61 23.5t63 7h73q11 0 39.5 32t76.5 94q12 15 27 25.5t31 14.5t31 2t29 -10t22 -22t9 -29t-4 -32t-17 -33q-52 -65 -86 -102q-32 -38 -46 -51 q-30 -31 -60 -45q-28 -14 -64 -16q-23 -2 -40.5 0t-31.5 3.5t-26 2t-25 -3.5t-28.5 -14t-35.5 -30l254 -514q8 -16 8.5 -33t-5.5 -34t-18 -31t-29 -24q-18 -10 -35.5 -13t-33.5 0t-29 13q-13 8 -21 24l-309 636q-4 8 -18 14t-34 6q-50 0 -96.5 -18.5t-84.5 -52t-64 -81.5 q-26 -46 -36 -104q-8 -52 5 -98.5t43 -81t74 -54.5t99 -20q26 0 51.5 5t58.5 17q18 7 35.5 8t32 -4.5t25.5 -16.5t17 -27q5 -16 3.5 -34t-9 -34t-21.5 -29t-32 -21q-52 -18 -97 -29t-92 -11q-60 0 -114 15t-98.5 43t-78.5 67t-55 87t-29 103z" />
<glyph unicode="&#xe5a;" horiz-adv-x="1224" d="M195 819q0 21 7.5 40t20.5 34t31 25.5t39 13.5q21 4 39 -1t32 -16t21 -27t7 -36q0 -33 10 -61t28 -48.5t44 -32.5t60 -12t63.5 11.5t53 30t39.5 42.5t26 48q9 20 20.5 39t27 33.5t35 23t43.5 8.5q22 0 39 -8t27 -22.5t14 -33.5q6 -18 2 -40l-118 -740q-3 -20 -13.5 -38.5 t-26.5 -32t-35.5 -21.5t-40.5 -8q-20 0 -36 8t-27 21.5t-15.5 32t-1.5 38.5l76 484q-38 -30 -83 -45t-98 -15q-66 0 -122.5 22t-98 62t-65 96t-24.5 125zM962 90l118 742q3 21 13.5 39t25.5 31.5t34.5 21.5t40.5 8t38 -8t28.5 -21.5t16.5 -32t1 -38.5l-117 -742 q-3 -20 -14 -38.5t-27 -32t-35 -21.5t-41 -8q-21 0 -37.5 8t-27.5 21.5t-15.5 32t-1.5 38.5z" />
<glyph unicode="&#xe5b;" horiz-adv-x="2060" d="M144 471q10 63 32.5 116t54 96t69.5 75t80.5 54t86.5 33q45 11 87 11q41 2 77.5 -8t65.5 -29t51 -46t35 -60t14 -69t-9 -74q-3 -18 -12 -34t-22.5 -28t-30.5 -18t-34 -6q-18 0 -32.5 6t-24.5 18t-14 28t-2 34q3 24 -1 44t-16 35t-31.5 24t-45.5 9q-28 0 -59 -11.5 t-59 -36.5t-49 -65.5t-31 -97.5q-10 -64 4 -110.5t47 -76t81 -43t106 -13.5q50 0 99 19t91 52t75.5 77t54 93t26.5 101q4 52 -10 100l136 84q15 -14 32.5 -36.5t35 -49t35 -55t33.5 -57t30 -55.5t24 -49q12 18 25.5 41t26 45.5t23.5 42t17 31.5l128 72q9 -10 22.5 -32.5 t29.5 -49t30 -54.5l25 -50l25 36l16 25h410q18 0 33 -6.5t25 -18.5t14 -28t2 -35q-3 -18 -12.5 -34.5t-23.5 -28.5t-31 -18.5t-35 -6.5h-318l-69 -84q-14 -18 -28.5 -35.5t-27.5 -34t-25 -30t-22 -21.5q-4 24 -15.5 58t-25 69t-26.5 67.5t-23 55.5q-14 -20 -32 -46 t-40 -54.5t-45 -58t-45 -56.5t-43 -49.5t-37 -36.5q-6 18 -13 40.5t-16 48.5t-19.5 52t-21 51.5t-20.5 48.5q-10 22 -20 40q-20 -46 -50 -91t-68 -84t-82.5 -71.5t-94 -56t-102.5 -36.5t-108 -13q-108 0 -188.5 30t-130.5 84.5t-69.5 131t-4.5 169.5z" />
<glyph unicode="&#x2000;" horiz-adv-x="913" />
<glyph unicode="&#x2001;" horiz-adv-x="1827" />
<glyph unicode="&#x2002;" horiz-adv-x="913" />
<glyph unicode="&#x2003;" horiz-adv-x="1827" />
<glyph unicode="&#x2004;" horiz-adv-x="609" />
<glyph unicode="&#x2005;" horiz-adv-x="456" />
<glyph unicode="&#x2006;" horiz-adv-x="304" />
<glyph unicode="&#x2007;" horiz-adv-x="304" />
<glyph unicode="&#x2008;" horiz-adv-x="228" />
<glyph unicode="&#x2009;" horiz-adv-x="365" />
<glyph unicode="&#x200a;" horiz-adv-x="101" />
<glyph unicode="&#x200b;" />
<glyph unicode="&#x2010;" horiz-adv-x="588" d="M106 400q2 17 11 31.5t22 25.5t29 18t33 7h338q17 0 31 -7t23 -18t13 -26t2 -31q-2 -17 -11 -32t-22 -26.5t-29 -17.5t-33 -6h-338q-17 0 -31 6t-23 17.5t-13 26t-2 32.5z" />
<glyph unicode="&#x2011;" horiz-adv-x="588" d="M106 400q2 17 11 31.5t22 25.5t29 18t33 7h338q17 0 31 -7t23 -18t13 -26t2 -31q-2 -17 -11 -32t-22 -26.5t-29 -17.5t-33 -6h-338q-17 0 -31 6t-23 17.5t-13 26t-2 32.5z" />
<glyph unicode="&#x2012;" horiz-adv-x="588" d="M106 400q2 17 11 31.5t22 25.5t29 18t33 7h338q17 0 31 -7t23 -18t13 -26t2 -31q-2 -17 -11 -32t-22 -26.5t-29 -17.5t-33 -6h-338q-17 0 -31 6t-23 17.5t-13 26t-2 32.5z" />
<glyph unicode="&#x2013;" horiz-adv-x="778" d="M48 358q3 18 13 35t24.5 29t31.5 19t36 7h615q18 0 33 -7t25.5 -19t15.5 -28q4 -18 1 -36t-13 -34.5t-24 -29t-31 -19.5t-36 -7h-615q-18 0 -33 7t-26 19.5t-15 29t-2 34.5z" />
<glyph unicode="&#x2014;" horiz-adv-x="1556" d="M48 358q3 18 13 35t24.5 29t31.5 19t36 7h1393q18 0 33 -7t25.5 -19t15.5 -28q4 -18 1 -36t-13 -34.5t-24 -29t-31 -19.5t-36 -7h-1393q-18 0 -33 7t-26 19.5t-15 29t-2 34.5z" />
<glyph unicode="&#x2018;" horiz-adv-x="385" d="M208 932q-4 25 0 49q10 60 64 124t148 122q10 6 21 8.5t21 0.5t19 -7t14 -15q6 -10 5.5 -20.5t-4 -21t-11 -19.5t-16.5 -15q-13 -8 -25 -16t-23 -17t-23 -20t-24 -26q41 -11 62 -39q20 -28 14 -66q-4 -22 -16 -43t-30 -37t-41 -25t-48 -9q-33 0 -55 13t-35 33.5t-17 45.5 z" />
<glyph unicode="&#x2019;" horiz-adv-x="385" d="M182.5 877q0.5 11 4.5 21t11.5 19t16.5 15q13 8 25 16t23 17.5t23 20.5q12 12 24 26q-42 11 -62 38.5t-14 65.5q4 22 16 43t30 37t40 26q22 9 48 9q33 0 55.5 -13.5t35.5 -33.5t17 -45t0 -49q-10 -60 -64 -124.5t-148 -121.5q-10 -6 -21 -8.5t-21 -1t-19 7t-15 14.5 q-6 10 -5.5 21z" />
<glyph unicode="&#x201c;" horiz-adv-x="631" d="M208 932q-4 25 0 49q10 60 64 124t148 122q10 6 21 8.5t21 0.5t19 -7t14 -15q6 -10 5.5 -20.5t-4 -21t-11 -19.5t-16.5 -15q-13 -8 -25 -16t-23 -17t-23 -20t-24 -26q41 -11 62 -39q20 -28 14 -66q-4 -22 -16 -43t-30 -37t-41 -25t-48 -9q-33 0 -55 13t-35 33.5t-17 45.5 zM484 932q-4 25 0 49q10 60 64 124t148 122q10 6 21 8.5t21 0.5t19 -7t15 -15t5.5 -20.5t-4 -21t-11.5 -19.5t-17 -15q-13 -8 -24.5 -16t-23 -17t-23 -20t-23.5 -26q41 -11 61 -39t14 -66q-4 -22 -15.5 -43t-30 -37t-40.5 -25t-48 -9q-33 0 -55.5 13t-35.5 33.5t-17 45.5z " />
<glyph unicode="&#x201d;" horiz-adv-x="645" d="M178.5 877q0.5 11 4.5 21t11.5 19t16.5 15q12 8 24.5 16t23.5 17.5t23 20.5q12 12 24 26q-42 11 -62 38.5t-14 65.5q4 22 15.5 43t30 37t40.5 26q22 9 48 9q33 0 55.5 -13.5t35.5 -33.5t17 -45t0 -49q-10 -60 -64 -124.5t-148 -121.5q-10 -6 -21 -8.5t-21 -1t-19 7 t-15 14.5q-6 10 -5.5 21zM455.5 877q0.5 11 4.5 21t11 19t17 15l24 16t23.5 17.5t22.5 20.5q12 12 24 26q-42 11 -62 38.5t-14 65.5q4 22 16 43t30 37t41 25.5t48 9.5q33 0 55 -13.5t35 -33.5t17 -45t0 -49q-10 -60 -63.5 -124.5t-147.5 -121.5q-10 -6 -21.5 -8.5t-21.5 -1 t-19 7t-14 14.5q-6 10 -5.5 21z" />
<glyph unicode="&#x2022;" horiz-adv-x="737" d="M87 318q-5 44 2 92q8 48 27 91.5t47.5 82t64.5 69.5t78 53.5t88 35t94 12.5t90 -12.5t76 -35t61 -53.5t43 -69.5t21.5 -82t-2.5 -91.5t-27 -92t-47.5 -82t-64.5 -70t-78 -54t-88 -34t-94 -12t-89.5 12t-76 34t-61.5 54t-43 70t-21 82z" />
<glyph unicode="&#x202f;" horiz-adv-x="365" />
<glyph unicode="&#x205f;" horiz-adv-x="456" />
<glyph unicode="&#x20ac;" horiz-adv-x="1138" d="M86 404q3 19 12.5 35.5t24.5 29t33 20t36 7.5h19l7 42q2 14 4 27t6 27h-20q-19 0 -34.5 7t-26.5 20t-15 29.5t-2 35.5q3 19 13 35.5t24.5 29.5t32.5 20t37 7h72q28 45 63.5 83.5t75.5 74.5q46 38 97 68t106 51t112 33t115 12q86 0 163 -26t149 -83q14 -12 22 -27.5 t9.5 -33.5t-5 -36.5t-20.5 -35.5t-31 -27.5t-36 -14.5t-37 0t-34 16q-20 18 -46.5 31.5t-56 23t-58.5 15t-53 5.5q-37 0 -73.5 -7.5t-72 -22.5t-68 -35t-62.5 -46l-20 -18h193q19 0 35 -7t26 -20t15 -29.5t1 -35.5q-3 -19 -12.5 -35.5t-24 -29.5t-32.5 -20t-37 -7h-280 q-4 -14 -8 -29t-6 -31l-6 -36h284q19 0 35 -7.5t26.5 -20t15 -29.5t1.5 -35q-3 -19 -12.5 -36t-24.5 -29.5t-33 -19.5t-36 -7h-201q59 -71 123 -104.5t138 -33.5q27 0 54 4t55.5 13t60.5 23t69 36q20 12 39.5 15t36.5 0t31 -14t22 -28q9 -17 9.5 -35.5t-6.5 -36t-20 -33.5 t-31 -28q-45 -28 -87.5 -48t-85 -33t-86 -19t-89.5 -6q-85 0 -160 24t-135.5 68t-104.5 104q-42 60 -66 132h-70q-19 0 -35 7t-26.5 19.5t-15 29t-1.5 36.5z" />
<glyph unicode="&#x2122;" horiz-adv-x="1229" d="M212 1028q2 11 8 20.5t14.5 17t19 12t20.5 4.5h308q9 0 18.5 -4.5t15.5 -12t10 -17.5q4 -9 2 -20q-2 -12 -9 -22t-15.5 -17.5t-19 -11.5t-18.5 -4h-98l-78 -487q-2 -11 -8 -21.5t-14.5 -18.5t-19.5 -13q-10 -5 -22 -5q-13 0 -23.5 5t-16.5 13t-8 18t-1 22l77 487h-98 q-10 0 -19 4t-15 11.5t-9 17.5t-1 22zM505 478q-1 10 3 22l204 546q6 16 20 27t32 11q15 0 25.5 -8t13.5 -22l105 -406l234 406q7 13 20.5 21.5t28.5 8.5q18 0 28.5 -11t11.5 -27l27 -546q0 -12 -4 -23t-11 -20t-17 -16t-22 -9t-23 0.5t-19.5 9t-13.5 15.5q-6 9 -6 20 q-3 68 -6.5 141.5t-6.5 141.5l-1 60l-32 -59l-186 -323h-70l-84 328l-12 58l-20 -60l-106 -287q-4 -12 -12 -20.5t-18.5 -15t-22 -9t-23.5 -0.5q-11 2 -19 9t-12.5 16t-5.5 21z" />
<glyph unicode="&#x25cc;" horiz-adv-x="1372" d="M427 588l99 45q-4 -12 -7 -24.5t-5 -24.5q-2 -10 -2 -21.5v-22.5zM485 336l50 96q11 -20 24 -36t29 -30zM579 838l87 -33q-22 -12 -40.5 -27.5t-35.5 -33.5zM694 320q10 -2 22 -3t22 -1q11 0 20.5 1t19.5 3l-56 -86zM772 846l62 92l31 -90q-10 2 -20.5 2h-22.5t-24.5 -1 t-25.5 -3zM898 362q20 12 37 26.5t33 31.5l10 -84zM966 805l106 33l-50 -96q-10 18 -24 33.5t-32 29.5zM1038 545q3 9 6 19l4 20q2 11 3 22.5t1 21.5l78 -44z" />
<glyph unicode="&#x25fc;" horiz-adv-x="760" d="M0 0v760h760v-760h-760z" />
<glyph unicode="&#xf700;" horiz-adv-x="874" d="M134 594.5q0 19.5 9 38.5q11 26 24 50.5t30 49.5t40 50t52 49q62 50 133.5 76t147.5 26q20 0 40.5 -1.5t41 -6t42.5 -11.5t46 -20l84 78q16 16 35.5 24t38.5 8.5t36.5 -5.5t29.5 -19q14 -14 19 -32t3 -37.5t-11 -37.5t-25 -32l-79 -74q26 -41 34.5 -92.5t-0.5 -105.5 q-6 -34 -17 -65q-12 -31 -28 -61l-214 -388q-16 -28 -44 -46t-61 -18q-32 0 -52.5 17.5t-26.5 43.5l-86 401q-4 18 0.5 37.5t15 36t26.5 29.5t36 21q20 7 38.5 5.5t34.5 -8.5t27.5 -21t15.5 -34l34 -162l80 148q9 17 14.5 32.5t7.5 31.5q6 36 -4 68t-32.5 56.5t-56 39 t-73.5 14.5q-34 0 -61 -9t-48 -23t-38 -32t-30 -36t-22 -36l-16 -32q-9 -19 -24 -34.5t-33 -24.5t-38 -12t-38 3t-31.5 18t-20 28.5t-6.5 36z" />
<glyph unicode="&#xf701;" d="M-814 1128q3 18 12 34.5t22.5 28.5t30.5 18.5t35 6.5h479q18 0 32.5 -6.5t24 -18.5t14.5 -28q4 -17 1 -35t-12 -33t-23 -27t-30 -19t-34 -7h-480q-18 0 -32.5 7t-24 19t-14.5 28q-5 14 -1 32z" />
<glyph unicode="&#xf702;" d="M-814 1128q3 18 12 34.5t22.5 28.5t30.5 18.5t35 6.5h378l6 40q3 18 12.5 34t23.5 28t31 19t35 7t33.5 -7t25.5 -19t14.5 -28t0.5 -34l-20 -128q-3 -18 -12 -33t-22.5 -27t-30.5 -19t-34 -7h-469q-18 0 -32.5 7t-24 19t-14.5 28q-5 14 -1 32z" />
<glyph unicode="&#xf703;" d="M-814 1128q3 18 12 34.5t22.5 28.5t30.5 18.5t35 6.5h270q10 27 27 49.5t38.5 39t47 26t52.5 9.5q30 0 55.5 -12t43 -32t25 -47t2.5 -57q-5 -31 -21 -58t-39 -47.5t-52 -32.5t-59 -12h-418q-18 0 -32.5 7t-24 19t-14.5 28q-5 14 -1 32zM-352 1190q-2 -10 1 -19t8.5 -16 t14 -11t18.5 -4t19 4t17 11t13 16t7 19t-1 19t-8 15.5t-13.5 10.5t-18.5 4t-19.5 -4t-17.5 -10.5t-13 -15.5t-7 -19z" />
<glyph unicode="&#xf704;" d="M-814 1128q3 18 12 34.5t22.5 28.5t30.5 18.5t35 6.5h141l7 42q2 17 11 31.5t22 25.5t29 18t32 7q17 0 31.5 -7t24 -18t14 -26t2.5 -31l-7 -42h82l6 40q3 18 12 33t22.5 26t30 18t32.5 7q17 0 31 -7t23.5 -18t13.5 -27q4 -14 0 -32l-20 -128q-3 -18 -12 -33t-22.5 -27 t-30.5 -19t-34 -7h-469q-18 0 -32.5 7t-24 19t-14.5 28q-5 14 -1 32z" />
<glyph unicode="&#xf705;" d="M-406 1120l33 209q3 18 14 34.5t26.5 28.5t34 18.5t35.5 6.5q18 0 33.5 -6.5t27.5 -18.5t17 -28t3 -35l-34 -209q-3 -18 -13.5 -34t-25.5 -28t-33 -19t-36 -7t-34 7t-27.5 19t-17.5 28t-3 34z" />
<glyph unicode="&#xf706;" d="M-681 1282q0 12 5 24t14 22q10 12 22 20t36 16t60 8q33 0 61 -11t47.5 -31t28.5 -49t4 -65q-1 -8 -2 -13t-3 -9l18 2h180q14 0 26 -7t20 -18t12 -26t2 -29t-10 -28t-20 -24t-26 -16t-28 -6h-422q23 38 48 74q25 38 44 66q8 12 12 22.5t3 19t-7.5 13t-18.5 4.5q-3 0 -6 -1 t-7 -3q-12 -8 -25.5 -10t-25 1t-21 10.5t-15.5 19.5t-6 24z" />
<glyph unicode="&#xf707;" d="M-772.5 1143.5q-3.5 20.5 0.5 44.5q6 39 26 71.5t49 55.5t65 36q34 13 72 13q23 0 46.5 -10t43.5 -28q26 18 53 28t52 10q36 0 65.5 -12t50.5 -34t31 -52.5t6 -67.5h9q16 0 29.5 -6t22 -16.5t12 -25t1.5 -30.5t-10.5 -30t-20.5 -25t-27.5 -17t-31.5 -6h-248 q10 13 24 29.5t28 34.5t27 36t20 32t5.5 25t-8 17t-16 6.5t-19 -4.5t-16.5 -16.5t-7 -29.5h-109q5 15 3 25.5t-8 17.5t-14.5 9t-17 -1t-15.5 -10.5t-9 -20.5q-1 -7 0 -12.5t2.5 -9.5t3.5 -6t2 -3q9 -10 12.5 -23.5t2 -27t-8 -27t-18.5 -24.5q-12 -10 -25.5 -15.5t-27 -6.5 t-27 3.5t-23.5 13.5q-13 10 -25 23t-20.5 29.5t-12 37z" />
<glyph unicode="&#xf708;" d="M-588 1252q3 18 12.5 33t22.5 27t30 19t35 7h55l7 44q3 19 13 36t24.5 29.5t32.5 19.5t37 7t35 -7t26 -19.5t14.5 -29t1.5 -36.5l-7 -44h57q18 0 33 -7t24.5 -19t14.5 -28q4 -14 1 -32t-12 -33.5t-23 -27t-30 -17.5t-34 -6h-58l-6 -44q-3 -20 -13.5 -36t-24.5 -29 t-32 -20t-38 -7q-19 0 -34.5 7t-26 20t-15.5 29q-4 16 0 36l6 44h-56q-18 0 -32 6t-24 17.5t-14.5 27t-1.5 33.5z" />
<glyph unicode="&#xf709;" d="M-539 1129.5q-3 20.5 0 42.5q6 36 23.5 65t43.5 49.5t59 31.5t69 11h149q16 0 29 -5.5t22.5 -15.5t13.5 -24q4 -12 2 -28t-11 -29t-21 -23t-27 -15t-31 -5h-131q-10 0 -18 -4t-11 -10t-1 -15q3 -9 11 -19l16 -20q11 -12 15 -26t1 -28t-12 -28q-8 -12 -20 -24 q-13 -12 -29.5 -17t-32 -5t-29.5 6t-22 16q-16 18 -28 38t-19.5 40.5t-10.5 41z" />
<glyph unicode="&#xf70a;" d="M-93 1120l33 209q3 18 14 34.5t26.5 28.5t33.5 18.5t36 6.5t34 -6.5t27 -18.5t16.5 -28t2.5 -35l-33 -209q-3 -18 -13.5 -34t-25.5 -28t-33 -19q-17 -7 -35 -7t-34 7t-28 19t-18 28t-3 34z" />
<glyph unicode="&#xf70b;" d="M-420.5 1282q0.5 12 5 24t13.5 22q10 12 22 20t36 16t60 8q33 0 61.5 -11t47.5 -31t28 -49t4 -65q-1 -8 -2 -13t-3 -9l18 2h180q14 0 26 -7t20 -18t11.5 -26t1.5 -29t-10 -28t-19.5 -24t-25.5 -16t-28 -6h-426q26 38 52 74q25 38 44 66q8 12 12 22.5t3 19t-7 13t-19 4.5 q-3 0 -6 -1t-7 -3q-12 -8 -25.5 -10t-25 1t-21 10.5t-15.5 19.5t-5.5 24z" />
<glyph unicode="&#xf70c;" d="M-537 1144q-3 20 1 44q6 39 26 71.5t48.5 55.5t64 36t73.5 13q23 0 46.5 -8t43.5 -27q26 18 53 26.5t51 8.5q36 0 67 -12t52 -34t31 -52.5t4 -67.5l-2 -10h98q16 0 29.5 -5.5t22.5 -15t12.5 -23.5t1.5 -30t-10 -29t-20 -23t-27 -15t-31 -5h-338q10 13 24 29.5t28 34.5 t26 36t20 32q4 9 5 17.5t-1 15.5t-8 11t-14 4q-6 0 -13 -2t-13 -8t-10.5 -16t-6.5 -24h-109q6 52 -30 52q-12 0 -22 -7.5t-13 -24.5q-1 -7 0 -12.5t3 -9.5t4 -6.5t2 -3.5q9 -10 13.5 -23t3.5 -27t-7.5 -27t-18.5 -24q-12 -10 -25 -15.5t-26.5 -6t-27 3.5t-24.5 13 q-13 10 -24.5 23.5t-20.5 30t-12 36.5z" />
<glyph unicode="&#xf70d;" d="M-205 1252q3 18 12 33t23 27t30 19t34 7h56l7 44q3 19 13 36t24 29.5t32 19.5t38 7q19 0 34.5 -7t26 -19.5t15 -29t0.5 -36.5l-6 -44h57q18 0 32.5 -7t24.5 -19t14 -28q4 -14 2 -32q-3 -18 -12.5 -33.5t-23 -27t-30 -17.5t-34.5 -6h-58l-6 -44q-3 -20 -13 -36t-24.5 -29 t-32.5 -20t-36 -7q-19 0 -35 7t-26.5 20t-14.5 29t-2 36l7 44h-55q-18 0 -33 6t-24.5 17.5t-14 27t-1.5 33.5z" />
<glyph unicode="&#xf70e;" d="M-232 1146q-4 21 0 42q6 36 24 65t44 50t59 32t69 11h148q16 0 29 -6t22 -16t13 -23t2 -29t-10.5 -29t-21 -22.5t-26.5 -14.5q-14 -6 -30 -6h-131q-10 0 -18 -3.5t-11 -10t-1 -14.5q3 -9 11 -19l16 -21q9 -10 12.5 -24t1.5 -28t-10 -28t-20 -26q-14 -12 -30 -17t-32 -4.5 t-29.5 6t-21.5 15.5q-16 18 -28.5 38t-20 40.5t-10.5 41.5z" />
<glyph unicode="&#xf70f;" horiz-adv-x="1551" d="M136 99l74 468l-42 55q-12 15 -13 32t4 32.5t13 28.5t16 21q40 44 89 81t103 63t112.5 41t117.5 15q66 0 124 -14t106 -39t83.5 -61.5t58 -82t29.5 -98t-2 -111.5l-31 -198q-6 -33 3 -62.5t28.5 -51.5t49.5 -35q29 -13 67 -13t72 12t60.5 34t44.5 52q17 30 23 64l80 500 q3 21 13.5 39t26 31.5t35 21.5t41.5 8q21 0 37.5 -8t27.5 -21.5t15.5 -32t1.5 -38.5l-79 -500q-8 -48 -28 -92.5t-50.5 -83t-69.5 -70t-84 -54t-95 -34.5q-48 -12 -100 -12t-98.5 12t-84.5 34.5t-67.5 54t-47.5 70t-24 83t2 92.5l30 194q8 49 -4 90.5t-42 70.5t-76 46 t-104 17q-54 0 -108 -21t-96 -57l42 -50l-70 -438h60q19 0 34.5 -7t26.5 -19.5t15 -29t2 -36.5q-3 -19 -13.5 -35.5t-24.5 -29.5t-32 -20t-37 -7h-161q-20 0 -37 8t-28 21t-16 31t-3 39z" />
<glyph unicode="&#xf710;" d="M-434 1146q-6 32 0 68l7 44q3 18 12 33t23 27t30 19t34 7t33 -7t24.5 -19t14.5 -28q4 -14 1 -32q-4 -21 -0.5 -30.5t21.5 -9.5h382q18 0 32 -6.5t24 -18.5t14 -28q5 -17 2 -35t-12.5 -34t-22.5 -27t-30 -18t-35 -7h-414q-40 0 -69 13t-47 35.5t-24 53.5z" />
<glyph unicode="&#xf711;" d="M-522 1212q6 38 25 71t48 58t65 39q34 14 72 14t69 -14t52 -39t30 -58t3 -71t-25.5 -71t-48 -57.5t-64.5 -39t-73 -14.5q-38 0 -68.5 14.5t-51.5 39t-30 58.5q-9 32 -3 70zM-394 1210q-4 -24 9 -38.5t36 -14.5q12 0 22.5 4t18.5 11t13.5 16.5t7.5 21.5t-0.5 22t-8.5 17.5 t-15 12t-21 4.5t-22 -4.5t-18 -12t-14 -17.5t-8 -22z" />
<glyph unicode="&#xf712;" d="M-798 1178q-8 42 0 94t29.5 95.5t54 76t74.5 50.5t92 18h410q16 0 30 -6t23 -16.5t13 -25.5q2 -14 0 -30q-3 -16 -11 -31t-20.5 -26t-27.5 -17t-32 -6h-411q-12 0 -22 -7t-18 -19t-13.5 -27t-7.5 -29q-2 -15 -1 -28.5t5.5 -23.5t12.5 -16t20 -6q18 0 28 7.5t17 23.5 q12 28 36 41.5t52 13.5q14 0 25.5 -3t21 -9.5t15 -17t6.5 -24.5q2 -34 37 -34q13 0 25.5 9t18.5 26q7 16 19.5 28.5t26.5 19.5t30 9t30 -2q15 -4 25.5 -14t15.5 -23t5 -28t-5 -31q-12 -32 -34.5 -59t-51 -47t-61.5 -31t-66 -11q-36 0 -62 11t-50 33q-31 -22 -63 -33t-66 -11 q-46 0 -82.5 16.5t-59.5 46.5t-33 73z" />
<glyph unicode="&#xf713;" d="M-288 1518l23 143q3 18 12.5 34.5t23.5 28.5t31.5 18.5t34.5 6.5q18 0 32.5 -6.5t24.5 -18.5t14 -28t1 -35l-23 -143q-3 -18 -12.5 -34.5t-22.5 -28.5t-30 -18.5t-35 -6.5t-33 6.5t-25 18.5t-14 28q-5 17 -2 35z" />
<glyph unicode="&#xf714;" d="M-394 1668.5q0 12.5 5 24t14 22.5t21 19t36 16q24 9 60 9q33 0 61.5 -10.5t48.5 -30.5t29 -49t3 -65q-1 -8 -2.5 -13t-3.5 -10l18 2h215q14 0 26.5 -5.5t20.5 -15.5t12 -23t2 -27t-10 -28t-20 -23.5t-26 -15t-28 -5.5h-456q11 14 23 31t23.5 34t23.5 33q10 17 20 31 q8 12 12 22.5t3.5 19t-6.5 13.5q-7 5 -19 5q-3 0 -6.5 -1.5t-7.5 -3.5q-13 -8 -25.5 -10t-24.5 1t-21 11q-9 6 -15 18t-6 24.5z" />
<glyph unicode="&#xf715;" d="M-444 1577q6 37 24.5 68t46 53t61.5 34q32 13 68 13q23 0 48.5 -10.5t43.5 -32.5q12 10 25 18t27 14t28 8.5t25 2.5q33 0 61 -11.5t48 -33.5t29 -53t5 -70l17 2h75q14 0 26 -5.5t20 -14.5t11.5 -22t1.5 -27t-9.5 -27t-18.5 -23t-25 -15t-28 -5h-313q24 27 47.5 56.5 t41.5 63.5q6 12 6 22t-4 17t-11.5 10.5t-15.5 3.5t-15.5 -3.5t-14.5 -9.5t-11 -17t-5 -25h-95q4 14 3.5 25t-4.5 18.5t-11 10.5q-8 4 -16 4q-12 0 -24 -9t-17 -28q-2 -8 1.5 -16.5t7.5 -12.5q8 -9 11 -22t1 -26.5t-8 -26.5t-16 -21q-12 -12 -25 -17t-25 -5t-24 4t-21 12 q-32 24 -45.5 58t-7.5 71z" />
<glyph unicode="&#xf716;" d="M-394 1628q2 17 11 31.5t21 24.5t27.5 16t31.5 6h45l5 33q3 18 12.5 34.5t23 28.5t30.5 18.5t36 6.5q18 0 33.5 -6.5t25.5 -18.5t14 -28t1 -35l-5 -33h46q16 0 29 -6t21.5 -16t12 -24.5t1.5 -31.5t-10.5 -31.5t-20.5 -24.5t-27 -16t-31 -6h-45l-6 -30q-3 -18 -12 -34.5 t-22.5 -28.5t-31.5 -19q-18 -6 -36 -6t-33 6.5t-25 18.5t-14 28q-4 17 -2 35l6 30h-46q-16 0 -29 6t-22 16t-13 24.5t-2 31.5z" />
<glyph unicode="&#xf717;" d="M-402 1493q6 38 23 67.5t43 50.5t59 32.5t71 11.5h128q17 0 31 -6.5t23.5 -17.5t13.5 -26t2 -32t-11.5 -32t-22 -26t-28.5 -17.5t-34 -6.5h-116q-7 0 -12.5 -2.5t-8.5 -5.5t-2 -8t6 -11l16 -16q10 -12 14 -27.5t1.5 -31t-10.5 -30.5t-22 -28q-14 -12 -29 -17.5t-31 -5.5 t-30 5.5t-24 17.5q-32 38 -45 77.5t-5 84.5z" />
<glyph unicode="&#xf718;" d="M-481 -504q3 20 13 37t25 30t33 20t38 7h136q19 0 34.5 -7t26.5 -19.5t16 -29t1 -36.5l-32 -206q-3 -20 -13 -37t-24.5 -30t-32.5 -20.5t-37 -7.5t-35 7.5t-27 20.5t-15.5 30t-1.5 37l18 110h-44q-20 0 -35 7.5t-26 20t-16 30t-2 36.5z" />
<glyph unicode="&#xf719;" d="M-741 -502q3 20 13 36.5t25 29t33.5 19.5t37.5 7h126q19 0 34.5 -7t26.5 -19.5t16 -29t1 -36.5l-18 -122q-3 -18 8 -29t28 -11t32 10q14 12 18 30l20 132q3 19 13 36t24.5 29.5t32.5 19.5t37 7t35 -7t26 -19.5t15 -29t1 -36.5l-20 -128q-8 -46 -32 -84.5t-60 -66 t-80.5 -42.5t-90.5 -15t-84.5 12t-65 34.5t-39 54t-6.5 69.5l10 62h-38q-19 0 -34.5 7.5t-26.5 20t-16 30t-2 36.5z" />
<glyph unicode="&#xf71a;" d="M-375 -518q4 24 16.5 46t31.5 38t41.5 25t46.5 9t44.5 -9t33.5 -25t19 -38t2 -46l1 2q-4 -24 -16.5 -46t-31.5 -38t-41 -25.5t-46 -9.5t-45 9.5t-34 25.5t-19.5 37t-2.5 45z" />
<glyph unicode="&#xf71d;" horiz-adv-x="1116" d="M119 260l91 572q3 21 13.5 39t25.5 31.5t35 21.5t40 8q21 0 37.5 -8t28 -21.5t16.5 -32t2 -38.5l-90 -572q-3 -18 1 -33t14.5 -26.5t26.5 -18t36 -6.5t37 6.5t31 18t23.5 26.5t12.5 33l42 262q3 21 13.5 39.5t25.5 31.5t35 21t40 8q21 0 37.5 -8t28 -21t16.5 -31.5 t2 -39.5l-42 -262q-3 -18 1.5 -33t14.5 -26.5t26 -18t37 -6.5q20 0 37.5 6.5t31.5 18t24 26.5t12 33l63 394q4 24 1.5 39t-9.5 23t-18 11.5t-25 3.5h-48q-18 0 -32 6.5t-23 17.5t-13.5 27t-1.5 33q3 18 12 33.5t22 27.5t29.5 18.5t34.5 6.5h57q10 0 20.5 -0.5t18.5 1t14 5.5 q6 5 8 13q3 20 12.5 37t24.5 30.5t34 21t39 7.5t37 -8t28 -21t16 -29t1 -34q-6 -38 -24 -72q-17 -36 -44 -60q20 -26 26 -63t0 -77l-62 -392q-6 -38 -22 -73t-40 -65t-54.5 -54.5t-65 -42t-72.5 -26.5t-78 -9q-110 0 -180 68q-92 -68 -202 -68q-60 0 -109 20.5t-83 57 t-49 85.5t-6 107z" />
<glyph unicode="&#xf881;" horiz-adv-x="1526" d="M142 99l73 458l-37 47q-15 18 -16.5 39t4 39.5t15.5 34t19 24.5q44 46 92.5 82.5t100.5 61.5t106.5 38t111.5 13q44 0 86.5 -7t81.5 -21t73 -35t62 -49q47 32 86.5 53t75.5 33.5t72 18t79 5.5q63 0 113 -13t87 -36t62 -55t39 -70t17 -81t-4 -89l-135 -854 q-4 -21 -14.5 -39t-26 -31.5t-35 -20.5t-40.5 -7q-20 0 -37 7t-28 20.5t-16 31.5t-1 39l132 840q28 178 -144 178q-44 0 -93 -19t-104 -65q7 -32 7 -68q0 -38 -6 -76l-124 -786q-3 -20 -14 -38t-26.5 -32t-35.5 -22t-40 -8t-37 8t-27.5 22t-15 32t-0.5 38l124 786 q8 49 -4 90.5t-41 71.5t-74 47t-103 17q-26 0 -52 -6t-52 -16t-50 -24t-45 -32l41 -52l-70 -438h50q19 0 34.5 -7t26.5 -19.5t15 -29t2 -36.5q-3 -19 -13.5 -35.5t-24.5 -29.5t-32 -20t-37 -7h-149q-20 0 -37 8t-28 21t-16 31t-3 39z" />
<glyph unicode="&#xf882;" horiz-adv-x="1538" d="M54 92q3 20 12.5 36.5t24 29t32.5 19.5t37 7h10l61 384l-42 55q-12 15 -13 32t3.5 32.5t12.5 28.5t16 21q40 44 88 80.5t101 62.5t110 41t117 15q89 0 162.5 -25t137.5 -81q38 27 74 46.5t73 32.5t76 19t80 6q63 0 113 -13t87 -36t62 -55t39 -70t17 -81t-4 -89l-135 -854 q-4 -21 -14.5 -39t-26 -31.5t-35 -20.5t-40.5 -7q-20 0 -37 7t-28 20.5t-16 31.5t-1 39l132 840q28 178 -144 178q-22 0 -42 -3t-42 -12t-47 -24t-55 -39q8 -36 10 -73t-5 -77l-125 -786q-3 -20 -13.5 -38t-26.5 -32t-35.5 -22t-40.5 -8q-20 0 -36 8t-27 22t-16 32t-1 38 l124 786q8 49 -4 90.5t-41 71.5t-74 47t-103 17q-51 0 -102.5 -21t-95.5 -57l40 -52l-82 -523q-3 -20 -14 -38.5t-26.5 -31.5t-34.5 -21t-40 -8h-110q-19 0 -35 7t-26 20t-15 29.5t-1 35.5z" />
<glyph d="M-404 1130q10 64 58 111q-17 24 -22 52q-6 29 -1 61q6 36 24.5 67t45 54t60 36t69.5 13q37 0 64 -12q26 -14 46 -34q8 -8 12 -19t2.5 -23t-7 -24t-15.5 -22t-22 -14.5t-23 -5t-21.5 3.5t-18.5 12q-10 8 -17.5 12.5t-18.5 4.5q-24 0 -40 -15q-15 -14 -19 -34 q-2 -9 0.5 -20t11 -20.5t24.5 -15.5t42 -6l-16 -100q-26 0 -43.5 -6t-29 -15t-17.5 -20t-8 -21q-3 -18 10 -32q14 -12 44 -14q13 -1 22.5 -7.5t15.5 -15.5t7 -21.5t-2 -25.5q-4 -13 -11.5 -23.5t-18.5 -17.5t-23 -11q-14 -4 -26 -2q-33 6 -60.5 20t-46.5 35t-28 50t-3 65z " />
<glyph horiz-adv-x="760" d="M-522 1212q6 38 25 71t48 58t65 39q34 14 72 14t69 -14t52 -39t30 -58t3 -71t-25.5 -71t-48 -57.5t-64.5 -39t-73 -14.5q-38 0 -68.5 14.5t-51.5 39t-30 58.5q-9 32 -3 70zM-394 1210q-4 -24 9 -38.5t36 -14.5q12 0 22.5 4t18.5 11t13.5 16.5t7.5 21.5t-0.5 22t-8.5 17.5 t-15 12t-21 4.5t-22 -4.5t-18 -12t-14 -17.5t-8 -22zM133 738q3 -20 13 -34t26 -21t34 -8t37 5t35 18q36 26 73 41t79 15q172 0 144 -178l-77 -488q-3 -20 2 -38t16 -31.5t27 -20.5q18 -8 38 -8q21 0 40.5 7.5t35 21t26 31.5t14.5 38l79 502q7 46 4 89t-17 81t-39 70t-62 55 t-87 36t-113 13q-42 0 -79.5 -5.5t-72.5 -17t-68 -29.5t-67 -44q-16 -12 -26.5 -29t-14 -35t-0.5 -36z" />
<glyph horiz-adv-x="760" d="M-522 1212q6 38 25 71t48 58t65 39q34 14 72 14t69 -14t52 -39t30 -58t3 -71t-25.5 -71t-48 -57.5t-64.5 -39t-73 -14.5q-38 0 -68.5 14.5t-51.5 39t-30 58.5q-9 32 -3 70zM-394 1210q-4 -24 9 -38.5t36 -14.5q12 0 22.5 4t18.5 11t13.5 16.5t7.5 21.5t-0.5 22t-8.5 17.5 t-15 12t-21 4.5t-22 -4.5t-18 -12t-14 -17.5t-8 -22zM133 738q3 -20 13 -34t26 -21t34 -8t37 5t35 18q36 26 73 41t79 15q172 0 144 -178l-77 -488q-3 -20 2 -38t16 -31.5t27 -20.5q18 -8 38 -8q21 0 40.5 7.5t35 21t26 31.5t14.5 38l79 502q7 46 4 89t-17 81t-39 70t-62 55 t-87 36t-113 13q-42 0 -79.5 -5.5t-72.5 -17t-68 -29.5t-67 -44q-16 -12 -26.5 -29t-14 -35t-0.5 -36z" />
<glyph d="M-662 1130q3 18 12 34.5t22.5 28.5t30.5 18.5t35 6.5h601q18 0 32.5 -6.5t24.5 -18.5t14 -28q4 -17 2 -35q-3 -18 -12.5 -33t-23.5 -27t-30 -19t-34 -7h-602q-18 0 -32.5 7t-24 19t-13.5 28q-5 14 -2 32z" />
<glyph d="M-662 1130q3 18 12 34.5t22.5 28.5t30.5 18.5t35 6.5h503l7 46q3 18 12.5 34t23.5 28t31 19t35 7t32.5 -7t24 -19t14 -28t1.5 -34l-21 -134q-3 -18 -12 -33t-23 -27t-31 -19t-34 -7h-591q-18 0 -32.5 7t-24 19t-13.5 28q-5 14 -2 32z" />
<glyph d="M-662 1130q3 18 12 34.5t22.5 28.5t30.5 18.5t35 6.5h396q10 27 27 49.5t39 39t47 26t53 9.5q30 0 55 -12t42.5 -32t25 -47t3.5 -57q-5 -31 -21.5 -58t-39.5 -47.5t-52 -32.5t-59 -12h-544q-18 0 -32.5 7t-24 19t-13.5 28q-5 14 -2 32zM-73 1192q-2 -10 0.5 -19 t8.5 -15.5t14 -10.5t18 -4t20 4t17 10.5t12 15.5t7 19t-0.5 19t-8 15.5t-13.5 10.5t-18 4t-19.5 -4t-17.5 -10.5t-13.5 -15.5t-6.5 -19z" />
<glyph d="M-662 1130q3 18 12 34.5t22.5 28.5t30.5 18.5t35 6.5h266l8 52q2 17 11.5 31.5t22.5 25.5t29 18t32 7q17 0 31 -7t23 -18t13 -25.5t2 -31.5l-8 -52h82l8 50q3 18 11.5 33t22 26t30 18t32.5 7q17 0 31 -7t23.5 -18t13.5 -26t0 -33l-21 -138q-3 -18 -12 -33t-23 -27 t-31 -19t-34 -7h-591q-18 0 -32.5 7t-24 19t-13.5 28q-5 14 -2 32z" />
<glyph d="M-610 -184q3 20 13 36.5t25 29.5t33.5 20.5t36.5 7.5h136q19 0 35 -7.5t26.5 -20.5t15.5 -30q5 -16 2 -36l-33 -205q-3 -20 -12.5 -36.5t-24.5 -29.5t-33 -21t-36 -8q-20 0 -36 8t-27 21t-15.5 30t-1.5 36l18 111h-44q-19 0 -34.5 7t-26.5 20t-16 30t-1 37z" />
<glyph d="M-752 -184q3 20 13.5 36t25 29t33 20t37.5 7h125q19 0 35 -7.5t26.5 -20.5t15.5 -30q5 -16 2 -36l-19 -121q-3 -19 8.5 -29t28.5 -10t31.5 10t17.5 29l21 133q3 19 13 35.5t24.5 29.5t32.5 20t37 7q20 0 35 -7t26 -20t15 -29.5t1 -35.5l-20 -129q-8 -46 -30.5 -84.5 t-56.5 -65.5t-76.5 -42t-88.5 -15q-45 0 -83.5 12t-66 34.5t-43.5 53.5q-16 32 -14 70l10 62h-36q-20 0 -36 7t-27 20t-15.5 30t-1.5 37z" />
<glyph d="M-358 1518l23 143q3 18 12.5 34.5t23.5 28.5t31.5 18.5t34.5 6.5q18 0 32.5 -6.5t24.5 -18.5t14 -28t1 -35l-23 -143q-3 -18 -12.5 -34.5t-22.5 -28.5t-30 -18.5t-35 -6.5t-33 6.5t-25 18.5t-14 28q-5 17 -2 35z" />
<glyph d="M-464 1628q2 17 11 31.5t21 24.5t27.5 16t31.5 6h45l5 33q3 18 12.5 34.5t23 28.5t30.5 18.5t36 6.5q18 0 33.5 -6.5t25.5 -18.5t14 -28t1 -35l-5 -33h46q16 0 29 -6t22 -16t13 -24q2 -15 0 -32t-10 -31.5t-20.5 -24.5t-27.5 -16t-31 -6h-45l-6 -30q-3 -18 -12 -34.5 t-22.5 -28.5t-31.5 -19q-18 -6 -36 -6t-33 6.5t-25 18.5t-14 28q-4 17 -2 35l6 30h-46q-16 0 -29 6t-22 16t-13 24.5t-2 31.5z" />
<glyph d="M-249.5 1668.5q0.5 12.5 5.5 24t14.5 22.5t21.5 19t36 16.5t60 8.5q33 0 61 -10.5t47.5 -30.5t28.5 -49t3 -65q-1 -8 -2 -13l-4 -10l20 2h247q14 0 26.5 -5.5t20.5 -15.5t12 -23t1 -27q-2 -14 -10 -28t-19.5 -23.5t-25.5 -15t-28 -5.5h-489q11 14 23 31l24 34t23 33.5 t21 30.5q8 12 11.5 22.5t2.5 18.5t-7.5 13t-18.5 5q-3 0 -5.5 -1t-6.5 -3q-13 -8 -26.5 -10t-24.5 1t-21 11q-10 6 -16 18t-5.5 24.5z" />
<glyph d="M-214 1577q6 37 25 68t46 53t61 34.5t70 12.5q22 0 46 -9.5t45 -29.5q26 20 53.5 29.5t51.5 9.5q33 0 61 -11.5t48 -33.5t29.5 -53t4.5 -70l17 2h76q14 0 26 -5.5t20 -14.5t11 -22t1 -27t-10 -27t-18.5 -23t-24 -15t-28.5 -5h-313q24 27 46 56.5t43 63.5q4 6 6 16t0.5 18 t-7.5 14q-8 6 -20 6q-20 0 -30 -12t-17 -44h-99q0 8 -0.5 17.5t-4 17.5t-9.5 13.5t-16 5.5q-16 0 -26 -8.5t-12 -24.5q-1 -8 1.5 -16.5t6.5 -12.5q8 -9 11 -21.5t1.5 -26.5t-7 -26.5t-16.5 -21.5q-25 -22 -50.5 -22t-44.5 16q-32 24 -46 58t-8 71z" />
</font>
</defs>
</svg>
